%TF.GenerationSoftware,KiCad,Pcbnew,7.0.2-6a45011f42~172~ubuntu22.04.1*%
%TF.CreationDate,2023-04-24T13:24:36-07:00*%
%TF.ProjectId,Hepta-Pi_1.1,48657074-612d-4506-995f-312e312e6b69,2.1*%
%TF.SameCoordinates,PX37cf1c0PY1ad88f0*%
%TF.FileFunction,Paste,Bot*%
%TF.FilePolarity,Positive*%
%FSLAX46Y46*%
G04 Gerber Fmt 4.6, Leading zero omitted, Abs format (unit mm)*
G04 Created by KiCad (PCBNEW 7.0.2-6a45011f42~172~ubuntu22.04.1) date 2023-04-24 13:24:36*
%MOMM*%
%LPD*%
G01*
G04 APERTURE LIST*
G04 Aperture macros list*
%AMRoundRect*
0 Rectangle with rounded corners*
0 $1 Rounding radius*
0 $2 $3 $4 $5 $6 $7 $8 $9 X,Y pos of 4 corners*
0 Add a 4 corners polygon primitive as box body*
4,1,4,$2,$3,$4,$5,$6,$7,$8,$9,$2,$3,0*
0 Add four circle primitives for the rounded corners*
1,1,$1+$1,$2,$3*
1,1,$1+$1,$4,$5*
1,1,$1+$1,$6,$7*
1,1,$1+$1,$8,$9*
0 Add four rect primitives between the rounded corners*
20,1,$1+$1,$2,$3,$4,$5,0*
20,1,$1+$1,$4,$5,$6,$7,0*
20,1,$1+$1,$6,$7,$8,$9,0*
20,1,$1+$1,$8,$9,$2,$3,0*%
G04 Aperture macros list end*
%ADD10RoundRect,0.250000X-0.325000X-0.650000X0.325000X-0.650000X0.325000X0.650000X-0.325000X0.650000X0*%
%ADD11RoundRect,0.225000X-0.250000X0.225000X-0.250000X-0.225000X0.250000X-0.225000X0.250000X0.225000X0*%
%ADD12RoundRect,0.237500X-0.237500X0.250000X-0.237500X-0.250000X0.237500X-0.250000X0.237500X0.250000X0*%
%ADD13RoundRect,0.250000X-0.450000X0.350000X-0.450000X-0.350000X0.450000X-0.350000X0.450000X0.350000X0*%
%ADD14RoundRect,0.250000X-0.350000X-0.450000X0.350000X-0.450000X0.350000X0.450000X-0.350000X0.450000X0*%
%ADD15R,0.340000X0.700000*%
%ADD16RoundRect,0.250000X0.350000X0.450000X-0.350000X0.450000X-0.350000X-0.450000X0.350000X-0.450000X0*%
%ADD17RoundRect,0.250000X0.325000X0.450000X-0.325000X0.450000X-0.325000X-0.450000X0.325000X-0.450000X0*%
%ADD18RoundRect,0.237500X0.250000X0.237500X-0.250000X0.237500X-0.250000X-0.237500X0.250000X-0.237500X0*%
%ADD19RoundRect,0.225000X0.250000X-0.225000X0.250000X0.225000X-0.250000X0.225000X-0.250000X-0.225000X0*%
%ADD20RoundRect,0.140000X-0.140000X-0.170000X0.140000X-0.170000X0.140000X0.170000X-0.140000X0.170000X0*%
%ADD21RoundRect,0.200000X0.200000X0.275000X-0.200000X0.275000X-0.200000X-0.275000X0.200000X-0.275000X0*%
%ADD22RoundRect,0.250000X0.475000X-0.250000X0.475000X0.250000X-0.475000X0.250000X-0.475000X-0.250000X0*%
%ADD23R,0.700000X1.100000*%
%ADD24R,0.900000X0.930000*%
%ADD25R,1.050000X0.780000*%
%ADD26R,0.700000X3.330000*%
%ADD27R,1.140000X1.830000*%
%ADD28R,0.860000X2.800000*%
%ADD29RoundRect,0.225000X0.225000X0.250000X-0.225000X0.250000X-0.225000X-0.250000X0.225000X-0.250000X0*%
%ADD30R,0.200000X0.700000*%
%ADD31R,5.100000X2.350000*%
%ADD32RoundRect,0.250000X0.295000X0.435000X-0.295000X0.435000X-0.295000X-0.435000X0.295000X-0.435000X0*%
%ADD33RoundRect,0.150000X0.737500X0.150000X-0.737500X0.150000X-0.737500X-0.150000X0.737500X-0.150000X0*%
%ADD34RoundRect,0.200000X-0.200000X-0.275000X0.200000X-0.275000X0.200000X0.275000X-0.200000X0.275000X0*%
%ADD35R,0.300000X1.550000*%
%ADD36R,1.200000X2.750000*%
%ADD37RoundRect,0.225000X-0.225000X-0.250000X0.225000X-0.250000X0.225000X0.250000X-0.225000X0.250000X0*%
%ADD38RoundRect,0.200000X-0.275000X0.200000X-0.275000X-0.200000X0.275000X-0.200000X0.275000X0.200000X0*%
G04 APERTURE END LIST*
D10*
%TO.C,C135*%
X99490000Y-29155000D03*
X102440000Y-29155000D03*
%TD*%
D11*
%TO.C,C155*%
X57470000Y-87445000D03*
X57470000Y-88995000D03*
%TD*%
D12*
%TO.C,R127*%
X61540000Y-100657500D03*
X61540000Y-102482500D03*
%TD*%
D13*
%TO.C,R108*%
X69830000Y-68050000D03*
X69830000Y-70050000D03*
%TD*%
D14*
%TO.C,R106*%
X90490000Y-44560000D03*
X92490000Y-44560000D03*
%TD*%
D15*
%TO.C,U34*%
X74645000Y-39050000D03*
X75145000Y-39050000D03*
X75645000Y-39050000D03*
X75645000Y-40550000D03*
X75145000Y-40550000D03*
X74645000Y-40550000D03*
%TD*%
D14*
%TO.C,R104*%
X90500000Y-42420000D03*
X92500000Y-42420000D03*
%TD*%
D16*
%TO.C,R97*%
X88680000Y-30730000D03*
X86680000Y-30730000D03*
%TD*%
%TO.C,R107*%
X59470000Y-46520000D03*
X57470000Y-46520000D03*
%TD*%
%TO.C,R98*%
X88670000Y-33650000D03*
X86670000Y-33650000D03*
%TD*%
D17*
%TO.C,D13*%
X8132499Y-83490000D03*
X6082499Y-83490000D03*
%TD*%
D18*
%TO.C,R116*%
X57597500Y-94550000D03*
X55772500Y-94550000D03*
%TD*%
D12*
%TO.C,R123*%
X68760000Y-100657500D03*
X68760000Y-102482500D03*
%TD*%
D19*
%TO.C,C150*%
X47370002Y-66310000D03*
X47370002Y-64760000D03*
%TD*%
D18*
%TO.C,R117*%
X59422500Y-96350000D03*
X57597500Y-96350000D03*
%TD*%
D19*
%TO.C,C139*%
X107210000Y-40485000D03*
X107210000Y-38935000D03*
%TD*%
D20*
%TO.C,C146*%
X24260000Y-63270000D03*
X25220000Y-63270000D03*
%TD*%
D19*
%TO.C,C148*%
X50810001Y-66320000D03*
X50810001Y-64770000D03*
%TD*%
D12*
%TO.C,R119*%
X75970000Y-100657500D03*
X75970000Y-102482500D03*
%TD*%
D21*
%TO.C,R111*%
X12035000Y-83560000D03*
X10385000Y-83560000D03*
%TD*%
D22*
%TO.C,C136*%
X105060000Y-32045000D03*
X105060000Y-30145000D03*
%TD*%
D10*
%TO.C,C137*%
X99490000Y-31645000D03*
X102440000Y-31645000D03*
%TD*%
D13*
%TO.C,R110*%
X83670000Y-68450000D03*
X83670000Y-70450000D03*
%TD*%
D12*
%TO.C,R132*%
X68760000Y-102477500D03*
X68760000Y-104302500D03*
%TD*%
D23*
%TO.C,J30*%
X102900000Y-147905000D03*
X104000000Y-147905000D03*
X105100000Y-147905000D03*
X106200000Y-147905000D03*
X107300000Y-147905000D03*
X108400000Y-147905000D03*
X109500000Y-147905000D03*
X110600000Y-147905000D03*
D24*
X101110000Y-135440000D03*
D25*
X105375000Y-135365000D03*
D26*
X98800000Y-136640000D03*
D27*
X99020000Y-147890000D03*
D28*
X111680000Y-147405000D03*
D26*
X111760000Y-136640000D03*
%TD*%
D29*
%TO.C,C145*%
X43435000Y-54730000D03*
X41885000Y-54730000D03*
%TD*%
D30*
%TO.C,ZZ14*%
X39790000Y-102460000D03*
X39790000Y-99380000D03*
X39390000Y-102460000D03*
X39390000Y-99380000D03*
X38990000Y-102460000D03*
X38990000Y-99380000D03*
X38590000Y-102460000D03*
X38590000Y-99380000D03*
X38190000Y-102460000D03*
X38190000Y-99380000D03*
X37790000Y-102460000D03*
X37790000Y-99380000D03*
X37390000Y-102460000D03*
X37390000Y-99380000D03*
X36990000Y-102460000D03*
X36990000Y-99380000D03*
X36590000Y-102460000D03*
X36590000Y-99380000D03*
X36190000Y-102460000D03*
X36190000Y-99380000D03*
X35790000Y-102460000D03*
X35790000Y-99380000D03*
X35390000Y-102460000D03*
X35390000Y-99380000D03*
X34990000Y-102460000D03*
X34990000Y-99380000D03*
X34590000Y-102460000D03*
X34590000Y-99380000D03*
X34190000Y-102460000D03*
X34190000Y-99380000D03*
X33790000Y-102460000D03*
X33790000Y-99380000D03*
X33390000Y-102460000D03*
X33390000Y-99380000D03*
X32990000Y-102460000D03*
X32990000Y-99380000D03*
X32590000Y-102460000D03*
X32590000Y-99380000D03*
X32190000Y-102460000D03*
X32190000Y-99380000D03*
X31790000Y-102460000D03*
X31790000Y-99380000D03*
X31390000Y-102460000D03*
X31390000Y-99380000D03*
X30990000Y-102460000D03*
X30990000Y-99380000D03*
X30590000Y-102460000D03*
X30590000Y-99380000D03*
X30190000Y-102460000D03*
X30190000Y-99380000D03*
X29790000Y-102460000D03*
X29790000Y-99380000D03*
X29390000Y-102460000D03*
X29390000Y-99380000D03*
X28990000Y-102460000D03*
X28990000Y-99380000D03*
X28590000Y-102460000D03*
X28590000Y-99380000D03*
X28190000Y-102460000D03*
X28190000Y-99380000D03*
X27790000Y-102460000D03*
X27790000Y-99380000D03*
X27390000Y-102460000D03*
X27390000Y-99380000D03*
X26990000Y-102460000D03*
X26990000Y-99380000D03*
X26590000Y-102460000D03*
X26590000Y-99380000D03*
X26190000Y-102460000D03*
X26190000Y-99380000D03*
X25790000Y-102460000D03*
X25790000Y-99380000D03*
X25390000Y-102460000D03*
X25390000Y-99380000D03*
X24990000Y-102460000D03*
X24990000Y-99380000D03*
X24590000Y-102460000D03*
X24590000Y-99380000D03*
X24190000Y-102460000D03*
X24190000Y-99380000D03*
X23790000Y-102460000D03*
X23790000Y-99380000D03*
X23390000Y-102460000D03*
X23390000Y-99380000D03*
X22990000Y-102460000D03*
X22990000Y-99380000D03*
X22590000Y-102460000D03*
X22590000Y-99380000D03*
X22190000Y-102460000D03*
X22190000Y-99380000D03*
X21790000Y-102460000D03*
X21790000Y-99380000D03*
X21390000Y-102460000D03*
X21390000Y-99380000D03*
X20990000Y-102460000D03*
X20990000Y-99380000D03*
X20590000Y-102460000D03*
X20590000Y-99380000D03*
X20190000Y-102460000D03*
X20190000Y-99380000D03*
%TD*%
D11*
%TO.C,C152*%
X50780000Y-79835000D03*
X50780000Y-81385000D03*
%TD*%
D12*
%TO.C,R134*%
X65155000Y-102477500D03*
X65155000Y-104302500D03*
%TD*%
D30*
%TO.C,ZZ12*%
X39800000Y-59610000D03*
X39800000Y-56530000D03*
X39400000Y-59610000D03*
X39400000Y-56530000D03*
X39000000Y-59610000D03*
X39000000Y-56530000D03*
X38600000Y-59610000D03*
X38600000Y-56530000D03*
X38200000Y-59610000D03*
X38200000Y-56530000D03*
X37800000Y-59610000D03*
X37800000Y-56530000D03*
X37400000Y-59610000D03*
X37400000Y-56530000D03*
X37000000Y-59610000D03*
X37000000Y-56530000D03*
X36600000Y-59610000D03*
X36600000Y-56530000D03*
X36200000Y-59610000D03*
X36200000Y-56530000D03*
X35800000Y-59610000D03*
X35800000Y-56530000D03*
X35400000Y-59610000D03*
X35400000Y-56530000D03*
X35000000Y-59610000D03*
X35000000Y-56530000D03*
X34600000Y-59610000D03*
X34600000Y-56530000D03*
X34200000Y-59610000D03*
X34200000Y-56530000D03*
X33800000Y-59610000D03*
X33800000Y-56530000D03*
X33400000Y-59610000D03*
X33400000Y-56530000D03*
X33000000Y-59610000D03*
X33000000Y-56530000D03*
X32600000Y-59610000D03*
X32600000Y-56530000D03*
X32200000Y-59610000D03*
X32200000Y-56530000D03*
X31800000Y-59610000D03*
X31800000Y-56530000D03*
X31400000Y-59610000D03*
X31400000Y-56530000D03*
X31000000Y-59610000D03*
X31000000Y-56530000D03*
X30600000Y-59610000D03*
X30600000Y-56530000D03*
X30200000Y-59610000D03*
X30200000Y-56530000D03*
X29800000Y-59610000D03*
X29800000Y-56530000D03*
X29400000Y-59610000D03*
X29400000Y-56530000D03*
X29000000Y-59610000D03*
X29000000Y-56530000D03*
X28600000Y-59610000D03*
X28600000Y-56530000D03*
X28200000Y-59610000D03*
X28200000Y-56530000D03*
X27800000Y-59610000D03*
X27800000Y-56530000D03*
X27400000Y-59610000D03*
X27400000Y-56530000D03*
X27000000Y-59610000D03*
X27000000Y-56530000D03*
X26600000Y-59610000D03*
X26600000Y-56530000D03*
X26200000Y-59610000D03*
X26200000Y-56530000D03*
X25800000Y-59610000D03*
X25800000Y-56530000D03*
X25400000Y-59610000D03*
X25400000Y-56530000D03*
X25000000Y-59610000D03*
X25000000Y-56530000D03*
X24600000Y-59610000D03*
X24600000Y-56530000D03*
X24200000Y-59610000D03*
X24200000Y-56530000D03*
X23800000Y-59610000D03*
X23800000Y-56530000D03*
X23400000Y-59610000D03*
X23400000Y-56530000D03*
X23000000Y-59610000D03*
X23000000Y-56530000D03*
X22600000Y-59610000D03*
X22600000Y-56530000D03*
X22200000Y-59610000D03*
X22200000Y-56530000D03*
X21800000Y-59610000D03*
X21800000Y-56530000D03*
X21400000Y-59610000D03*
X21400000Y-56530000D03*
X21000000Y-59610000D03*
X21000000Y-56530000D03*
X20600000Y-59610000D03*
X20600000Y-56530000D03*
X20200000Y-59610000D03*
X20200000Y-56530000D03*
%TD*%
D11*
%TO.C,C151*%
X52309999Y-79835000D03*
X52309999Y-81385000D03*
%TD*%
D12*
%TO.C,R120*%
X74167500Y-100657500D03*
X74167500Y-102482500D03*
%TD*%
D13*
%TO.C,R109*%
X67450000Y-68050000D03*
X67450000Y-70050000D03*
%TD*%
D21*
%TO.C,R103*%
X12008097Y-40610000D03*
X10358097Y-40610000D03*
%TD*%
D12*
%TO.C,R124*%
X66957500Y-100657500D03*
X66957500Y-102482500D03*
%TD*%
D31*
%TO.C,L5*%
X93950000Y-34215000D03*
X93950000Y-30065000D03*
%TD*%
D12*
%TO.C,R122*%
X70562500Y-100657500D03*
X70562500Y-102482500D03*
%TD*%
%TO.C,R136*%
X61540000Y-102477500D03*
X61540000Y-104302500D03*
%TD*%
D29*
%TO.C,C142*%
X43435000Y-49800001D03*
X41885000Y-49800001D03*
%TD*%
D11*
%TO.C,C156*%
X55940001Y-87445000D03*
X55940001Y-88995000D03*
%TD*%
D12*
%TO.C,R135*%
X63360001Y-102477500D03*
X63360001Y-104302500D03*
%TD*%
D29*
%TO.C,C144*%
X43435000Y-53190000D03*
X41885000Y-53190000D03*
%TD*%
D21*
%TO.C,FB1*%
X79735000Y-42930000D03*
X78085000Y-42930000D03*
%TD*%
D32*
%TO.C,U33*%
X103040000Y-37205000D03*
X103040000Y-35505000D03*
X101680000Y-37205000D03*
X101680000Y-35505000D03*
D33*
X104922500Y-34450000D03*
X104922500Y-35720000D03*
X104922500Y-36990000D03*
X104922500Y-38260000D03*
X99797500Y-38260000D03*
X99797500Y-36990000D03*
X99797500Y-35720000D03*
X99797500Y-34450000D03*
%TD*%
D21*
%TO.C,R99*%
X96530000Y-38615000D03*
X94880000Y-38615000D03*
%TD*%
D18*
%TO.C,R114*%
X57597500Y-92690000D03*
X55772500Y-92690000D03*
%TD*%
D12*
%TO.C,R125*%
X65155000Y-100657500D03*
X65155000Y-102482500D03*
%TD*%
D11*
%TO.C,C158*%
X52220000Y-88855000D03*
X52220000Y-90405000D03*
%TD*%
%TO.C,C141*%
X75140000Y-42905000D03*
X75140000Y-44455000D03*
%TD*%
D34*
%TO.C,R101*%
X99320000Y-40465000D03*
X100970000Y-40465000D03*
%TD*%
D20*
%TO.C,C159*%
X23420000Y-104450000D03*
X24380000Y-104450000D03*
%TD*%
D30*
%TO.C,ZZ13*%
X39790000Y-68500000D03*
X39790000Y-65420000D03*
X39390000Y-68500000D03*
X39390000Y-65420000D03*
X38990000Y-68500000D03*
X38990000Y-65420000D03*
X38590000Y-68500000D03*
X38590000Y-65420000D03*
X38190000Y-68500000D03*
X38190000Y-65420000D03*
X37790000Y-68500000D03*
X37790000Y-65420000D03*
X37390000Y-68500000D03*
X37390000Y-65420000D03*
X36990000Y-68500000D03*
X36990000Y-65420000D03*
X36590000Y-68500000D03*
X36590000Y-65420000D03*
X36190000Y-68500000D03*
X36190000Y-65420000D03*
X35790000Y-68500000D03*
X35790000Y-65420000D03*
X35390000Y-68500000D03*
X35390000Y-65420000D03*
X34990000Y-68500000D03*
X34990000Y-65420000D03*
X34590000Y-68500000D03*
X34590000Y-65420000D03*
X34190000Y-68500000D03*
X34190000Y-65420000D03*
X33790000Y-68500000D03*
X33790000Y-65420000D03*
X33390000Y-68500000D03*
X33390000Y-65420000D03*
X32990000Y-68500000D03*
X32990000Y-65420000D03*
X32590000Y-68500000D03*
X32590000Y-65420000D03*
X32190000Y-68500000D03*
X32190000Y-65420000D03*
X31790000Y-68500000D03*
X31790000Y-65420000D03*
X31390000Y-68500000D03*
X31390000Y-65420000D03*
X30990000Y-68500000D03*
X30990000Y-65420000D03*
X30590000Y-68500000D03*
X30590000Y-65420000D03*
X30190000Y-68500000D03*
X30190000Y-65420000D03*
X29790000Y-68500000D03*
X29790000Y-65420000D03*
X29390000Y-68500000D03*
X29390000Y-65420000D03*
X28990000Y-68500000D03*
X28990000Y-65420000D03*
X28590000Y-68500000D03*
X28590000Y-65420000D03*
X28190000Y-68500000D03*
X28190000Y-65420000D03*
X27790000Y-68500000D03*
X27790000Y-65420000D03*
X27390000Y-68500000D03*
X27390000Y-65420000D03*
X26990000Y-68500000D03*
X26990000Y-65420000D03*
X26590000Y-68500000D03*
X26590000Y-65420000D03*
X26190000Y-68500000D03*
X26190000Y-65420000D03*
X25790000Y-68500000D03*
X25790000Y-65420000D03*
X25390000Y-68500000D03*
X25390000Y-65420000D03*
X24990000Y-68500000D03*
X24990000Y-65420000D03*
X24590000Y-68500000D03*
X24590000Y-65420000D03*
X24190000Y-68500000D03*
X24190000Y-65420000D03*
X23790000Y-68500000D03*
X23790000Y-65420000D03*
X23390000Y-68500000D03*
X23390000Y-65420000D03*
X22990000Y-68500000D03*
X22990000Y-65420000D03*
X22590000Y-68500000D03*
X22590000Y-65420000D03*
X22190000Y-68500000D03*
X22190000Y-65420000D03*
X21790000Y-68500000D03*
X21790000Y-65420000D03*
X21390000Y-68500000D03*
X21390000Y-65420000D03*
X20990000Y-68500000D03*
X20990000Y-65420000D03*
X20590000Y-68500000D03*
X20590000Y-65420000D03*
X20190000Y-68500000D03*
X20190000Y-65420000D03*
%TD*%
D12*
%TO.C,R121*%
X72365000Y-100657500D03*
X72365000Y-102482500D03*
%TD*%
D18*
%TO.C,R118*%
X57597500Y-96350000D03*
X55772500Y-96350000D03*
%TD*%
D12*
%TO.C,R126*%
X63360000Y-100657500D03*
X63360000Y-102482500D03*
%TD*%
D19*
%TO.C,C149*%
X48900001Y-66310000D03*
X48900001Y-64760000D03*
%TD*%
D29*
%TO.C,C143*%
X43435000Y-51330000D03*
X41885000Y-51330000D03*
%TD*%
D30*
%TO.C,ZZ11*%
X39800000Y-25650000D03*
X39800000Y-22570000D03*
X39400000Y-25650000D03*
X39400000Y-22570000D03*
X39000000Y-25650000D03*
X39000000Y-22570000D03*
X38600000Y-25650000D03*
X38600000Y-22570000D03*
X38200000Y-25650000D03*
X38200000Y-22570000D03*
X37800000Y-25650000D03*
X37800000Y-22570000D03*
X37400000Y-25650000D03*
X37400000Y-22570000D03*
X37000000Y-25650000D03*
X37000000Y-22570000D03*
X36600000Y-25650000D03*
X36600000Y-22570000D03*
X36200000Y-25650000D03*
X36200000Y-22570000D03*
X35800000Y-25650000D03*
X35800000Y-22570000D03*
X35400000Y-25650000D03*
X35400000Y-22570000D03*
X35000000Y-25650000D03*
X35000000Y-22570000D03*
X34600000Y-25650000D03*
X34600000Y-22570000D03*
X34200000Y-25650000D03*
X34200000Y-22570000D03*
X33800000Y-25650000D03*
X33800000Y-22570000D03*
X33400000Y-25650000D03*
X33400000Y-22570000D03*
X33000000Y-25650000D03*
X33000000Y-22570000D03*
X32600000Y-25650000D03*
X32600000Y-22570000D03*
X32200000Y-25650000D03*
X32200000Y-22570000D03*
X31800000Y-25650000D03*
X31800000Y-22570000D03*
X31400000Y-25650000D03*
X31400000Y-22570000D03*
X31000000Y-25650000D03*
X31000000Y-22570000D03*
X30600000Y-25650000D03*
X30600000Y-22570000D03*
X30200000Y-25650000D03*
X30200000Y-22570000D03*
X29800000Y-25650000D03*
X29800000Y-22570000D03*
X29400000Y-25650000D03*
X29400000Y-22570000D03*
X29000000Y-25650000D03*
X29000000Y-22570000D03*
X28600000Y-25650000D03*
X28600000Y-22570000D03*
X28200000Y-25650000D03*
X28200000Y-22570000D03*
X27800000Y-25650000D03*
X27800000Y-22570000D03*
X27400000Y-25650000D03*
X27400000Y-22570000D03*
X27000000Y-25650000D03*
X27000000Y-22570000D03*
X26600000Y-25650000D03*
X26600000Y-22570000D03*
X26200000Y-25650000D03*
X26200000Y-22570000D03*
X25800000Y-25650000D03*
X25800000Y-22570000D03*
X25400000Y-25650000D03*
X25400000Y-22570000D03*
X25000000Y-25650000D03*
X25000000Y-22570000D03*
X24600000Y-25650000D03*
X24600000Y-22570000D03*
X24200000Y-25650000D03*
X24200000Y-22570000D03*
X23800000Y-25650000D03*
X23800000Y-22570000D03*
X23400000Y-25650000D03*
X23400000Y-22570000D03*
X23000000Y-25650000D03*
X23000000Y-22570000D03*
X22600000Y-25650000D03*
X22600000Y-22570000D03*
X22200000Y-25650000D03*
X22200000Y-22570000D03*
X21800000Y-25650000D03*
X21800000Y-22570000D03*
X21400000Y-25650000D03*
X21400000Y-22570000D03*
X21000000Y-25650000D03*
X21000000Y-22570000D03*
X20600000Y-25650000D03*
X20600000Y-22570000D03*
X20200000Y-25650000D03*
X20200000Y-22570000D03*
%TD*%
D35*
%TO.C,J29*%
X104650000Y-132785000D03*
X104900000Y-125335000D03*
X105150000Y-132785000D03*
X105400000Y-125335000D03*
X105650000Y-132785000D03*
X105900000Y-125335000D03*
X106150000Y-132785000D03*
X106400000Y-125335000D03*
X106650000Y-132785000D03*
X106900000Y-125335000D03*
X107150000Y-132785000D03*
X107400000Y-125335000D03*
X107650000Y-132785000D03*
X107900000Y-125335000D03*
X108150000Y-132785000D03*
X108400000Y-125335000D03*
X108650000Y-132785000D03*
X108900000Y-125335000D03*
X109150000Y-132785000D03*
X109400000Y-125335000D03*
X109650000Y-132785000D03*
X109900000Y-125335000D03*
X110150000Y-132785000D03*
X110400000Y-125335000D03*
X110650000Y-132785000D03*
X110900000Y-125335000D03*
X111150000Y-132785000D03*
X111400000Y-125335000D03*
X111650000Y-132785000D03*
X111900000Y-125335000D03*
X112150000Y-132785000D03*
X112400000Y-125335000D03*
X112650000Y-132785000D03*
X112900000Y-125335000D03*
X113150000Y-132785000D03*
X113400000Y-125335000D03*
X113650000Y-132785000D03*
X113900000Y-125335000D03*
X114150000Y-132785000D03*
X114400000Y-125335000D03*
X114650000Y-132785000D03*
X114900000Y-125335000D03*
X115150000Y-132785000D03*
X115400000Y-125335000D03*
X115650000Y-132785000D03*
X115900000Y-125335000D03*
X116150000Y-132785000D03*
X116400000Y-125335000D03*
X116650000Y-132785000D03*
X116900000Y-125335000D03*
X117150000Y-132785000D03*
X117400000Y-125335000D03*
X117650000Y-132785000D03*
X117900000Y-125335000D03*
X118150000Y-132785000D03*
X118400000Y-125335000D03*
X118650000Y-132785000D03*
X118900000Y-125335000D03*
X121150000Y-132785000D03*
X121400000Y-125335000D03*
X121650000Y-132785000D03*
X121900000Y-125335000D03*
X122150000Y-132785000D03*
X122400000Y-125335000D03*
X122650000Y-132785000D03*
X122900000Y-125335000D03*
X123150000Y-132785000D03*
D36*
X103550000Y-132060000D03*
X124250000Y-132060000D03*
%TD*%
D19*
%TO.C,C147*%
X52340000Y-66320000D03*
X52340000Y-64770000D03*
%TD*%
%TO.C,C161*%
X73900000Y-79525000D03*
X73900000Y-77975000D03*
%TD*%
D11*
%TO.C,C157*%
X53750000Y-88854999D03*
X53750000Y-90404999D03*
%TD*%
D34*
%TO.C,FB2*%
X84005000Y-83250000D03*
X85655000Y-83250000D03*
%TD*%
D12*
%TO.C,R128*%
X75970000Y-102477500D03*
X75970000Y-104302500D03*
%TD*%
D37*
%TO.C,C138*%
X94930000Y-36765000D03*
X96480000Y-36765000D03*
%TD*%
D12*
%TO.C,R131*%
X70562500Y-102477500D03*
X70562500Y-104302500D03*
%TD*%
D17*
%TO.C,D12*%
X8058094Y-40610000D03*
X6008094Y-40610000D03*
%TD*%
D11*
%TO.C,C153*%
X50010000Y-83360000D03*
X50010000Y-84910000D03*
%TD*%
D19*
%TO.C,C160*%
X72330000Y-79525000D03*
X72330000Y-77975000D03*
%TD*%
D38*
%TO.C,R112*%
X37430000Y-89525000D03*
X37430000Y-91175000D03*
%TD*%
D18*
%TO.C,R113*%
X59422500Y-92690000D03*
X57597500Y-92690000D03*
%TD*%
D29*
%TO.C,C140*%
X105355000Y-40465000D03*
X103805000Y-40465000D03*
%TD*%
D34*
%TO.C,R102*%
X94870000Y-40455000D03*
X96520000Y-40455000D03*
%TD*%
D21*
%TO.C,FB3*%
X65255000Y-82700000D03*
X63605000Y-82700000D03*
%TD*%
D11*
%TO.C,C154*%
X48480000Y-83360000D03*
X48480000Y-84910000D03*
%TD*%
D12*
%TO.C,R133*%
X66957500Y-102477500D03*
X66957500Y-104302500D03*
%TD*%
D38*
%TO.C,R100*%
X92520000Y-38880000D03*
X92520000Y-40530000D03*
%TD*%
D12*
%TO.C,R130*%
X72365000Y-102477500D03*
X72365000Y-104302500D03*
%TD*%
%TO.C,R129*%
X74167500Y-102477500D03*
X74167500Y-104302500D03*
%TD*%
D30*
%TO.C,Module6*%
X39790000Y-102440000D03*
X39790000Y-99360000D03*
X39390000Y-102440000D03*
X39390000Y-99360000D03*
X38990000Y-102440000D03*
X38990000Y-99360000D03*
X38590000Y-102440000D03*
X38590000Y-99360000D03*
X38190000Y-102440000D03*
X38190000Y-99360000D03*
X37790000Y-102440000D03*
X37790000Y-99360000D03*
X37390000Y-102440000D03*
X37390000Y-99360000D03*
X36990000Y-102440000D03*
X36990000Y-99360000D03*
X36590000Y-102440000D03*
X36590000Y-99360000D03*
X36190000Y-102440000D03*
X36190000Y-99360000D03*
X35790000Y-102440000D03*
X35790000Y-99360000D03*
X35390000Y-102440000D03*
X35390000Y-99360000D03*
X34990000Y-102440000D03*
X34990000Y-99360000D03*
X34590000Y-102440000D03*
X34590000Y-99360000D03*
X34190000Y-102440000D03*
X34190000Y-99360000D03*
X33790000Y-102440000D03*
X33790000Y-99360000D03*
X33390000Y-102440000D03*
X33390000Y-99360000D03*
X32990000Y-102440000D03*
X32990000Y-99360000D03*
X32590000Y-102440000D03*
X32590000Y-99360000D03*
X32190000Y-102440000D03*
X32190000Y-99360000D03*
X31790000Y-102440000D03*
X31790000Y-99360000D03*
X31390000Y-102440000D03*
X31390000Y-99360000D03*
X30990000Y-102440000D03*
X30990000Y-99360000D03*
X30590000Y-102440000D03*
X30590000Y-99360000D03*
X30190000Y-102440000D03*
X30190000Y-99360000D03*
X29790000Y-102440000D03*
X29790000Y-99360000D03*
X29390000Y-102440000D03*
X29390000Y-99360000D03*
X28990000Y-102440000D03*
X28990000Y-99360000D03*
X28590000Y-102440000D03*
X28590000Y-99360000D03*
X28190000Y-102440000D03*
X28190000Y-99360000D03*
X27790000Y-102440000D03*
X27790000Y-99360000D03*
X27390000Y-102440000D03*
X27390000Y-99360000D03*
X26990000Y-102440000D03*
X26990000Y-99360000D03*
X26590000Y-102440000D03*
X26590000Y-99360000D03*
X26190000Y-102440000D03*
X26190000Y-99360000D03*
X25790000Y-102440000D03*
X25790000Y-99360000D03*
X25390000Y-102440000D03*
X25390000Y-99360000D03*
X24990000Y-102440000D03*
X24990000Y-99360000D03*
X24590000Y-102440000D03*
X24590000Y-99360000D03*
X24190000Y-102440000D03*
X24190000Y-99360000D03*
X23790000Y-102440000D03*
X23790000Y-99360000D03*
X23390000Y-102440000D03*
X23390000Y-99360000D03*
X22990000Y-102440000D03*
X22990000Y-99360000D03*
X22590000Y-102440000D03*
X22590000Y-99360000D03*
X22190000Y-102440000D03*
X22190000Y-99360000D03*
X21790000Y-102440000D03*
X21790000Y-99360000D03*
X21390000Y-102440000D03*
X21390000Y-99360000D03*
X20990000Y-102440000D03*
X20990000Y-99360000D03*
X20590000Y-102440000D03*
X20590000Y-99360000D03*
X20190000Y-102440000D03*
X20190000Y-99360000D03*
X39790000Y-68520000D03*
X39790000Y-65440000D03*
X39390000Y-68520000D03*
X39390000Y-65440000D03*
X38990000Y-68520000D03*
X38990000Y-65440000D03*
X38590000Y-68520000D03*
X38590000Y-65440000D03*
X38190000Y-68520000D03*
X38190000Y-65440000D03*
X37790000Y-68520000D03*
X37790000Y-65440000D03*
X37390000Y-68520000D03*
X37390000Y-65440000D03*
X36990000Y-68520000D03*
X36990000Y-65440000D03*
X36590000Y-68520000D03*
X36590000Y-65440000D03*
X36190000Y-68520000D03*
X36190000Y-65440000D03*
X35790000Y-68520000D03*
X35790000Y-65440000D03*
X35390000Y-68520000D03*
X35390000Y-65440000D03*
X34990000Y-68520000D03*
X34990000Y-65440000D03*
X34590000Y-68520000D03*
X34590000Y-65440000D03*
X34190000Y-68520000D03*
X34190000Y-65440000D03*
X33790000Y-68520000D03*
X33790000Y-65440000D03*
X33390000Y-68520000D03*
X33390000Y-65440000D03*
X32990000Y-68520000D03*
X32990000Y-65440000D03*
X32590000Y-68520000D03*
X32590000Y-65440000D03*
X32190000Y-68520000D03*
X32190000Y-65440000D03*
X31790000Y-68520000D03*
X31790000Y-65440000D03*
X31390000Y-68520000D03*
X31390000Y-65440000D03*
X30990000Y-68520000D03*
X30990000Y-65440000D03*
X30590000Y-68520000D03*
X30590000Y-65440000D03*
X30190000Y-68520000D03*
X30190000Y-65440000D03*
X29790000Y-68520000D03*
X29790000Y-65440000D03*
X29390000Y-68520000D03*
X29390000Y-65440000D03*
X28990000Y-68520000D03*
X28990000Y-65440000D03*
X28590000Y-68520000D03*
X28590000Y-65440000D03*
X28190000Y-68520000D03*
X28190000Y-65440000D03*
X27790000Y-68520000D03*
X27790000Y-65440000D03*
X27390000Y-68520000D03*
X27390000Y-65440000D03*
X26990000Y-68520000D03*
X26990000Y-65440000D03*
X26590000Y-68520000D03*
X26590000Y-65440000D03*
X26190000Y-68520000D03*
X26190000Y-65440000D03*
X25790000Y-68520000D03*
X25790000Y-65440000D03*
X25390000Y-68520000D03*
X25390000Y-65440000D03*
X24990000Y-68520000D03*
X24990000Y-65440000D03*
X24590000Y-68520000D03*
X24590000Y-65440000D03*
X24190000Y-68520000D03*
X24190000Y-65440000D03*
X23790000Y-68520000D03*
X23790000Y-65440000D03*
X23390000Y-68520000D03*
X23390000Y-65440000D03*
X22990000Y-68520000D03*
X22990000Y-65440000D03*
X22590000Y-68520000D03*
X22590000Y-65440000D03*
X22190000Y-68520000D03*
X22190000Y-65440000D03*
X21790000Y-68520000D03*
X21790000Y-65440000D03*
X21390000Y-68520000D03*
X21390000Y-65440000D03*
X20990000Y-68520000D03*
X20990000Y-65440000D03*
X20590000Y-68520000D03*
X20590000Y-65440000D03*
X20190000Y-68520000D03*
X20190000Y-65440000D03*
%TD*%
D16*
%TO.C,R105*%
X59470000Y-44020000D03*
X57470000Y-44020000D03*
%TD*%
D30*
%TO.C,Module5*%
X39800000Y-59590000D03*
X39800000Y-56510000D03*
X39400000Y-59590000D03*
X39400000Y-56510000D03*
X39000000Y-59590000D03*
X39000000Y-56510000D03*
X38600000Y-59590000D03*
X38600000Y-56510000D03*
X38200000Y-59590000D03*
X38200000Y-56510000D03*
X37800000Y-59590000D03*
X37800000Y-56510000D03*
X37400000Y-59590000D03*
X37400000Y-56510000D03*
X37000000Y-59590000D03*
X37000000Y-56510000D03*
X36600000Y-59590000D03*
X36600000Y-56510000D03*
X36200000Y-59590000D03*
X36200000Y-56510000D03*
X35800000Y-59590000D03*
X35800000Y-56510000D03*
X35400000Y-59590000D03*
X35400000Y-56510000D03*
X35000000Y-59590000D03*
X35000000Y-56510000D03*
X34600000Y-59590000D03*
X34600000Y-56510000D03*
X34200000Y-59590000D03*
X34200000Y-56510000D03*
X33800000Y-59590000D03*
X33800000Y-56510000D03*
X33400000Y-59590000D03*
X33400000Y-56510000D03*
X33000000Y-59590000D03*
X33000000Y-56510000D03*
X32600000Y-59590000D03*
X32600000Y-56510000D03*
X32200000Y-59590000D03*
X32200000Y-56510000D03*
X31800000Y-59590000D03*
X31800000Y-56510000D03*
X31400000Y-59590000D03*
X31400000Y-56510000D03*
X31000000Y-59590000D03*
X31000000Y-56510000D03*
X30600000Y-59590000D03*
X30600000Y-56510000D03*
X30200000Y-59590000D03*
X30200000Y-56510000D03*
X29800000Y-59590000D03*
X29800000Y-56510000D03*
X29400000Y-59590000D03*
X29400000Y-56510000D03*
X29000000Y-59590000D03*
X29000000Y-56510000D03*
X28600000Y-59590000D03*
X28600000Y-56510000D03*
X28200000Y-59590000D03*
X28200000Y-56510000D03*
X27800000Y-59590000D03*
X27800000Y-56510000D03*
X27400000Y-59590000D03*
X27400000Y-56510000D03*
X27000000Y-59590000D03*
X27000000Y-56510000D03*
X26600000Y-59590000D03*
X26600000Y-56510000D03*
X26200000Y-59590000D03*
X26200000Y-56510000D03*
X25800000Y-59590000D03*
X25800000Y-56510000D03*
X25400000Y-59590000D03*
X25400000Y-56510000D03*
X25000000Y-59590000D03*
X25000000Y-56510000D03*
X24600000Y-59590000D03*
X24600000Y-56510000D03*
X24200000Y-59590000D03*
X24200000Y-56510000D03*
X23800000Y-59590000D03*
X23800000Y-56510000D03*
X23400000Y-59590000D03*
X23400000Y-56510000D03*
X23000000Y-59590000D03*
X23000000Y-56510000D03*
X22600000Y-59590000D03*
X22600000Y-56510000D03*
X22200000Y-59590000D03*
X22200000Y-56510000D03*
X21800000Y-59590000D03*
X21800000Y-56510000D03*
X21400000Y-59590000D03*
X21400000Y-56510000D03*
X21000000Y-59590000D03*
X21000000Y-56510000D03*
X20600000Y-59590000D03*
X20600000Y-56510000D03*
X20200000Y-59590000D03*
X20200000Y-56510000D03*
X39800000Y-25670000D03*
X39800000Y-22590000D03*
X39400000Y-25670000D03*
X39400000Y-22590000D03*
X39000000Y-25670000D03*
X39000000Y-22590000D03*
X38600000Y-25670000D03*
X38600000Y-22590000D03*
X38200000Y-25670000D03*
X38200000Y-22590000D03*
X37800000Y-25670000D03*
X37800000Y-22590000D03*
X37400000Y-25670000D03*
X37400000Y-22590000D03*
X37000000Y-25670000D03*
X37000000Y-22590000D03*
X36600000Y-25670000D03*
X36600000Y-22590000D03*
X36200000Y-25670000D03*
X36200000Y-22590000D03*
X35800000Y-25670000D03*
X35800000Y-22590000D03*
X35400000Y-25670000D03*
X35400000Y-22590000D03*
X35000000Y-25670000D03*
X35000000Y-22590000D03*
X34600000Y-25670000D03*
X34600000Y-22590000D03*
X34200000Y-25670000D03*
X34200000Y-22590000D03*
X33800000Y-25670000D03*
X33800000Y-22590000D03*
X33400000Y-25670000D03*
X33400000Y-22590000D03*
X33000000Y-25670000D03*
X33000000Y-22590000D03*
X32600000Y-25670000D03*
X32600000Y-22590000D03*
X32200000Y-25670000D03*
X32200000Y-22590000D03*
X31800000Y-25670000D03*
X31800000Y-22590000D03*
X31400000Y-25670000D03*
X31400000Y-22590000D03*
X31000000Y-25670000D03*
X31000000Y-22590000D03*
X30600000Y-25670000D03*
X30600000Y-22590000D03*
X30200000Y-25670000D03*
X30200000Y-22590000D03*
X29800000Y-25670000D03*
X29800000Y-22590000D03*
X29400000Y-25670000D03*
X29400000Y-22590000D03*
X29000000Y-25670000D03*
X29000000Y-22590000D03*
X28600000Y-25670000D03*
X28600000Y-22590000D03*
X28200000Y-25670000D03*
X28200000Y-22590000D03*
X27800000Y-25670000D03*
X27800000Y-22590000D03*
X27400000Y-25670000D03*
X27400000Y-22590000D03*
X27000000Y-25670000D03*
X27000000Y-22590000D03*
X26600000Y-25670000D03*
X26600000Y-22590000D03*
X26200000Y-25670000D03*
X26200000Y-22590000D03*
X25800000Y-25670000D03*
X25800000Y-22590000D03*
X25400000Y-25670000D03*
X25400000Y-22590000D03*
X25000000Y-25670000D03*
X25000000Y-22590000D03*
X24600000Y-25670000D03*
X24600000Y-22590000D03*
X24200000Y-25670000D03*
X24200000Y-22590000D03*
X23800000Y-25670000D03*
X23800000Y-22590000D03*
X23400000Y-25670000D03*
X23400000Y-22590000D03*
X23000000Y-25670000D03*
X23000000Y-22590000D03*
X22600000Y-25670000D03*
X22600000Y-22590000D03*
X22200000Y-25670000D03*
X22200000Y-22590000D03*
X21800000Y-25670000D03*
X21800000Y-22590000D03*
X21400000Y-25670000D03*
X21400000Y-22590000D03*
X21000000Y-25670000D03*
X21000000Y-22590000D03*
X20600000Y-25670000D03*
X20600000Y-22590000D03*
X20200000Y-25670000D03*
X20200000Y-22590000D03*
%TD*%
D18*
%TO.C,R115*%
X59422500Y-94550000D03*
X57597500Y-94550000D03*
%TD*%
M02*
