M48
; DRILL file {KiCad 7.0.2-6a45011f42~172~ubuntu22.04.1} date Mon 24 Apr 2023 01:24:46 PM PDT
; FORMAT={-:-/ absolute / inch / decimal}
; #@! TF.CreationDate,2023-04-24T13:24:46-07:00
; #@! TF.GenerationSoftware,Kicad,Pcbnew,7.0.2-6a45011f42~172~ubuntu22.04.1
; #@! TF.FileFunction,MixedPlating,1,4
FMAT,2
INCH
; #@! TA.AperFunction,Plated,PTH,ViaDrill
T1C0.0098
; #@! TA.AperFunction,Plated,PTH,ViaDrill
T2C0.0118
; #@! TA.AperFunction,Plated,PTH,ComponentDrill
T3C0.0157
; #@! TA.AperFunction,Plated,PTH,ViaDrill
T4C0.0177
; #@! TA.AperFunction,Plated,PTH,ComponentDrill
T5C0.0236
; #@! TA.AperFunction,Plated,PTH,ComponentDrill
T6C0.0354
; #@! TA.AperFunction,Plated,PTH,ComponentDrill
T7C0.0362
; #@! TA.AperFunction,Plated,PTH,ComponentDrill
T8C0.0394
; #@! TA.AperFunction,Plated,PTH,ComponentDrill
T9C0.0402
; #@! TA.AperFunction,Plated,PTH,ComponentDrill
T10C0.0591
; #@! TA.AperFunction,Plated,PTH,ComponentDrill
T11C0.0669
; #@! TA.AperFunction,Plated,PTH,ComponentDrill
T12C0.0906
; #@! TA.AperFunction,Plated,PTH,ComponentDrill
T13C0.1102
; #@! TA.AperFunction,Plated,PTH,ComponentDrill
T14C0.1260
; #@! TA.AperFunction,NonPlated,NPTH,ComponentDrill
T15C0.0413
; #@! TA.AperFunction,NonPlated,NPTH,ComponentDrill
T16C0.0433
; #@! TA.AperFunction,NonPlated,NPTH,ComponentDrill
T17C0.0453
; #@! TA.AperFunction,NonPlated,NPTH,ComponentDrill
T18C0.0512
; #@! TA.AperFunction,NonPlated,NPTH,ComponentDrill
T19C0.0650
; #@! TA.AperFunction,NonPlated,NPTH,ComponentDrill
T20C0.1063
; #@! TA.AperFunction,NonPlated,NPTH,ComponentDrill
T21C0.1260
%
G90
G05
T1
X0.2244Y-4.2244
X0.2769Y-4.2244
X0.3294Y-4.2244
X0.3819Y-4.2244
X0.4535Y-4.9706
X0.4792Y-4.9706
X0.6094Y-0.9701
X0.6734Y-2.4075
X0.6807Y-1.439
X0.6986Y-2.389
X0.7234Y-2.4307
X0.7423Y-2.4495
X0.8343Y-3.9823
X0.8409Y-0.9602
X0.8446Y-4.9493
X0.8628Y-4.9311
X0.8646Y-3.9831
X0.8964Y-2.3768
X0.915Y-2.4906
X0.917Y-2.3768
X0.9376Y-2.3768
X0.9386Y-1.1724
X0.9583Y-2.3768
X0.9602Y-2.2889
X0.9811Y-2.3757
X1.0004Y-2.2539
X1.0026Y-2.386
X1.0177Y-3.9744
X1.0293Y-2.386
X1.0331Y-3.9937
X1.0416Y-3.8299
X1.0499Y-2.4091
X1.0604Y-3.8111
X1.0765Y-2.4091
X1.0868Y-2.3878
X1.1075Y-4.9449
X1.1154Y-2.1945
X1.1154Y-2.2614
X1.1306Y-5.1958
X1.1761Y-3.8763
X1.1827Y-2.1921
X1.1827Y-2.2575
X1.2028Y-3.8763
X1.2154Y-3.9446
X1.2154Y-3.9712
X1.2284Y-0.6937
X1.2665Y-0.6937
X1.2686Y-3.8618
X1.2732Y-3.9614
X1.2952Y-3.8618
X1.2972Y-3.961
X1.3366Y-3.6928
X1.3366Y-3.7194
X1.3463Y-2.7264
X1.3717Y-4.9391
X1.3717Y-4.9648
X1.378Y-2.9567
X1.378Y-2.9833
X1.3968Y-5.4827
X1.4024Y-3.2449
X1.4024Y-3.7293
X1.4135Y-3.0201
X1.4146Y-3.1016
X1.415Y-5.4645
X1.4324Y-3.039
X1.4334Y-3.1204
X1.4579Y-2.5406
X1.4705Y-2.2681
X1.4705Y-3.128
X1.4823Y-4.0689
X1.4874Y-5.4608
X1.4874Y-5.4865
X1.498Y-2.9943
X1.509Y-4.0689
X1.5181Y-3.7283
X1.5357Y-4.0685
X1.5626Y-4.0681
X1.5819Y-2.185
X1.5819Y-2.2587
X1.5886Y-2.8961
X1.5886Y-2.9228
X1.5984Y-1.0472
X1.5994Y-0.9787
X1.6067Y-0.8239
X1.6126Y-2.6445
X1.6272Y-1.0472
X1.6476Y-3.7287
X1.6537Y-0.8657
X1.6909Y-2.9943
X1.7126Y-2.6575
X1.752Y-2.8067
X1.7524Y-2.7811
X1.7547Y-2.8433
X1.7954Y-2.3262
X1.8211Y-2.3262
X1.8272Y-3.624
X1.8292Y-3.6687
X1.8358Y-2.2457
X1.8398Y-3.4087
X1.8405Y-3.0898
X1.8405Y-3.1165
X1.8425Y-3.0044
X1.8425Y-3.031
X1.848Y-3.6876
X1.8577Y-3.713
X1.8586Y-3.4275
X1.8609Y-3.8215
X1.865Y-3.232
X1.865Y-3.2587
X1.8673Y-5.1465
X1.8765Y-3.7319
X1.8859Y-3.8764
X1.8862Y-5.1653
X1.8878Y-2.9567
X1.8878Y-2.9833
X1.8917Y-2.8961
X1.8917Y-2.9228
X1.8918Y-3.8083
X1.9047Y-3.8575
X1.9106Y-3.8271
X1.9377Y-5.1558
X1.9402Y-2.4724
X1.9515Y-3.8206
X1.9515Y-3.8473
X1.9644Y-5.1558
X1.9682Y-3.8996
X1.9713Y-3.7827
X1.9882Y-2.9943
X1.9948Y-3.8996
X1.9993Y-2.8532
X2.0182Y-2.8721
X2.0409Y-5.1657
X2.0551Y-2.1925
X2.0555Y-0.9461
X2.0555Y-1.2177
X2.0555Y-1.5665
X2.0555Y-2.126
X2.0661Y-5.1353
X2.0928Y-5.1353
X2.1307Y-2.5052
X2.1311Y-2.5323
X2.1646Y-2.84
X2.1646Y-2.8667
X2.1756Y-5.1147
X2.1764Y-2.4665
X2.202Y-2.4654
X2.2023Y-5.1147
X2.228Y-4.3551
X2.2453Y-4.3736
X2.2641Y-4.3965
X2.2808Y-4.412
X2.2984Y-4.4265
X2.3152Y-4.442
X2.3279Y-4.2108
X2.3279Y-4.2375
X2.3329Y-4.4567
X2.3506Y-4.4715
X2.3683Y-4.4872
X2.3839Y-0.5127
X2.3855Y-4.503
X2.3954Y-4.1571
X2.3954Y-4.1838
X2.4191Y-3.7933
X2.4394Y-4.7634
X2.4831Y-4.8
X2.5134Y-2.7622
X2.5234Y-3.6971
X2.5252Y-4.7618
X2.5323Y-2.7433
X2.5613Y-4.1484
X2.5613Y-4.1751
X2.577Y-2.9158
X2.577Y-2.9425
X2.6146Y-4.1938
X2.6146Y-4.2204
X2.639Y-4.2921
X2.639Y-4.7539
X2.6429Y-4.2559
X2.663Y-4.7539
X2.6772Y-3.054
X2.6774Y-3.0271
X2.6812Y-4.3209
X2.6858Y-3.7677
X2.6943Y-4.738
X2.6996Y-3.9016
X2.7046Y-2.9916
X2.7057Y-3.0217
X2.7123Y-4.724
X2.7138Y-3.7677
X2.7161Y-4.2299
X2.7294Y-4.7089
X2.7433Y-3.8799
X2.747Y-4.6944
X2.75Y-3.7598
X2.7645Y-4.6798
X2.772Y-3.0441
X2.7728Y-3.7598
X2.7836Y-4.6673
X2.7909Y-3.0252
X2.8Y-4.6514
X2.8087Y-3.9098
X2.8102Y-3.7579
X2.8186Y-4.6382
X2.835Y-3.9228
X2.8363Y-4.6238
X2.8529Y-4.6082
X2.8627Y-4.5014
X2.8693Y-3.7559
X2.8707Y-4.5939
X2.8795Y-4.4859
X2.889Y-4.5802
X2.8958Y-4.47
X2.9073Y-4.5657
X2.9079Y-4.1882
X2.911Y-4.453
X2.9237Y-4.5499
X2.9263Y-4.4361
X2.9283Y-3.7579
X2.9417Y-4.1882
X2.9421Y-4.5364
X2.9425Y-4.4199
X2.95Y-3.8909
X2.958Y-4.4033
X2.9732Y-3.9091
X2.9736Y-4.3866
X2.9894Y-4.3701
X3.0071Y-3.7559
X3.0417Y-3.8508
X3.0483Y-3.0474
X3.058Y-1.931
X3.0661Y-3.7598
X3.0671Y-3.0285
X3.0917Y-3.0236
X3.1091Y-1.9488
X3.1173Y-3.7835
X3.1184Y-3.0236
X3.1409Y-3.7677
X3.1483Y-2.9213
X3.1595Y-1.9472
X3.1672Y-2.9024
X3.263Y-3.7795
X3.2831Y-3.7579
X3.3138Y-1.1984
X3.3138Y-1.2417
X3.3138Y-1.285
X3.3307Y-1.3287
X3.3492Y-1.1984
X3.3492Y-1.2417
X3.3492Y-1.285
X3.3516Y-2.9358
X3.3669Y-1.3287
X3.3772Y-1.2126
X3.3791Y-2.6921
X3.3831Y-1.2457
X3.3846Y-1.285
X3.4083Y-1.2638
X3.4112Y-2.788
X3.4839Y-2.8795
X3.5193Y-2.5941
X3.6094Y-1.437
X3.6114Y-1.4087
X3.6469Y-4.7441
X3.6823Y-1.4699
X3.6982Y-1.5569
X3.7784Y-2.3715
X3.7784Y-2.3982
X3.7902Y-2.574
X3.8039Y-4.7268
X3.811Y-5.619
X3.8139Y-5.5934
X3.8571Y-5.8041
X3.8571Y-5.8278
X3.8571Y-1.6638
X3.8803Y-1.1287
X3.8821Y-2.5207
X3.8821Y-2.5443
X3.8821Y-2.3715
X3.8821Y-2.3982
X3.8907Y-4.4177
X3.8907Y-4.2454
X3.9004Y-4.2961
X3.9122Y-4.4339
X3.9207Y-4.2454
X3.924Y-4.2961
X3.9362Y-4.4163
X3.937Y-5.574
X3.941Y-4.7303
X3.9457Y-4.4535
X3.9498Y-4.2956
X3.9669Y-4.7299
X3.9728Y-4.4457
X3.9835Y-5.6929
X3.985Y-4.7496
X3.9961Y-4.4539
X4.0281Y-5.0483
X4.0285Y-5.0242
X4.031Y-5.6709
X4.0315Y-5.5744
X4.0386Y-2.3701
X4.0386Y-2.3968
X4.0403Y-2.518
X4.0403Y-2.5446
X4.0461Y-2.0564
X4.0461Y-2.083
X4.0501Y-4.4186
X4.0504Y-4.7622
X4.0528Y-2.2042
X4.0528Y-2.2308
X4.0724Y-4.7728
X4.0758Y-1.7384
X4.076Y-1.1004
X4.0804Y-5.6831
X4.081Y-5.4474
X4.0819Y-4.3201
X4.0844Y-4.235
X4.0852Y-3.8573
X4.0852Y-4.0148
X4.0903Y-3.2126
X4.0903Y-3.2393
X4.0913Y-4.7587
X4.0993Y-5.6642
X4.1039Y-4.1448
X4.1039Y-4.1715
X4.1076Y-5.4474
X4.1079Y-4.7417
X4.1119Y-3.8573
X4.1119Y-4.0148
X4.1224Y-1.7504
X4.1252Y-4.7256
X4.1295Y-4.106
X4.1295Y-4.1326
X4.1425Y-4.7091
X4.1598Y-4.6925
X4.1657Y-4.0134
X4.1691Y-1.0049
X4.1772Y-4.6764
X4.1799Y-1.4795
X4.1868Y-0.8976
X4.187Y-1.0276
X4.187Y-4.315
X4.1924Y-4.0134
X4.1945Y-4.6591
X4.2049Y-1.0492
X4.2118Y-4.6425
X4.2207Y-4.2943
X4.222Y-1.9913
X4.222Y-2.1193
X4.2283Y-4.6248
X4.2353Y-5.7528
X4.2354Y-4.4969
X4.2356Y-5.6451
X4.2371Y-4.3177
X4.2371Y-4.3612
X4.2429Y-5.7799
X4.2437Y-4.6063
X4.244Y-4.295
X4.2457Y-4.422
X4.2472Y-4.1433
X4.2478Y-3.7717
X4.2478Y-3.7984
X4.2522Y-5.6289
X4.2601Y-4.3111
X4.2618Y-4.5906
X4.2783Y-4.3331
X4.2792Y-4.2934
X4.2803Y-4.1433
X4.2823Y-2.0564
X4.2823Y-2.083
X4.2831Y-4.578
X4.2862Y-2.517
X4.2862Y-2.5436
X4.2988Y-4.3083
X4.3004Y-4.5614
X4.3168Y-4.0651
X4.3177Y-4.3543
X4.3194Y-4.2955
X4.3197Y-4.5476
X4.3402Y-4.3091
X4.3435Y-4.0651
X4.3491Y-2.422
X4.3491Y-3.9924
X4.3619Y-4.2962
X4.3654Y-3.8122
X4.3737Y-2.1287
X4.3757Y-2.422
X4.3757Y-3.9924
X4.3842Y-3.7933
X4.3963Y-3.9493
X4.4003Y-2.1287
X4.423Y-3.9493
X4.4409Y-3.786
X4.4409Y-3.8127
X4.4449Y-5.6331
X4.4567Y-5.5158
X4.4677Y-5.6411
X4.4934Y-5.6411
X4.4937Y-4.2386
X4.5022Y-4.2982
X4.511Y-5.696
X4.5255Y-4.2996
X4.5292Y-5.6779
X4.6072Y-5.6454
X4.6254Y-5.6636
X4.6551Y-5.6906
X4.6748Y-4.2342
X4.6936Y-4.2154
X4.7115Y-4.3441
X4.7264Y-5.5685
X4.7273Y-0.979
X4.7381Y-4.3441
X4.7522Y-0.9764
X4.7894Y-5.3862
X4.8131Y-1.065
X4.8132Y-0.6634
X4.822Y-2.6071
X4.8388Y-0.6634
X4.8388Y-1.065
X4.8433Y-2.2866
X4.9059Y-2.5205
X4.9287Y-4.6421
X4.9437Y-4.8161
X4.9437Y-4.839
X4.9448Y-4.6583
X4.9531Y-2.5419
X4.9882Y-2.6173
X5.0004Y-2.5484
X5.0146Y-5.3827
X5.0197Y-4.7827
X5.0582Y-5.5091
X5.0582Y-5.5319
X5.1089Y-5.3825
X5.125Y-5.3986
X5.3671Y-1.4854
X5.4189Y-3.6703
X5.4431Y-3.6476
X5.4707Y-4.6828
X5.4707Y-4.7094
X5.4713Y-4.5056
X5.4713Y-4.5323
X5.4713Y-4.5686
X5.4713Y-4.5953
X5.4791Y-5.1984
X5.4791Y-5.2213
X5.4791Y-5.3205
X5.4791Y-5.3433
X5.4791Y-5.4386
X5.4791Y-5.4614
X5.5972Y-4.7457
X5.5972Y-4.7685
X5.5972Y-5.1984
X5.5972Y-5.2213
X5.5972Y-5.2614
X5.5972Y-5.2843
X5.601Y-4.5686
X5.601Y-4.5953
X5.6012Y-4.5056
X5.6012Y-4.5323
X5.6012Y-4.6276
X5.6012Y-4.6504
X5.6012Y-4.6828
X5.6012Y-4.7094
X5.6012Y-5.3205
X5.6012Y-5.3433
X5.6012Y-5.3795
X5.6012Y-5.4024
X5.6012Y-5.4386
X5.6012Y-5.4614
T2
X0.1878Y-4.8748
X0.1878Y-4.9575
X0.2075Y-4.8039
X0.2075Y-4.9969
X0.2193Y-5.0756
X0.2406Y-5.2059
X0.2587Y-4.7646
X0.2783Y-4.8354
X0.2797Y-5.4075
X0.2941Y-5.0756
X0.3098Y-5.3059
X0.3374Y-4.7646
X0.3512Y-5.0303
X0.3689Y-4.926
X0.3728Y-4.863
X0.378Y-4.5449
X0.3807Y-5.4075
X0.3996Y-0.8524
X0.4142Y-4.926
X0.4213Y-5.0343
X0.424Y-5.0894
X0.4398Y-4.9965
X0.4614Y-5.3689
X0.4634Y-5.5079
X0.472Y-0.0394
X0.472Y-0.0758
X0.472Y-0.1122
X0.475Y-5.0872
X0.4811Y-4.4547
X0.4909Y-5.1066
X0.4909Y-5.2567
X0.5031Y-4.624
X0.5067Y-4.985
X0.5087Y-4.4543
X0.5122Y-5.1266
X0.5193Y-1.2299
X0.5374Y-1.1606
X0.5512Y-2.65
X0.5563Y-1.3161
X0.5646Y-4.8988
X0.5657Y-5.4598
X0.5799Y-1.1343
X0.5957Y-4.8984
X0.6055Y-4.999
X0.6055Y-5.0482
X0.6055Y-5.0974
X0.6183Y-0.7156
X0.6323Y-3.9398
X0.6419Y-0.6801
X0.6547Y-4.999
X0.6547Y-5.0482
X0.6547Y-5.0974
X0.6547Y-5.1957
X0.6551Y-4.8969
X0.6567Y-2.5004
X0.6567Y-3.6949
X0.6571Y-2.9945
X0.6575Y-2.6087
X0.6591Y-2.7276
X0.6593Y-2.4673
X0.667Y-0.4626
X0.6764Y-4.6594
X0.6807Y-1.3878
X0.6835Y-1.339
X0.7031Y-5.5449
X0.7039Y-4.999
X0.7039Y-5.0482
X0.7039Y-5.0974
X0.7098Y-2.9972
X0.7118Y-0.561
X0.7124Y-0.6358
X0.7126Y-1.0827
X0.7325Y-5.5453
X0.7504Y-2.7866
X0.7567Y-1.4894
X0.7571Y-1.4386
X0.76Y-5.5374
X0.7751Y-5.2686
X0.7843Y-3.8728
X0.8083Y-5.0276
X0.8083Y-5.127
X0.8087Y-2.9516
X0.8189Y-4.8563
X0.8213Y-2.8811
X0.826Y-2.2657
X0.8441Y-2.1925
X0.8558Y-5.2666
X0.8559Y-2.2654
X0.861Y-3.8819
X0.8634Y-0.1386
X0.8874Y-0.7756
X0.8912Y-0.1386
X0.8937Y-2.7315
X0.8937Y-4.0024
X0.9063Y-0.4886
X0.9142Y-5.0283
X0.9172Y-4.0024
X0.919Y-0.1386
X0.9407Y-4.0024
X0.9469Y-0.1386
X0.9554Y-5.125
X0.9622Y-2.2543
X0.9642Y-4.0024
X0.9827Y-3.7957
X0.9843Y-4.115
X0.9864Y-0.2461
X0.9866Y-2.7299
X0.9874Y-1.0476
X0.9882Y-4.624
X0.9913Y-3.8803
X0.9923Y-4.0628
X0.9925Y-2.2906
X1.0017Y-4.8776
X1.0051Y-4.6693
X1.0165Y-0.648
X1.0169Y-3.9461
X1.0217Y-2.4909
X1.0394Y-2.1902
X1.0396Y-0.9281
X1.0396Y-2.5453
X1.0433Y-1.0472
X1.0435Y-0.2461
X1.044Y-2.7313
X1.0453Y-3.7807
X1.0476Y-4.0618
X1.0557Y-4.9087
X1.0561Y-5.0362
X1.0701Y-2.3079
X1.0811Y-3.4839
X1.085Y-2.1898
X1.0857Y-4.0669
X1.0862Y-2.6079
X1.0868Y-2.6673
X1.087Y-0.8563
X1.0876Y-3.8801
X1.0878Y-0.9795
X1.0905Y-2.259
X1.098Y-3.3087
X1.1045Y-0.2461
X1.1071Y-0.6476
X1.1091Y-4.0043
X1.1128Y-4.0669
X1.1138Y-3.8406
X1.1159Y-3.8752
X1.1221Y-4.1183
X1.1268Y-3.3087
X1.1341Y-0.9281
X1.1341Y-1.0541
X1.1341Y-2.5433
X1.1341Y-2.7293
X1.1399Y-4.0668
X1.1429Y-5.4969
X1.1469Y-4.1183
X1.1498Y-2.2657
X1.1498Y-2.4341
X1.1524Y-3.8642
X1.1549Y-4.9835
X1.1616Y-0.2441
X1.1622Y-2.3031
X1.1709Y-5.5244
X1.1744Y-0.1949
X1.178Y-4.6665
X1.1811Y-2.6083
X1.1813Y-2.6663
X1.1815Y-0.8559
X1.1819Y-0.9799
X1.1835Y-4.0681
X1.1925Y-3.5106
X1.1949Y-0.6717
X1.1985Y-3.8061
X1.2Y-5.5531
X1.2004Y-3.3346
X1.2142Y-4.0661
X1.2244Y-3.2059
X1.2272Y-4.624
X1.2276Y-2.7293
X1.2285Y-0.9281
X1.2285Y-1.0502
X1.2285Y-2.5443
X1.2287Y-2.1929
X1.2443Y-2.3868
X1.2443Y-4.0659
X1.2496Y-3.9453
X1.2508Y-3.8783
X1.2522Y-0.2411
X1.2535Y-3.3087
X1.261Y-0.8539
X1.2758Y-2.6073
X1.276Y-0.9799
X1.2763Y-1.0512
X1.2764Y-2.6661
X1.2819Y-3.4843
X1.2945Y-2.7303
X1.298Y-0.3945
X1.2994Y-0.0728
X1.3004Y-0.1112
X1.3047Y-5.5709
X1.3063Y-2.1858
X1.3067Y-5.798
X1.3073Y-2.2657
X1.3094Y-3.7815
X1.3134Y-3.435
X1.3157Y-0.8551
X1.3165Y-0.9256
X1.3185Y-5.2449
X1.3185Y-5.6976
X1.3216Y-5.506
X1.322Y-2.3157
X1.322Y-2.5443
X1.323Y-4.0012
X1.3232Y-3.8811
X1.3252Y-5.4594
X1.3327Y-5.3465
X1.335Y-2.1772
X1.335Y-2.2575
X1.3512Y-5.763
X1.3524Y-5.672
X1.355Y-5.1457
X1.361Y-3.8811
X1.363Y-2.1771
X1.3646Y-3.3437
X1.3661Y-2.2567
X1.3697Y-0.8598
X1.3703Y-2.6112
X1.3709Y-5.4949
X1.3717Y-4.065
X1.3835Y-3.9453
X1.385Y-3.8632
X1.3858Y-2.0898
X1.386Y-2.1917
X1.389Y-2.2764
X1.4018Y-3.9807
X1.4028Y-2.3878
X1.4043Y-5.8319
X1.4087Y-2.1787
X1.4087Y-2.2567
X1.4165Y-0.8594
X1.4165Y-5.7043
X1.4175Y-2.5433
X1.4205Y-3.8642
X1.4205Y-3.9453
X1.4272Y-2.7272
X1.4307Y-2.1417
X1.4311Y-0.9795
X1.4421Y-2.2634
X1.4429Y-1.0669
X1.4449Y-3.6177
X1.4449Y-5.5008
X1.4484Y-3.8551
X1.4485Y-2.3146
X1.4488Y-3.9996
X1.45Y-3.9469
X1.4618Y-3.4866
X1.4622Y-0.6421
X1.4642Y-3.061
X1.4642Y-4.0902
X1.4648Y-0.9236
X1.4648Y-2.6693
X1.4648Y-2.6044
X1.4665Y-2.428
X1.4693Y-2.1465
X1.4693Y-5.65
X1.4697Y-2.1811
X1.4697Y-3.8768
X1.4717Y-0.6862
X1.4787Y-5.0831
X1.4831Y-0.4159
X1.4913Y-3.435
X1.4965Y-3.9445
X1.502Y-5.7768
X1.5094Y-0.8598
X1.5094Y-2.5425
X1.5098Y-3.4606
X1.5106Y-0.9787
X1.5106Y-2.7272
X1.5185Y-3.678
X1.5197Y-2.3768
X1.5201Y-2.2535
X1.522Y-4.0921
X1.5248Y-2.1575
X1.5366Y-3.3791
X1.5386Y-2.7264
X1.5435Y-4.0
X1.5453Y-5.5201
X1.5457Y-3.3433
X1.5492Y-5.4465
X1.5593Y-0.9228
X1.5626Y-5.6382
X1.5665Y-1.0469
X1.5744Y-2.6657
X1.5756Y-3.8799
X1.5906Y-5.6343
X1.5909Y-2.372
X1.5927Y-4.0079
X1.5957Y-4.0744
X1.5965Y-2.7264
X1.6063Y-5.8677
X1.6065Y-2.6043
X1.6098Y-5.698
X1.6118Y-5.8272
X1.6122Y-2.5043
X1.6164Y-2.372
X1.6177Y-4.0079
X1.6205Y-3.4886
X1.6315Y-5.6752
X1.6378Y-5.489
X1.6385Y-5.0453
X1.6419Y-2.372
X1.6426Y-4.0079
X1.6543Y-1.0484
X1.6583Y-3.8807
X1.661Y-5.6102
X1.663Y-0.0435
X1.663Y-0.0799
X1.663Y-0.1163
X1.6673Y-2.372
X1.6675Y-4.0079
X1.6697Y-1.4909
X1.6716Y-4.0659
X1.6744Y-0.9417
X1.6764Y-2.1933
X1.6764Y-2.2689
X1.6791Y-2.0571
X1.6846Y-3.8803
X1.6874Y-5.5217
X1.6941Y-0.1988
X1.6953Y-3.3776
X1.6965Y-3.0504
X1.6976Y-2.3799
X1.6984Y-1.5102
X1.6996Y-4.0665
X1.7004Y-0.922
X1.701Y-2.7254
X1.7051Y-2.5469
X1.7075Y-0.9823
X1.711Y-3.3445
X1.7154Y-0.9563
X1.7155Y-5.0681
X1.7254Y-4.0654
X1.7272Y-2.302
X1.7323Y-2.0559
X1.737Y-3.0512
X1.7402Y-3.4752
X1.7465Y-2.6673
X1.7472Y-2.1933
X1.7482Y-0.9242
X1.7482Y-1.0476
X1.7482Y-2.6053
X1.7482Y-3.8839
X1.7492Y-2.3823
X1.763Y-4.0659
X1.7791Y-2.7232
X1.7823Y-2.2996
X1.7858Y-3.885
X1.8047Y-3.9055
X1.8299Y-3.7224
X1.835Y-2.5811
X1.837Y-2.1945
X1.839Y-1.726
X1.839Y-1.928
X1.839Y-2.0925
X1.8402Y-1.4587
X1.8409Y-0.7618
X1.8409Y-1.1969
X1.8413Y-2.3067
X1.852Y-3.8878
X1.8524Y-2.6587
X1.8551Y-2.7976
X1.8555Y-2.939
X1.8736Y-5.0295
X1.8957Y-5.3441
X1.8988Y-0.5571
X1.8988Y-0.6417
X1.9063Y-2.7449
X1.9122Y-5.0429
X1.9134Y-4.0069
X1.9142Y-3.6835
X1.9165Y-5.1772
X1.9244Y-2.937
X1.9382Y-5.3012
X1.9638Y-2.5461
X1.9756Y-3.5791
X1.9803Y-2.7976
X1.9882Y-3.3799
X1.9906Y-4.0776
X1.9913Y-3.2461
X1.9921Y-2.6587
X1.9937Y-3.648
X1.9965Y-5.1524
X2.028Y-3.1709
X2.0327Y-2.7677
X2.0401Y-5.127
X2.0563Y-3.311
X2.0598Y-3.6071
X2.0642Y-2.8228
X2.0843Y-0.5953
X2.0866Y-3.5362
X2.0917Y-2.689
X2.1165Y-2.1319
X2.1173Y-2.3425
X2.1213Y-2.5661
X2.1295Y-5.2992
X2.1331Y-5.1209
X2.1394Y-1.6835
X2.1394Y-1.7335
X2.1394Y-1.7835
X2.1394Y-1.8335
X2.1394Y-1.8835
X2.1457Y-2.3713
X2.1606Y-3.461
X2.1835Y-4.8738
X2.1852Y-0.2372
X2.1874Y-4.9417
X2.1894Y-1.6835
X2.1894Y-1.7335
X2.1894Y-1.7835
X2.1894Y-1.8335
X2.1894Y-1.8835
X2.201Y-5.3533
X2.2083Y-3.4101
X2.2146Y-0.4047
X2.2154Y-4.7642
X2.2374Y-3.2559
X2.2389Y-5.3022
X2.2394Y-1.6835
X2.2394Y-1.7835
X2.2394Y-1.8835
X2.2443Y-0.2362
X2.2504Y-5.0382
X2.2539Y-3.3571
X2.2591Y-3.189
X2.2621Y-4.944
X2.273Y-0.4059
X2.289Y-1.7834
X2.289Y-4.7673
X2.2894Y-1.6835
X2.2894Y-1.8835
X2.3012Y-5.3539
X2.3024Y-0.2372
X2.3209Y-3.6087
X2.3311Y-0.4047
X2.3319Y-3.4528
X2.3364Y-3.1545
X2.3374Y-1.8866
X2.3374Y-4.0264
X2.3453Y-1.426
X2.3453Y-1.5992
X2.3453Y-1.6819
X2.3453Y-1.7834
X2.3535Y-2.8843
X2.3624Y-0.2382
X2.3646Y-4.5189
X2.3673Y-4.7642
X2.3756Y-1.5165
X2.378Y-2.0563
X2.378Y-2.5374
X2.3862Y-1.8437
X2.389Y-0.411
X2.3941Y-4.1299
X2.3949Y-3.9996
X2.3965Y-2.9394
X2.4018Y-0.3868
X2.4059Y-5.3362
X2.4067Y-2.1713
X2.4067Y-2.2106
X2.4079Y-3.6232
X2.4083Y-1.9339
X2.4098Y-2.8559
X2.4173Y-2.5201
X2.4177Y-2.3886
X2.4193Y-3.8646
X2.4197Y-3.7075
X2.4197Y-3.7386
X2.4205Y-0.5429
X2.4224Y-1.8374
X2.4272Y-1.3748
X2.4272Y-1.4283
X2.4272Y-1.6224
X2.4276Y-1.4661
X2.4276Y-1.5055
X2.4276Y-1.5449
X2.4276Y-1.5843
X2.4276Y-2.6579
X2.4307Y-4.2067
X2.4402Y-2.9953
X2.4449Y-4.2992
X2.4459Y-2.0638
X2.4459Y-2.1139
X2.4459Y-2.1532
X2.4459Y-2.1926
X2.4459Y-2.232
X2.4459Y-2.2714
X2.4459Y-2.3117
X2.4461Y-0.2382
X2.4461Y-4.522
X2.452Y-3.4528
X2.4598Y-2.6087
X2.4638Y-3.1319
X2.4657Y-3.2559
X2.4669Y-1.4661
X2.4669Y-1.5055
X2.4669Y-1.5449
X2.4732Y-1.8437
X2.4732Y-3.8732
X2.4748Y-4.1528
X2.4768Y-2.8276
X2.4791Y-0.3984
X2.4852Y-2.1532
X2.4852Y-2.1926
X2.4852Y-2.232
X2.4933Y-3.0197
X2.4941Y-3.9197
X2.4976Y-4.298
X2.498Y-4.5217
X2.5002Y-0.0728
X2.5012Y-0.1112
X2.5012Y-3.6764
X2.5016Y-5.4134
X2.5063Y-1.4661
X2.5063Y-1.5055
X2.5063Y-1.5449
X2.5209Y-2.0315
X2.5217Y-3.7256
X2.5246Y-2.1532
X2.5246Y-2.1926
X2.5246Y-2.232
X2.5287Y-4.0768
X2.5307Y-3.0701
X2.5307Y-3.8016
X2.5319Y-5.3591
X2.5323Y-5.1937
X2.5327Y-5.4528
X2.5335Y-2.8008
X2.5378Y-1.3102
X2.5398Y-3.8457
X2.5437Y-1.9346
X2.5457Y-1.4661
X2.5457Y-1.5055
X2.5457Y-1.5449
X2.5476Y-4.2992
X2.5484Y-4.5217
X2.5504Y-4.2028
X2.5539Y-3.135
X2.5579Y-1.6583
X2.564Y-2.1532
X2.564Y-2.1926
X2.564Y-2.232
X2.565Y-3.2055
X2.5654Y-3.5717
X2.5654Y-3.6512
X2.5657Y-3.2921
X2.5657Y-3.3291
X2.5657Y-3.3795
X2.5657Y-3.4273
X2.5657Y-3.4751
X2.5657Y-3.5228
X2.566Y-1.7331
X2.5669Y-1.7929
X2.585Y-1.4661
X2.585Y-1.5055
X2.585Y-1.5449
X2.5996Y-3.2559
X2.6008Y-1.3673
X2.6016Y-0.3917
X2.6033Y-2.1532
X2.6033Y-2.1926
X2.6033Y-2.232
X2.6043Y-2.6398
X2.6055Y-4.2995
X2.6083Y-3.922
X2.6114Y-1.952
X2.6122Y-2.7303
X2.6122Y-2.7673
X2.6122Y-2.8031
X2.6154Y-2.0575
X2.6165Y-4.2492
X2.6165Y-4.5213
X2.6173Y-3.1929
X2.6244Y-1.4661
X2.6244Y-1.5055
X2.6244Y-1.5449
X2.6268Y-3.887
X2.6427Y-2.1532
X2.6427Y-2.1926
X2.6427Y-2.232
X2.6516Y-3.1465
X2.6612Y-2.8028
X2.6638Y-1.4268
X2.6638Y-1.4661
X2.6638Y-1.5055
X2.6638Y-1.5449
X2.6638Y-1.5843
X2.6673Y-3.1929
X2.674Y-5.4965
X2.6821Y-2.1178
X2.6821Y-2.1532
X2.6821Y-2.1926
X2.6825Y-2.2324
X2.6825Y-2.2718
X2.6961Y-2.5913
X2.6986Y-5.4955
X2.702Y-3.1445
X2.7028Y-2.7307
X2.7028Y-2.7677
X2.7043Y-4.5217
X2.7062Y-2.8028
X2.7079Y-1.9453
X2.7173Y-3.1929
X2.722Y-5.4953
X2.7293Y-2.5205
X2.7295Y-2.5571
X2.7295Y-2.5941
X2.7311Y-1.9126
X2.7315Y-1.8055
X2.7354Y-1.6567
X2.7354Y-1.6992
X2.7358Y-3.8307
X2.7382Y-2.6352
X2.7413Y-4.063
X2.7488Y-5.737
X2.7492Y-5.7118
X2.7512Y-2.8028
X2.7673Y-3.1929
X2.7728Y-2.9693
X2.7752Y-2.6352
X2.7795Y-3.9236
X2.7827Y-5.6465
X2.7862Y-5.7173
X2.7866Y-3.3042
X2.7866Y-3.3435
X2.7866Y-3.3829
X2.7866Y-3.4223
X2.7866Y-3.4616
X2.7866Y-3.501
X2.787Y-1.6571
X2.7871Y-1.6992
X2.7957Y-2.7309
X2.7957Y-2.7677
X2.7963Y-2.8028
X2.8061Y-2.7017
X2.8091Y-3.1469
X2.8118Y-2.635
X2.8118Y-5.6681
X2.8173Y-3.1929
X2.822Y-5.7291
X2.824Y-2.8024
X2.8264Y-4.5217
X2.8266Y-2.9738
X2.8293Y-3.2605
X2.8299Y-3.3043
X2.8299Y-3.3437
X2.8299Y-3.3831
X2.8299Y-3.4224
X2.8299Y-3.4618
X2.8299Y-3.5012
X2.8299Y-3.5445
X2.8386Y-1.6571
X2.8388Y-1.6992
X2.8457Y-3.0362
X2.8508Y-2.5957
X2.8516Y-2.5272
X2.8516Y-2.5614
X2.8518Y-2.4959
X2.8555Y-1.774
X2.8555Y-1.824
X2.8555Y-1.874
X2.8555Y-1.924
X2.8614Y-5.7067
X2.8614Y-5.7484
X2.8673Y-3.1929
X2.8677Y-3.0205
X2.8726Y-3.2605
X2.8726Y-3.3038
X2.8732Y-3.3437
X2.8732Y-3.3831
X2.8732Y-3.4224
X2.8732Y-3.4618
X2.8732Y-3.5012
X2.8732Y-3.5445
X2.8768Y-3.8343
X2.878Y-4.0626
X2.8846Y-1.8492
X2.8848Y-2.4951
X2.885Y-2.527
X2.885Y-2.5612
X2.8902Y-1.6571
X2.8906Y-1.6992
X2.8906Y-1.7492
X2.8906Y-1.7992
X2.8929Y-1.4764
X2.8929Y-1.5184
X2.8929Y-1.5604
X2.8929Y-1.6024
X2.9008Y-5.6488
X2.9159Y-3.2605
X2.9161Y-3.0201
X2.9165Y-3.3043
X2.9165Y-3.3437
X2.9165Y-3.3831
X2.9165Y-3.4224
X2.9165Y-3.4618
X2.9165Y-3.5012
X2.9165Y-3.5445
X2.9173Y-3.1929
X2.9177Y-2.5278
X2.9177Y-2.562
X2.9183Y-2.4961
X2.9201Y-3.9012
X2.935Y-3.0417
X2.9488Y-3.1469
X2.9592Y-3.2605
X2.9592Y-3.3038
X2.9598Y-3.3437
X2.9598Y-3.3831
X2.9598Y-3.4224
X2.9598Y-3.4618
X2.9598Y-3.5012
X2.9598Y-3.5445
X2.9598Y-5.6488
X2.9673Y-3.1929
X2.989Y-1.7665
X2.9904Y-1.6892
X2.9909Y-3.928
X2.9976Y-3.1461
X2.9992Y-1.5177
X3.0Y-1.837
X3.001Y-1.5917
X3.0025Y-3.2605
X3.0031Y-3.3043
X3.0031Y-3.3437
X3.0031Y-3.3831
X3.0031Y-3.4224
X3.0031Y-3.4618
X3.0031Y-3.5012
X3.0031Y-3.5445
X3.0081Y-3.0502
X3.0169Y-2.9537
X3.0173Y-3.1929
X3.0179Y-1.3443
X3.0189Y-4.2303
X3.0189Y-5.6492
X3.0248Y-2.6114
X3.0276Y-3.1407
X3.0287Y-4.1063
X3.0291Y-3.963
X3.0367Y-4.0319
X3.0395Y-1.877
X3.0417Y-2.85
X3.0453Y-1.6892
X3.0459Y-3.2605
X3.0465Y-3.3043
X3.0465Y-3.3437
X3.0465Y-3.3831
X3.0465Y-3.4224
X3.0465Y-3.4618
X3.0465Y-3.5012
X3.0465Y-3.5445
X3.048Y-2.0378
X3.0522Y-1.8352
X3.0559Y-2.1268
X3.0559Y-2.5126
X3.0673Y-3.1929
X3.0695Y-1.6224
X3.0697Y-1.3815
X3.0697Y-1.4654
X3.0697Y-1.5047
X3.0697Y-1.5441
X3.0697Y-1.5835
X3.0701Y-1.4276
X3.0768Y-3.1449
X3.078Y-2.9154
X3.078Y-5.6492
X3.0787Y-1.9504
X3.0839Y-1.2654
X3.085Y-4.085
X3.0874Y-2.0657
X3.0898Y-3.3043
X3.0898Y-3.3437
X3.0898Y-3.3831
X3.0898Y-3.4224
X3.0898Y-3.4618
X3.0898Y-3.5012
X3.0938Y-2.4973
X3.0976Y-4.1772
X3.0992Y-2.3787
X3.0992Y-2.4594
X3.1Y-1.874
X3.1012Y-4.0512
X3.1031Y-3.9752
X3.1071Y-2.174
X3.1071Y-2.2134
X3.1071Y-2.2528
X3.1081Y-2.1388
X3.1091Y-1.4654
X3.1091Y-1.5047
X3.1091Y-1.5441
X3.1154Y-4.1969
X3.1173Y-3.1929
X3.1203Y-2.9272
X3.1301Y-1.3341
X3.1343Y-1.8374
X3.1376Y-2.1541
X3.1376Y-2.1935
X3.1376Y-2.2329
X3.1484Y-1.4654
X3.1484Y-1.5047
X3.1484Y-1.5441
X3.1583Y-3.8945
X3.165Y-4.2134
X3.1665Y-1.689
X3.1673Y-3.1929
X3.177Y-2.1541
X3.177Y-2.1935
X3.177Y-2.2329
X3.1815Y-2.4969
X3.1823Y-3.8772
X3.1843Y-3.7559
X3.1878Y-1.4654
X3.1878Y-1.5047
X3.1878Y-1.5441
X3.1898Y-4.0512
X3.1909Y-1.7677
X3.1957Y-1.9453
X3.215Y-3.8976
X3.2163Y-2.1541
X3.2163Y-2.1935
X3.2163Y-2.2329
X3.2173Y-3.1929
X3.2232Y-2.9303
X3.2236Y-3.0236
X3.2272Y-1.4654
X3.2272Y-1.5047
X3.2272Y-1.5441
X3.2287Y-4.0705
X3.2394Y-1.3697
X3.2469Y-2.3628
X3.2469Y-2.4969
X3.2557Y-2.1541
X3.2557Y-2.1935
X3.2557Y-2.2329
X3.265Y-3.8504
X3.2665Y-1.4654
X3.2665Y-1.5047
X3.2665Y-1.5441
X3.2673Y-3.1929
X3.2728Y-3.2756
X3.276Y-2.0579
X3.2783Y-3.9752
X3.2787Y-4.0512
X3.2951Y-2.1541
X3.2951Y-2.1935
X3.2951Y-2.2329
X3.3024Y-3.7776
X3.3059Y-1.426
X3.3059Y-1.4654
X3.3059Y-1.5047
X3.3059Y-1.5441
X3.3059Y-1.5835
X3.3118Y-3.2299
X3.3122Y-3.3134
X3.3122Y-3.3512
X3.3122Y-3.3949
X3.3122Y-3.4461
X3.3122Y-3.4972
X3.3122Y-3.5484
X3.3122Y-3.5898
X3.3122Y-3.6406
X3.313Y-4.0512
X3.3232Y-1.9433
X3.3295Y-2.1348
X3.3295Y-2.174
X3.3295Y-2.2134
X3.3295Y-2.2528
X3.3378Y-3.9035
X3.3378Y-4.0374
X3.339Y-3.9724
X3.3575Y-3.8157
X3.3835Y-0.0474
X3.3835Y-0.0839
X3.3835Y-0.1203
X3.3894Y-1.6559
X3.3894Y-1.6992
X3.4031Y-2.3803
X3.4079Y-3.2748
X3.4091Y-2.3508
X3.4096Y-3.4715
X3.413Y-4.7697
X3.413Y-4.9705
X3.413Y-5.1713
X3.413Y-5.372
X3.4319Y-5.4969
X3.4346Y-1.6559
X3.4346Y-1.6992
X3.4398Y-2.3803
X3.4457Y-2.3512
X3.4654Y-2.739
X3.4705Y-2.6134
X3.4799Y-1.6559
X3.4799Y-1.6992
X3.4799Y-1.7465
X3.4799Y-1.8016
X3.4799Y-1.8567
X3.4799Y-1.9118
X3.4803Y-2.335
X3.4803Y-2.3665
X3.4803Y-2.398
X3.4803Y-2.4295
X3.5016Y-1.9453
X3.5035Y-3.128
X3.5047Y-1.2669
X3.5051Y-1.3827
X3.5106Y-2.7783
X3.5217Y-2.335
X3.5217Y-2.3665
X3.5217Y-2.398
X3.5217Y-2.4295
X3.5252Y-1.6559
X3.5252Y-1.6992
X3.5252Y-1.7465
X3.5252Y-1.8016
X3.5252Y-1.8567
X3.5252Y-1.9118
X3.528Y-4.1701
X3.5287Y-3.374
X3.5307Y-3.4724
X3.5307Y-3.5709
X3.5469Y-2.1394
X3.55Y-5.6465
X3.5571Y-0.6665
X3.5673Y-1.944
X3.5689Y-2.5866
X3.5689Y-2.7252
X3.5693Y-2.1949
X3.5705Y-1.8016
X3.5705Y-1.8567
X3.5705Y-1.9118
X3.5732Y-2.4488
X3.5756Y-1.1358
X3.5799Y-2.0008
X3.5815Y-1.3193
X3.5823Y-1.1657
X3.6047Y-5.6106
X3.6063Y-2.5476
X3.6142Y-1.7972
X3.6146Y-1.5689
X3.6154Y-1.6295
X3.6244Y-0.5602
X3.6248Y-5.8197
X3.6249Y-0.6388
X3.6354Y-1.8457
X3.6362Y-2.4925
X3.6437Y-4.2803
X3.6449Y-1.285
X3.6468Y-5.5689
X3.6476Y-0.5409
X3.6528Y-1.9134
X3.6539Y-1.6287
X3.6551Y-1.7972
X3.6583Y-3.7441
X3.6591Y-5.3815
X3.6681Y-5.8118
X3.6724Y-5.7559
X3.6858Y-1.5957
X3.6902Y-1.5059
X3.698Y-3.6118
X3.6992Y-1.6287
X3.7Y-1.7551
X3.7004Y-1.6709
X3.7004Y-1.713
X3.7004Y-1.7972
X3.7039Y-5.4567
X3.7087Y-5.5098
X3.7114Y-5.7646
X3.7154Y-5.7921
X3.7157Y-5.7165
X3.7169Y-3.6685
X3.7193Y-5.2941
X3.7244Y-5.565
X3.7299Y-3.3685
X3.7315Y-4.8138
X3.735Y-5.0726
X3.7409Y-1.4087
X3.7425Y-5.8126
X3.7445Y-1.6287
X3.7453Y-1.7551
X3.7457Y-1.6709
X3.7457Y-1.713
X3.7457Y-1.7972
X3.7646Y-1.285
X3.7709Y-1.9528
X3.7744Y-4.2803
X3.7752Y-5.4555
X3.789Y-2.3441
X3.7906Y-3.411
X3.7906Y-4.1177
X3.7906Y-4.8035
X3.8055Y-1.4083
X3.8069Y-5.5561
X3.8106Y-4.1402
X3.8157Y-4.8039
X3.8303Y-1.4177
X3.8331Y-3.9346
X3.8374Y-4.3
X3.8374Y-4.3787
X3.8461Y-5.4358
X3.8492Y-5.6067
X3.8575Y-3.6516
X3.8579Y-1.615
X3.8669Y-3.6799
X3.8673Y-5.7539
X3.8677Y-1.5709
X3.878Y-1.4921
X3.8815Y-5.2961
X3.886Y-0.2461
X3.8862Y-5.5669
X3.8884Y-4.7406
X3.8917Y-5.5055
X3.8945Y-4.1701
X3.8961Y-1.3134
X3.9003Y-5.7549
X3.9055Y-3.1354
X3.9063Y-1.5421
X3.9063Y-4.8591
X3.915Y-0.502
X3.9161Y-0.5898
X3.9232Y-3.6201
X3.9287Y-5.7559
X3.9291Y-1.3134
X3.9299Y-5.037
X3.947Y-0.2461
X3.948Y-1.6374
X3.9575Y-4.1681
X3.9579Y-1.6638
X3.9589Y-5.7539
X3.9665Y-1.5492
X3.972Y-0.5421
X3.9736Y-4.3429
X3.9743Y-4.2961
X3.9764Y-1.3134
X3.9898Y-1.3917
X3.9898Y-1.3524
X3.9898Y-1.4311
X3.9898Y-1.4705
X3.9898Y-1.5098
X3.9933Y-5.5382
X3.9945Y-1.2886
X3.9953Y-1.1449
X3.9961Y-4.3429
X3.9979Y-4.2961
X4.0016Y-0.7776
X4.0041Y-0.248
X4.0047Y-5.3681
X4.0059Y-1.5492
X4.0114Y-1.313
X4.0126Y-4.1642
X4.0152Y-4.3568
X4.0215Y-4.2961
X4.0291Y-1.3524
X4.0291Y-1.3917
X4.0291Y-1.4311
X4.0291Y-1.4705
X4.0291Y-1.5098
X4.0319Y-5.7535
X4.0323Y-5.3933
X4.0339Y-0.5961
X4.0433Y-4.1626
X4.0441Y-5.4478
X4.0451Y-4.2961
X4.0453Y-1.5492
X4.0465Y-4.8209
X4.0487Y-1.313
X4.0626Y-4.3441
X4.0632Y-0.2461
X4.0657Y-1.6638
X4.0685Y-1.3524
X4.0685Y-1.3917
X4.0685Y-1.4311
X4.0685Y-1.4705
X4.0685Y-1.5098
X4.0693Y-1.1453
X4.0697Y-1.2874
X4.0701Y-4.2972
X4.0846Y-1.5492
X4.0861Y-1.313
X4.0913Y-0.6154
X4.0921Y-5.6366
X4.0984Y-4.7866
X4.1055Y-4.0858
X4.1189Y-5.3054
X4.1248Y-5.174
X4.1268Y-5.2783
X4.1299Y-4.9795
X4.1315Y-1.222
X4.1398Y-2.6327
X4.1402Y-2.2854
X4.1421Y-1.8819
X4.1424Y-4.8844
X4.1425Y-1.3146
X4.1518Y-0.2382
X4.1551Y-1.3783
X4.1571Y-1.222
X4.1571Y-1.5331
X4.161Y-1.6646
X4.161Y-2.1252
X4.1614Y-1.8579
X4.1614Y-2.0213
X4.1614Y-2.185
X4.165Y-0.6988
X4.1665Y-0.6689
X4.1875Y-4.8844
X4.1913Y-0.5524
X4.1996Y-0.3945
X4.2028Y-1.9012
X4.203Y-0.0719
X4.2039Y-0.1102
X4.2039Y-4.6839
X4.2043Y-1.6543
X4.2051Y-0.6988
X4.2067Y-1.8142
X4.2177Y-2.2551
X4.2183Y-2.201
X4.2189Y-2.2276
X4.2264Y-3.4157
X4.2326Y-4.8844
X4.2374Y-3.3378
X4.2449Y-5.5713
X4.2476Y-4.8339
X4.2477Y-4.9793
X4.2543Y-4.0866
X4.2555Y-5.8461
X4.2701Y-5.7811
X4.2748Y-2.2902
X4.276Y-2.2547
X4.2778Y-4.8844
X4.2881Y-4.9793
X4.3024Y-3.7551
X4.3118Y-5.4346
X4.3118Y-5.5705
X4.3146Y-5.6929
X4.3161Y-2.6988
X4.3191Y-2.2205
X4.3211Y-2.3415
X4.3256Y-3.878
X4.3293Y-4.0069
X4.3339Y-3.4311
X4.3388Y-0.9846
X4.3472Y-4.3382
X4.3524Y-4.1429
X4.3571Y-3.7559
X4.3575Y-0.6937
X4.3598Y-3.9492
X4.361Y-4.2362
X4.3622Y-5.6268
X4.3624Y-5.7496
X4.3626Y-4.0882
X4.3661Y-5.4567
X4.3685Y-3.0787
X4.3783Y-4.3591
X4.3791Y-4.3157
X4.3815Y-2.9941
X4.386Y-0.9157
X4.386Y-2.3093
X4.386Y-2.6063
X4.3862Y-0.8579
X4.3885Y-1.0417
X4.3886Y-4.1425
X4.3909Y-2.7333
X4.3961Y-5.6555
X4.4233Y-4.0626
X4.426Y-5.4724
X4.4262Y-0.6915
X4.4283Y-5.6929
X4.4327Y-5.376
X4.4333Y-0.9157
X4.4333Y-0.9846
X4.4333Y-2.5433
X4.4333Y-2.6644
X4.4358Y-4.9831
X4.437Y-2.4122
X4.4402Y-3.8811
X4.4407Y-2.1909
X4.4425Y-5.7886
X4.448Y-4.062
X4.4569Y-5.753
X4.463Y-3.9894
X4.4654Y-5.0126
X4.4657Y-4.8843
X4.472Y-5.8461
X4.4728Y-4.062
X4.4732Y-4.2984
X4.478Y-3.1354
X4.479Y-2.6073
X4.48Y-2.7283
X4.4805Y-1.0407
X4.4807Y-2.3094
X4.4878Y-4.3539
X4.4898Y-5.378
X4.4936Y-5.2776
X4.4965Y-4.002
X4.5002Y-2.189
X4.5046Y-5.752
X4.5055Y-0.8433
X4.5098Y-5.5567
X4.512Y-2.3091
X4.518Y-5.6343
X4.5185Y-0.9209
X4.5273Y-2.5453
X4.5276Y-3.9894
X4.5278Y-0.9846
X4.5278Y-2.6663
X4.5476Y-4.2339
X4.5514Y-3.812
X4.5514Y-5.753
X4.5519Y-4.4183
X4.5527Y-5.2776
X4.5531Y-5.6335
X4.5547Y-5.511
X4.5571Y-5.674
X4.5606Y-5.1795
X4.565Y-0.5602
X4.5705Y-5.3846
X4.5735Y-2.7293
X4.575Y-2.6053
X4.5752Y-2.1945
X4.5755Y-1.0407
X4.5839Y-5.6343
X4.5854Y-4.1469
X4.5866Y-0.9236
X4.5874Y-4.887
X4.5906Y-4.0606
X4.5917Y-2.3728
X4.5937Y-4.4181
X4.6071Y-3.1343
X4.6102Y-5.5713
X4.6122Y-5.5335
X4.6123Y-5.1815
X4.6134Y-5.2791
X4.6157Y-0.0455
X4.6157Y-0.0819
X4.6157Y-0.1183
X4.6169Y-5.1264
X4.6173Y-0.8543
X4.6193Y-4.3551
X4.6222Y-2.6043
X4.6222Y-2.7274
X4.6283Y-5.6894
X4.639Y-0.9752
X4.6437Y-5.3846
X4.648Y-4.2327
X4.6484Y-5.1268
X4.6537Y-2.19
X4.6537Y-3.939
X4.6695Y-2.31
X4.6695Y-2.5482
X4.6695Y-4.0069
X4.6709Y-5.1815
X4.6728Y-5.2807
X4.6799Y-4.3307
X4.6799Y-5.1268
X4.6866Y-0.9232
X4.7Y-5.3846
X4.7012Y-5.6016
X4.7055Y-5.5354
X4.7161Y-0.8571
X4.7167Y-2.6102
X4.7232Y-5.6504
X4.728Y-4.0004
X4.7441Y-2.3059
X4.7472Y-4.062
X4.75Y-0.9228
X4.7524Y-3.2197
X4.7524Y-3.9516
X4.7528Y-2.2547
X4.763Y-2.7274
X4.7635Y-2.5482
X4.7646Y-4.6465
X4.7709Y-2.1764
X4.7709Y-5.3492
X4.7728Y-5.6008
X4.776Y-3.9945
X4.7787Y-2.6112
X4.7896Y-0.9775
X4.7925Y-0.9228
X4.7955Y-2.311
X4.7955Y-3.939
X4.7969Y-2.2508
X4.8004Y-5.665
X4.8012Y-4.9831
X4.8016Y-2.1764
X4.8091Y-5.2776
X4.8097Y-5.1801
X4.8228Y-2.6657
X4.824Y-2.728
X4.8331Y-4.9827
X4.8417Y-4.0069
X4.8422Y-2.19
X4.8425Y-3.8839
X4.8437Y-2.3744
X4.8449Y-5.5984
X4.8461Y-5.5661
X4.8484Y-5.2776
X4.8486Y-5.1791
X4.852Y-0.8539
X4.852Y-4.8874
X4.8543Y-0.5587
X4.8545Y-2.5443
X4.8548Y-0.6394
X4.8567Y-2.4303
X4.8579Y-0.9161
X4.8585Y-0.9846
X4.8606Y-1.2516
X4.8606Y-1.2783
X4.8661Y-2.3071
X4.872Y-3.8728
X4.872Y-3.9516
X4.8787Y-4.8874
X4.8846Y-1.1898
X4.8925Y-3.6897
X4.9016Y-0.8272
X4.9047Y-2.2512
X4.9051Y-0.9161
X4.9051Y-0.985
X4.9057Y-3.939
X4.9083Y-3.289
X4.9102Y-5.6197
X4.9319Y-5.5559
X4.9343Y-4.0059
X4.9392Y-2.313
X4.9402Y-3.8553
X4.9457Y-2.7276
X4.947Y-3.9528
X4.9516Y-2.6006
X4.9524Y-1.0402
X4.961Y-4.0059
X4.9654Y-2.313
X4.9726Y-3.1935
X4.9785Y-2.4011
X4.9877Y-4.0059
X4.9909Y-4.6661
X4.9909Y-5.6228
X4.9917Y-2.313
X4.9949Y-2.3803
X4.9996Y-0.9161
X4.9996Y-0.985
X4.9997Y-2.7264
X5.0063Y-2.4186
X5.014Y-4.0059
X5.0154Y-3.2051
X5.0179Y-2.313
X5.0185Y-5.5953
X5.0461Y-2.6701
X5.0464Y-1.0411
X5.0469Y-2.6047
X5.048Y-3.1402
X5.05Y-5.1429
X5.0539Y-5.6307
X5.0632Y-2.311
X5.0657Y-4.552
X5.0665Y-0.8354
X5.0665Y-4.4925
X5.0893Y-2.2992
X5.0906Y-0.9799
X5.0933Y-5.6307
X5.0941Y-0.9161
X5.0941Y-2.2516
X5.0947Y-3.8858
X5.0949Y-2.6063
X5.0957Y-2.1841
X5.0957Y-2.7283
X5.0957Y-4.2429
X5.0972Y-5.4929
X5.1151Y-2.626
X5.1151Y-2.6535
X5.1203Y-0.2382
X5.1406Y-4.2705
X5.1465Y-0.6094
X5.1542Y-2.6526
X5.1563Y-4.611
X5.1567Y-2.5237
X5.1596Y-2.2835
X5.1602Y-5.5362
X5.1642Y-3.7902
X5.1642Y-4.0673
X5.1665Y-3.2134
X5.1744Y-2.6063
X5.1748Y-3.1669
X5.1793Y-0.2362
X5.1951Y-4.2482
X5.1957Y-3.7677
X5.2106Y-0.6114
X5.2366Y-2.9626
X5.2374Y-0.2352
X5.2378Y-3.0866
X5.2547Y-5.2409
X5.2587Y-5.3591
X5.2661Y-0.6091
X5.2744Y-5.422
X5.2974Y-0.2323
X5.3071Y-2.3752
X5.3209Y-2.2043
X5.3236Y-0.576
X5.3236Y-2.1386
X5.3236Y-2.1024
X5.324Y-1.3071
X5.3256Y-0.8528
X5.3268Y-1.9425
X5.3556Y-2.1207
X5.361Y-2.0366
X5.3614Y-0.678
X5.3781Y-2.0689
X5.386Y-0.2343
X5.3874Y-2.1315
X5.3965Y-5.0598
X5.4035Y-5.778
X5.4114Y-0.5547
X5.4157Y-4.2713
X5.4157Y-4.4339
X5.4195Y-2.0669
X5.4201Y-4.552
X5.428Y-5.0598
X5.4319Y-0.3945
X5.4343Y-0.0719
X5.4352Y-0.1102
X5.4354Y-4.2917
X5.4362Y-4.4118
X5.4516Y-5.1819
X5.4516Y-5.2409
X5.4516Y-5.3
X5.4516Y-5.3591
X5.4516Y-5.4181
X5.4516Y-5.485
X5.4963Y-4.7266
X5.4988Y-4.489
X5.4988Y-5.4181
X5.5002Y-4.6085
X5.5028Y-5.1819
X5.5317Y-0.4654
X5.6012Y-4.4142
X5.6035Y-1.9783
X5.6283Y-1.9504
X5.6465Y-1.713
X5.6481Y-2.0075
X5.6646Y-1.7882
X5.6646Y-1.7628
X5.6894Y-0.4138
X5.6925Y-1.9787
X5.6929Y-1.9543
X5.6996Y-0.3882
X5.6996Y-4.4299
X5.6996Y-4.4929
X5.6996Y-4.548
X5.6996Y-4.6701
X5.6996Y-4.7843
X5.6996Y-5.4772
X5.7035Y-5.1228
X5.7035Y-5.2409
X5.7035Y-5.363
T3
X1.5047Y-5.5301
X1.5047Y-5.5656
X1.5047Y-5.601
X1.5047Y-5.6364
X1.5047Y-5.6719
X1.5047Y-5.7073
X1.5047Y-5.7427
X1.5354Y-5.5478
X1.5354Y-5.5833
X1.5354Y-5.6187
X1.5354Y-5.6541
X1.5354Y-5.6896
X1.5354Y-5.725
X1.5354Y-5.7604
T4
X0.1291Y-0.3593
X0.1291Y-0.8317
X0.1291Y-1.3041
X0.1291Y-1.7766
X0.1291Y-2.249
X0.1291Y-2.7215
X0.1291Y-3.1939
X0.1291Y-3.6663
X0.1291Y-4.1388
X0.1291Y-4.6112
X0.1291Y-5.0837
X0.1291Y-5.5561
X0.1957Y-5.3028
X0.2783Y-5.8622
X0.3984Y-4.3394
X0.3984Y-5.248
X0.3984Y-5.3453
X0.4004Y-5.1661
X0.4181Y-0.5205
X0.4299Y-4.6933
X0.4516Y-4.7685
X0.4606Y-1.0925
X0.4689Y-1.3181
X0.4933Y-2.7012
X0.5343Y-5.1681
X0.5539Y-4.7667
X0.5846Y-4.1496
X0.6031Y-5.3008
X0.615Y-0.5732
X0.6503Y-4.4537
X0.6652Y-4.7677
X0.6744Y-1.2976
X0.6815Y-4.5756
X0.6937Y-5.2988
X0.7138Y-1.6358
X0.7228Y-0.4795
X0.7276Y-0.724
X0.7461Y-0.8264
X0.7461Y-1.563
X0.7484Y-2.0125
X0.7484Y-2.589
X0.7488Y-2.3697
X0.7512Y-1.2063
X0.7524Y-1.3047
X0.7594Y-3.6417
X0.7636Y-0.997
X0.7783Y-1.0815
X0.7799Y-5.7894
X0.7874Y-2.2677
X0.7941Y-5.174
X0.7989Y-4.3398
X0.7992Y-5.8583
X0.8197Y-4.7669
X0.8315Y-5.3642
X0.8449Y-4.5776
X0.8492Y-4.989
X0.8496Y-2.535
X0.8512Y-4.8925
X0.8618Y-0.8461
X0.8862Y-0.948
X0.8957Y-2.8394
X0.8965Y-2.6378
X0.9228Y-5.363
X0.9319Y-1.2228
X0.9354Y-4.989
X0.9394Y-0.4075
X0.9437Y-0.6331
X0.95Y-2.1528
X0.9846Y-4.9181
X0.9933Y-0.7295
X0.9955Y-2.9287
X0.9955Y-3.011
X0.9955Y-3.0969
X0.9955Y-3.2008
X1.0004Y-5.3642
X1.0146Y-0.4297
X1.0382Y-5.1012
X1.0488Y-4.4539
X1.0736Y-0.4297
X1.0815Y-3.7661
X1.0858Y-5.789
X1.1102Y-2.8465
X1.1327Y-0.4287
X1.1406Y-4.9065
X1.1461Y-5.2618
X1.172Y-3.663
X1.1957Y-0.4297
X1.1976Y-4.3378
X1.1976Y-5.2035
X1.2043Y-5.0783
X1.2244Y-2.2846
X1.2264Y-1.3764
X1.2547Y-3.7409
X1.265Y-1.8197
X1.2752Y-2.0134
X1.3131Y-4.9999
X1.3189Y-5.8583
X1.3205Y-2.8437
X1.3205Y-3.187
X1.3217Y-2.9276
X1.3217Y-3.1004
X1.3232Y-3.0169
X1.3343Y-4.1087
X1.3374Y-3.615
X1.3546Y-4.999
X1.3598Y-3.8181
X1.3764Y-0.6858
X1.3961Y-4.9999
X1.398Y-5.2315
X1.4193Y-5.6433
X1.4256Y-4.926
X1.4299Y-2.8339
X1.45Y-4.4537
X1.4709Y-3.8268
X1.4948Y-1.5386
X1.5073Y-2.013
X1.5256Y-2.8524
X1.5671Y-4.998
X1.5809Y-3.6043
X1.5961Y-5.2114
X1.5961Y-5.2508
X1.6024Y-5.4173
X1.6071Y-0.5201
X1.613Y-4.9063
X1.615Y-3.9697
X1.6281Y-4.999
X1.6354Y-5.4171
X1.6354Y-5.4535
X1.6516Y-1.9039
X1.6622Y-1.5472
X1.6685Y-5.6744
X1.6701Y-3.6594
X1.6882Y-4.998
X1.6961Y-5.3205
X1.7087Y-0.8055
X1.715Y-5.1591
X1.726Y-1.9063
X1.7311Y-1.5575
X1.7461Y-3.2642
X1.7465Y-3.1386
X1.748Y-3.5846
X1.7528Y-0.7299
X1.7539Y-3.7102
X1.7685Y-5.7831
X1.7768Y-1.1984
X1.7768Y-1.4819
X1.8059Y-5.3217
X1.8098Y-4.965
X1.8146Y-5.2512
X1.822Y-0.576
X1.8406Y-5.1157
X1.8606Y-3.3587
X1.8717Y-4.0669
X1.8728Y-3.1386
X1.902Y-3.1972
X1.902Y-3.4492
X1.9063Y-3.5642
X1.9126Y-3.061
X1.9239Y-0.4872
X1.9327Y-3.8839
X1.9382Y-2.8661
X2.0071Y-0.5965
X2.0071Y-4.9673
X2.0177Y-5.5236
X2.0429Y-5.8476
X2.05Y-5.1961
X2.0524Y-5.289
X2.0577Y-5.6882
X2.0634Y-3.8795
X2.0717Y-3.4169
X2.078Y-4.9065
X2.0819Y-3.0571
X2.0913Y-3.7465
X2.1024Y-5.3843
X2.1047Y-0.389
X2.1232Y-2.7579
X2.1252Y-2.4701
X2.1256Y-2.163
X2.1439Y-1.3435
X2.1445Y-1.1268
X2.1469Y-1.6348
X2.1503Y-4.4537
X2.1504Y-3.6626
X2.1512Y-5.7736
X2.1642Y-5.6512
X2.1665Y-3.2854
X2.1768Y-4.1016
X2.1811Y-5.1961
X2.2157Y-3.0472
X2.237Y-2.4803
X2.2654Y-3.5594
X2.2709Y-2.4079
X2.2783Y-1.6346
X2.285Y-5.1122
X2.3091Y-5.1961
X2.315Y-3.848
X2.3343Y-2.4846
X2.3358Y-4.1063
X2.3382Y-2.1618
X2.3417Y-0.7205
X2.3598Y-2.6398
X2.3689Y-5.2657
X2.3791Y-5.8469
X2.3811Y-4.278
X2.3831Y-1.2634
X2.3866Y-2.7583
X2.4228Y-4.9398
X2.428Y-0.8374
X2.4319Y-0.7488
X2.4378Y-0.9811
X2.4524Y-2.7059
X2.4602Y-1.1976
X2.4731Y-5.1299
X2.4787Y-5.7343
X2.4803Y-2.5323
X2.5071Y-0.4661
X2.5232Y-2.7063
X2.5366Y-1.8563
X2.5516Y-2.6051
X2.5563Y-2.5327
X2.5766Y-2.3635
X2.5803Y-2.7591
X2.6173Y-0.9028
X2.6228Y-4.1543
X2.6333Y-5.4687
X2.6386Y-1.1957
X2.6705Y-1.6472
X2.6902Y-2.8957
X2.6913Y-2.3724
X2.6949Y-2.4626
X2.6984Y-1.8858
X2.6988Y-1.7461
X2.6988Y-5.0791
X2.7Y-5.3303
X2.7012Y-0.8654
X2.7075Y-4.8217
X2.7106Y-0.2177
X2.7108Y-0.0374
X2.7108Y-0.128
X2.7433Y-3.9291
X2.7606Y-5.8496
X2.7744Y-2.0453
X2.7827Y-1.4512
X2.7827Y-1.552
X2.7906Y-2.8697
X2.802Y-2.1425
X2.802Y-2.239
X2.8091Y-0.2177
X2.8091Y-0.4535
X2.8093Y-0.0374
X2.8093Y-0.128
X2.8094Y-4.1846
X2.8402Y-1.3976
X2.9004Y-0.8217
X2.9051Y-0.772
X2.9051Y-0.8654
X2.9077Y-0.0374
X2.9077Y-0.3091
X2.9106Y-4.8173
X2.922Y-2.2402
X2.9264Y-2.0598
X2.9899Y-4.5325
X3.0061Y-0.0374
X3.0061Y-0.3091
X3.0209Y-0.8654
X3.0224Y-0.7724
X3.0234Y-2.3947
X3.0283Y-2.1959
X3.0575Y-2.5783
X3.0701Y-0.6484
X3.0717Y-5.8465
X3.074Y-3.9016
X3.1045Y-0.0374
X3.1045Y-0.128
X3.1045Y-0.2185
X3.1045Y-0.3091
X3.1045Y-0.3996
X3.1067Y-0.9449
X3.1134Y-5.3287
X3.1197Y-2.7469
X3.1476Y-4.3874
X3.165Y-0.6484
X3.1661Y-1.1996
X3.1689Y-1.915
X3.1693Y-1.8555
X3.1854Y-0.9449
X3.1858Y-0.8661
X3.1874Y-0.9016
X3.203Y-0.0374
X3.203Y-0.128
X3.203Y-0.2185
X3.203Y-0.3091
X3.203Y-0.3996
X3.2102Y-1.6634
X3.2248Y-5.0823
X3.226Y-4.7697
X3.2272Y-5.4378
X3.2492Y-2.5579
X3.2728Y-2.6197
X3.2854Y-3.8996
X3.2862Y-5.8665
X3.3008Y-1.6445
X3.3287Y-0.5268
X3.3307Y-1.8488
X3.3335Y-1.7346
X3.3476Y-2.35
X3.3504Y-3.6957
X3.3543Y-2.8472
X3.3591Y-2.4791
X3.3598Y-3.1079
X3.387Y-4.1224
X3.3909Y-3.8055
X3.424Y-1.4551
X3.424Y-1.552
X3.4539Y-1.2622
X3.4644Y-2.0276
X3.4654Y-0.9772
X3.4654Y-2.1917
X3.4921Y-2.2701
X3.4996Y-2.4728
X3.5173Y-4.25
X3.5248Y-2.876
X3.5406Y-3.2634
X3.5516Y-0.5835
X3.5602Y-3.6831
X3.5665Y-1.5142
X3.5709Y-3.852
X3.5819Y-5.5315
X3.5917Y-0.7386
X3.5976Y-3.1791
X3.6122Y-4.813
X3.6331Y-5.3189
X3.637Y-2.9646
X3.6524Y-2.4075
X3.6701Y-4.898
X3.6815Y-2.1193
X3.6843Y-5.2382
X3.702Y-0.7378
X3.7075Y-4.4496
X3.7161Y-3.3114
X3.7327Y-2.798
X3.7559Y-5.7413
X3.7628Y-2.5044
X3.7628Y-2.5409
X3.7665Y-0.8496
X3.776Y-2.4634
X3.776Y-3.8413
X3.7772Y-4.0681
X3.7862Y-4.4492
X3.787Y-2.1622
X3.7902Y-5.8669
X3.8024Y-5.261
X3.8083Y-2.998
X3.815Y-2.7878
X3.8248Y-3.1051
X3.8264Y-3.2681
X3.8346Y-0.9549
X3.8512Y-0.4201
X3.8598Y-3.3402
X3.8602Y-1.2961
X3.8639Y-0.6909
X3.865Y-2.0146
X3.865Y-2.1441
X3.8677Y-1.4126
X3.8717Y-3.0551
X3.8787Y-3.1949
X3.889Y-2.8063
X3.8904Y-2.6059
X3.8915Y-2.4577
X3.8945Y-1.7815
X3.9047Y-2.2972
X3.9059Y-3.872
X3.9071Y-4.0205
X3.9165Y-0.4193
X3.937Y-3.1646
X3.9441Y-3.3346
X3.9445Y-3.2579
X3.9488Y-3.4059
X3.9728Y-4.8142
X3.9752Y-3.7043
X3.9756Y-0.4193
X3.9823Y-3.9925
X3.9988Y-5.4528
X4.0063Y-1.0581
X4.0106Y-0.8575
X4.0169Y-3.5955
X4.0197Y-1.7535
X4.0273Y-5.1988
X4.0283Y-1.5909
X4.0337Y-0.4193
X4.0348Y-2.4539
X4.0398Y-2.022
X4.041Y-2.2894
X4.0425Y-2.1496
X4.0531Y-2.5801
X4.0531Y-2.7945
X4.0531Y-3.7146
X4.0551Y-3.9913
X4.0748Y-3.485
X4.0986Y-0.4339
X4.1169Y-1.1378
X4.1236Y-0.8535
X4.1252Y-3.1827
X4.1256Y-0.9799
X4.1315Y-3.7146
X4.1409Y-3.9894
X4.1797Y-5.8665
X4.189Y-3.6016
X4.1913Y-2.2791
X4.1913Y-2.4543
X4.2Y-2.6343
X4.2126Y-3.7813
X4.2142Y-3.9882
X4.2205Y-4.7898
X4.2244Y-3.5035
X4.2291Y-5.176
X4.2291Y-5.2823
X4.2335Y-3.2472
X4.2539Y-2.8201
X4.2587Y-4.0244
X4.2783Y-1.9929
X4.2783Y-2.4535
X4.2783Y-2.6346
X4.285Y-2.1232
X4.2854Y-0.6921
X4.3138Y-3.1028
X4.3142Y-1.8157
X4.3335Y-1.9205
X4.3472Y-2.0543
X4.3512Y-5.1665
X4.3638Y-3.3697
X4.4177Y-4.5606
X4.4181Y-3.7295
X4.4472Y-1.5327
X4.4476Y-3.0409
X4.4662Y-3.0069
X4.4677Y-3.5646
X4.474Y-3.2949
X4.487Y-3.0409
X4.5082Y-3.0069
X4.5087Y-5.0087
X4.5264Y-3.0404
X4.5502Y-3.0069
X4.5571Y-5.8673
X4.5622Y-1.565
X4.5622Y-1.7094
X4.5681Y-0.5228
X4.5846Y-3.0984
X4.6139Y-3.6998
X4.7106Y-5.0496
X4.7457Y-4.176
X4.7551Y-1.9283
X4.7587Y-4.5854
X4.7768Y-0.5713
X4.7783Y-5.0492
X4.7862Y-1.3398
X4.7862Y-1.4791
X4.8031Y-4.7051
X4.8217Y-5.7646
X4.835Y-4.5126
X4.8599Y-5.8583
X4.8634Y-3.3728
X4.8783Y-5.6602
X4.9087Y-1.2929
X4.9409Y-5.376
X4.9598Y-0.661
X4.9633Y-5.6919
X4.9682Y-5.1988
X4.9713Y-4.7803
X4.998Y-2.0756
X5.0472Y-5.0575
X5.0484Y-1.8268
X5.0618Y-5.2173
X5.0657Y-4.7646
X5.0661Y-3.5795
X5.0787Y-0.424
X5.0933Y-5.3118
X5.0952Y-3.8022
X5.0986Y-5.6919
X5.1236Y-4.4346
X5.1244Y-0.7555
X5.1386Y-4.0283
X5.1488Y-0.4232
X5.1524Y-5.6122
X5.1732Y-2.961
X5.1858Y-1.3071
X5.1858Y-3.6937
X5.1867Y-0.7864
X5.1877Y-1.8268
X5.1886Y-2.2539
X5.2079Y-0.4232
X5.2281Y-5.8593
X5.2524Y-4.9295
X5.2669Y-0.4232
X5.2717Y-3.7169
X5.3067Y-2.6083
X5.3098Y-5.4929
X5.3319Y-0.4232
X5.3449Y-3.8717
X5.4079Y-5.5394
X5.4657Y-3.7094
X5.4657Y-3.8248
X5.4657Y-4.0661
X5.4665Y-4.1839
X5.4752Y-1.0795
X5.4762Y-3.0445
X5.487Y-4.863
X5.497Y-3.0104
X5.5182Y-3.0445
X5.5199Y-1.8268
X5.5364Y-3.011
X5.5602Y-3.0445
X5.5756Y-1.5488
X5.5757Y-3.011
X5.5927Y-0.7657
X5.6366Y-2.9762
X5.6366Y-3.152
X5.6429Y-5.8573
X5.6621Y-2.5256
X5.7719Y-0.3425
X5.7719Y-0.815
X5.7719Y-1.2874
X5.7719Y-1.7598
X5.7719Y-2.2323
X5.7719Y-2.7047
X5.7719Y-3.1772
X5.7719Y-3.6496
X5.7719Y-4.122
X5.7719Y-4.5945
X5.7719Y-5.0669
X5.7719Y-5.5394
T6
X1.8644Y-5.7657
X1.9006Y-5.2508
X1.9506Y-5.3508
X1.9657Y-5.7657
X2.0006Y-5.2508
X2.0506Y-5.3508
X2.1006Y-5.2508
X2.1506Y-5.3508
X2.2006Y-5.2508
X2.2506Y-5.3508
X2.2837Y-5.7657
X2.3006Y-5.2508
X2.3506Y-5.3508
X2.3841Y-5.7657
T7
X0.4726Y-0.4012
X0.4726Y-0.4799
X0.4726Y-0.5587
X0.4726Y-0.6374
X1.6636Y-0.4012
X1.6636Y-0.4799
X1.6636Y-0.5587
X1.6636Y-0.6374
X3.385Y-0.4073
X3.385Y-0.486
X3.385Y-0.5648
X3.385Y-0.6435
X4.6163Y-0.4055
X4.6163Y-0.4843
X4.6163Y-0.563
X4.6163Y-0.6417
T8
X0.2285Y-5.1555
X0.2285Y-5.2555
X0.2285Y-5.3555
X0.2285Y-5.4555
X0.2487Y-4.2888
X0.2487Y-4.3888
X0.252Y-0.7717
X0.2524Y-2.461
X0.3285Y-5.1555
X0.3285Y-5.2555
X0.3285Y-5.3555
X0.3285Y-5.4555
X0.3487Y-4.2888
X0.3487Y-4.3888
X0.352Y-0.7717
X0.3524Y-2.461
X0.4487Y-4.2888
X0.4487Y-4.3888
X0.452Y-0.7717
X0.4524Y-2.461
X0.5487Y-4.2888
X0.5487Y-4.3888
X0.552Y-0.7717
X0.5524Y-2.461
X0.6487Y-4.2888
X0.6487Y-4.3888
X0.7487Y-4.2888
X0.7487Y-4.3888
X0.827Y-5.4453
X0.827Y-5.5484
X0.8487Y-4.2888
X0.8487Y-4.3888
X0.9254Y-5.4453
X0.9254Y-5.5484
X0.9487Y-4.2888
X0.9487Y-4.3888
X1.0041Y-5.4453
X1.0041Y-5.5484
X1.0487Y-4.2888
X1.0487Y-4.3888
X1.1026Y-5.4453
X1.1026Y-5.5484
X1.1487Y-4.2888
X1.1487Y-4.3888
X1.2108Y-0.5083
X1.2108Y-0.6083
X1.2487Y-4.2888
X1.2487Y-4.3888
X1.3108Y-0.5083
X1.3108Y-0.6083
X1.3487Y-4.2888
X1.3487Y-4.3888
X1.4108Y-0.5083
X1.4108Y-0.6083
X1.4487Y-4.2888
X1.4487Y-4.3888
X1.5487Y-4.2888
X1.5487Y-4.3888
X1.6487Y-4.2888
X1.6487Y-4.3888
X1.7487Y-4.2888
X1.7487Y-4.3888
X1.8487Y-4.2888
X1.8487Y-4.3888
X1.9487Y-4.2888
X1.9487Y-4.3888
X2.0487Y-4.2888
X2.0487Y-4.3888
X2.1487Y-4.2888
X2.1487Y-4.3888
X2.4598Y-0.5093
X2.4598Y-0.6093
X2.5598Y-0.5093
X2.5598Y-0.6093
X2.6598Y-0.5093
X2.6598Y-0.6093
X2.774Y-4.2535
X2.8189Y-0.622
X2.8189Y-0.722
X2.874Y-4.2535
X2.985Y-1.9453
X2.985Y-2.0453
X2.985Y-2.1453
X2.985Y-2.2453
X2.985Y-2.3453
X2.985Y-2.4453
X2.985Y-2.5453
X3.465Y-0.8594
X3.4835Y-3.8008
X3.4835Y-3.9008
X3.4835Y-4.0008
X3.4835Y-4.1008
X3.485Y-2.9252
X3.485Y-3.0252
X4.1616Y-0.5093
X4.1616Y-0.6093
X4.2616Y-0.5093
X4.2616Y-0.6093
X4.3616Y-0.5093
X4.3616Y-0.6093
X5.3841Y-0.5083
X5.3841Y-0.6083
X5.4841Y-0.5083
X5.4841Y-0.6083
X5.5841Y-0.5083
X5.5841Y-0.6083
T9
X2.5105Y-1.0482
X2.6105Y-1.0482
X2.7105Y-1.0482
X2.8105Y-1.0482
X3.0937Y-1.0482
X3.1937Y-1.0482
X3.2937Y-1.0482
X3.3937Y-1.0482
T10
X0.3656Y-0.3724
X0.3656Y-0.648
X0.5797Y-0.3724
X0.5797Y-0.648
X1.5565Y-0.3724
X1.5565Y-0.648
X1.7707Y-0.3724
X1.7707Y-0.648
X3.278Y-0.3785
X3.278Y-0.6541
X3.4921Y-0.3785
X3.4921Y-0.6541
X4.5093Y-0.3768
X4.5093Y-0.6524
X4.7234Y-0.3768
X4.7234Y-0.6524
T11
X1.8156Y-5.4807
X2.4356Y-5.4807
T12
X0.7061Y-5.4315
X0.7061Y-5.6551
X1.2234Y-5.4315
X1.2234Y-5.6551
T13
X4.4756Y-1.9384
X4.476Y-3.4343
T14
X0.1577Y-0.1555
X0.1577Y-5.7461
X2.9531Y-2.7354
X5.7482Y-0.1555
X5.7482Y-5.7461
T15
X2.913Y-4.8915
T16
X2.7105Y-0.9632
X3.2937Y-0.9632
T17
X4.0906Y-5.022
T18
X2.913Y-5.1848
T19
X4.878Y-5.022
T20
X0.3343Y-2.6551
X0.3343Y-3.9543
X0.3346Y-0.9681
X0.3346Y-2.2673
X0.3346Y-2.6551
X0.3346Y-3.9543
X0.3348Y-0.9685
X0.3348Y-2.2677
X2.224Y-2.6551
X2.224Y-3.9543
X2.2244Y-0.9681
X2.2244Y-2.2673
X2.2244Y-2.6551
X2.2244Y-3.9543
X2.2246Y-0.9685
X2.2246Y-2.2677
X3.4136Y-4.3465
X3.4136Y-5.6457
X3.6811Y-2.6551
X3.6811Y-3.9543
X3.6813Y-0.9685
X3.6813Y-2.2677
X5.3033Y-4.3465
X5.3033Y-5.6457
X5.5709Y-2.6551
X5.5709Y-3.9543
X5.5711Y-0.9685
X5.5711Y-2.2677
T21
X1.9006Y-5.6008
X2.3506Y-5.6008
T5
G00X1.4638Y-5.5321
M15
G01X1.4638Y-5.5715
M16
G05
G00X1.4638Y-5.7211
M15
G01X1.4638Y-5.7604
M16
G05
G00X1.5764Y-5.5321
M15
G01X1.5764Y-5.5715
M16
G05
G00X1.5764Y-5.7211
M15
G01X1.5764Y-5.7604
M16
G05
T6
G00X0.8575Y-0.076
M15
G01X0.8575Y-0.0445
M16
G05
G00X0.8575Y-0.3303
M15
G01X0.8575Y-0.2594
M16
G05
G00X1.4283Y-0.076
M15
G01X1.4283Y-0.0445
M16
G05
G00X1.4283Y-0.3303
M15
G01X1.4283Y-0.2594
M16
G05
G00X2.0573Y-0.076
M15
G01X2.0573Y-0.0445
M16
G05
G00X2.0573Y-0.3303
M15
G01X2.0573Y-0.2594
M16
G05
G00X2.6281Y-0.076
M15
G01X2.6281Y-0.0445
M16
G05
G00X2.6281Y-0.3303
M15
G01X2.6281Y-0.2594
M16
G05
G00X2.635Y-5.5667
M15
G01X2.635Y-5.6375
M16
G05
G00X2.635Y-5.821
M15
G01X2.635Y-5.8525
M16
G05
G00X3.2059Y-5.5667
M15
G01X3.2059Y-5.6375
M16
G05
G00X3.2059Y-5.821
M15
G01X3.2059Y-5.8525
M16
G05
G00X3.7591Y-0.076
M15
G01X3.7591Y-0.0445
M16
G05
G00X3.7591Y-0.3303
M15
G01X3.7591Y-0.2594
M16
G05
G00X4.3299Y-0.076
M15
G01X4.3299Y-0.0445
M16
G05
G00X4.3299Y-0.3303
M15
G01X4.3299Y-0.2594
M16
G05
G00X4.9913Y-0.076
M15
G01X4.9913Y-0.0445
M16
G05
G00X4.9913Y-0.3303
M15
G01X4.9913Y-0.2594
M16
G05
G00X5.5622Y-0.076
M15
G01X5.5622Y-0.0445
M16
G05
G00X5.5622Y-0.3303
M15
G01X5.5622Y-0.2594
M16
G05
T8
G00X2.7662Y-0.2933
M15
G01X2.7662Y-0.372
M16
G05
G00X2.9906Y-0.2146
M15
G01X2.9119Y-0.2146
M16
G05
G00X2.9906Y-0.4508
M15
G01X2.9119Y-0.4508
M16
G05
T0
M30
