%TF.GenerationSoftware,KiCad,Pcbnew,7.0.2-6a45011f42~172~ubuntu22.04.1*%
%TF.CreationDate,2023-04-24T13:24:37-07:00*%
%TF.ProjectId,Hepta-Pi_1.1,48657074-612d-4506-995f-312e312e6b69,2.1*%
%TF.SameCoordinates,PX37cf1c0PY1ad88f0*%
%TF.FileFunction,Profile,NP*%
%FSLAX46Y46*%
G04 Gerber Fmt 4.6, Leading zero omitted, Abs format (unit mm)*
G04 Created by KiCad (PCBNEW 7.0.2-6a45011f42~172~ubuntu22.04.1) date 2023-04-24 13:24:37*
%MOMM*%
%LPD*%
G01*
G04 APERTURE LIST*
%TA.AperFunction,Profile*%
%ADD10C,0.100000*%
%TD*%
%TA.AperFunction,Profile*%
%ADD11C,0.050000*%
%TD*%
G04 APERTURE END LIST*
D10*
X40430000Y-31175000D02*
X36930000Y-31175000D01*
X116495342Y-123070000D02*
X110595342Y-123070000D01*
X40430000Y-31175000D02*
G75*
G03*
X40430000Y-29525000I0J825000D01*
G01*
X36930000Y-29525000D02*
G75*
G03*
X36930000Y-31175000I0J-825000D01*
G01*
X40430000Y-35575000D02*
X36930000Y-35575000D01*
D11*
X150005000Y-3950000D02*
G75*
G03*
X146005000Y50000I-4000000J0D01*
G01*
D10*
X110595342Y-73735099D02*
X116495342Y-73735099D01*
X110630000Y-70450000D02*
G75*
G03*
X110630000Y-72100000I0J-825000D01*
G01*
X114730000Y-33925000D02*
G75*
G03*
X114730000Y-35575000I0J-825000D01*
G01*
X110595342Y-118120000D02*
G75*
G03*
X110595342Y-119770000I-42J-825000D01*
G01*
D11*
X4005000Y50000D02*
X146005000Y50000D01*
D10*
X116530000Y-72100000D02*
X110630000Y-72100000D01*
X36930000Y-29525000D02*
X40430000Y-29525000D01*
X118230000Y-31175000D02*
X114730000Y-31175000D01*
X118230000Y-35575000D02*
G75*
G03*
X118230000Y-33925000I0J825000D01*
G01*
D11*
X5000Y-145950000D02*
G75*
G03*
X4005000Y-149950000I4000000J0D01*
G01*
D10*
X116530000Y-72100000D02*
G75*
G03*
X116530000Y-70450000I0J825000D01*
G01*
X110595342Y-121420000D02*
G75*
G03*
X110595342Y-123070000I-42J-825000D01*
G01*
X118230000Y-35575000D02*
X114730000Y-35575000D01*
D11*
X4005000Y-149950000D02*
X146005000Y-149950000D01*
D10*
X114730000Y-33925000D02*
X118230000Y-33925000D01*
X36930000Y-33925000D02*
G75*
G03*
X36930000Y-35575000I0J-825000D01*
G01*
D11*
X150005000Y-3950000D02*
X150005000Y-145950000D01*
D10*
X118230000Y-31175000D02*
G75*
G03*
X118230000Y-29525000I0J825000D01*
G01*
D11*
X5000Y-3950000D02*
X5000Y-145950000D01*
D10*
X110630000Y-70450000D02*
X116530000Y-70450000D01*
X114730000Y-29525000D02*
X118230000Y-29525000D01*
X114730000Y-29525000D02*
G75*
G03*
X114730000Y-31175000I0J-825000D01*
G01*
D11*
X4005000Y50000D02*
G75*
G03*
X5000Y-3950000I0J-4000000D01*
G01*
D10*
X116495342Y-123070000D02*
G75*
G03*
X116495342Y-121420000I-42J825000D01*
G01*
X116495342Y-119770000D02*
G75*
G03*
X116495342Y-118120000I-42J825000D01*
G01*
X110595342Y-73735101D02*
G75*
G03*
X110595342Y-75385099I-42J-824999D01*
G01*
X116495342Y-75385099D02*
X110595342Y-75385099D01*
D11*
X146005000Y-149950000D02*
G75*
G03*
X150005000Y-145950000I0J4000000D01*
G01*
D10*
X110595342Y-121420000D02*
X116495342Y-121420000D01*
X116495342Y-119770000D02*
X110595342Y-119770000D01*
X36930000Y-33925000D02*
X40430000Y-33925000D01*
X40430000Y-35575000D02*
G75*
G03*
X40430000Y-33925000I0J825000D01*
G01*
X116495342Y-75385101D02*
G75*
G03*
X116495342Y-73735099I-42J825001D01*
G01*
X110595342Y-118120000D02*
X116495342Y-118120000D01*
M02*
