%TF.GenerationSoftware,KiCad,Pcbnew,7.0.2-6a45011f42~172~ubuntu22.04.1*%
%TF.CreationDate,2023-04-24T13:24:37-07:00*%
%TF.ProjectId,Hepta-Pi_1.1,48657074-612d-4506-995f-312e312e6b69,2.1*%
%TF.SameCoordinates,PX37cf1c0PY1ad88f0*%
%TF.FileFunction,Soldermask,Bot*%
%TF.FilePolarity,Negative*%
%FSLAX46Y46*%
G04 Gerber Fmt 4.6, Leading zero omitted, Abs format (unit mm)*
G04 Created by KiCad (PCBNEW 7.0.2-6a45011f42~172~ubuntu22.04.1) date 2023-04-24 13:24:37*
%MOMM*%
%LPD*%
G01*
G04 APERTURE LIST*
G04 Aperture macros list*
%AMRoundRect*
0 Rectangle with rounded corners*
0 $1 Rounding radius*
0 $2 $3 $4 $5 $6 $7 $8 $9 X,Y pos of 4 corners*
0 Add a 4 corners polygon primitive as box body*
4,1,4,$2,$3,$4,$5,$6,$7,$8,$9,$2,$3,0*
0 Add four circle primitives for the rounded corners*
1,1,$1+$1,$2,$3*
1,1,$1+$1,$4,$5*
1,1,$1+$1,$6,$7*
1,1,$1+$1,$8,$9*
0 Add four rect primitives between the rounded corners*
20,1,$1+$1,$2,$3,$4,$5,0*
20,1,$1+$1,$4,$5,$6,$7,0*
20,1,$1+$1,$6,$7,$8,$9,0*
20,1,$1+$1,$8,$9,$2,$3,0*%
%AMFreePoly0*
4,1,41,0.242473,1.530917,0.478976,1.474138,0.703685,1.381060,0.911067,1.253976,1.096016,1.096016,1.253976,0.911067,1.381060,0.703685,1.474138,0.478976,1.530917,0.242473,1.550000,0.000000,1.530917,-0.242473,1.474138,-0.478976,1.381060,-0.703685,1.253976,-0.911067,1.096016,-1.096016,0.911067,-1.253976,0.703685,-1.381060,0.478976,-1.474138,0.242473,-1.530917,0.000000,-1.550000,
-0.242473,-1.530917,-0.478976,-1.474138,-0.703685,-1.381060,-0.911067,-1.253976,-1.096016,-1.096016,-1.253976,-0.911067,-1.381060,-0.703685,-1.474138,-0.478976,-1.530917,-0.242473,-1.550000,0.000000,-1.530917,0.242473,-1.474138,0.478976,-1.381060,0.703685,-1.253976,0.911067,-1.096016,1.096016,-0.911067,1.253976,-0.703685,1.381060,-0.478976,1.474138,-0.242473,1.530917,0.000000,1.550000,
0.242473,1.530917,0.242473,1.530917,$1*%
G04 Aperture macros list end*
%ADD10C,1.000000*%
%ADD11R,1.700000X1.700000*%
%ADD12O,1.700000X1.700000*%
%ADD13C,1.100000*%
%ADD14R,1.730000X2.030000*%
%ADD15O,1.730000X2.030000*%
%ADD16C,1.500000*%
%ADD17O,1.500000X3.300000*%
%ADD18O,1.500000X2.300000*%
%ADD19C,1.050000*%
%ADD20C,1.300000*%
%ADD21R,3.500000X3.500000*%
%ADD22RoundRect,0.750000X-1.000000X0.750000X-1.000000X-0.750000X1.000000X-0.750000X1.000000X0.750000X0*%
%ADD23RoundRect,0.875000X-0.875000X0.875000X-0.875000X-0.875000X0.875000X-0.875000X0.875000X0.875000X0*%
%ADD24RoundRect,0.450000X0.000000X-0.500000X0.000000X-0.500000X0.000000X0.500000X0.000000X0.500000X0*%
%ADD25R,0.600000X0.600000*%
%ADD26C,0.600000*%
%ADD27R,1.600000X1.600000*%
%ADD28C,1.600000*%
%ADD29C,2.150000*%
%ADD30C,3.450000*%
%ADD31C,3.200000*%
%ADD32RoundRect,0.250500X-0.499500X-0.499500X0.499500X-0.499500X0.499500X0.499500X-0.499500X0.499500X0*%
%ADD33C,2.500000*%
%ADD34C,3.600000*%
%ADD35C,6.400000*%
%ADD36C,2.700000*%
%ADD37FreePoly0,0.000000*%
%ADD38RoundRect,0.250000X-0.325000X-0.650000X0.325000X-0.650000X0.325000X0.650000X-0.325000X0.650000X0*%
%ADD39RoundRect,0.225000X-0.250000X0.225000X-0.250000X-0.225000X0.250000X-0.225000X0.250000X0.225000X0*%
%ADD40RoundRect,0.237500X-0.237500X0.250000X-0.237500X-0.250000X0.237500X-0.250000X0.237500X0.250000X0*%
%ADD41C,1.000000*%
%ADD42RoundRect,0.250000X-0.450000X0.350000X-0.450000X-0.350000X0.450000X-0.350000X0.450000X0.350000X0*%
%ADD43RoundRect,0.250000X-0.350000X-0.450000X0.350000X-0.450000X0.350000X0.450000X-0.350000X0.450000X0*%
%ADD44R,0.340000X0.700000*%
%ADD45RoundRect,0.250000X0.350000X0.450000X-0.350000X0.450000X-0.350000X-0.450000X0.350000X-0.450000X0*%
%ADD46RoundRect,0.250000X0.325000X0.450000X-0.325000X0.450000X-0.325000X-0.450000X0.325000X-0.450000X0*%
%ADD47RoundRect,0.237500X0.250000X0.237500X-0.250000X0.237500X-0.250000X-0.237500X0.250000X-0.237500X0*%
%ADD48RoundRect,0.225000X0.250000X-0.225000X0.250000X0.225000X-0.250000X0.225000X-0.250000X-0.225000X0*%
%ADD49RoundRect,0.140000X-0.140000X-0.170000X0.140000X-0.170000X0.140000X0.170000X-0.140000X0.170000X0*%
%ADD50RoundRect,0.200000X0.200000X0.275000X-0.200000X0.275000X-0.200000X-0.275000X0.200000X-0.275000X0*%
%ADD51RoundRect,0.250000X0.475000X-0.250000X0.475000X0.250000X-0.475000X0.250000X-0.475000X-0.250000X0*%
%ADD52R,0.700000X1.100000*%
%ADD53R,0.900000X0.930000*%
%ADD54R,1.050000X0.780000*%
%ADD55R,0.700000X3.330000*%
%ADD56R,1.140000X1.830000*%
%ADD57R,0.860000X2.800000*%
%ADD58RoundRect,0.225000X0.225000X0.250000X-0.225000X0.250000X-0.225000X-0.250000X0.225000X-0.250000X0*%
%ADD59R,0.200000X0.700000*%
%ADD60R,5.100000X2.350000*%
%ADD61R,2.710000X3.400000*%
%ADD62RoundRect,0.150000X0.737500X0.150000X-0.737500X0.150000X-0.737500X-0.150000X0.737500X-0.150000X0*%
%ADD63RoundRect,0.200000X-0.200000X-0.275000X0.200000X-0.275000X0.200000X0.275000X-0.200000X0.275000X0*%
%ADD64C,1.150000*%
%ADD65C,1.650000*%
%ADD66R,0.300000X1.550000*%
%ADD67R,1.200000X2.750000*%
%ADD68RoundRect,0.225000X-0.225000X-0.250000X0.225000X-0.250000X0.225000X0.250000X-0.225000X0.250000X0*%
%ADD69RoundRect,0.200000X-0.275000X0.200000X-0.275000X-0.200000X0.275000X-0.200000X0.275000X0.200000X0*%
G04 APERTURE END LIST*
D10*
%TO.C,H5*%
X113039999Y-85305001D02*
G75*
G03*
X111765001Y-86580000I576761J-1851759D01*
G01*
X111790001Y-87855001D02*
G75*
G03*
X113065000Y-89129999I1851759J576761D01*
G01*
X115614999Y-86579999D02*
G75*
G03*
X114340000Y-85305001I-1851759J-576761D01*
G01*
X114340002Y-89129999D02*
G75*
G03*
X115590000Y-87880000I-565447J1815445D01*
G01*
%TO.C,H3*%
X113029999Y-47310001D02*
G75*
G03*
X111755001Y-48585000I576761J-1851759D01*
G01*
X111780001Y-49860001D02*
G75*
G03*
X113055000Y-51134999I1851759J576761D01*
G01*
X115604999Y-48584999D02*
G75*
G03*
X114330000Y-47310001I-1851759J-576761D01*
G01*
X114330002Y-51134999D02*
G75*
G03*
X115580000Y-49885000I-565447J1815445D01*
G01*
%TD*%
D11*
%TO.C,J27*%
X14020000Y-19600000D03*
D12*
X11480000Y-19600000D03*
X8940000Y-19600000D03*
X6400000Y-19600000D03*
%TD*%
D13*
%TO.C,J15*%
X68847500Y-24465000D03*
D14*
X63767500Y-26625000D03*
D15*
X66307500Y-26625000D03*
X68847500Y-26625000D03*
X71387500Y-26625000D03*
%TD*%
D13*
%TO.C,J16*%
X83660000Y-24465000D03*
D14*
X78580000Y-26625000D03*
D15*
X81120000Y-26625000D03*
X83660000Y-26625000D03*
X86200000Y-26625000D03*
%TD*%
D16*
%TO.C,TP2*%
X75820000Y-49410000D03*
%TD*%
D11*
%TO.C,J13*%
X105705000Y-15475000D03*
D12*
X105705000Y-12935000D03*
X108245000Y-15475000D03*
X108245000Y-12935000D03*
X110785000Y-15475000D03*
X110785000Y-12935000D03*
%TD*%
D17*
%TO.C,J4*%
X126780000Y-7489750D03*
X141280000Y-7489750D03*
D18*
X141280000Y-1529750D03*
X126780000Y-1529750D03*
%TD*%
D19*
%TO.C,BT1*%
X73990000Y-124245000D03*
D20*
X73990000Y-131695000D03*
%TD*%
D11*
%TO.C,J22*%
X5805000Y-130950000D03*
D12*
X8345000Y-130950000D03*
X5805000Y-133490000D03*
X8345000Y-133490000D03*
X5805000Y-136030000D03*
X8345000Y-136030000D03*
X5805000Y-138570000D03*
X8345000Y-138570000D03*
%TD*%
D21*
%TO.C,J9*%
X74962500Y-11450000D03*
D22*
X74962500Y-5450000D03*
D23*
X70262500Y-8450000D03*
%TD*%
D16*
%TO.C,TP3*%
X75820000Y-51950000D03*
%TD*%
D24*
%TO.C,J26*%
X37180000Y-141015000D03*
X40040000Y-141015000D03*
X37180000Y-145815000D03*
X40040000Y-145815000D03*
D25*
X38220000Y-145865003D03*
D26*
X38220000Y-144965004D03*
X38220000Y-144065002D03*
X38220000Y-143165001D03*
X38220000Y-142265000D03*
X38220000Y-141365000D03*
X38220000Y-140465000D03*
X39000000Y-140915000D03*
X39000000Y-141815000D03*
X39000000Y-142715001D03*
X39000000Y-143615001D03*
X39000000Y-144515003D03*
X39000000Y-145415003D03*
X39000000Y-146315003D03*
%TD*%
D27*
%TO.C,J7*%
X85980000Y-10345000D03*
D28*
X85980000Y-12345000D03*
X85980000Y-14345000D03*
X85980000Y-16345000D03*
D29*
X88700000Y-9615000D03*
X83260000Y-9615000D03*
X88700000Y-16615000D03*
X83260000Y-16615000D03*
%TD*%
D11*
%TO.C,J19*%
X70460000Y-108040000D03*
D12*
X73000000Y-108040000D03*
%TD*%
D11*
%TO.C,J17*%
X88520000Y-76840000D03*
D12*
X88520000Y-74300000D03*
%TD*%
D16*
%TO.C,J25*%
X21005000Y-138310000D03*
X23505000Y-138310000D03*
X25505000Y-138310000D03*
X28005000Y-138310000D03*
X21005000Y-140930000D03*
X23505000Y-140930000D03*
X25505000Y-140930000D03*
X28005000Y-140930000D03*
D30*
X17935000Y-143640000D03*
X31075000Y-143640000D03*
X17935000Y-137960000D03*
X31075000Y-137960000D03*
%TD*%
D11*
%TO.C,J12*%
X71600000Y-15800000D03*
D12*
X71600000Y-18340000D03*
%TD*%
D31*
%TO.C,U32*%
X48275000Y-142260000D03*
X59705000Y-142260000D03*
D32*
X48275000Y-133370000D03*
D16*
X49545000Y-135910000D03*
X50815000Y-133370000D03*
X52085000Y-135910000D03*
X53355000Y-133370000D03*
X54625000Y-135910000D03*
X55895000Y-133370000D03*
X57165000Y-135910000D03*
X58435000Y-133370000D03*
X59705000Y-135910000D03*
X47355000Y-146450000D03*
X49930000Y-146450000D03*
X58005000Y-146450000D03*
X60555000Y-146450000D03*
D33*
X46115000Y-139210000D03*
X61865000Y-139210000D03*
%TD*%
D11*
%TO.C,J28*%
X14030000Y-62510000D03*
D12*
X11490000Y-62510000D03*
X8950000Y-62510000D03*
X6410000Y-62510000D03*
%TD*%
D34*
%TO.C,H6*%
X4005000Y-145950000D03*
D35*
X4005000Y-145950000D03*
%TD*%
D34*
%TO.C,H4*%
X75010000Y-69480000D03*
D35*
X75010000Y-69480000D03*
%TD*%
D16*
%TO.C,TP6*%
X75820000Y-59570000D03*
%TD*%
D17*
%TO.C,J24*%
X81430000Y-142293250D03*
X66930000Y-142293250D03*
D18*
X66930000Y-148253250D03*
X81430000Y-148253250D03*
%TD*%
D16*
%TO.C,TP7*%
X75820000Y-62110000D03*
%TD*%
D36*
%TO.C,Module4*%
X93500000Y-100440000D03*
X141500000Y-100440000D03*
X93500000Y-67440000D03*
X141500000Y-67440000D03*
%TD*%
D16*
%TO.C,TP12*%
X75820000Y-64650000D03*
%TD*%
D34*
%TO.C,H7*%
X146005000Y-145950000D03*
D35*
X146005000Y-145950000D03*
%TD*%
D11*
%TO.C,J11*%
X62480000Y-15475000D03*
D12*
X62480000Y-12935000D03*
X65020000Y-15475000D03*
X65020000Y-12935000D03*
X67560000Y-15475000D03*
X67560000Y-12935000D03*
%TD*%
D16*
%TO.C,TP1*%
X88010000Y-21830000D03*
%TD*%
D34*
%TO.C,H2*%
X146005000Y-3950000D03*
D35*
X146005000Y-3950000D03*
%TD*%
D36*
%TO.C,Module3*%
X93505000Y-57600000D03*
X141505000Y-57600000D03*
X93505000Y-24600000D03*
X141505000Y-24600000D03*
%TD*%
D34*
%TO.C,H1*%
X4005000Y-3950000D03*
D35*
X4005000Y-3950000D03*
%TD*%
D37*
%TO.C,H5*%
X113690000Y-87230000D03*
%TD*%
D11*
%TO.C,J14*%
X136755000Y-15450000D03*
D12*
X136755000Y-12910000D03*
X139295000Y-15450000D03*
X139295000Y-12910000D03*
X141835000Y-15450000D03*
X141835000Y-12910000D03*
%TD*%
D17*
%TO.C,J2*%
X52255000Y-7489750D03*
X66755000Y-7489750D03*
D18*
X66755000Y-1529750D03*
X52255000Y-1529750D03*
%TD*%
D36*
%TO.C,Module2*%
X8500000Y-100440000D03*
X56500000Y-100440000D03*
X8500000Y-67440000D03*
X56500000Y-67440000D03*
%TD*%
D27*
%TO.C,J6*%
X42255000Y-10190000D03*
D28*
X42255000Y-12190000D03*
X42255000Y-14190000D03*
X42255000Y-16190000D03*
D29*
X44975000Y-9460000D03*
X39535000Y-9460000D03*
X44975000Y-16460000D03*
X39535000Y-16460000D03*
%TD*%
D17*
%TO.C,J3*%
X95480000Y-7489750D03*
X109980000Y-7489750D03*
D18*
X109980000Y-1529750D03*
X95480000Y-1529750D03*
%TD*%
D11*
%TO.C,J10*%
X30755000Y-15450000D03*
D12*
X30755000Y-12910000D03*
X33295000Y-15450000D03*
X33295000Y-12910000D03*
X35835000Y-15450000D03*
X35835000Y-12910000D03*
%TD*%
D16*
%TO.C,TP4*%
X75820000Y-54490000D03*
%TD*%
%TO.C,TP5*%
X75820000Y-57030000D03*
%TD*%
D11*
%TO.C,J20*%
X6317500Y-111475000D03*
D12*
X6317500Y-108935000D03*
X8857500Y-111475000D03*
X8857500Y-108935000D03*
X11397500Y-111475000D03*
X11397500Y-108935000D03*
X13937500Y-111475000D03*
X13937500Y-108935000D03*
X16477500Y-111475000D03*
X16477500Y-108935000D03*
X19017500Y-111475000D03*
X19017500Y-108935000D03*
X21557500Y-111475000D03*
X21557500Y-108935000D03*
X24097500Y-111475000D03*
X24097500Y-108935000D03*
X26637500Y-111475000D03*
X26637500Y-108935000D03*
X29177500Y-111475000D03*
X29177500Y-108935000D03*
X31717500Y-111475000D03*
X31717500Y-108935000D03*
X34257500Y-111475000D03*
X34257500Y-108935000D03*
X36797500Y-111475000D03*
X36797500Y-108935000D03*
X39337500Y-111475000D03*
X39337500Y-108935000D03*
X41877500Y-111475000D03*
X41877500Y-108935000D03*
X44417500Y-111475000D03*
X44417500Y-108935000D03*
X46957500Y-111475000D03*
X46957500Y-108935000D03*
X49497500Y-111475000D03*
X49497500Y-108935000D03*
X52037500Y-111475000D03*
X52037500Y-108935000D03*
X54577500Y-111475000D03*
X54577500Y-108935000D03*
%TD*%
D17*
%TO.C,J1*%
X21780000Y-7489750D03*
X36280000Y-7489750D03*
D18*
X36280000Y-1529750D03*
X21780000Y-1529750D03*
%TD*%
D27*
%TO.C,J5*%
X12005000Y-10190000D03*
D28*
X12005000Y-12190000D03*
X12005000Y-14190000D03*
X12005000Y-16190000D03*
D29*
X14725000Y-9460000D03*
X9285000Y-9460000D03*
X14725000Y-16460000D03*
X9285000Y-16460000D03*
%TD*%
D11*
%TO.C,J18*%
X88480000Y-104160000D03*
D12*
X88480000Y-101620000D03*
X88480000Y-99080000D03*
X88480000Y-96540000D03*
%TD*%
D36*
%TO.C,Module1*%
X8505000Y-57600000D03*
X56505000Y-57600000D03*
X8505000Y-24600000D03*
X56505000Y-24600000D03*
%TD*%
D27*
%TO.C,J8*%
X117255000Y-10300000D03*
D28*
X117255000Y-12300000D03*
X117255000Y-14300000D03*
X117255000Y-16300000D03*
D29*
X119975000Y-9570000D03*
X114535000Y-9570000D03*
X119975000Y-16570000D03*
X114535000Y-16570000D03*
%TD*%
D37*
%TO.C,H3*%
X113680000Y-49235000D03*
%TD*%
D36*
%TO.C,Module0*%
X134705000Y-110400000D03*
X86705000Y-110400000D03*
X134705000Y-143400000D03*
X86705000Y-143400000D03*
%TD*%
D38*
%TO.C,C135*%
X99490000Y-29155000D03*
X102440000Y-29155000D03*
%TD*%
D39*
%TO.C,C155*%
X57470000Y-87445000D03*
X57470000Y-88995000D03*
%TD*%
D40*
%TO.C,R127*%
X61540000Y-100657500D03*
X61540000Y-102482500D03*
%TD*%
D41*
%TO.C,TP35*%
X68770000Y-106200000D03*
%TD*%
D42*
%TO.C,R108*%
X69830000Y-68050000D03*
X69830000Y-70050000D03*
%TD*%
D43*
%TO.C,R106*%
X90490000Y-44560000D03*
X92490000Y-44560000D03*
%TD*%
D44*
%TO.C,U34*%
X74645000Y-39050000D03*
X75145000Y-39050000D03*
X75645000Y-39050000D03*
X75645000Y-40550000D03*
X75145000Y-40550000D03*
X74645000Y-40550000D03*
%TD*%
D43*
%TO.C,R104*%
X90500000Y-42420000D03*
X92500000Y-42420000D03*
%TD*%
D45*
%TO.C,R97*%
X88680000Y-30730000D03*
X86680000Y-30730000D03*
%TD*%
%TO.C,R107*%
X59470000Y-46520000D03*
X57470000Y-46520000D03*
%TD*%
%TO.C,R98*%
X88670000Y-33650000D03*
X86670000Y-33650000D03*
%TD*%
D46*
%TO.C,D13*%
X8132499Y-83490000D03*
X6082499Y-83490000D03*
%TD*%
D47*
%TO.C,R116*%
X57597500Y-94550000D03*
X55772500Y-94550000D03*
%TD*%
D40*
%TO.C,R123*%
X68760000Y-100657500D03*
X68760000Y-102482500D03*
%TD*%
D48*
%TO.C,C150*%
X47370002Y-66310000D03*
X47370002Y-64760000D03*
%TD*%
D41*
%TO.C,TP39*%
X112430000Y-113280000D03*
%TD*%
%TO.C,TP18*%
X36642000Y-62450000D03*
%TD*%
D47*
%TO.C,R117*%
X59422500Y-96350000D03*
X57597500Y-96350000D03*
%TD*%
D48*
%TO.C,C139*%
X107210000Y-40485000D03*
X107210000Y-38935000D03*
%TD*%
D49*
%TO.C,C146*%
X24260000Y-63270000D03*
X25220000Y-63270000D03*
%TD*%
D41*
%TO.C,TP36*%
X115660000Y-109780000D03*
%TD*%
%TO.C,TP30*%
X51940707Y-102889293D03*
%TD*%
D48*
%TO.C,C148*%
X50810001Y-66320000D03*
X50810001Y-64770000D03*
%TD*%
D40*
%TO.C,R119*%
X75970000Y-100657500D03*
X75970000Y-102482500D03*
%TD*%
D50*
%TO.C,R111*%
X12035000Y-83560000D03*
X10385000Y-83560000D03*
%TD*%
D51*
%TO.C,C136*%
X105060000Y-32045000D03*
X105060000Y-30145000D03*
%TD*%
D38*
%TO.C,C137*%
X99490000Y-31645000D03*
X102440000Y-31645000D03*
%TD*%
D42*
%TO.C,R110*%
X83670000Y-68450000D03*
X83670000Y-70450000D03*
%TD*%
D41*
%TO.C,TP31*%
X115660000Y-104950000D03*
%TD*%
%TO.C,TP19*%
X33619293Y-62450707D03*
%TD*%
D40*
%TO.C,R132*%
X68760000Y-102477500D03*
X68760000Y-104302500D03*
%TD*%
D52*
%TO.C,J30*%
X102900000Y-147905000D03*
X104000000Y-147905000D03*
X105100000Y-147905000D03*
X106200000Y-147905000D03*
X107300000Y-147905000D03*
X108400000Y-147905000D03*
X109500000Y-147905000D03*
X110600000Y-147905000D03*
D53*
X101110000Y-135440000D03*
D54*
X105375000Y-135365000D03*
D55*
X98800000Y-136640000D03*
D56*
X99020000Y-147890000D03*
D57*
X111680000Y-147405000D03*
D55*
X111760000Y-136640000D03*
%TD*%
D41*
%TO.C,TP42*%
X120620000Y-142870000D03*
%TD*%
%TO.C,TP20*%
X43600000Y-70750000D03*
%TD*%
D58*
%TO.C,C145*%
X43435000Y-54730000D03*
X41885000Y-54730000D03*
%TD*%
D41*
%TO.C,TP28*%
X73880000Y-96900000D03*
%TD*%
D59*
%TO.C,ZZ14*%
X39790000Y-102460000D03*
X39790000Y-99380000D03*
X39390000Y-102460000D03*
X39390000Y-99380000D03*
X38990000Y-102460000D03*
X38990000Y-99380000D03*
X38590000Y-102460000D03*
X38590000Y-99380000D03*
X38190000Y-102460000D03*
X38190000Y-99380000D03*
X37790000Y-102460000D03*
X37790000Y-99380000D03*
X37390000Y-102460000D03*
X37390000Y-99380000D03*
X36990000Y-102460000D03*
X36990000Y-99380000D03*
X36590000Y-102460000D03*
X36590000Y-99380000D03*
X36190000Y-102460000D03*
X36190000Y-99380000D03*
X35790000Y-102460000D03*
X35790000Y-99380000D03*
X35390000Y-102460000D03*
X35390000Y-99380000D03*
X34990000Y-102460000D03*
X34990000Y-99380000D03*
X34590000Y-102460000D03*
X34590000Y-99380000D03*
X34190000Y-102460000D03*
X34190000Y-99380000D03*
X33790000Y-102460000D03*
X33790000Y-99380000D03*
X33390000Y-102460000D03*
X33390000Y-99380000D03*
X32990000Y-102460000D03*
X32990000Y-99380000D03*
X32590000Y-102460000D03*
X32590000Y-99380000D03*
X32190000Y-102460000D03*
X32190000Y-99380000D03*
X31790000Y-102460000D03*
X31790000Y-99380000D03*
X31390000Y-102460000D03*
X31390000Y-99380000D03*
X30990000Y-102460000D03*
X30990000Y-99380000D03*
X30590000Y-102460000D03*
X30590000Y-99380000D03*
X30190000Y-102460000D03*
X30190000Y-99380000D03*
X29790000Y-102460000D03*
X29790000Y-99380000D03*
X29390000Y-102460000D03*
X29390000Y-99380000D03*
X28990000Y-102460000D03*
X28990000Y-99380000D03*
X28590000Y-102460000D03*
X28590000Y-99380000D03*
X28190000Y-102460000D03*
X28190000Y-99380000D03*
X27790000Y-102460000D03*
X27790000Y-99380000D03*
X27390000Y-102460000D03*
X27390000Y-99380000D03*
X26990000Y-102460000D03*
X26990000Y-99380000D03*
X26590000Y-102460000D03*
X26590000Y-99380000D03*
X26190000Y-102460000D03*
X26190000Y-99380000D03*
X25790000Y-102460000D03*
X25790000Y-99380000D03*
X25390000Y-102460000D03*
X25390000Y-99380000D03*
X24990000Y-102460000D03*
X24990000Y-99380000D03*
X24590000Y-102460000D03*
X24590000Y-99380000D03*
X24190000Y-102460000D03*
X24190000Y-99380000D03*
X23790000Y-102460000D03*
X23790000Y-99380000D03*
X23390000Y-102460000D03*
X23390000Y-99380000D03*
X22990000Y-102460000D03*
X22990000Y-99380000D03*
X22590000Y-102460000D03*
X22590000Y-99380000D03*
X22190000Y-102460000D03*
X22190000Y-99380000D03*
X21790000Y-102460000D03*
X21790000Y-99380000D03*
X21390000Y-102460000D03*
X21390000Y-99380000D03*
X20990000Y-102460000D03*
X20990000Y-99380000D03*
X20590000Y-102460000D03*
X20590000Y-99380000D03*
X20190000Y-102460000D03*
X20190000Y-99380000D03*
%TD*%
D39*
%TO.C,C152*%
X50780000Y-79835000D03*
X50780000Y-81385000D03*
%TD*%
D40*
%TO.C,R134*%
X65155000Y-102477500D03*
X65155000Y-104302500D03*
%TD*%
D41*
%TO.C,TP27*%
X75930000Y-96900000D03*
%TD*%
D59*
%TO.C,ZZ12*%
X39800000Y-59610000D03*
X39800000Y-56530000D03*
X39400000Y-59610000D03*
X39400000Y-56530000D03*
X39000000Y-59610000D03*
X39000000Y-56530000D03*
X38600000Y-59610000D03*
X38600000Y-56530000D03*
X38200000Y-59610000D03*
X38200000Y-56530000D03*
X37800000Y-59610000D03*
X37800000Y-56530000D03*
X37400000Y-59610000D03*
X37400000Y-56530000D03*
X37000000Y-59610000D03*
X37000000Y-56530000D03*
X36600000Y-59610000D03*
X36600000Y-56530000D03*
X36200000Y-59610000D03*
X36200000Y-56530000D03*
X35800000Y-59610000D03*
X35800000Y-56530000D03*
X35400000Y-59610000D03*
X35400000Y-56530000D03*
X35000000Y-59610000D03*
X35000000Y-56530000D03*
X34600000Y-59610000D03*
X34600000Y-56530000D03*
X34200000Y-59610000D03*
X34200000Y-56530000D03*
X33800000Y-59610000D03*
X33800000Y-56530000D03*
X33400000Y-59610000D03*
X33400000Y-56530000D03*
X33000000Y-59610000D03*
X33000000Y-56530000D03*
X32600000Y-59610000D03*
X32600000Y-56530000D03*
X32200000Y-59610000D03*
X32200000Y-56530000D03*
X31800000Y-59610000D03*
X31800000Y-56530000D03*
X31400000Y-59610000D03*
X31400000Y-56530000D03*
X31000000Y-59610000D03*
X31000000Y-56530000D03*
X30600000Y-59610000D03*
X30600000Y-56530000D03*
X30200000Y-59610000D03*
X30200000Y-56530000D03*
X29800000Y-59610000D03*
X29800000Y-56530000D03*
X29400000Y-59610000D03*
X29400000Y-56530000D03*
X29000000Y-59610000D03*
X29000000Y-56530000D03*
X28600000Y-59610000D03*
X28600000Y-56530000D03*
X28200000Y-59610000D03*
X28200000Y-56530000D03*
X27800000Y-59610000D03*
X27800000Y-56530000D03*
X27400000Y-59610000D03*
X27400000Y-56530000D03*
X27000000Y-59610000D03*
X27000000Y-56530000D03*
X26600000Y-59610000D03*
X26600000Y-56530000D03*
X26200000Y-59610000D03*
X26200000Y-56530000D03*
X25800000Y-59610000D03*
X25800000Y-56530000D03*
X25400000Y-59610000D03*
X25400000Y-56530000D03*
X25000000Y-59610000D03*
X25000000Y-56530000D03*
X24600000Y-59610000D03*
X24600000Y-56530000D03*
X24200000Y-59610000D03*
X24200000Y-56530000D03*
X23800000Y-59610000D03*
X23800000Y-56530000D03*
X23400000Y-59610000D03*
X23400000Y-56530000D03*
X23000000Y-59610000D03*
X23000000Y-56530000D03*
X22600000Y-59610000D03*
X22600000Y-56530000D03*
X22200000Y-59610000D03*
X22200000Y-56530000D03*
X21800000Y-59610000D03*
X21800000Y-56530000D03*
X21400000Y-59610000D03*
X21400000Y-56530000D03*
X21000000Y-59610000D03*
X21000000Y-56530000D03*
X20600000Y-59610000D03*
X20600000Y-56530000D03*
X20200000Y-59610000D03*
X20200000Y-56530000D03*
%TD*%
D39*
%TO.C,C151*%
X52309999Y-79835000D03*
X52309999Y-81385000D03*
%TD*%
D40*
%TO.C,R120*%
X74167500Y-100657500D03*
X74167500Y-102482500D03*
%TD*%
D42*
%TO.C,R109*%
X67450000Y-68050000D03*
X67450000Y-70050000D03*
%TD*%
D41*
%TO.C,TP16*%
X34697643Y-27860433D03*
%TD*%
%TO.C,TP24*%
X60830000Y-91050000D03*
%TD*%
D50*
%TO.C,R103*%
X12008097Y-40610000D03*
X10358097Y-40610000D03*
%TD*%
D41*
%TO.C,TP29*%
X51970707Y-100439293D03*
%TD*%
D40*
%TO.C,R124*%
X66957500Y-100657500D03*
X66957500Y-102482500D03*
%TD*%
D60*
%TO.C,L5*%
X93950000Y-34215000D03*
X93950000Y-30065000D03*
%TD*%
D40*
%TO.C,R122*%
X70562500Y-100657500D03*
X70562500Y-102482500D03*
%TD*%
%TO.C,R136*%
X61540000Y-102477500D03*
X61540000Y-104302500D03*
%TD*%
D58*
%TO.C,C142*%
X43435000Y-49800001D03*
X41885000Y-49800001D03*
%TD*%
D41*
%TO.C,TP40*%
X27370000Y-120520000D03*
%TD*%
%TO.C,TP17*%
X32627643Y-27860433D03*
%TD*%
%TO.C,TP34*%
X76850000Y-98830000D03*
%TD*%
D39*
%TO.C,C156*%
X55940001Y-87445000D03*
X55940001Y-88995000D03*
%TD*%
D40*
%TO.C,R135*%
X63360001Y-102477500D03*
X63360001Y-104302500D03*
%TD*%
D41*
%TO.C,TP25*%
X65330000Y-96150000D03*
%TD*%
D58*
%TO.C,C144*%
X43435000Y-53190000D03*
X41885000Y-53190000D03*
%TD*%
D50*
%TO.C,FB1*%
X79735000Y-42930000D03*
X78085000Y-42930000D03*
%TD*%
D41*
%TO.C,TP33*%
X80960000Y-96900000D03*
%TD*%
D61*
%TO.C,U33*%
X102360000Y-36355000D03*
D62*
X104922500Y-34450000D03*
X104922500Y-35720000D03*
X104922500Y-36990000D03*
X104922500Y-38260000D03*
X99797500Y-38260000D03*
X99797500Y-36990000D03*
X99797500Y-35720000D03*
X99797500Y-34450000D03*
%TD*%
D50*
%TO.C,R99*%
X96530000Y-38615000D03*
X94880000Y-38615000D03*
%TD*%
D47*
%TO.C,R114*%
X57597500Y-92690000D03*
X55772500Y-92690000D03*
%TD*%
D40*
%TO.C,R125*%
X65155000Y-100657500D03*
X65155000Y-102482500D03*
%TD*%
D39*
%TO.C,C158*%
X52220000Y-88855000D03*
X52220000Y-90405000D03*
%TD*%
%TO.C,C141*%
X75140000Y-42905000D03*
X75140000Y-44455000D03*
%TD*%
D63*
%TO.C,R101*%
X99320000Y-40465000D03*
X100970000Y-40465000D03*
%TD*%
D49*
%TO.C,C159*%
X23420000Y-104450000D03*
X24380000Y-104450000D03*
%TD*%
D59*
%TO.C,ZZ13*%
X39790000Y-68500000D03*
X39790000Y-65420000D03*
X39390000Y-68500000D03*
X39390000Y-65420000D03*
X38990000Y-68500000D03*
X38990000Y-65420000D03*
X38590000Y-68500000D03*
X38590000Y-65420000D03*
X38190000Y-68500000D03*
X38190000Y-65420000D03*
X37790000Y-68500000D03*
X37790000Y-65420000D03*
X37390000Y-68500000D03*
X37390000Y-65420000D03*
X36990000Y-68500000D03*
X36990000Y-65420000D03*
X36590000Y-68500000D03*
X36590000Y-65420000D03*
X36190000Y-68500000D03*
X36190000Y-65420000D03*
X35790000Y-68500000D03*
X35790000Y-65420000D03*
X35390000Y-68500000D03*
X35390000Y-65420000D03*
X34990000Y-68500000D03*
X34990000Y-65420000D03*
X34590000Y-68500000D03*
X34590000Y-65420000D03*
X34190000Y-68500000D03*
X34190000Y-65420000D03*
X33790000Y-68500000D03*
X33790000Y-65420000D03*
X33390000Y-68500000D03*
X33390000Y-65420000D03*
X32990000Y-68500000D03*
X32990000Y-65420000D03*
X32590000Y-68500000D03*
X32590000Y-65420000D03*
X32190000Y-68500000D03*
X32190000Y-65420000D03*
X31790000Y-68500000D03*
X31790000Y-65420000D03*
X31390000Y-68500000D03*
X31390000Y-65420000D03*
X30990000Y-68500000D03*
X30990000Y-65420000D03*
X30590000Y-68500000D03*
X30590000Y-65420000D03*
X30190000Y-68500000D03*
X30190000Y-65420000D03*
X29790000Y-68500000D03*
X29790000Y-65420000D03*
X29390000Y-68500000D03*
X29390000Y-65420000D03*
X28990000Y-68500000D03*
X28990000Y-65420000D03*
X28590000Y-68500000D03*
X28590000Y-65420000D03*
X28190000Y-68500000D03*
X28190000Y-65420000D03*
X27790000Y-68500000D03*
X27790000Y-65420000D03*
X27390000Y-68500000D03*
X27390000Y-65420000D03*
X26990000Y-68500000D03*
X26990000Y-65420000D03*
X26590000Y-68500000D03*
X26590000Y-65420000D03*
X26190000Y-68500000D03*
X26190000Y-65420000D03*
X25790000Y-68500000D03*
X25790000Y-65420000D03*
X25390000Y-68500000D03*
X25390000Y-65420000D03*
X24990000Y-68500000D03*
X24990000Y-65420000D03*
X24590000Y-68500000D03*
X24590000Y-65420000D03*
X24190000Y-68500000D03*
X24190000Y-65420000D03*
X23790000Y-68500000D03*
X23790000Y-65420000D03*
X23390000Y-68500000D03*
X23390000Y-65420000D03*
X22990000Y-68500000D03*
X22990000Y-65420000D03*
X22590000Y-68500000D03*
X22590000Y-65420000D03*
X22190000Y-68500000D03*
X22190000Y-65420000D03*
X21790000Y-68500000D03*
X21790000Y-65420000D03*
X21390000Y-68500000D03*
X21390000Y-65420000D03*
X20990000Y-68500000D03*
X20990000Y-65420000D03*
X20590000Y-68500000D03*
X20590000Y-65420000D03*
X20190000Y-68500000D03*
X20190000Y-65420000D03*
%TD*%
D40*
%TO.C,R121*%
X72365000Y-100657500D03*
X72365000Y-102482500D03*
%TD*%
D41*
%TO.C,TP37*%
X112410000Y-109800000D03*
%TD*%
D47*
%TO.C,R118*%
X57597500Y-96350000D03*
X55772500Y-96350000D03*
%TD*%
D40*
%TO.C,R126*%
X63360000Y-100657500D03*
X63360000Y-102482500D03*
%TD*%
D48*
%TO.C,C149*%
X48900001Y-66310000D03*
X48900001Y-64760000D03*
%TD*%
D58*
%TO.C,C143*%
X43435000Y-51330000D03*
X41885000Y-51330000D03*
%TD*%
D59*
%TO.C,ZZ11*%
X39800000Y-25650000D03*
X39800000Y-22570000D03*
X39400000Y-25650000D03*
X39400000Y-22570000D03*
X39000000Y-25650000D03*
X39000000Y-22570000D03*
X38600000Y-25650000D03*
X38600000Y-22570000D03*
X38200000Y-25650000D03*
X38200000Y-22570000D03*
X37800000Y-25650000D03*
X37800000Y-22570000D03*
X37400000Y-25650000D03*
X37400000Y-22570000D03*
X37000000Y-25650000D03*
X37000000Y-22570000D03*
X36600000Y-25650000D03*
X36600000Y-22570000D03*
X36200000Y-25650000D03*
X36200000Y-22570000D03*
X35800000Y-25650000D03*
X35800000Y-22570000D03*
X35400000Y-25650000D03*
X35400000Y-22570000D03*
X35000000Y-25650000D03*
X35000000Y-22570000D03*
X34600000Y-25650000D03*
X34600000Y-22570000D03*
X34200000Y-25650000D03*
X34200000Y-22570000D03*
X33800000Y-25650000D03*
X33800000Y-22570000D03*
X33400000Y-25650000D03*
X33400000Y-22570000D03*
X33000000Y-25650000D03*
X33000000Y-22570000D03*
X32600000Y-25650000D03*
X32600000Y-22570000D03*
X32200000Y-25650000D03*
X32200000Y-22570000D03*
X31800000Y-25650000D03*
X31800000Y-22570000D03*
X31400000Y-25650000D03*
X31400000Y-22570000D03*
X31000000Y-25650000D03*
X31000000Y-22570000D03*
X30600000Y-25650000D03*
X30600000Y-22570000D03*
X30200000Y-25650000D03*
X30200000Y-22570000D03*
X29800000Y-25650000D03*
X29800000Y-22570000D03*
X29400000Y-25650000D03*
X29400000Y-22570000D03*
X29000000Y-25650000D03*
X29000000Y-22570000D03*
X28600000Y-25650000D03*
X28600000Y-22570000D03*
X28200000Y-25650000D03*
X28200000Y-22570000D03*
X27800000Y-25650000D03*
X27800000Y-22570000D03*
X27400000Y-25650000D03*
X27400000Y-22570000D03*
X27000000Y-25650000D03*
X27000000Y-22570000D03*
X26600000Y-25650000D03*
X26600000Y-22570000D03*
X26200000Y-25650000D03*
X26200000Y-22570000D03*
X25800000Y-25650000D03*
X25800000Y-22570000D03*
X25400000Y-25650000D03*
X25400000Y-22570000D03*
X25000000Y-25650000D03*
X25000000Y-22570000D03*
X24600000Y-25650000D03*
X24600000Y-22570000D03*
X24200000Y-25650000D03*
X24200000Y-22570000D03*
X23800000Y-25650000D03*
X23800000Y-22570000D03*
X23400000Y-25650000D03*
X23400000Y-22570000D03*
X23000000Y-25650000D03*
X23000000Y-22570000D03*
X22600000Y-25650000D03*
X22600000Y-22570000D03*
X22200000Y-25650000D03*
X22200000Y-22570000D03*
X21800000Y-25650000D03*
X21800000Y-22570000D03*
X21400000Y-25650000D03*
X21400000Y-22570000D03*
X21000000Y-25650000D03*
X21000000Y-22570000D03*
X20600000Y-25650000D03*
X20600000Y-22570000D03*
X20200000Y-25650000D03*
X20200000Y-22570000D03*
%TD*%
D41*
%TO.C,TP32*%
X112410000Y-104930000D03*
%TD*%
D64*
%TO.C,J29*%
X103900000Y-127560000D03*
D65*
X123900000Y-127560000D03*
D66*
X104650000Y-132785000D03*
X104900000Y-125335000D03*
X105150000Y-132785000D03*
X105400000Y-125335000D03*
X105650000Y-132785000D03*
X105900000Y-125335000D03*
X106150000Y-132785000D03*
X106400000Y-125335000D03*
X106650000Y-132785000D03*
X106900000Y-125335000D03*
X107150000Y-132785000D03*
X107400000Y-125335000D03*
X107650000Y-132785000D03*
X107900000Y-125335000D03*
X108150000Y-132785000D03*
X108400000Y-125335000D03*
X108650000Y-132785000D03*
X108900000Y-125335000D03*
X109150000Y-132785000D03*
X109400000Y-125335000D03*
X109650000Y-132785000D03*
X109900000Y-125335000D03*
X110150000Y-132785000D03*
X110400000Y-125335000D03*
X110650000Y-132785000D03*
X110900000Y-125335000D03*
X111150000Y-132785000D03*
X111400000Y-125335000D03*
X111650000Y-132785000D03*
X111900000Y-125335000D03*
X112150000Y-132785000D03*
X112400000Y-125335000D03*
X112650000Y-132785000D03*
X112900000Y-125335000D03*
X113150000Y-132785000D03*
X113400000Y-125335000D03*
X113650000Y-132785000D03*
X113900000Y-125335000D03*
X114150000Y-132785000D03*
X114400000Y-125335000D03*
X114650000Y-132785000D03*
X114900000Y-125335000D03*
X115150000Y-132785000D03*
X115400000Y-125335000D03*
X115650000Y-132785000D03*
X115900000Y-125335000D03*
X116150000Y-132785000D03*
X116400000Y-125335000D03*
X116650000Y-132785000D03*
X116900000Y-125335000D03*
X117150000Y-132785000D03*
X117400000Y-125335000D03*
X117650000Y-132785000D03*
X117900000Y-125335000D03*
X118150000Y-132785000D03*
X118400000Y-125335000D03*
X118650000Y-132785000D03*
X118900000Y-125335000D03*
X121150000Y-132785000D03*
X121400000Y-125335000D03*
X121650000Y-132785000D03*
X121900000Y-125335000D03*
X122150000Y-132785000D03*
X122400000Y-125335000D03*
X122650000Y-132785000D03*
X122900000Y-125335000D03*
X123150000Y-132785000D03*
D67*
X103550000Y-132060000D03*
X124250000Y-132060000D03*
%TD*%
D48*
%TO.C,C147*%
X52340000Y-66320000D03*
X52340000Y-64770000D03*
%TD*%
%TO.C,C161*%
X73900000Y-79525000D03*
X73900000Y-77975000D03*
%TD*%
D39*
%TO.C,C157*%
X53750000Y-88854999D03*
X53750000Y-90404999D03*
%TD*%
D63*
%TO.C,FB2*%
X84005000Y-83250000D03*
X85655000Y-83250000D03*
%TD*%
D40*
%TO.C,R128*%
X75970000Y-102477500D03*
X75970000Y-104302500D03*
%TD*%
D68*
%TO.C,C138*%
X94930000Y-36765000D03*
X96480000Y-36765000D03*
%TD*%
D40*
%TO.C,R131*%
X70562500Y-102477500D03*
X70562500Y-104302500D03*
%TD*%
D46*
%TO.C,D12*%
X8058094Y-40610000D03*
X6008094Y-40610000D03*
%TD*%
D39*
%TO.C,C153*%
X50010000Y-83360000D03*
X50010000Y-84910000D03*
%TD*%
D48*
%TO.C,C160*%
X72330000Y-79525000D03*
X72330000Y-77975000D03*
%TD*%
D41*
%TO.C,TP41*%
X120630000Y-140800000D03*
%TD*%
D69*
%TO.C,R112*%
X37430000Y-89525000D03*
X37430000Y-91175000D03*
%TD*%
D47*
%TO.C,R113*%
X59422500Y-92690000D03*
X57597500Y-92690000D03*
%TD*%
D41*
%TO.C,TP21*%
X40550000Y-70700000D03*
%TD*%
D58*
%TO.C,C140*%
X105355000Y-40465000D03*
X103805000Y-40465000D03*
%TD*%
D41*
%TO.C,TP22*%
X60830000Y-86950000D03*
%TD*%
D63*
%TO.C,R102*%
X94870000Y-40455000D03*
X96520000Y-40455000D03*
%TD*%
D50*
%TO.C,FB3*%
X65255000Y-82700000D03*
X63605000Y-82700000D03*
%TD*%
D39*
%TO.C,C154*%
X48480000Y-83360000D03*
X48480000Y-84910000D03*
%TD*%
D41*
%TO.C,TP23*%
X60830000Y-89000000D03*
%TD*%
D40*
%TO.C,R133*%
X66957500Y-102477500D03*
X66957500Y-104302500D03*
%TD*%
D69*
%TO.C,R100*%
X92520000Y-38880000D03*
X92520000Y-40530000D03*
%TD*%
D40*
%TO.C,R130*%
X72365000Y-102477500D03*
X72365000Y-104302500D03*
%TD*%
D41*
%TO.C,TP38*%
X115660000Y-113260000D03*
%TD*%
D40*
%TO.C,R129*%
X74167500Y-102477500D03*
X74167500Y-104302500D03*
%TD*%
D36*
%TO.C,Module6*%
X8490000Y-100440000D03*
X56490000Y-100440000D03*
X8490000Y-67440000D03*
X56490000Y-67440000D03*
D59*
X39790000Y-102440000D03*
X39790000Y-99360000D03*
X39390000Y-102440000D03*
X39390000Y-99360000D03*
X38990000Y-102440000D03*
X38990000Y-99360000D03*
X38590000Y-102440000D03*
X38590000Y-99360000D03*
X38190000Y-102440000D03*
X38190000Y-99360000D03*
X37790000Y-102440000D03*
X37790000Y-99360000D03*
X37390000Y-102440000D03*
X37390000Y-99360000D03*
X36990000Y-102440000D03*
X36990000Y-99360000D03*
X36590000Y-102440000D03*
X36590000Y-99360000D03*
X36190000Y-102440000D03*
X36190000Y-99360000D03*
X35790000Y-102440000D03*
X35790000Y-99360000D03*
X35390000Y-102440000D03*
X35390000Y-99360000D03*
X34990000Y-102440000D03*
X34990000Y-99360000D03*
X34590000Y-102440000D03*
X34590000Y-99360000D03*
X34190000Y-102440000D03*
X34190000Y-99360000D03*
X33790000Y-102440000D03*
X33790000Y-99360000D03*
X33390000Y-102440000D03*
X33390000Y-99360000D03*
X32990000Y-102440000D03*
X32990000Y-99360000D03*
X32590000Y-102440000D03*
X32590000Y-99360000D03*
X32190000Y-102440000D03*
X32190000Y-99360000D03*
X31790000Y-102440000D03*
X31790000Y-99360000D03*
X31390000Y-102440000D03*
X31390000Y-99360000D03*
X30990000Y-102440000D03*
X30990000Y-99360000D03*
X30590000Y-102440000D03*
X30590000Y-99360000D03*
X30190000Y-102440000D03*
X30190000Y-99360000D03*
X29790000Y-102440000D03*
X29790000Y-99360000D03*
X29390000Y-102440000D03*
X29390000Y-99360000D03*
X28990000Y-102440000D03*
X28990000Y-99360000D03*
X28590000Y-102440000D03*
X28590000Y-99360000D03*
X28190000Y-102440000D03*
X28190000Y-99360000D03*
X27790000Y-102440000D03*
X27790000Y-99360000D03*
X27390000Y-102440000D03*
X27390000Y-99360000D03*
X26990000Y-102440000D03*
X26990000Y-99360000D03*
X26590000Y-102440000D03*
X26590000Y-99360000D03*
X26190000Y-102440000D03*
X26190000Y-99360000D03*
X25790000Y-102440000D03*
X25790000Y-99360000D03*
X25390000Y-102440000D03*
X25390000Y-99360000D03*
X24990000Y-102440000D03*
X24990000Y-99360000D03*
X24590000Y-102440000D03*
X24590000Y-99360000D03*
X24190000Y-102440000D03*
X24190000Y-99360000D03*
X23790000Y-102440000D03*
X23790000Y-99360000D03*
X23390000Y-102440000D03*
X23390000Y-99360000D03*
X22990000Y-102440000D03*
X22990000Y-99360000D03*
X22590000Y-102440000D03*
X22590000Y-99360000D03*
X22190000Y-102440000D03*
X22190000Y-99360000D03*
X21790000Y-102440000D03*
X21790000Y-99360000D03*
X21390000Y-102440000D03*
X21390000Y-99360000D03*
X20990000Y-102440000D03*
X20990000Y-99360000D03*
X20590000Y-102440000D03*
X20590000Y-99360000D03*
X20190000Y-102440000D03*
X20190000Y-99360000D03*
X39790000Y-68520000D03*
X39790000Y-65440000D03*
X39390000Y-68520000D03*
X39390000Y-65440000D03*
X38990000Y-68520000D03*
X38990000Y-65440000D03*
X38590000Y-68520000D03*
X38590000Y-65440000D03*
X38190000Y-68520000D03*
X38190000Y-65440000D03*
X37790000Y-68520000D03*
X37790000Y-65440000D03*
X37390000Y-68520000D03*
X37390000Y-65440000D03*
X36990000Y-68520000D03*
X36990000Y-65440000D03*
X36590000Y-68520000D03*
X36590000Y-65440000D03*
X36190000Y-68520000D03*
X36190000Y-65440000D03*
X35790000Y-68520000D03*
X35790000Y-65440000D03*
X35390000Y-68520000D03*
X35390000Y-65440000D03*
X34990000Y-68520000D03*
X34990000Y-65440000D03*
X34590000Y-68520000D03*
X34590000Y-65440000D03*
X34190000Y-68520000D03*
X34190000Y-65440000D03*
X33790000Y-68520000D03*
X33790000Y-65440000D03*
X33390000Y-68520000D03*
X33390000Y-65440000D03*
X32990000Y-68520000D03*
X32990000Y-65440000D03*
X32590000Y-68520000D03*
X32590000Y-65440000D03*
X32190000Y-68520000D03*
X32190000Y-65440000D03*
X31790000Y-68520000D03*
X31790000Y-65440000D03*
X31390000Y-68520000D03*
X31390000Y-65440000D03*
X30990000Y-68520000D03*
X30990000Y-65440000D03*
X30590000Y-68520000D03*
X30590000Y-65440000D03*
X30190000Y-68520000D03*
X30190000Y-65440000D03*
X29790000Y-68520000D03*
X29790000Y-65440000D03*
X29390000Y-68520000D03*
X29390000Y-65440000D03*
X28990000Y-68520000D03*
X28990000Y-65440000D03*
X28590000Y-68520000D03*
X28590000Y-65440000D03*
X28190000Y-68520000D03*
X28190000Y-65440000D03*
X27790000Y-68520000D03*
X27790000Y-65440000D03*
X27390000Y-68520000D03*
X27390000Y-65440000D03*
X26990000Y-68520000D03*
X26990000Y-65440000D03*
X26590000Y-68520000D03*
X26590000Y-65440000D03*
X26190000Y-68520000D03*
X26190000Y-65440000D03*
X25790000Y-68520000D03*
X25790000Y-65440000D03*
X25390000Y-68520000D03*
X25390000Y-65440000D03*
X24990000Y-68520000D03*
X24990000Y-65440000D03*
X24590000Y-68520000D03*
X24590000Y-65440000D03*
X24190000Y-68520000D03*
X24190000Y-65440000D03*
X23790000Y-68520000D03*
X23790000Y-65440000D03*
X23390000Y-68520000D03*
X23390000Y-65440000D03*
X22990000Y-68520000D03*
X22990000Y-65440000D03*
X22590000Y-68520000D03*
X22590000Y-65440000D03*
X22190000Y-68520000D03*
X22190000Y-65440000D03*
X21790000Y-68520000D03*
X21790000Y-65440000D03*
X21390000Y-68520000D03*
X21390000Y-65440000D03*
X20990000Y-68520000D03*
X20990000Y-65440000D03*
X20590000Y-68520000D03*
X20590000Y-65440000D03*
X20190000Y-68520000D03*
X20190000Y-65440000D03*
%TD*%
D41*
%TO.C,TP26*%
X77980000Y-96900000D03*
%TD*%
D45*
%TO.C,R105*%
X59470000Y-44020000D03*
X57470000Y-44020000D03*
%TD*%
D36*
%TO.C,Module5*%
X8500000Y-57590000D03*
X56500000Y-57590000D03*
X8500000Y-24590000D03*
X56500000Y-24590000D03*
D59*
X39800000Y-59590000D03*
X39800000Y-56510000D03*
X39400000Y-59590000D03*
X39400000Y-56510000D03*
X39000000Y-59590000D03*
X39000000Y-56510000D03*
X38600000Y-59590000D03*
X38600000Y-56510000D03*
X38200000Y-59590000D03*
X38200000Y-56510000D03*
X37800000Y-59590000D03*
X37800000Y-56510000D03*
X37400000Y-59590000D03*
X37400000Y-56510000D03*
X37000000Y-59590000D03*
X37000000Y-56510000D03*
X36600000Y-59590000D03*
X36600000Y-56510000D03*
X36200000Y-59590000D03*
X36200000Y-56510000D03*
X35800000Y-59590000D03*
X35800000Y-56510000D03*
X35400000Y-59590000D03*
X35400000Y-56510000D03*
X35000000Y-59590000D03*
X35000000Y-56510000D03*
X34600000Y-59590000D03*
X34600000Y-56510000D03*
X34200000Y-59590000D03*
X34200000Y-56510000D03*
X33800000Y-59590000D03*
X33800000Y-56510000D03*
X33400000Y-59590000D03*
X33400000Y-56510000D03*
X33000000Y-59590000D03*
X33000000Y-56510000D03*
X32600000Y-59590000D03*
X32600000Y-56510000D03*
X32200000Y-59590000D03*
X32200000Y-56510000D03*
X31800000Y-59590000D03*
X31800000Y-56510000D03*
X31400000Y-59590000D03*
X31400000Y-56510000D03*
X31000000Y-59590000D03*
X31000000Y-56510000D03*
X30600000Y-59590000D03*
X30600000Y-56510000D03*
X30200000Y-59590000D03*
X30200000Y-56510000D03*
X29800000Y-59590000D03*
X29800000Y-56510000D03*
X29400000Y-59590000D03*
X29400000Y-56510000D03*
X29000000Y-59590000D03*
X29000000Y-56510000D03*
X28600000Y-59590000D03*
X28600000Y-56510000D03*
X28200000Y-59590000D03*
X28200000Y-56510000D03*
X27800000Y-59590000D03*
X27800000Y-56510000D03*
X27400000Y-59590000D03*
X27400000Y-56510000D03*
X27000000Y-59590000D03*
X27000000Y-56510000D03*
X26600000Y-59590000D03*
X26600000Y-56510000D03*
X26200000Y-59590000D03*
X26200000Y-56510000D03*
X25800000Y-59590000D03*
X25800000Y-56510000D03*
X25400000Y-59590000D03*
X25400000Y-56510000D03*
X25000000Y-59590000D03*
X25000000Y-56510000D03*
X24600000Y-59590000D03*
X24600000Y-56510000D03*
X24200000Y-59590000D03*
X24200000Y-56510000D03*
X23800000Y-59590000D03*
X23800000Y-56510000D03*
X23400000Y-59590000D03*
X23400000Y-56510000D03*
X23000000Y-59590000D03*
X23000000Y-56510000D03*
X22600000Y-59590000D03*
X22600000Y-56510000D03*
X22200000Y-59590000D03*
X22200000Y-56510000D03*
X21800000Y-59590000D03*
X21800000Y-56510000D03*
X21400000Y-59590000D03*
X21400000Y-56510000D03*
X21000000Y-59590000D03*
X21000000Y-56510000D03*
X20600000Y-59590000D03*
X20600000Y-56510000D03*
X20200000Y-59590000D03*
X20200000Y-56510000D03*
X39800000Y-25670000D03*
X39800000Y-22590000D03*
X39400000Y-25670000D03*
X39400000Y-22590000D03*
X39000000Y-25670000D03*
X39000000Y-22590000D03*
X38600000Y-25670000D03*
X38600000Y-22590000D03*
X38200000Y-25670000D03*
X38200000Y-22590000D03*
X37800000Y-25670000D03*
X37800000Y-22590000D03*
X37400000Y-25670000D03*
X37400000Y-22590000D03*
X37000000Y-25670000D03*
X37000000Y-22590000D03*
X36600000Y-25670000D03*
X36600000Y-22590000D03*
X36200000Y-25670000D03*
X36200000Y-22590000D03*
X35800000Y-25670000D03*
X35800000Y-22590000D03*
X35400000Y-25670000D03*
X35400000Y-22590000D03*
X35000000Y-25670000D03*
X35000000Y-22590000D03*
X34600000Y-25670000D03*
X34600000Y-22590000D03*
X34200000Y-25670000D03*
X34200000Y-22590000D03*
X33800000Y-25670000D03*
X33800000Y-22590000D03*
X33400000Y-25670000D03*
X33400000Y-22590000D03*
X33000000Y-25670000D03*
X33000000Y-22590000D03*
X32600000Y-25670000D03*
X32600000Y-22590000D03*
X32200000Y-25670000D03*
X32200000Y-22590000D03*
X31800000Y-25670000D03*
X31800000Y-22590000D03*
X31400000Y-25670000D03*
X31400000Y-22590000D03*
X31000000Y-25670000D03*
X31000000Y-22590000D03*
X30600000Y-25670000D03*
X30600000Y-22590000D03*
X30200000Y-25670000D03*
X30200000Y-22590000D03*
X29800000Y-25670000D03*
X29800000Y-22590000D03*
X29400000Y-25670000D03*
X29400000Y-22590000D03*
X29000000Y-25670000D03*
X29000000Y-22590000D03*
X28600000Y-25670000D03*
X28600000Y-22590000D03*
X28200000Y-25670000D03*
X28200000Y-22590000D03*
X27800000Y-25670000D03*
X27800000Y-22590000D03*
X27400000Y-25670000D03*
X27400000Y-22590000D03*
X27000000Y-25670000D03*
X27000000Y-22590000D03*
X26600000Y-25670000D03*
X26600000Y-22590000D03*
X26200000Y-25670000D03*
X26200000Y-22590000D03*
X25800000Y-25670000D03*
X25800000Y-22590000D03*
X25400000Y-25670000D03*
X25400000Y-22590000D03*
X25000000Y-25670000D03*
X25000000Y-22590000D03*
X24600000Y-25670000D03*
X24600000Y-22590000D03*
X24200000Y-25670000D03*
X24200000Y-22590000D03*
X23800000Y-25670000D03*
X23800000Y-22590000D03*
X23400000Y-25670000D03*
X23400000Y-22590000D03*
X23000000Y-25670000D03*
X23000000Y-22590000D03*
X22600000Y-25670000D03*
X22600000Y-22590000D03*
X22200000Y-25670000D03*
X22200000Y-22590000D03*
X21800000Y-25670000D03*
X21800000Y-22590000D03*
X21400000Y-25670000D03*
X21400000Y-22590000D03*
X21000000Y-25670000D03*
X21000000Y-22590000D03*
X20600000Y-25670000D03*
X20600000Y-22590000D03*
X20200000Y-25670000D03*
X20200000Y-22590000D03*
%TD*%
D47*
%TO.C,R115*%
X59422500Y-94550000D03*
X57597500Y-94550000D03*
%TD*%
M02*
