%TF.GenerationSoftware,KiCad,Pcbnew,7.0.2-6a45011f42~172~ubuntu22.04.1*%
%TF.CreationDate,2023-04-24T13:24:37-07:00*%
%TF.ProjectId,Hepta-Pi_1.1,48657074-612d-4506-995f-312e312e6b69,2.1*%
%TF.SameCoordinates,PX37cf1c0PY1ad88f0*%
%TF.FileFunction,Other,User*%
%FSLAX46Y46*%
G04 Gerber Fmt 4.6, Leading zero omitted, Abs format (unit mm)*
G04 Created by KiCad (PCBNEW 7.0.2-6a45011f42~172~ubuntu22.04.1) date 2023-04-24 13:24:37*
%MOMM*%
%LPD*%
G01*
G04 APERTURE LIST*
%ADD10C,0.050000*%
%ADD11C,0.150000*%
%ADD12C,0.120000*%
%ADD13C,0.152400*%
G04 APERTURE END LIST*
D10*
%TO.C,C37*%
X25925000Y-73870000D02*
X28885000Y-73870000D01*
X25925000Y-75330000D02*
X25925000Y-73870000D01*
X28885000Y-73870000D02*
X28885000Y-75330000D01*
X28885000Y-75330000D02*
X25925000Y-75330000D01*
%TO.C,C121*%
X49750000Y-126640000D02*
X49750000Y-128460000D01*
X48830000Y-126640000D02*
X49750000Y-126640000D01*
X49750000Y-128460000D02*
X48830000Y-128460000D01*
X48830000Y-128460000D02*
X48830000Y-126640000D01*
%TO.C,C58*%
X52040000Y-83932858D02*
X49080000Y-83932858D01*
X52040000Y-82472858D02*
X52040000Y-83932858D01*
X49080000Y-83932858D02*
X49080000Y-82472858D01*
X49080000Y-82472858D02*
X52040000Y-82472858D01*
%TO.C,J27*%
X15820000Y-17800000D02*
X4620000Y-17800000D01*
X4620000Y-17800000D02*
X4620000Y-21400000D01*
X15820000Y-21400000D02*
X15820000Y-17800000D01*
X4620000Y-21400000D02*
X15820000Y-21400000D01*
%TO.C,R23*%
X120230000Y-48240000D02*
X120230000Y-51540000D01*
X118770000Y-48240000D02*
X120230000Y-48240000D01*
X120230000Y-51540000D02*
X118770000Y-51540000D01*
X118770000Y-51540000D02*
X118770000Y-48240000D01*
%TO.C,C101*%
X75460000Y-102410000D02*
X75460000Y-100590000D01*
X76380000Y-102410000D02*
X75460000Y-102410000D01*
X75460000Y-100590000D02*
X76380000Y-100590000D01*
X76380000Y-100590000D02*
X76380000Y-102410000D01*
%TO.C,R74*%
X17775000Y-117620000D02*
X20735000Y-117620000D01*
X17775000Y-119080000D02*
X17775000Y-117620000D01*
X20735000Y-117620000D02*
X20735000Y-119080000D01*
X20735000Y-119080000D02*
X17775000Y-119080000D01*
%TO.C,J15*%
X62017500Y-30425000D02*
X62017500Y-23425000D01*
X62017500Y-30425000D02*
X73117500Y-30425000D01*
X73117500Y-23425000D02*
X62017500Y-23425000D01*
X73117500Y-23425000D02*
X73117500Y-30425000D01*
%TO.C,C106*%
X126200000Y-104040000D02*
X128020000Y-104040000D01*
X126200000Y-104960000D02*
X126200000Y-104040000D01*
X128020000Y-104040000D02*
X128020000Y-104960000D01*
X128020000Y-104960000D02*
X126200000Y-104960000D01*
%TO.C,R17*%
X75950000Y-46345000D02*
X75950000Y-43385000D01*
X77410000Y-46345000D02*
X75950000Y-46345000D01*
X75950000Y-43385000D02*
X77410000Y-43385000D01*
X77410000Y-43385000D02*
X77410000Y-46345000D01*
%TO.C,D8*%
X8400000Y-147110000D02*
X12100000Y-147110000D01*
X8400000Y-149010000D02*
X8400000Y-147110000D01*
X12100000Y-147110000D02*
X12100000Y-149010000D01*
X12100000Y-149010000D02*
X8400000Y-149010000D01*
%TO.C,C85*%
X63950000Y-95130000D02*
X63950000Y-96950000D01*
X63030000Y-95130000D02*
X63950000Y-95130000D01*
X63950000Y-96950000D02*
X63030000Y-96950000D01*
X63030000Y-96950000D02*
X63030000Y-95130000D01*
%TO.C,C108*%
X20735000Y-116970000D02*
X18915000Y-116970000D01*
X20735000Y-116050000D02*
X20735000Y-116970000D01*
X18915000Y-116970000D02*
X18915000Y-116050000D01*
X18915000Y-116050000D02*
X20735000Y-116050000D01*
%TO.C,U15*%
X27740000Y-85860000D02*
X27740000Y-88660000D01*
X27740000Y-85860000D02*
X30940000Y-85860000D01*
X27740000Y-88660000D02*
X30940000Y-88660000D01*
X30940000Y-88660000D02*
X30940000Y-85860000D01*
%TO.C,U21*%
X74995000Y-107270000D02*
X78395000Y-107270000D01*
X78395000Y-107270000D02*
X78395000Y-103170000D01*
X74995000Y-103170000D02*
X74995000Y-107270000D01*
X78395000Y-103170000D02*
X74995000Y-103170000D01*
%TO.C,R59*%
X100610000Y-102690000D02*
X100610000Y-105990000D01*
X99150000Y-102690000D02*
X100610000Y-102690000D01*
X100610000Y-105990000D02*
X99150000Y-105990000D01*
X99150000Y-105990000D02*
X99150000Y-102690000D01*
%TO.C,J23*%
X144425300Y-126546700D02*
X140107300Y-126546700D01*
X140107300Y-126546700D02*
X140107300Y-126991200D01*
X144768200Y-126991200D02*
X144425300Y-126991200D01*
X144425300Y-126991200D02*
X144425300Y-126546700D01*
X140107300Y-126991200D02*
X139764400Y-126991200D01*
X139764400Y-126991200D02*
X139764400Y-128312000D01*
X144768200Y-128312000D02*
X144768200Y-126991200D01*
X144425300Y-128312000D02*
X144768200Y-128312000D01*
X139904100Y-128312000D02*
X139904100Y-139208801D01*
X139764400Y-128312000D02*
X139904100Y-128312000D01*
X144628500Y-128591199D02*
X144425300Y-128591199D01*
X144425300Y-128591199D02*
X144425300Y-128312000D01*
X140107300Y-139208801D02*
X140107300Y-139488000D01*
X139904100Y-139208801D02*
X140107300Y-139208801D01*
X144768200Y-139488000D02*
X144628500Y-139488000D01*
X144628500Y-139488000D02*
X144628500Y-128591199D01*
X140107300Y-139488000D02*
X139764400Y-139488000D01*
X139764400Y-139488000D02*
X139764400Y-140808800D01*
X144768200Y-140808800D02*
X144768200Y-139488000D01*
X144425300Y-140808800D02*
X144768200Y-140808800D01*
X140107300Y-140808800D02*
X140107300Y-141253300D01*
X139764400Y-140808800D02*
X140107300Y-140808800D01*
X144425300Y-141253300D02*
X144425300Y-140808800D01*
X140107300Y-141253300D02*
X144425300Y-141253300D01*
%TO.C,ZZ1*%
X23506000Y-21875000D02*
X46506000Y-21875000D01*
X23506000Y-26375000D02*
X23506000Y-21875000D01*
X46506000Y-21875000D02*
X46506000Y-26375000D01*
X46506000Y-26375000D02*
X23506000Y-26375000D01*
%TO.C,C13*%
X84590000Y-34540000D02*
X87990000Y-34540000D01*
X84590000Y-36500000D02*
X84590000Y-34540000D01*
X87990000Y-34540000D02*
X87990000Y-36500000D01*
X87990000Y-36500000D02*
X84590000Y-36500000D01*
%TO.C,R54*%
X123830000Y-92969000D02*
X123830000Y-96269000D01*
X122370000Y-92969000D02*
X123830000Y-92969000D01*
X123830000Y-96269000D02*
X122370000Y-96269000D01*
X122370000Y-96269000D02*
X122370000Y-92969000D01*
%TO.C,R86*%
X27040000Y-135255000D02*
X27040000Y-132295000D01*
X28500000Y-135255000D02*
X27040000Y-135255000D01*
X27040000Y-132295000D02*
X28500000Y-132295000D01*
X28500000Y-132295000D02*
X28500000Y-135255000D01*
%TO.C,C90*%
X70790000Y-96390000D02*
X70790000Y-98210000D01*
X69870000Y-96390000D02*
X70790000Y-96390000D01*
X70790000Y-98210000D02*
X69870000Y-98210000D01*
X69870000Y-98210000D02*
X69870000Y-96390000D01*
%TO.C,R46*%
X62730000Y-66000000D02*
X59770000Y-66000000D01*
X62730000Y-64540000D02*
X62730000Y-66000000D01*
X59770000Y-66000000D02*
X59770000Y-64540000D01*
X59770000Y-64540000D02*
X62730000Y-64540000D01*
%TO.C,C23*%
X68780000Y-52040000D02*
X72180000Y-52040000D01*
X68780000Y-54000000D02*
X68780000Y-52040000D01*
X72180000Y-52040000D02*
X72180000Y-54000000D01*
X72180000Y-54000000D02*
X68780000Y-54000000D01*
%TO.C,R47*%
X80080000Y-65200000D02*
X77120000Y-65200000D01*
X80080000Y-63740000D02*
X80080000Y-65200000D01*
X77120000Y-65200000D02*
X77120000Y-63740000D01*
X77120000Y-63740000D02*
X80080000Y-63740000D01*
%TO.C,C114*%
X16449591Y-123410000D02*
X16449591Y-121590000D01*
X17369591Y-123410000D02*
X16449591Y-123410000D01*
X16449591Y-121590000D02*
X17369591Y-121590000D01*
X17369591Y-121590000D02*
X17369591Y-123410000D01*
%TO.C,C76*%
X87590000Y-87740000D02*
X89410000Y-87740000D01*
X87590000Y-88660000D02*
X87590000Y-87740000D01*
X89410000Y-87740000D02*
X89410000Y-88660000D01*
X89410000Y-88660000D02*
X87590000Y-88660000D01*
%TO.C,C100*%
X107678262Y-98020000D02*
X107678262Y-100980000D01*
X106218262Y-98020000D02*
X107678262Y-98020000D01*
X107678262Y-100980000D02*
X106218262Y-100980000D01*
X106218262Y-100980000D02*
X106218262Y-98020000D01*
%TO.C,U26*%
X43660000Y-126660000D02*
X43660000Y-129460000D01*
X43660000Y-126660000D02*
X46860000Y-126660000D01*
X43660000Y-129460000D02*
X46860000Y-129460000D01*
X46860000Y-129460000D02*
X46860000Y-126660000D01*
%TO.C,J16*%
X76830000Y-30425000D02*
X76830000Y-23425000D01*
X76830000Y-30425000D02*
X87930000Y-30425000D01*
X87930000Y-23425000D02*
X76830000Y-23425000D01*
X87930000Y-23425000D02*
X87930000Y-30425000D01*
%TO.C,C49*%
X25900000Y-78255000D02*
X28860000Y-78255000D01*
X25900000Y-79715000D02*
X25900000Y-78255000D01*
X28860000Y-78255000D02*
X28860000Y-79715000D01*
X28860000Y-79715000D02*
X25900000Y-79715000D01*
%TO.C,R96*%
X43597500Y-145000000D02*
X43597500Y-147960000D01*
X42137500Y-145000000D02*
X43597500Y-145000000D01*
X43597500Y-147960000D02*
X42137500Y-147960000D01*
X42137500Y-147960000D02*
X42137500Y-145000000D01*
%TO.C,U20*%
X93060000Y-93050000D02*
X93060000Y-95850000D01*
X93060000Y-93050000D02*
X96260000Y-93050000D01*
X93060000Y-95850000D02*
X96260000Y-95850000D01*
X96260000Y-95850000D02*
X96260000Y-93050000D01*
%TO.C,C103*%
X84850000Y-99470000D02*
X84850000Y-102430000D01*
X83390000Y-99470000D02*
X84850000Y-99470000D01*
X84850000Y-102430000D02*
X83390000Y-102430000D01*
X83390000Y-102430000D02*
X83390000Y-99470000D01*
%TO.C,ZZ3*%
X23506000Y-55825000D02*
X46506000Y-55825000D01*
X23506000Y-60325000D02*
X23506000Y-55825000D01*
X46506000Y-55825000D02*
X46506000Y-60325000D01*
X46506000Y-60325000D02*
X23506000Y-60325000D01*
%TO.C,C92*%
X72890000Y-96390000D02*
X72890000Y-98210000D01*
X71970000Y-96390000D02*
X72890000Y-96390000D01*
X72890000Y-98210000D02*
X71970000Y-98210000D01*
X71970000Y-98210000D02*
X71970000Y-96390000D01*
%TO.C,TP2*%
X76820000Y-49410000D02*
G75*
G03*
X76820000Y-49410000I-1000000J0D01*
G01*
%TO.C,C120*%
X39180000Y-127665000D02*
X41000000Y-127665000D01*
X39180000Y-128585000D02*
X39180000Y-127665000D01*
X41000000Y-127665000D02*
X41000000Y-128585000D01*
X41000000Y-128585000D02*
X39180000Y-128585000D01*
%TO.C,J13*%
X103905000Y-17275000D02*
X112555000Y-17275000D01*
X112555000Y-17275000D02*
X112555000Y-11125000D01*
X103905000Y-11125000D02*
X103905000Y-17275000D01*
X112555000Y-11125000D02*
X103905000Y-11125000D01*
%TO.C,C7*%
X18990000Y-28317500D02*
X18990000Y-30137500D01*
X18070000Y-28317500D02*
X18990000Y-28317500D01*
X18990000Y-30137500D02*
X18070000Y-30137500D01*
X18070000Y-30137500D02*
X18070000Y-28317500D01*
%TO.C,U18*%
X40680000Y-85810000D02*
X40680000Y-88610000D01*
X40680000Y-85810000D02*
X43880000Y-85810000D01*
X40680000Y-88610000D02*
X43880000Y-88610000D01*
X43880000Y-88610000D02*
X43880000Y-85810000D01*
%TO.C,L3*%
X82790000Y-60320000D02*
X82790000Y-64820000D01*
X82790000Y-60320000D02*
X87850000Y-60320000D01*
X82790000Y-64820000D02*
X87850000Y-64820000D01*
X87850000Y-60320000D02*
X87850000Y-64820000D01*
%TO.C,R36*%
X101830000Y-57880000D02*
X98870000Y-57880000D01*
X101830000Y-56420000D02*
X101830000Y-57880000D01*
X98870000Y-57880000D02*
X98870000Y-56420000D01*
X98870000Y-56420000D02*
X101830000Y-56420000D01*
%TO.C,D2*%
X47800000Y-5390000D02*
X47800000Y-1690000D01*
X49700000Y-5390000D02*
X47800000Y-5390000D01*
X47800000Y-1690000D02*
X49700000Y-1690000D01*
X49700000Y-1690000D02*
X49700000Y-5390000D01*
%TO.C,C27*%
X78260000Y-54281250D02*
X78260000Y-56101250D01*
X77340000Y-54281250D02*
X78260000Y-54281250D01*
X78260000Y-56101250D02*
X77340000Y-56101250D01*
X77340000Y-56101250D02*
X77340000Y-54281250D01*
%TO.C,C52*%
X87600000Y-79690000D02*
X89420000Y-79690000D01*
X87600000Y-80610000D02*
X87600000Y-79690000D01*
X89420000Y-79690000D02*
X89420000Y-80610000D01*
X89420000Y-80610000D02*
X87600000Y-80610000D01*
%TO.C,BT1*%
X66340000Y-120470000D02*
X72590000Y-120470000D01*
X66340000Y-137595000D02*
X66340000Y-120470000D01*
X72590000Y-117045000D02*
X75390000Y-117045000D01*
X72590000Y-120470000D02*
X72590000Y-117045000D01*
X72590000Y-137595000D02*
X66340000Y-137595000D01*
X72590000Y-138445000D02*
X72590000Y-137595000D01*
X75390000Y-117045000D02*
X75390000Y-120470000D01*
X75390000Y-120470000D02*
X81640000Y-120470000D01*
X75390000Y-137595000D02*
X75390000Y-138445000D01*
X75390000Y-138445000D02*
X72590000Y-138445000D01*
X81640000Y-120470000D02*
X81640000Y-137595000D01*
X81640000Y-137595000D02*
X75390000Y-137595000D01*
%TO.C,ZZ10*%
X119705000Y-146135000D02*
X96705000Y-146135000D01*
X119705000Y-141635000D02*
X119705000Y-146135000D01*
X96705000Y-146135000D02*
X96705000Y-141635000D01*
X96705000Y-141635000D02*
X119705000Y-141635000D01*
%TO.C,C24*%
X77340000Y-53872500D02*
X77340000Y-52052500D01*
X78260000Y-53872500D02*
X77340000Y-53872500D01*
X77340000Y-52052500D02*
X78260000Y-52052500D01*
X78260000Y-52052500D02*
X78260000Y-53872500D01*
%TO.C,R89*%
X102840000Y-137320000D02*
X102840000Y-134020000D01*
X104300000Y-137320000D02*
X102840000Y-137320000D01*
X102840000Y-134020000D02*
X104300000Y-134020000D01*
X104300000Y-134020000D02*
X104300000Y-137320000D01*
%TO.C,R52*%
X38180000Y-93060000D02*
X38180000Y-96360000D01*
X36720000Y-93060000D02*
X38180000Y-93060000D01*
X38180000Y-96360000D02*
X36720000Y-96360000D01*
X36720000Y-96360000D02*
X36720000Y-93060000D01*
%TO.C,C73*%
X103610000Y-87113568D02*
X100650000Y-87113568D01*
X103610000Y-85653568D02*
X103610000Y-87113568D01*
X100650000Y-87113568D02*
X100650000Y-85653568D01*
X100650000Y-85653568D02*
X103610000Y-85653568D01*
%TO.C,R40*%
X59780000Y-63750000D02*
X59780000Y-60790000D01*
X61240000Y-63750000D02*
X59780000Y-63750000D01*
X59780000Y-60790000D02*
X61240000Y-60790000D01*
X61240000Y-60790000D02*
X61240000Y-63750000D01*
%TO.C,J22*%
X4005000Y-129150000D02*
X4005000Y-140350000D01*
X4005000Y-140350000D02*
X10155000Y-140350000D01*
X10155000Y-129150000D02*
X4005000Y-129150000D01*
X10155000Y-140350000D02*
X10155000Y-129150000D01*
%TO.C,J9*%
X70212500Y2550000D02*
X79712500Y2550000D01*
X70212500Y-6450000D02*
X70212500Y2550000D01*
X68212500Y-6450000D02*
X70212500Y-6450000D01*
X70212500Y-10450000D02*
X68212500Y-10450000D01*
X68212500Y-10450000D02*
X68212500Y-6450000D01*
X79712500Y-12450000D02*
X79712500Y2550000D01*
X79462500Y-12450000D02*
X79712500Y-12450000D01*
X79462500Y-12450000D02*
X76962500Y-12450000D01*
X76962500Y-12450000D02*
X76962500Y-13450000D01*
X72962500Y-12450000D02*
X70212500Y-12450000D01*
X70212500Y-12450000D02*
X70212500Y-10450000D01*
X76962500Y-13450000D02*
X72962500Y-13450000D01*
X72962500Y-13450000D02*
X72962500Y-12450000D01*
%TO.C,C34*%
X125390000Y-62120000D02*
X123570000Y-62120000D01*
X125390000Y-61200000D02*
X125390000Y-62120000D01*
X123570000Y-62120000D02*
X123570000Y-61200000D01*
X123570000Y-61200000D02*
X125390000Y-61200000D01*
%TO.C,C44*%
X75260000Y-76510000D02*
X75260000Y-74690000D01*
X76180000Y-76510000D02*
X75260000Y-76510000D01*
X75260000Y-74690000D02*
X76180000Y-74690000D01*
X76180000Y-74690000D02*
X76180000Y-76510000D01*
%TO.C,R93*%
X121530000Y-144390000D02*
X124490000Y-144390000D01*
X121530000Y-145850000D02*
X121530000Y-144390000D01*
X124490000Y-144390000D02*
X124490000Y-145850000D01*
X124490000Y-145850000D02*
X121530000Y-145850000D01*
%TO.C,L1*%
X65390000Y-43370000D02*
X65390000Y-49870000D01*
X65390000Y-49870000D02*
X72390000Y-49870000D01*
X72390000Y-43370000D02*
X65390000Y-43370000D01*
X72390000Y-49870000D02*
X72390000Y-43370000D01*
%TO.C,C14*%
X68240000Y-41890000D02*
X68240000Y-37290000D01*
X70540000Y-41890000D02*
X68240000Y-41890000D01*
X68240000Y-37290000D02*
X70540000Y-37290000D01*
X70540000Y-37290000D02*
X70540000Y-41890000D01*
%TO.C,R33*%
X31097500Y-54380000D02*
X28137500Y-54380000D01*
X31097500Y-52920000D02*
X31097500Y-54380000D01*
X28137500Y-54380000D02*
X28137500Y-52920000D01*
X28137500Y-52920000D02*
X31097500Y-52920000D01*
%TO.C,C127*%
X17080000Y-133265000D02*
X17080000Y-135085000D01*
X16160000Y-133265000D02*
X17080000Y-133265000D01*
X17080000Y-135085000D02*
X16160000Y-135085000D01*
X16160000Y-135085000D02*
X16160000Y-133265000D01*
%TO.C,C126*%
X39180000Y-130150000D02*
X41000000Y-130150000D01*
X39180000Y-131070000D02*
X39180000Y-130150000D01*
X41000000Y-130150000D02*
X41000000Y-131070000D01*
X41000000Y-131070000D02*
X39180000Y-131070000D01*
%TO.C,R26*%
X21040000Y-50380000D02*
X21040000Y-53680000D01*
X19580000Y-50380000D02*
X21040000Y-50380000D01*
X21040000Y-53680000D02*
X19580000Y-53680000D01*
X19580000Y-53680000D02*
X19580000Y-50380000D01*
%TO.C,TP3*%
X76820000Y-51950000D02*
G75*
G03*
X76820000Y-51950000I-1000000J0D01*
G01*
%TO.C,C118*%
X5590000Y-127190000D02*
X8550000Y-127190000D01*
X5590000Y-128650000D02*
X5590000Y-127190000D01*
X8550000Y-127190000D02*
X8550000Y-128650000D01*
X8550000Y-128650000D02*
X5590000Y-128650000D01*
%TO.C,C129*%
X63620000Y-135280000D02*
X63620000Y-132320000D01*
X65080000Y-135280000D02*
X63620000Y-135280000D01*
X63620000Y-132320000D02*
X65080000Y-132320000D01*
X65080000Y-132320000D02*
X65080000Y-135280000D01*
%TO.C,R83*%
X129785000Y-130755000D02*
X126825000Y-130755000D01*
X129785000Y-129295000D02*
X129785000Y-130755000D01*
X126825000Y-130755000D02*
X126825000Y-129295000D01*
X126825000Y-129295000D02*
X129785000Y-129295000D01*
%TO.C,U1*%
X16582500Y-16135000D02*
X16582500Y-14315000D01*
X19582500Y-16135000D02*
X16582500Y-16135000D01*
X16582500Y-14315000D02*
X19582500Y-14315000D01*
X19582500Y-14315000D02*
X19582500Y-16135000D01*
%TO.C,REF\u002A\u002A2*%
X97650000Y-19726001D02*
G75*
G03*
X97650000Y-19726001I-700000J0D01*
G01*
%TO.C,U24*%
X25638732Y-124920000D02*
X27998732Y-124920000D01*
X25638732Y-127780000D02*
X25638732Y-124920000D01*
X27998732Y-124920000D02*
X27998732Y-127780000D01*
X27998732Y-127780000D02*
X25638732Y-127780000D01*
%TO.C,D10*%
X125905000Y-147125000D02*
X129605000Y-147125000D01*
X125905000Y-149025000D02*
X125905000Y-147125000D01*
X129605000Y-147125000D02*
X129605000Y-149025000D01*
X129605000Y-149025000D02*
X125905000Y-149025000D01*
%TO.C,R90*%
X33350000Y-143810000D02*
X33350000Y-140850000D01*
X34810000Y-143810000D02*
X33350000Y-143810000D01*
X33350000Y-140850000D02*
X34810000Y-140850000D01*
X34810000Y-140850000D02*
X34810000Y-143810000D01*
%TO.C,C125*%
X21290000Y-129470000D02*
X24250000Y-129470000D01*
X21290000Y-130930000D02*
X21290000Y-129470000D01*
X24250000Y-129470000D02*
X24250000Y-130930000D01*
X24250000Y-130930000D02*
X21290000Y-130930000D01*
%TO.C,R37*%
X59760000Y-59480000D02*
X59760000Y-56520000D01*
X61220000Y-59480000D02*
X59760000Y-59480000D01*
X59760000Y-56520000D02*
X61220000Y-56520000D01*
X61220000Y-56520000D02*
X61220000Y-59480000D01*
%TO.C,C62*%
X106984999Y-83736432D02*
X104024999Y-83736432D01*
X106984999Y-82276432D02*
X106984999Y-83736432D01*
X104024999Y-83736432D02*
X104024999Y-82276432D01*
X104024999Y-82276432D02*
X106984999Y-82276432D01*
%TO.C,R34*%
X101830000Y-54130000D02*
X98870000Y-54130000D01*
X101830000Y-52670000D02*
X101830000Y-54130000D01*
X98870000Y-54130000D02*
X98870000Y-52670000D01*
X98870000Y-52670000D02*
X101830000Y-52670000D01*
%TO.C,R29*%
X40440000Y-50380000D02*
X40440000Y-53680000D01*
X38980000Y-50380000D02*
X40440000Y-50380000D01*
X40440000Y-53680000D02*
X38980000Y-53680000D01*
X38980000Y-53680000D02*
X38980000Y-50380000D01*
%TO.C,ZZ2*%
X108505000Y-21870000D02*
X131505000Y-21870000D01*
X108505000Y-26370000D02*
X108505000Y-21870000D01*
X131505000Y-21870000D02*
X131505000Y-26370000D01*
X131505000Y-26370000D02*
X108505000Y-26370000D01*
D11*
%TO.C,J26*%
X36605000Y-139240000D02*
X36605000Y-154040000D01*
X36605000Y-154040000D02*
X40615000Y-154040000D01*
X40615000Y-139240000D02*
X36605000Y-139240000D01*
X40615000Y-139240000D02*
X40615000Y-139240000D01*
X40615000Y-154040000D02*
X40615000Y-139240000D01*
D10*
%TO.C,R43*%
X80400000Y-60290000D02*
X80400000Y-63250000D01*
X78940000Y-60290000D02*
X80400000Y-60290000D01*
X80400000Y-63250000D02*
X78940000Y-63250000D01*
X78940000Y-63250000D02*
X78940000Y-60290000D01*
%TO.C,J7*%
X90280000Y2485000D02*
X90280000Y-18195000D01*
X81680000Y2485000D02*
X90280000Y2485000D01*
X90280000Y-18195000D02*
X81680000Y-18195000D01*
X81680000Y-18195000D02*
X81680000Y2485000D01*
%TO.C,ZZ9*%
X119705000Y-112165000D02*
X96705000Y-112165000D01*
X119705000Y-107665000D02*
X119705000Y-112165000D01*
X96705000Y-112165000D02*
X96705000Y-107665000D01*
X96705000Y-107665000D02*
X119705000Y-107665000D01*
%TO.C,R22*%
X98790000Y-46250000D02*
X98790000Y-49210000D01*
X97330000Y-46250000D02*
X98790000Y-46250000D01*
X98790000Y-49210000D02*
X97330000Y-49210000D01*
X97330000Y-49210000D02*
X97330000Y-46250000D01*
%TO.C,C69*%
X103610000Y-85580000D02*
X100650000Y-85580000D01*
X103610000Y-84120000D02*
X103610000Y-85580000D01*
X100650000Y-85580000D02*
X100650000Y-84120000D01*
X100650000Y-84120000D02*
X103610000Y-84120000D01*
%TO.C,J19*%
X68660000Y-109840000D02*
X74810000Y-109840000D01*
X74810000Y-109840000D02*
X74810000Y-106240000D01*
X68660000Y-106240000D02*
X68660000Y-109840000D01*
X74810000Y-106240000D02*
X68660000Y-106240000D01*
%TO.C,U9*%
X83640000Y-34540000D02*
X78240000Y-34540000D01*
X78240000Y-34540000D02*
X78240000Y-41940000D01*
X83640000Y-41940000D02*
X83640000Y-34540000D01*
X78240000Y-41940000D02*
X83640000Y-41940000D01*
%TO.C,J17*%
X90320000Y-78640000D02*
X90320000Y-72490000D01*
X90320000Y-72490000D02*
X86720000Y-72490000D01*
X86720000Y-78640000D02*
X90320000Y-78640000D01*
X86720000Y-72490000D02*
X86720000Y-78640000D01*
%TO.C,C130*%
X63870000Y-138260000D02*
X63870000Y-136440000D01*
X64790000Y-138260000D02*
X63870000Y-138260000D01*
X63870000Y-136440000D02*
X64790000Y-136440000D01*
X64790000Y-136440000D02*
X64790000Y-138260000D01*
%TO.C,C68*%
X61630000Y-85680000D02*
X59810000Y-85680000D01*
X61630000Y-84760000D02*
X61630000Y-85680000D01*
X59810000Y-85680000D02*
X59810000Y-84760000D01*
X59810000Y-84760000D02*
X61630000Y-84760000D01*
%TO.C,L2*%
X81330000Y-43390000D02*
X81330000Y-49890000D01*
X81330000Y-49890000D02*
X88330000Y-49890000D01*
X88330000Y-43390000D02*
X81330000Y-43390000D01*
X88330000Y-49890000D02*
X88330000Y-43390000D01*
%TO.C,R42*%
X77080000Y-63250000D02*
X77080000Y-60290000D01*
X78540000Y-63250000D02*
X77080000Y-63250000D01*
X77080000Y-60290000D02*
X78540000Y-60290000D01*
X78540000Y-60290000D02*
X78540000Y-63250000D01*
%TO.C,C4*%
X74260000Y-22570000D02*
X74260000Y-19170000D01*
X76220000Y-22570000D02*
X74260000Y-22570000D01*
X74260000Y-19170000D02*
X76220000Y-19170000D01*
X76220000Y-19170000D02*
X76220000Y-22570000D01*
%TO.C,U22*%
X24740000Y-116050000D02*
X21940000Y-116050000D01*
X24740000Y-116050000D02*
X24740000Y-119250000D01*
X21940000Y-116050000D02*
X21940000Y-119250000D01*
X21940000Y-119250000D02*
X24740000Y-119250000D01*
%TO.C,C82*%
X52050000Y-92590000D02*
X49090000Y-92590000D01*
X52050000Y-91130000D02*
X52050000Y-92590000D01*
X49090000Y-92590000D02*
X49090000Y-91130000D01*
X49090000Y-91130000D02*
X52050000Y-91130000D01*
%TO.C,R137*%
X74690000Y-99450000D02*
X74690000Y-102410000D01*
X73230000Y-99450000D02*
X74690000Y-99450000D01*
X74690000Y-102410000D02*
X73230000Y-102410000D01*
X73230000Y-102410000D02*
X73230000Y-99450000D01*
%TO.C,C88*%
X104036375Y-94814631D02*
X104036375Y-97774631D01*
X102576375Y-94814631D02*
X104036375Y-94814631D01*
X104036375Y-97774631D02*
X102576375Y-97774631D01*
X102576375Y-97774631D02*
X102576375Y-94814631D01*
%TO.C,U6*%
X102610000Y-32875000D02*
X102610000Y-29375000D01*
X102610000Y-29375000D02*
X96250000Y-29375000D01*
X96250000Y-32875000D02*
X102610000Y-32875000D01*
X96250000Y-29375000D02*
X96250000Y-32875000D01*
%TO.C,R18*%
X79211666Y-43385000D02*
X79211666Y-46345000D01*
X77751666Y-43385000D02*
X79211666Y-43385000D01*
X79211666Y-46345000D02*
X77751666Y-46345000D01*
X77751666Y-46345000D02*
X77751666Y-43385000D01*
%TO.C,REF\u002A\u002A4*%
X25643000Y-27640000D02*
G75*
G03*
X25643000Y-27640000I-700000J0D01*
G01*
%TO.C,C74*%
X106984999Y-87430000D02*
X104024999Y-87430000D01*
X106984999Y-85970000D02*
X106984999Y-87430000D01*
X104024999Y-87430000D02*
X104024999Y-85970000D01*
X104024999Y-85970000D02*
X106984999Y-85970000D01*
%TO.C,C48*%
X29230000Y-76060000D02*
X32190000Y-76060000D01*
X29230000Y-77520000D02*
X29230000Y-76060000D01*
X32190000Y-76060000D02*
X32190000Y-77520000D01*
X32190000Y-77520000D02*
X29230000Y-77520000D01*
%TO.C,C22*%
X59960000Y-51100000D02*
X61780000Y-51100000D01*
X59960000Y-52020000D02*
X59960000Y-51100000D01*
X61780000Y-51100000D02*
X61780000Y-52020000D01*
X61780000Y-52020000D02*
X59960000Y-52020000D01*
%TO.C,R62*%
X72972500Y-103170000D02*
X72972500Y-106130000D01*
X71512500Y-103170000D02*
X72972500Y-103170000D01*
X72972500Y-106130000D02*
X71512500Y-106130000D01*
X71512500Y-106130000D02*
X71512500Y-103170000D01*
%TO.C,J12*%
X69800000Y-14000000D02*
X69800000Y-20150000D01*
X69800000Y-20150000D02*
X73400000Y-20150000D01*
X73400000Y-14000000D02*
X69800000Y-14000000D01*
X73400000Y-20150000D02*
X73400000Y-14000000D01*
%TO.C,R6*%
X61240000Y-19019600D02*
X61240000Y-21979600D01*
X59780000Y-19019600D02*
X61240000Y-19019600D01*
X61240000Y-21979600D02*
X59780000Y-21979600D01*
X59780000Y-21979600D02*
X59780000Y-19019600D01*
%TO.C,U32*%
X44720000Y-139855000D02*
X44720000Y-138575000D01*
X44720000Y-139855000D02*
X45740000Y-140840000D01*
X45740000Y-131510000D02*
X62240000Y-131510000D01*
X45740000Y-137560000D02*
X44720000Y-138575000D01*
X45740000Y-137560000D02*
X45740000Y-131510000D01*
X45740000Y-140840000D02*
X45730000Y-153405000D01*
X62240000Y-137550000D02*
X62240000Y-131510000D01*
X62240000Y-137550000D02*
X63240000Y-138550000D01*
X62240000Y-140830000D02*
X62240000Y-153410000D01*
X62240000Y-153410000D02*
X45730000Y-153405000D01*
X63240000Y-139830000D02*
X62240000Y-140830000D01*
X63240000Y-139830000D02*
X63240000Y-138550000D01*
%TO.C,R7*%
X101220000Y-25455000D02*
X97920000Y-25455000D01*
X101220000Y-23995000D02*
X101220000Y-25455000D01*
X97920000Y-25455000D02*
X97920000Y-23995000D01*
X97920000Y-23995000D02*
X101220000Y-23995000D01*
%TO.C,C59*%
X61630000Y-83150000D02*
X59810000Y-83150000D01*
X61630000Y-82230000D02*
X61630000Y-83150000D01*
X59810000Y-83150000D02*
X59810000Y-82230000D01*
X59810000Y-82230000D02*
X61630000Y-82230000D01*
%TO.C,J28*%
X15830000Y-60710000D02*
X4630000Y-60710000D01*
X4630000Y-60710000D02*
X4630000Y-64310000D01*
X15830000Y-64310000D02*
X15830000Y-60710000D01*
X4630000Y-64310000D02*
X15830000Y-64310000D01*
%TO.C,C25*%
X85370000Y-52070000D02*
X88770000Y-52070000D01*
X85370000Y-54030000D02*
X85370000Y-52070000D01*
X88770000Y-52070000D02*
X88770000Y-54030000D01*
X88770000Y-54030000D02*
X85370000Y-54030000D01*
%TO.C,R61*%
X71231250Y-103170000D02*
X71231250Y-106130000D01*
X69771250Y-103170000D02*
X71231250Y-103170000D01*
X71231250Y-106130000D02*
X69771250Y-106130000D01*
X69771250Y-106130000D02*
X69771250Y-103170000D01*
%TO.C,D9*%
X116430000Y-147125000D02*
X120130000Y-147125000D01*
X116430000Y-149025000D02*
X116430000Y-147125000D01*
X120130000Y-147125000D02*
X120130000Y-149025000D01*
X120130000Y-149025000D02*
X116430000Y-149025000D01*
%TO.C,C128*%
X36367500Y-133490000D02*
X41267500Y-133490000D01*
X36367500Y-136790000D02*
X36367500Y-133490000D01*
X41267500Y-133490000D02*
X41267500Y-136790000D01*
X41267500Y-136790000D02*
X36367500Y-136790000D01*
%TO.C,R76*%
X12040000Y-123410000D02*
X12040000Y-120450000D01*
X13500000Y-123410000D02*
X12040000Y-123410000D01*
X12040000Y-120450000D02*
X13500000Y-120450000D01*
X13500000Y-120450000D02*
X13500000Y-123410000D01*
%TO.C,U17*%
X36520000Y-85840000D02*
X36520000Y-88640000D01*
X36520000Y-85840000D02*
X39720000Y-85840000D01*
X36520000Y-88640000D02*
X39720000Y-88640000D01*
X39720000Y-88640000D02*
X39720000Y-85840000D01*
%TO.C,H6*%
X7455000Y-145950000D02*
G75*
G03*
X7455000Y-145950000I-3450000J0D01*
G01*
%TO.C,R50*%
X18760000Y-93040000D02*
X18760000Y-96340000D01*
X17300000Y-93040000D02*
X18760000Y-93040000D01*
X18760000Y-96340000D02*
X17300000Y-96340000D01*
X17300000Y-96340000D02*
X17300000Y-93040000D01*
%TO.C,R65*%
X81877500Y-103170000D02*
X81877500Y-106130000D01*
X80417500Y-103170000D02*
X81877500Y-103170000D01*
X81877500Y-106130000D02*
X80417500Y-106130000D01*
X80417500Y-106130000D02*
X80417500Y-103170000D01*
%TO.C,R82*%
X126135000Y-130755000D02*
X123175000Y-130755000D01*
X126135000Y-129295000D02*
X126135000Y-130755000D01*
X123175000Y-130755000D02*
X123175000Y-129295000D01*
X123175000Y-129295000D02*
X126135000Y-129295000D01*
%TO.C,C97*%
X102010000Y-98045000D02*
X102010000Y-101005000D01*
X100550000Y-98045000D02*
X102010000Y-98045000D01*
X102010000Y-101005000D02*
X100550000Y-101005000D01*
X100550000Y-101005000D02*
X100550000Y-98045000D01*
%TO.C,Q1*%
X77330000Y-22600000D02*
X81130000Y-22600000D01*
X81130000Y-22600000D02*
X81130000Y-18400000D01*
X77330000Y-18400000D02*
X77330000Y-22600000D01*
X81130000Y-18400000D02*
X77330000Y-18400000D01*
%TO.C,C65*%
X37890000Y-83590000D02*
X39710000Y-83590000D01*
X37890000Y-84510000D02*
X37890000Y-83590000D01*
X39710000Y-83590000D02*
X39710000Y-84510000D01*
X39710000Y-84510000D02*
X37890000Y-84510000D01*
%TO.C,R31*%
X101830000Y-52470000D02*
X98870000Y-52470000D01*
X101830000Y-51010000D02*
X101830000Y-52470000D01*
X98870000Y-52470000D02*
X98870000Y-51010000D01*
X98870000Y-51010000D02*
X101830000Y-51010000D01*
%TO.C,ZZ4*%
X108505000Y-55820000D02*
X131505000Y-55820000D01*
X108505000Y-60320000D02*
X108505000Y-55820000D01*
X131505000Y-55820000D02*
X131505000Y-60320000D01*
X131505000Y-60320000D02*
X108505000Y-60320000D01*
%TO.C,C19*%
X79553332Y-46345000D02*
X79553332Y-43385000D01*
X81013332Y-46345000D02*
X79553332Y-46345000D01*
X79553332Y-43385000D02*
X81013332Y-43385000D01*
X81013332Y-43385000D02*
X81013332Y-46345000D01*
%TO.C,C50*%
X29230000Y-77690000D02*
X32190000Y-77690000D01*
X29230000Y-79150000D02*
X29230000Y-77690000D01*
X32190000Y-77690000D02*
X32190000Y-79150000D01*
X32190000Y-79150000D02*
X29230000Y-79150000D01*
%TO.C,H4*%
X78460000Y-69480000D02*
G75*
G03*
X78460000Y-69480000I-3450000J0D01*
G01*
%TO.C,C115*%
X27463732Y-124330000D02*
X25643732Y-124330000D01*
X27463732Y-123410000D02*
X27463732Y-124330000D01*
X25643732Y-124330000D02*
X25643732Y-123410000D01*
X25643732Y-123410000D02*
X27463732Y-123410000D01*
%TO.C,C99*%
X106085000Y-98020000D02*
X106085000Y-100980000D01*
X104625000Y-98020000D02*
X106085000Y-98020000D01*
X106085000Y-100980000D02*
X104625000Y-100980000D01*
X104625000Y-100980000D02*
X104625000Y-98020000D01*
%TO.C,C10*%
X61320000Y-34490000D02*
X61320000Y-37450000D01*
X59860000Y-34490000D02*
X61320000Y-34490000D01*
X61320000Y-37450000D02*
X59860000Y-37450000D01*
X59860000Y-37450000D02*
X59860000Y-34490000D01*
%TO.C,REF\u002A\u002A5*%
X27367000Y-27640000D02*
G75*
G03*
X27367000Y-27640000I-700000J0D01*
G01*
%TO.C,TP6*%
X76820000Y-59570000D02*
G75*
G03*
X76820000Y-59570000I-1000000J0D01*
G01*
%TO.C,C116*%
X98090000Y-126570000D02*
X98090000Y-123610000D01*
X99550000Y-126570000D02*
X98090000Y-126570000D01*
X98090000Y-123610000D02*
X99550000Y-123610000D01*
X99550000Y-123610000D02*
X99550000Y-126570000D01*
%TO.C,C20*%
X96270000Y-44960000D02*
X98090000Y-44960000D01*
X96270000Y-45880000D02*
X96270000Y-44960000D01*
X98090000Y-44960000D02*
X98090000Y-45880000D01*
X98090000Y-45880000D02*
X96270000Y-45880000D01*
%TO.C,D4*%
X122800000Y-5390000D02*
X122800000Y-1690000D01*
X124700000Y-5390000D02*
X122800000Y-5390000D01*
X122800000Y-1690000D02*
X124700000Y-1690000D01*
X124700000Y-1690000D02*
X124700000Y-5390000D01*
%TO.C,ZZ6*%
X108500000Y-64715000D02*
X131500000Y-64715000D01*
X108500000Y-69215000D02*
X108500000Y-64715000D01*
X131500000Y-64715000D02*
X131500000Y-69215000D01*
X131500000Y-69215000D02*
X108500000Y-69215000D01*
%TO.C,C31*%
X39340000Y-62130000D02*
X37520000Y-62130000D01*
X39340000Y-61210000D02*
X39340000Y-62130000D01*
X37520000Y-62130000D02*
X37520000Y-61210000D01*
X37520000Y-61210000D02*
X39340000Y-61210000D01*
%TO.C,R3*%
X91750000Y-9430000D02*
X91750000Y-6470000D01*
X93210000Y-9430000D02*
X91750000Y-9430000D01*
X91750000Y-6470000D02*
X93210000Y-6470000D01*
X93210000Y-6470000D02*
X93210000Y-9430000D01*
%TO.C,R32*%
X116610000Y-53855000D02*
X113650000Y-53855000D01*
X116610000Y-52395000D02*
X116610000Y-53855000D01*
X113650000Y-53855000D02*
X113650000Y-52395000D01*
X113650000Y-52395000D02*
X116610000Y-52395000D01*
%TO.C,R71*%
X95650000Y-111150000D02*
X92690000Y-111150000D01*
X95650000Y-109690000D02*
X95650000Y-111150000D01*
X92690000Y-111150000D02*
X92690000Y-109690000D01*
X92690000Y-109690000D02*
X95650000Y-109690000D01*
%TO.C,R60*%
X69490000Y-103170000D02*
X69490000Y-106130000D01*
X68030000Y-103170000D02*
X69490000Y-103170000D01*
X69490000Y-106130000D02*
X68030000Y-106130000D01*
X68030000Y-106130000D02*
X68030000Y-103170000D01*
%TO.C,R91*%
X42130000Y-143820000D02*
X42130000Y-140860000D01*
X43590000Y-143820000D02*
X42130000Y-143820000D01*
X42130000Y-140860000D02*
X43590000Y-140860000D01*
X43590000Y-140860000D02*
X43590000Y-143820000D01*
%TO.C,C36*%
X29230000Y-73450000D02*
X32190000Y-73450000D01*
X29230000Y-74910000D02*
X29230000Y-73450000D01*
X32190000Y-73450000D02*
X32190000Y-74910000D01*
X32190000Y-74910000D02*
X29230000Y-74910000D01*
%TO.C,R84*%
X101300000Y-129940000D02*
X101300000Y-132900000D01*
X99840000Y-129940000D02*
X101300000Y-129940000D01*
X101300000Y-132900000D02*
X99840000Y-132900000D01*
X99840000Y-132900000D02*
X99840000Y-129940000D01*
%TO.C,R16*%
X63153333Y-43370000D02*
X63153333Y-46330000D01*
X61693333Y-43370000D02*
X63153333Y-43370000D01*
X63153333Y-46330000D02*
X61693333Y-46330000D01*
X61693333Y-46330000D02*
X61693333Y-43370000D01*
%TO.C,C18*%
X63541666Y-46330000D02*
X63541666Y-43370000D01*
X65001666Y-46330000D02*
X63541666Y-46330000D01*
X63541666Y-43370000D02*
X65001666Y-43370000D01*
X65001666Y-43370000D02*
X65001666Y-46330000D01*
%TO.C,C40*%
X69420000Y-76510000D02*
X69420000Y-74690000D01*
X70340000Y-76510000D02*
X69420000Y-76510000D01*
X69420000Y-74690000D02*
X70340000Y-74690000D01*
X70340000Y-74690000D02*
X70340000Y-76510000D01*
%TO.C,NT1*%
X67610000Y-109300000D02*
X68610000Y-109300000D01*
X68610000Y-109300000D02*
X68610000Y-107300000D01*
X67610000Y-107300000D02*
X67610000Y-109300000D01*
X68610000Y-107300000D02*
X67610000Y-107300000D01*
%TO.C,C5*%
X19650000Y-21440000D02*
X21470000Y-21440000D01*
X19650000Y-22360000D02*
X19650000Y-21440000D01*
X21470000Y-21440000D02*
X21470000Y-22360000D01*
X21470000Y-22360000D02*
X19650000Y-22360000D01*
%TO.C,C17*%
X87020000Y-41940000D02*
X87020000Y-37340000D01*
X89320000Y-41940000D02*
X87020000Y-41940000D01*
X87020000Y-37340000D02*
X89320000Y-37340000D01*
X89320000Y-37340000D02*
X89320000Y-41940000D01*
%TO.C,C104*%
X46550000Y-101340000D02*
X48370000Y-101340000D01*
X46550000Y-102260000D02*
X46550000Y-101340000D01*
X48370000Y-101340000D02*
X48370000Y-102260000D01*
X48370000Y-102260000D02*
X46550000Y-102260000D01*
%TO.C,C28*%
X68780000Y-59430000D02*
X68780000Y-54830000D01*
X71080000Y-59430000D02*
X68780000Y-59430000D01*
X68780000Y-54830000D02*
X71080000Y-54830000D01*
X71080000Y-54830000D02*
X71080000Y-59430000D01*
%TO.C,TP15*%
X12780000Y-115750000D02*
G75*
G03*
X12780000Y-115750000I-1000000J0D01*
G01*
%TO.C,TP10*%
X28855000Y-62600000D02*
G75*
G03*
X28855000Y-62600000I-1000000J0D01*
G01*
%TO.C,C107*%
X7650000Y-114980000D02*
X9470000Y-114980000D01*
X7650000Y-115900000D02*
X7650000Y-114980000D01*
X9470000Y-114980000D02*
X9470000Y-115900000D01*
X9470000Y-115900000D02*
X7650000Y-115900000D01*
%TO.C,U2*%
X46720000Y-16135000D02*
X46720000Y-14315000D01*
X49720000Y-16135000D02*
X46720000Y-16135000D01*
X46720000Y-14315000D02*
X49720000Y-14315000D01*
X49720000Y-14315000D02*
X49720000Y-16135000D01*
%TO.C,U14*%
X128700000Y-81460000D02*
X128700000Y-84260000D01*
X128700000Y-81460000D02*
X131900000Y-81460000D01*
X128700000Y-84260000D02*
X131900000Y-84260000D01*
X131900000Y-84260000D02*
X131900000Y-81460000D01*
%TO.C,R8*%
X98105000Y-26795000D02*
X101065000Y-26795000D01*
X98105000Y-28255000D02*
X98105000Y-26795000D01*
X101065000Y-26795000D02*
X101065000Y-28255000D01*
X101065000Y-28255000D02*
X98105000Y-28255000D01*
%TO.C,C39*%
X66970000Y-76510000D02*
X66970000Y-74690000D01*
X67890000Y-76510000D02*
X66970000Y-76510000D01*
X66970000Y-74690000D02*
X67890000Y-74690000D01*
X67890000Y-74690000D02*
X67890000Y-76510000D01*
%TO.C,REF\u002A\u002A3*%
X97650000Y-21450000D02*
G75*
G03*
X97650000Y-21450000I-700000J0D01*
G01*
%TO.C,C8*%
X59850000Y-32570000D02*
X62810000Y-32570000D01*
X59850000Y-34030000D02*
X59850000Y-32570000D01*
X62810000Y-32570000D02*
X62810000Y-34030000D01*
X62810000Y-34030000D02*
X59850000Y-34030000D01*
%TO.C,C9*%
X75950000Y-32450000D02*
X78910000Y-32450000D01*
X75950000Y-33910000D02*
X75950000Y-32450000D01*
X78910000Y-32450000D02*
X78910000Y-33910000D01*
X78910000Y-33910000D02*
X75950000Y-33910000D01*
%TO.C,R68*%
X126185000Y-105417500D02*
X129145000Y-105417500D01*
X126185000Y-106877500D02*
X126185000Y-105417500D01*
X129145000Y-105417500D02*
X129145000Y-106877500D01*
X129145000Y-106877500D02*
X126185000Y-106877500D01*
%TO.C,R57*%
X116247500Y-96705000D02*
X113287500Y-96705000D01*
X116247500Y-95245000D02*
X116247500Y-96705000D01*
X113287500Y-96705000D02*
X113287500Y-95245000D01*
X113287500Y-95245000D02*
X116247500Y-95245000D01*
%TO.C,C79*%
X52050000Y-90762858D02*
X49090000Y-90762858D01*
X52050000Y-89302858D02*
X52050000Y-90762858D01*
X49090000Y-90762858D02*
X49090000Y-89302858D01*
X49090000Y-89302858D02*
X52050000Y-89302858D01*
%TO.C,TP7*%
X76820000Y-62110000D02*
G75*
G03*
X76820000Y-62110000I-1000000J0D01*
G01*
%TO.C,R1*%
X18080000Y-9430000D02*
X18080000Y-6470000D01*
X19540000Y-9430000D02*
X18080000Y-9430000D01*
X18080000Y-6470000D02*
X19540000Y-6470000D01*
X19540000Y-6470000D02*
X19540000Y-9430000D01*
%TO.C,C80*%
X61570000Y-89800000D02*
X61570000Y-91620000D01*
X60650000Y-89800000D02*
X61570000Y-89800000D01*
X61570000Y-91620000D02*
X60650000Y-91620000D01*
X60650000Y-91620000D02*
X60650000Y-89800000D01*
D12*
%TO.C,Module4*%
X108600000Y-102790000D02*
X108600000Y-99010000D01*
X131400000Y-102790000D02*
X108600000Y-102790000D01*
X108600000Y-99010000D02*
X131400000Y-99010000D01*
X131400000Y-99010000D02*
X131400000Y-102790000D01*
X108600000Y-68870000D02*
X108600000Y-65090000D01*
X131400000Y-68870000D02*
X108600000Y-68870000D01*
X108600000Y-65090000D02*
X131400000Y-65090000D01*
X131400000Y-65090000D02*
X131400000Y-68870000D01*
D10*
%TO.C,TP12*%
X76820000Y-64650000D02*
G75*
G03*
X76820000Y-64650000I-1000000J0D01*
G01*
%TO.C,H7*%
X149455000Y-145950000D02*
G75*
G03*
X149455000Y-145950000I-3450000J0D01*
G01*
%TO.C,R58*%
X98930000Y-102680000D02*
X98930000Y-105980000D01*
X97470000Y-102680000D02*
X98930000Y-102680000D01*
X98930000Y-105980000D02*
X97470000Y-105980000D01*
X97470000Y-105980000D02*
X97470000Y-102680000D01*
%TO.C,R12*%
X92000000Y-35770000D02*
X94960000Y-35770000D01*
X92000000Y-37230000D02*
X92000000Y-35770000D01*
X94960000Y-35770000D02*
X94960000Y-37230000D01*
X94960000Y-37230000D02*
X92000000Y-37230000D01*
%TO.C,R78*%
X19120713Y-123410000D02*
X19120713Y-120450000D01*
X20580713Y-123410000D02*
X19120713Y-123410000D01*
X19120713Y-120450000D02*
X20580713Y-120450000D01*
X20580713Y-120450000D02*
X20580713Y-123410000D01*
%TO.C,J21*%
X144425300Y-108951850D02*
X140107300Y-108951850D01*
X140107300Y-108951850D02*
X140107300Y-109396350D01*
X144768200Y-109396350D02*
X144425300Y-109396350D01*
X144425300Y-109396350D02*
X144425300Y-108951850D01*
X140107300Y-109396350D02*
X139764400Y-109396350D01*
X139764400Y-109396350D02*
X139764400Y-110717150D01*
X144768200Y-110717150D02*
X144768200Y-109396350D01*
X144425300Y-110717150D02*
X144768200Y-110717150D01*
X139904100Y-110717150D02*
X139904100Y-121613951D01*
X139764400Y-110717150D02*
X139904100Y-110717150D01*
X144628500Y-110996349D02*
X144425300Y-110996349D01*
X144425300Y-110996349D02*
X144425300Y-110717150D01*
X140107300Y-121613951D02*
X140107300Y-121893150D01*
X139904100Y-121613951D02*
X140107300Y-121613951D01*
X144768200Y-121893150D02*
X144628500Y-121893150D01*
X144628500Y-121893150D02*
X144628500Y-110996349D01*
X140107300Y-121893150D02*
X139764400Y-121893150D01*
X139764400Y-121893150D02*
X139764400Y-123213950D01*
X144768200Y-123213950D02*
X144768200Y-121893150D01*
X144425300Y-123213950D02*
X144768200Y-123213950D01*
X140107300Y-123213950D02*
X140107300Y-123658450D01*
X139764400Y-123213950D02*
X140107300Y-123213950D01*
X144425300Y-123658450D02*
X144425300Y-123213950D01*
X140107300Y-123658450D02*
X144425300Y-123658450D01*
%TO.C,R66*%
X83618750Y-103170000D02*
X83618750Y-106130000D01*
X82158750Y-103170000D02*
X83618750Y-103170000D01*
X83618750Y-106130000D02*
X82158750Y-106130000D01*
X82158750Y-106130000D02*
X82158750Y-103170000D01*
%TO.C,J11*%
X60680000Y-17275000D02*
X69330000Y-17275000D01*
X69330000Y-17275000D02*
X69330000Y-11125000D01*
X60680000Y-11125000D02*
X60680000Y-17275000D01*
X69330000Y-11125000D02*
X60680000Y-11125000D01*
%TO.C,C15*%
X70740000Y-41890000D02*
X70740000Y-37290000D01*
X73040000Y-41890000D02*
X70740000Y-41890000D01*
X70740000Y-37290000D02*
X73040000Y-37290000D01*
X73040000Y-37290000D02*
X73040000Y-41890000D01*
D13*
%TO.C,SW1*%
X80366300Y-65790699D02*
X81518100Y-65790699D01*
X80366300Y-70489301D02*
X80366300Y-65790699D01*
X81518100Y-65638100D02*
X86521900Y-65638100D01*
X81518100Y-65790699D02*
X81518100Y-65638100D01*
X81518100Y-70489301D02*
X80366300Y-70489301D01*
X81518100Y-70641900D02*
X81518100Y-70489301D01*
X86521900Y-65638100D02*
X86521900Y-65790699D01*
X86521900Y-65790699D02*
X87673700Y-65790699D01*
X86521900Y-70489301D02*
X86521900Y-70641900D01*
X86521900Y-70641900D02*
X81518100Y-70641900D01*
X87673700Y-65790699D02*
X87673700Y-70489301D01*
X87673700Y-70489301D02*
X86521900Y-70489301D01*
D10*
%TO.C,R73*%
X14350000Y-119080000D02*
X11390000Y-119080000D01*
X14350000Y-117620000D02*
X14350000Y-119080000D01*
X11390000Y-119080000D02*
X11390000Y-117620000D01*
X11390000Y-117620000D02*
X14350000Y-117620000D01*
%TO.C,U29*%
X93470000Y-137347500D02*
X98870000Y-137347500D01*
X98870000Y-137347500D02*
X98870000Y-129947500D01*
X93470000Y-129947500D02*
X93470000Y-137347500D01*
X98870000Y-129947500D02*
X93470000Y-129947500D01*
%TO.C,TP11*%
X31860000Y-62590000D02*
G75*
G03*
X31860000Y-62590000I-1000000J0D01*
G01*
%TO.C,R39*%
X101830000Y-60450000D02*
X98870000Y-60450000D01*
X101830000Y-58990000D02*
X101830000Y-60450000D01*
X98870000Y-60450000D02*
X98870000Y-58990000D01*
X98870000Y-58990000D02*
X101830000Y-58990000D01*
%TO.C,C67*%
X52040000Y-85830006D02*
X49080000Y-85830006D01*
X52040000Y-84370006D02*
X52040000Y-85830006D01*
X49080000Y-85830006D02*
X49080000Y-84370006D01*
X49080000Y-84370006D02*
X52040000Y-84370006D01*
%TO.C,C30*%
X85370000Y-59470000D02*
X85370000Y-54870000D01*
X87670000Y-59470000D02*
X85370000Y-59470000D01*
X85370000Y-54870000D02*
X87670000Y-54870000D01*
X87670000Y-54870000D02*
X87670000Y-59470000D01*
%TO.C,C43*%
X74130000Y-76510000D02*
X74130000Y-74690000D01*
X75050000Y-76510000D02*
X74130000Y-76510000D01*
X74130000Y-74690000D02*
X75050000Y-74690000D01*
X75050000Y-74690000D02*
X75050000Y-76510000D01*
%TO.C,C119*%
X21310000Y-127260000D02*
X23130000Y-127260000D01*
X21310000Y-128180000D02*
X21310000Y-127260000D01*
X23130000Y-127260000D02*
X23130000Y-128180000D01*
X23130000Y-128180000D02*
X21310000Y-128180000D01*
%TO.C,C134*%
X124970000Y-143240000D02*
X124970000Y-141420000D01*
X125890000Y-143240000D02*
X124970000Y-143240000D01*
X124970000Y-141420000D02*
X125890000Y-141420000D01*
X125890000Y-141420000D02*
X125890000Y-143240000D01*
%TO.C,TP1*%
X89010000Y-21830000D02*
G75*
G03*
X89010000Y-21830000I-1000000J0D01*
G01*
%TO.C,C46*%
X79310000Y-76510000D02*
X79310000Y-74690000D01*
X80230000Y-76510000D02*
X79310000Y-76510000D01*
X79310000Y-74690000D02*
X80230000Y-74690000D01*
X80230000Y-74690000D02*
X80230000Y-76510000D01*
%TO.C,U11*%
X67820000Y-52040000D02*
X62420000Y-52040000D01*
X62420000Y-52040000D02*
X62420000Y-59440000D01*
X67820000Y-59440000D02*
X67820000Y-52040000D01*
X62420000Y-59440000D02*
X67820000Y-59440000D01*
%TO.C,R80*%
X55580000Y-129600000D02*
X55580000Y-126640000D01*
X57040000Y-129600000D02*
X55580000Y-129600000D01*
X55580000Y-126640000D02*
X57040000Y-126640000D01*
X57040000Y-126640000D02*
X57040000Y-129600000D01*
%TO.C,TP13*%
X28340000Y-104770000D02*
G75*
G03*
X28340000Y-104770000I-1000000J0D01*
G01*
%TO.C,C122*%
X53510000Y-128460000D02*
X53510000Y-126640000D01*
X54430000Y-128460000D02*
X53510000Y-128460000D01*
X53510000Y-126640000D02*
X54430000Y-126640000D01*
X54430000Y-126640000D02*
X54430000Y-128460000D01*
%TO.C,C60*%
X87590000Y-82720000D02*
X89410000Y-82720000D01*
X87590000Y-83640000D02*
X87590000Y-82720000D01*
X89410000Y-82720000D02*
X89410000Y-83640000D01*
X89410000Y-83640000D02*
X87590000Y-83640000D01*
%TO.C,C45*%
X78120000Y-76510000D02*
X78120000Y-74690000D01*
X79040000Y-76510000D02*
X78120000Y-76510000D01*
X78120000Y-74690000D02*
X79040000Y-74690000D01*
X79040000Y-74690000D02*
X79040000Y-76510000D01*
%TO.C,C35*%
X29230000Y-71810000D02*
X32190000Y-71810000D01*
X29230000Y-73270000D02*
X29230000Y-71810000D01*
X32190000Y-71810000D02*
X32190000Y-73270000D01*
X32190000Y-73270000D02*
X29230000Y-73270000D01*
%TO.C,C3*%
X62420000Y-22419600D02*
X62420000Y-19019600D01*
X64380000Y-22419600D02*
X62420000Y-22419600D01*
X62420000Y-19019600D02*
X64380000Y-19019600D01*
X64380000Y-19019600D02*
X64380000Y-22419600D01*
%TO.C,R24*%
X122650000Y-48240000D02*
X122650000Y-51540000D01*
X121190000Y-48240000D02*
X122650000Y-48240000D01*
X122650000Y-51540000D02*
X121190000Y-51540000D01*
X121190000Y-51540000D02*
X121190000Y-48240000D01*
%TO.C,R38*%
X77070000Y-59470000D02*
X77070000Y-56510000D01*
X78530000Y-59470000D02*
X77070000Y-59470000D01*
X77070000Y-56510000D02*
X78530000Y-56510000D01*
X78530000Y-56510000D02*
X78530000Y-59470000D01*
%TO.C,H2*%
X149455000Y-3950000D02*
G75*
G03*
X149455000Y-3950000I-3450000J0D01*
G01*
%TO.C,R72*%
X95820000Y-112950000D02*
X92520000Y-112950000D01*
X95820000Y-111490000D02*
X95820000Y-112950000D01*
X92520000Y-112950000D02*
X92520000Y-111490000D01*
X92520000Y-111490000D02*
X95820000Y-111490000D01*
%TO.C,C2*%
X20180000Y-16882500D02*
X25080000Y-16882500D01*
X20180000Y-20182500D02*
X20180000Y-16882500D01*
X25080000Y-16882500D02*
X25080000Y-20182500D01*
X25080000Y-20182500D02*
X20180000Y-20182500D01*
%TO.C,R41*%
X63030000Y-60800000D02*
X63030000Y-63760000D01*
X61570000Y-60800000D02*
X63030000Y-60800000D01*
X63030000Y-63760000D02*
X61570000Y-63760000D01*
X61570000Y-63760000D02*
X61570000Y-60800000D01*
%TO.C,ZZ8*%
X108500000Y-98665000D02*
X131500000Y-98665000D01*
X108500000Y-103165000D02*
X108500000Y-98665000D01*
X131500000Y-98665000D02*
X131500000Y-103165000D01*
X131500000Y-103165000D02*
X108500000Y-103165000D01*
%TO.C,R35*%
X101830000Y-56230000D02*
X98870000Y-56230000D01*
X101830000Y-54770000D02*
X101830000Y-56230000D01*
X98870000Y-56230000D02*
X98870000Y-54770000D01*
X98870000Y-54770000D02*
X101830000Y-54770000D01*
%TO.C,C53*%
X126210000Y-79350000D02*
X128030000Y-79350000D01*
X126210000Y-80270000D02*
X126210000Y-79350000D01*
X128030000Y-79350000D02*
X128030000Y-80270000D01*
X128030000Y-80270000D02*
X126210000Y-80270000D01*
D12*
%TO.C,Module3*%
X108605000Y-59950000D02*
X108605000Y-56170000D01*
X131405000Y-59950000D02*
X108605000Y-59950000D01*
X108605000Y-56170000D02*
X131405000Y-56170000D01*
X131405000Y-56170000D02*
X131405000Y-59950000D01*
X108605000Y-26030000D02*
X108605000Y-22250000D01*
X131405000Y-26030000D02*
X108605000Y-26030000D01*
X108605000Y-22250000D02*
X131405000Y-22250000D01*
X131405000Y-22250000D02*
X131405000Y-26030000D01*
D10*
%TO.C,D3*%
X91525000Y-5390000D02*
X91525000Y-1690000D01*
X93425000Y-5390000D02*
X91525000Y-5390000D01*
X91525000Y-1690000D02*
X93425000Y-1690000D01*
X93425000Y-1690000D02*
X93425000Y-5390000D01*
%TO.C,C113*%
X13645561Y-123410000D02*
X13645561Y-121590000D01*
X14565561Y-123410000D02*
X13645561Y-123410000D01*
X13645561Y-121590000D02*
X14565561Y-121590000D01*
X14565561Y-121590000D02*
X14565561Y-123410000D01*
%TO.C,C42*%
X73000000Y-76510000D02*
X73000000Y-74690000D01*
X73920000Y-76510000D02*
X73000000Y-76510000D01*
X73000000Y-74690000D02*
X73920000Y-74690000D01*
X73920000Y-74690000D02*
X73920000Y-76510000D01*
%TO.C,U25*%
X13030000Y-131800000D02*
X20230000Y-131800000D01*
X20230000Y-131800000D02*
X20230000Y-124600000D01*
X13030000Y-124600000D02*
X13030000Y-131800000D01*
X20230000Y-124600000D02*
X13030000Y-124600000D01*
%TO.C,C89*%
X105629637Y-94814631D02*
X105629637Y-97774631D01*
X104169637Y-94814631D02*
X105629637Y-94814631D01*
X105629637Y-97774631D02*
X104169637Y-97774631D01*
X104169637Y-97774631D02*
X104169637Y-94814631D01*
%TO.C,R81*%
X31500000Y-131460000D02*
X31500000Y-128500000D01*
X32960000Y-131460000D02*
X31500000Y-131460000D01*
X31500000Y-128500000D02*
X32960000Y-128500000D01*
X32960000Y-128500000D02*
X32960000Y-131460000D01*
%TO.C,R4*%
X123025000Y-9430000D02*
X123025000Y-6470000D01*
X124485000Y-9430000D02*
X123025000Y-9430000D01*
X123025000Y-6470000D02*
X124485000Y-6470000D01*
X124485000Y-6470000D02*
X124485000Y-9430000D01*
%TO.C,U31*%
X124490000Y-140040000D02*
X121690000Y-140040000D01*
X124490000Y-140040000D02*
X124490000Y-143240000D01*
X121690000Y-140040000D02*
X121690000Y-143240000D01*
X121690000Y-143240000D02*
X124490000Y-143240000D01*
%TO.C,C86*%
X99985000Y-94795000D02*
X99985000Y-97755000D01*
X98525000Y-94795000D02*
X99985000Y-94795000D01*
X99985000Y-97755000D02*
X98525000Y-97755000D01*
X98525000Y-97755000D02*
X98525000Y-94795000D01*
%TO.C,C111*%
X17515152Y-123410000D02*
X17515152Y-120450000D01*
X18975152Y-123410000D02*
X17515152Y-123410000D01*
X17515152Y-120450000D02*
X18975152Y-120450000D01*
X18975152Y-120450000D02*
X18975152Y-123410000D01*
%TO.C,U30*%
X31980000Y-135560000D02*
X31980000Y-133740000D01*
X34980000Y-135560000D02*
X31980000Y-135560000D01*
X31980000Y-133740000D02*
X34980000Y-133740000D01*
X34980000Y-133740000D02*
X34980000Y-135560000D01*
%TO.C,C32*%
X63430000Y-63760000D02*
X63430000Y-60800000D01*
X64890000Y-63760000D02*
X63430000Y-63760000D01*
X63430000Y-60800000D02*
X64890000Y-60800000D01*
X64890000Y-60800000D02*
X64890000Y-63760000D01*
%TO.C,U5*%
X18070000Y-27325000D02*
X21470000Y-27325000D01*
X21470000Y-27325000D02*
X21470000Y-23225000D01*
X18070000Y-23225000D02*
X18070000Y-27325000D01*
X21470000Y-23225000D02*
X18070000Y-23225000D01*
%TO.C,R30*%
X91430000Y-51000000D02*
X94390000Y-51000000D01*
X91430000Y-52460000D02*
X91430000Y-51000000D01*
X94390000Y-51000000D02*
X94390000Y-52460000D01*
X94390000Y-52460000D02*
X91430000Y-52460000D01*
%TO.C,C93*%
X78750000Y-96380000D02*
X78750000Y-98200000D01*
X77830000Y-96380000D02*
X78750000Y-96380000D01*
X78750000Y-98200000D02*
X77830000Y-98200000D01*
X77830000Y-98200000D02*
X77830000Y-96380000D01*
%TO.C,R11*%
X94960000Y-35460000D02*
X92000000Y-35460000D01*
X94960000Y-34000000D02*
X94960000Y-35460000D01*
X92000000Y-35460000D02*
X92000000Y-34000000D01*
X92000000Y-34000000D02*
X94960000Y-34000000D01*
%TO.C,C117*%
X30000000Y-126320000D02*
X32960000Y-126320000D01*
X30000000Y-127780000D02*
X30000000Y-126320000D01*
X32960000Y-126320000D02*
X32960000Y-127780000D01*
X32960000Y-127780000D02*
X30000000Y-127780000D01*
%TO.C,H1*%
X7455000Y-3950000D02*
G75*
G03*
X7455000Y-3950000I-3450000J0D01*
G01*
%TO.C,C98*%
X103603262Y-98045000D02*
X103603262Y-101005000D01*
X102143262Y-98045000D02*
X103603262Y-98045000D01*
X103603262Y-101005000D02*
X102143262Y-101005000D01*
X102143262Y-101005000D02*
X102143262Y-98045000D01*
%TO.C,C55*%
X25900000Y-79885000D02*
X28860000Y-79885000D01*
X25900000Y-81345000D02*
X25900000Y-79885000D01*
X28860000Y-79885000D02*
X28860000Y-81345000D01*
X28860000Y-81345000D02*
X25900000Y-81345000D01*
%TO.C,R25*%
X18370000Y-50380000D02*
X18370000Y-53680000D01*
X16910000Y-50380000D02*
X18370000Y-50380000D01*
X18370000Y-53680000D02*
X16910000Y-53680000D01*
X16910000Y-53680000D02*
X16910000Y-50380000D01*
%TO.C,H5*%
X115500000Y-87220000D02*
G75*
G03*
X115500000Y-87220000I-1800000J0D01*
G01*
%TO.C,R92*%
X63575000Y-143605000D02*
X63575000Y-140645000D01*
X65035000Y-143605000D02*
X63575000Y-143605000D01*
X63575000Y-140645000D02*
X65035000Y-140645000D01*
X65035000Y-140645000D02*
X65035000Y-143605000D01*
%TO.C,C56*%
X103610000Y-81902142D02*
X100650000Y-81902142D01*
X103610000Y-80442142D02*
X103610000Y-81902142D01*
X100650000Y-81902142D02*
X100650000Y-80442142D01*
X100650000Y-80442142D02*
X103610000Y-80442142D01*
%TO.C,C64*%
X33300000Y-83590000D02*
X35120000Y-83590000D01*
X33300000Y-84510000D02*
X33300000Y-83590000D01*
X35120000Y-83590000D02*
X35120000Y-84510000D01*
X35120000Y-84510000D02*
X33300000Y-84510000D01*
%TO.C,C47*%
X81420000Y-76510000D02*
X81420000Y-74690000D01*
X82340000Y-76510000D02*
X81420000Y-76510000D01*
X81420000Y-74690000D02*
X82340000Y-74690000D01*
X82340000Y-74690000D02*
X82340000Y-76510000D01*
%TO.C,R64*%
X80136250Y-103170000D02*
X80136250Y-106130000D01*
X78676250Y-103170000D02*
X80136250Y-103170000D01*
X80136250Y-106130000D02*
X78676250Y-106130000D01*
X78676250Y-106130000D02*
X78676250Y-103170000D01*
%TO.C,C83*%
X52050000Y-94132858D02*
X49090000Y-94132858D01*
X52050000Y-92672858D02*
X52050000Y-94132858D01*
X49090000Y-94132858D02*
X49090000Y-92672858D01*
X49090000Y-92672858D02*
X52050000Y-92672858D01*
%TO.C,U13*%
X124830000Y-81460000D02*
X124830000Y-84260000D01*
X124830000Y-81460000D02*
X128030000Y-81460000D01*
X124830000Y-84260000D02*
X128030000Y-84260000D01*
X128030000Y-84260000D02*
X128030000Y-81460000D01*
%TO.C,C1*%
X80180000Y-13850000D02*
X80180000Y-17250000D01*
X78220000Y-13850000D02*
X80180000Y-13850000D01*
X80180000Y-17250000D02*
X78220000Y-17250000D01*
X78220000Y-17250000D02*
X78220000Y-13850000D01*
%TO.C,R21*%
X97020000Y-46250000D02*
X97020000Y-49210000D01*
X95560000Y-46250000D02*
X97020000Y-46250000D01*
X97020000Y-49210000D02*
X95560000Y-49210000D01*
X95560000Y-49210000D02*
X95560000Y-46250000D01*
%TO.C,C57*%
X52040000Y-82390006D02*
X49080000Y-82390006D01*
X52040000Y-80930006D02*
X52040000Y-82390006D01*
X49080000Y-82390006D02*
X49080000Y-80930006D01*
X49080000Y-80930006D02*
X52040000Y-80930006D01*
%TO.C,R14*%
X75950000Y-41890000D02*
X75950000Y-38930000D01*
X77410000Y-41890000D02*
X75950000Y-41890000D01*
X75950000Y-38930000D02*
X77410000Y-38930000D01*
X77410000Y-38930000D02*
X77410000Y-41890000D01*
%TO.C,U12*%
X84460000Y-52070000D02*
X79060000Y-52070000D01*
X79060000Y-52070000D02*
X79060000Y-59470000D01*
X84460000Y-59470000D02*
X84460000Y-52070000D01*
X79060000Y-59470000D02*
X84460000Y-59470000D01*
%TO.C,D7*%
X90050000Y-138810000D02*
X90050000Y-142210000D01*
X90050000Y-142210000D02*
X93890000Y-142210000D01*
X93890000Y-138810000D02*
X90050000Y-138810000D01*
X93890000Y-142210000D02*
X93890000Y-138810000D01*
%TO.C,R27*%
X34620000Y-50380000D02*
X34620000Y-53340000D01*
X33160000Y-50380000D02*
X34620000Y-50380000D01*
X34620000Y-53340000D02*
X33160000Y-53340000D01*
X33160000Y-53340000D02*
X33160000Y-50380000D01*
%TO.C,R20*%
X80220000Y-48640000D02*
X77260000Y-48640000D01*
X80220000Y-47180000D02*
X80220000Y-48640000D01*
X77260000Y-48640000D02*
X77260000Y-47180000D01*
X77260000Y-47180000D02*
X80220000Y-47180000D01*
%TO.C,C133*%
X13640000Y-141700000D02*
X13640000Y-138740000D01*
X15100000Y-141700000D02*
X13640000Y-141700000D01*
X13640000Y-138740000D02*
X15100000Y-138740000D01*
X15100000Y-138740000D02*
X15100000Y-141700000D01*
%TO.C,R51*%
X21390000Y-93060000D02*
X21390000Y-96360000D01*
X19930000Y-93060000D02*
X21390000Y-93060000D01*
X21390000Y-96360000D02*
X19930000Y-96360000D01*
X19930000Y-96360000D02*
X19930000Y-93060000D01*
%TO.C,C11*%
X68240000Y-34530000D02*
X71640000Y-34530000D01*
X68240000Y-36490000D02*
X68240000Y-34530000D01*
X71640000Y-34530000D02*
X71640000Y-36490000D01*
X71640000Y-36490000D02*
X68240000Y-36490000D01*
%TO.C,C72*%
X52040000Y-87372858D02*
X49080000Y-87372858D01*
X52040000Y-85912858D02*
X52040000Y-87372858D01*
X49080000Y-87372858D02*
X49080000Y-85912858D01*
X49080000Y-85912858D02*
X52040000Y-85912858D01*
%TO.C,TP8*%
X114270000Y-62210000D02*
G75*
G03*
X114270000Y-62210000I-1000000J0D01*
G01*
%TO.C,C87*%
X101578268Y-94795000D02*
X101578268Y-97755000D01*
X100118268Y-94795000D02*
X101578268Y-94795000D01*
X101578268Y-97755000D02*
X100118268Y-97755000D01*
X100118268Y-97755000D02*
X100118268Y-94795000D01*
%TO.C,J14*%
X134955000Y-17250000D02*
X143605000Y-17250000D01*
X143605000Y-17250000D02*
X143605000Y-11100000D01*
X134955000Y-11100000D02*
X134955000Y-17250000D01*
X143605000Y-11100000D02*
X134955000Y-11100000D01*
%TO.C,C132*%
X43597500Y-136895000D02*
X43597500Y-139855000D01*
X42137500Y-136895000D02*
X43597500Y-136895000D01*
X43597500Y-139855000D02*
X42137500Y-139855000D01*
X42137500Y-139855000D02*
X42137500Y-136895000D01*
%TO.C,C71*%
X87590000Y-85240000D02*
X89410000Y-85240000D01*
X87590000Y-86160000D02*
X87590000Y-85240000D01*
X89410000Y-85240000D02*
X89410000Y-86160000D01*
X89410000Y-86160000D02*
X87590000Y-86160000D01*
%TO.C,C38*%
X25935000Y-75535000D02*
X28895000Y-75535000D01*
X25935000Y-76995000D02*
X25935000Y-75535000D01*
X28895000Y-75535000D02*
X28895000Y-76995000D01*
X28895000Y-76995000D02*
X25935000Y-76995000D01*
%TO.C,Y1*%
X83150000Y-102650000D02*
X83150000Y-99250000D01*
X83150000Y-99250000D02*
X78950000Y-99250000D01*
X78950000Y-102650000D02*
X83150000Y-102650000D01*
X78950000Y-99250000D02*
X78950000Y-102650000D01*
%TO.C,C29*%
X71220000Y-59430000D02*
X71220000Y-54830000D01*
X73520000Y-59430000D02*
X71220000Y-59430000D01*
X71220000Y-54830000D02*
X73520000Y-54830000D01*
X73520000Y-54830000D02*
X73520000Y-59430000D01*
%TO.C,C109*%
X97410000Y-120680000D02*
X99230000Y-120680000D01*
X97410000Y-121600000D02*
X97410000Y-120680000D01*
X99230000Y-120680000D02*
X99230000Y-121600000D01*
X99230000Y-121600000D02*
X97410000Y-121600000D01*
%TO.C,R88*%
X101300000Y-134020000D02*
X101300000Y-137320000D01*
X99840000Y-134020000D02*
X101300000Y-134020000D01*
X101300000Y-137320000D02*
X99840000Y-137320000D01*
X99840000Y-137320000D02*
X99840000Y-134020000D01*
%TO.C,D1*%
X17800000Y-5390000D02*
X17800000Y-1690000D01*
X19700000Y-5390000D02*
X17800000Y-5390000D01*
X17800000Y-1690000D02*
X19700000Y-1690000D01*
X19700000Y-1690000D02*
X19700000Y-5390000D01*
%TO.C,R53*%
X40770000Y-93060000D02*
X40770000Y-96360000D01*
X39310000Y-93060000D02*
X40770000Y-93060000D01*
X40770000Y-96360000D02*
X39310000Y-96360000D01*
X39310000Y-96360000D02*
X39310000Y-93060000D01*
%TO.C,U7*%
X104665000Y-32600000D02*
X104665000Y-28900000D01*
X104665000Y-32600000D02*
X98365000Y-32600000D01*
X104665000Y-28900000D02*
X98365000Y-28900000D01*
X98365000Y-32600000D02*
X98365000Y-28900000D01*
%TO.C,C102*%
X77170000Y-102420000D02*
X77170000Y-99460000D01*
X78630000Y-102420000D02*
X77170000Y-102420000D01*
X77170000Y-99460000D02*
X78630000Y-99460000D01*
X78630000Y-99460000D02*
X78630000Y-102420000D01*
%TO.C,U4*%
X121795000Y-16135000D02*
X121795000Y-14315000D01*
X124795000Y-16135000D02*
X121795000Y-16135000D01*
X121795000Y-14315000D02*
X124795000Y-14315000D01*
X124795000Y-14315000D02*
X124795000Y-16135000D01*
%TO.C,C54*%
X130080000Y-79350000D02*
X131900000Y-79350000D01*
X130080000Y-80270000D02*
X130080000Y-79350000D01*
X131900000Y-79350000D02*
X131900000Y-80270000D01*
X131900000Y-80270000D02*
X130080000Y-80270000D01*
%TO.C,C70*%
X106984999Y-85270000D02*
X104024999Y-85270000D01*
X106984999Y-83810000D02*
X106984999Y-85270000D01*
X104024999Y-85270000D02*
X104024999Y-83810000D01*
X104024999Y-83810000D02*
X106984999Y-83810000D01*
%TO.C,C123*%
X93470000Y-127798750D02*
X95290000Y-127798750D01*
X93470000Y-128718750D02*
X93470000Y-127798750D01*
X95290000Y-127798750D02*
X95290000Y-128718750D01*
X95290000Y-128718750D02*
X93470000Y-128718750D01*
%TO.C,C124*%
X10965000Y-130660000D02*
X10965000Y-128840000D01*
X11885000Y-130660000D02*
X10965000Y-130660000D01*
X10965000Y-128840000D02*
X11885000Y-128840000D01*
X11885000Y-128840000D02*
X11885000Y-130660000D01*
%TO.C,R28*%
X37560000Y-50380000D02*
X37560000Y-53680000D01*
X36100000Y-50380000D02*
X37560000Y-50380000D01*
X37560000Y-53680000D02*
X36100000Y-53680000D01*
X36100000Y-53680000D02*
X36100000Y-50380000D01*
%TO.C,R56*%
X31085000Y-96505000D02*
X28125000Y-96505000D01*
X31085000Y-95045000D02*
X31085000Y-96505000D01*
X28125000Y-96505000D02*
X28125000Y-95045000D01*
X28125000Y-95045000D02*
X31085000Y-95045000D01*
%TO.C,U28*%
X21622000Y-135322000D02*
X19802000Y-135322000D01*
X21622000Y-132322000D02*
X21622000Y-135322000D01*
X19802000Y-135322000D02*
X19802000Y-132322000D01*
X19802000Y-132322000D02*
X21622000Y-132322000D01*
%TO.C,R67*%
X85360000Y-103170000D02*
X85360000Y-106130000D01*
X83900000Y-103170000D02*
X85360000Y-103170000D01*
X85360000Y-106130000D02*
X83900000Y-106130000D01*
X83900000Y-106130000D02*
X83900000Y-103170000D01*
%TO.C,ZZ5*%
X23501000Y-64705000D02*
X46501000Y-64705000D01*
X23501000Y-69205000D02*
X23501000Y-64705000D01*
X46501000Y-64705000D02*
X46501000Y-69205000D01*
X46501000Y-69205000D02*
X23501000Y-69205000D01*
D12*
%TO.C,Module2*%
X23600000Y-102790000D02*
X23600000Y-99010000D01*
X46400000Y-102790000D02*
X23600000Y-102790000D01*
X23600000Y-99010000D02*
X46400000Y-99010000D01*
X46400000Y-99010000D02*
X46400000Y-102790000D01*
X23600000Y-68870000D02*
X23600000Y-65090000D01*
X46400000Y-68870000D02*
X23600000Y-68870000D01*
X23600000Y-65090000D02*
X46400000Y-65090000D01*
X46400000Y-65090000D02*
X46400000Y-68870000D01*
D10*
%TO.C,R87*%
X10965000Y-136225000D02*
X10965000Y-133265000D01*
X12425000Y-136225000D02*
X10965000Y-136225000D01*
X10965000Y-133265000D02*
X12425000Y-133265000D01*
X12425000Y-133265000D02*
X12425000Y-136225000D01*
%TO.C,C110*%
X8550000Y-122750000D02*
X5590000Y-122750000D01*
X8550000Y-121290000D02*
X8550000Y-122750000D01*
X5590000Y-122750000D02*
X5590000Y-121290000D01*
X5590000Y-121290000D02*
X8550000Y-121290000D01*
%TO.C,J6*%
X46555000Y2640000D02*
X46555000Y-18040000D01*
X37955000Y2640000D02*
X46555000Y2640000D01*
X46555000Y-18040000D02*
X37955000Y-18040000D01*
X37955000Y-18040000D02*
X37955000Y2640000D01*
%TO.C,R9*%
X21450000Y-28320000D02*
X21450000Y-31280000D01*
X19990000Y-28320000D02*
X21450000Y-28320000D01*
X21450000Y-31280000D02*
X19990000Y-31280000D01*
X19990000Y-31280000D02*
X19990000Y-28320000D01*
%TO.C,C33*%
X80790000Y-63250000D02*
X80790000Y-60290000D01*
X82250000Y-63250000D02*
X80790000Y-63250000D01*
X80790000Y-60290000D02*
X82250000Y-60290000D01*
X82250000Y-60290000D02*
X82250000Y-63250000D01*
%TO.C,R10*%
X98090000Y-33545000D02*
X101050000Y-33545000D01*
X98090000Y-35005000D02*
X98090000Y-33545000D01*
X101050000Y-33545000D02*
X101050000Y-35005000D01*
X101050000Y-35005000D02*
X98090000Y-35005000D01*
%TO.C,J10*%
X28955000Y-17250000D02*
X37605000Y-17250000D01*
X37605000Y-17250000D02*
X37605000Y-11100000D01*
X28955000Y-11100000D02*
X28955000Y-17250000D01*
X37605000Y-11100000D02*
X28955000Y-11100000D01*
%TO.C,C94*%
X79995000Y-96380000D02*
X79995000Y-98200000D01*
X79075000Y-96380000D02*
X79995000Y-96380000D01*
X79995000Y-98200000D02*
X79075000Y-98200000D01*
X79075000Y-98200000D02*
X79075000Y-96380000D01*
%TO.C,R48*%
X101830000Y-65860000D02*
X98870000Y-65860000D01*
X101830000Y-64400000D02*
X101830000Y-65860000D01*
X98870000Y-65860000D02*
X98870000Y-64400000D01*
X98870000Y-64400000D02*
X101830000Y-64400000D01*
%TO.C,TP4*%
X76820000Y-54490000D02*
G75*
G03*
X76820000Y-54490000I-1000000J0D01*
G01*
%TO.C,U19*%
X84300000Y-77750000D02*
X74650000Y-77750000D01*
X65000000Y-77750000D02*
X74650000Y-77750000D01*
X84900000Y-79180000D02*
X84300000Y-79180000D01*
X84300000Y-79180000D02*
X84300000Y-77750000D01*
X65000000Y-79180000D02*
X65000000Y-77750000D01*
X64400000Y-79180000D02*
X65000000Y-79180000D01*
X86330000Y-79780000D02*
X84900000Y-79780000D01*
X84900000Y-79780000D02*
X84900000Y-79180000D01*
X64400000Y-79780000D02*
X64400000Y-79180000D01*
X62970000Y-79780000D02*
X64400000Y-79780000D01*
X86330000Y-86430000D02*
X86330000Y-79780000D01*
X86330000Y-86430000D02*
X86330000Y-93080000D01*
X62970000Y-86430000D02*
X62970000Y-79780000D01*
X62970000Y-86430000D02*
X62970000Y-93080000D01*
X86330000Y-93080000D02*
X84900000Y-93080000D01*
X84900000Y-93080000D02*
X84900000Y-93680000D01*
X64400000Y-93080000D02*
X64400000Y-93680000D01*
X62970000Y-93080000D02*
X64400000Y-93080000D01*
X84900000Y-93680000D02*
X84300000Y-93680000D01*
X84300000Y-93680000D02*
X84300000Y-95110000D01*
X65000000Y-93680000D02*
X65000000Y-95110000D01*
X64400000Y-93680000D02*
X65000000Y-93680000D01*
X84300000Y-95110000D02*
X74650000Y-95110000D01*
X65000000Y-95110000D02*
X74650000Y-95110000D01*
%TO.C,C63*%
X29110000Y-83590000D02*
X30930000Y-83590000D01*
X29110000Y-84510000D02*
X29110000Y-83590000D01*
X30930000Y-83590000D02*
X30930000Y-84510000D01*
X30930000Y-84510000D02*
X29110000Y-84510000D01*
%TO.C,R19*%
X62810000Y-48760000D02*
X59850000Y-48760000D01*
X62810000Y-47300000D02*
X62810000Y-48760000D01*
X59850000Y-48760000D02*
X59850000Y-47300000D01*
X59850000Y-47300000D02*
X62810000Y-47300000D01*
%TO.C,C105*%
X100800000Y-105990000D02*
X100800000Y-104170000D01*
X101720000Y-105990000D02*
X100800000Y-105990000D01*
X100800000Y-104170000D02*
X101720000Y-104170000D01*
X101720000Y-104170000D02*
X101720000Y-105990000D01*
%TO.C,C77*%
X106984999Y-88963568D02*
X104024999Y-88963568D01*
X106984999Y-87503568D02*
X106984999Y-88963568D01*
X104024999Y-88963568D02*
X104024999Y-87503568D01*
X104024999Y-87503568D02*
X106984999Y-87503568D01*
%TO.C,TP5*%
X76820000Y-57030000D02*
G75*
G03*
X76820000Y-57030000I-1000000J0D01*
G01*
%TO.C,C21*%
X96470000Y-50200000D02*
X96470000Y-52020000D01*
X95550000Y-50200000D02*
X96470000Y-50200000D01*
X96470000Y-52020000D02*
X95550000Y-52020000D01*
X95550000Y-52020000D02*
X95550000Y-50200000D01*
%TO.C,C6*%
X101475000Y-27335000D02*
X103295000Y-27335000D01*
X101475000Y-28255000D02*
X101475000Y-27335000D01*
X103295000Y-27335000D02*
X103295000Y-28255000D01*
X103295000Y-28255000D02*
X101475000Y-28255000D01*
%TO.C,R77*%
X14844030Y-123410000D02*
X14844030Y-120450000D01*
X16304030Y-123410000D02*
X14844030Y-123410000D01*
X14844030Y-120450000D02*
X16304030Y-120450000D01*
X16304030Y-120450000D02*
X16304030Y-123410000D01*
%TO.C,U16*%
X31940000Y-85860000D02*
X31940000Y-88660000D01*
X31940000Y-85860000D02*
X35140000Y-85860000D01*
X31940000Y-88660000D02*
X35140000Y-88660000D01*
X35140000Y-88660000D02*
X35140000Y-85860000D01*
%TO.C,Y3*%
X94450000Y-138810000D02*
X94450000Y-141110000D01*
X94450000Y-138810000D02*
X98450000Y-138810000D01*
X94450000Y-141110000D02*
X98450000Y-141110000D01*
X98450000Y-138810000D02*
X98450000Y-141110000D01*
%TO.C,R13*%
X59860000Y-41890000D02*
X59860000Y-38930000D01*
X61320000Y-41890000D02*
X59860000Y-41890000D01*
X59860000Y-38930000D02*
X61320000Y-38930000D01*
X61320000Y-38930000D02*
X61320000Y-41890000D01*
%TO.C,D11*%
X134390000Y-147110000D02*
X138090000Y-147110000D01*
X134390000Y-149010000D02*
X134390000Y-147110000D01*
X138090000Y-147110000D02*
X138090000Y-149010000D01*
X138090000Y-149010000D02*
X134390000Y-149010000D01*
%TO.C,R5*%
X76430000Y-13975000D02*
X76430000Y-18535000D01*
X74190000Y-13975000D02*
X76430000Y-13975000D01*
X76430000Y-18535000D02*
X74190000Y-18535000D01*
X74190000Y-18535000D02*
X74190000Y-13975000D01*
%TO.C,R94*%
X63550000Y-147130000D02*
X63550000Y-144170000D01*
X65010000Y-147130000D02*
X63550000Y-147130000D01*
X63550000Y-144170000D02*
X65010000Y-144170000D01*
X65010000Y-144170000D02*
X65010000Y-147130000D01*
%TO.C,D5*%
X68934600Y-19019600D02*
X68934600Y-22419600D01*
X65434600Y-19019600D02*
X68934600Y-19019600D01*
X68934600Y-22419600D02*
X65434600Y-22419600D01*
X65434600Y-22419600D02*
X65434600Y-19019600D01*
%TO.C,R2*%
X48025000Y-9430000D02*
X48025000Y-6470000D01*
X49485000Y-9430000D02*
X48025000Y-9430000D01*
X48025000Y-6470000D02*
X49485000Y-6470000D01*
X49485000Y-6470000D02*
X49485000Y-9430000D01*
%TO.C,R79*%
X50900000Y-129620000D02*
X50900000Y-126660000D01*
X52360000Y-129620000D02*
X50900000Y-129620000D01*
X50900000Y-126660000D02*
X52360000Y-126660000D01*
X52360000Y-126660000D02*
X52360000Y-129620000D01*
%TO.C,C112*%
X11010000Y-123410000D02*
X11010000Y-121590000D01*
X11930000Y-123410000D02*
X11010000Y-123410000D01*
X11010000Y-121590000D02*
X11930000Y-121590000D01*
X11930000Y-121590000D02*
X11930000Y-123410000D01*
%TO.C,R69*%
X126180000Y-107370000D02*
X129140000Y-107370000D01*
X126180000Y-108830000D02*
X126180000Y-107370000D01*
X129140000Y-107370000D02*
X129140000Y-108830000D01*
X129140000Y-108830000D02*
X126180000Y-108830000D01*
%TO.C,TP9*%
X117250000Y-62210000D02*
G75*
G03*
X117250000Y-62210000I-1000000J0D01*
G01*
%TO.C,D6*%
X4870000Y-116360000D02*
X4870000Y-120360000D01*
X4870000Y-120360000D02*
X10470000Y-120360000D01*
X10470000Y-116360000D02*
X4870000Y-116360000D01*
X10470000Y-120360000D02*
X10470000Y-116360000D01*
%TO.C,J20*%
X4517500Y-113275000D02*
X56367500Y-113275000D01*
X56367500Y-113275000D02*
X56367500Y-107125000D01*
X4517500Y-107125000D02*
X4517500Y-113275000D01*
X56367500Y-107125000D02*
X4517500Y-107125000D01*
%TO.C,R70*%
X92690000Y-107990000D02*
X95650000Y-107990000D01*
X92690000Y-109450000D02*
X92690000Y-107990000D01*
X95650000Y-107990000D02*
X95650000Y-109450000D01*
X95650000Y-109450000D02*
X92690000Y-109450000D01*
%TO.C,C131*%
X12425000Y-136800000D02*
X12425000Y-139760000D01*
X10965000Y-136800000D02*
X12425000Y-136800000D01*
X12425000Y-139760000D02*
X10965000Y-139760000D01*
X10965000Y-139760000D02*
X10965000Y-136800000D01*
%TO.C,Y2*%
X9170000Y-126520000D02*
X9170000Y-123120000D01*
X9170000Y-123120000D02*
X4970000Y-123120000D01*
X4970000Y-126520000D02*
X9170000Y-126520000D01*
X4970000Y-123120000D02*
X4970000Y-126520000D01*
%TO.C,L4*%
X65310000Y-60800000D02*
X65310000Y-67300000D01*
X65310000Y-67300000D02*
X72310000Y-67300000D01*
X72310000Y-60800000D02*
X65310000Y-60800000D01*
X72310000Y-67300000D02*
X72310000Y-60800000D01*
%TO.C,TP14*%
X31900000Y-104770000D02*
G75*
G03*
X31900000Y-104770000I-1000000J0D01*
G01*
%TO.C,J5*%
X16305000Y2640000D02*
X16305000Y-18040000D01*
X7705000Y2640000D02*
X16305000Y2640000D01*
X16305000Y-18040000D02*
X7705000Y-18040000D01*
X7705000Y-18040000D02*
X7705000Y2640000D01*
%TO.C,U3*%
X90557500Y-16135000D02*
X90557500Y-14315000D01*
X93557500Y-16135000D02*
X90557500Y-16135000D01*
X90557500Y-14315000D02*
X93557500Y-14315000D01*
X93557500Y-14315000D02*
X93557500Y-16135000D01*
%TO.C,R49*%
X77850000Y-73540000D02*
X77850000Y-76500000D01*
X76390000Y-73540000D02*
X77850000Y-73540000D01*
X77850000Y-76500000D02*
X76390000Y-76500000D01*
X76390000Y-76500000D02*
X76390000Y-73540000D01*
%TO.C,R45*%
X101830000Y-64190000D02*
X98870000Y-64190000D01*
X101830000Y-62730000D02*
X101830000Y-64190000D01*
X98870000Y-64190000D02*
X98870000Y-62730000D01*
X98870000Y-62730000D02*
X101830000Y-62730000D01*
%TO.C,U27*%
X37657500Y-127415000D02*
X34257500Y-127415000D01*
X34257500Y-127415000D02*
X34257500Y-131515000D01*
X37657500Y-131515000D02*
X37657500Y-127415000D01*
X34257500Y-131515000D02*
X37657500Y-131515000D01*
%TO.C,C12*%
X77410000Y-34540000D02*
X77410000Y-37500000D01*
X75950000Y-34540000D02*
X77410000Y-34540000D01*
X77410000Y-37500000D02*
X75950000Y-37500000D01*
X75950000Y-37500000D02*
X75950000Y-34540000D01*
%TO.C,C78*%
X52050000Y-89220006D02*
X49090000Y-89220006D01*
X52050000Y-87760006D02*
X52050000Y-89220006D01*
X49090000Y-89220006D02*
X49090000Y-87760006D01*
X49090000Y-87760006D02*
X52050000Y-87760006D01*
%TO.C,R95*%
X34770000Y-144940000D02*
X34770000Y-147900000D01*
X33310000Y-144940000D02*
X34770000Y-144940000D01*
X34770000Y-147900000D02*
X33310000Y-147900000D01*
X33310000Y-147900000D02*
X33310000Y-144940000D01*
%TO.C,C95*%
X81240000Y-96370000D02*
X81240000Y-98190000D01*
X80320000Y-96370000D02*
X81240000Y-96370000D01*
X81240000Y-98190000D02*
X80320000Y-98190000D01*
X80320000Y-98190000D02*
X80320000Y-96370000D01*
%TO.C,U23*%
X96470000Y-122470000D02*
X93070000Y-122470000D01*
X93070000Y-122470000D02*
X93070000Y-126570000D01*
X96470000Y-126570000D02*
X96470000Y-122470000D01*
X93070000Y-126570000D02*
X96470000Y-126570000D01*
%TO.C,J18*%
X90280000Y-105960000D02*
X90280000Y-94760000D01*
X90280000Y-94760000D02*
X86680000Y-94760000D01*
X86680000Y-105960000D02*
X90280000Y-105960000D01*
X86680000Y-94760000D02*
X86680000Y-105960000D01*
D13*
%TO.C,SW2*%
X57966300Y-124710699D02*
X59118100Y-124710699D01*
X57966300Y-129409301D02*
X57966300Y-124710699D01*
X59118100Y-124558100D02*
X64121900Y-124558100D01*
X59118100Y-124710699D02*
X59118100Y-124558100D01*
X59118100Y-129409301D02*
X57966300Y-129409301D01*
X59118100Y-129561900D02*
X59118100Y-129409301D01*
X64121900Y-124558100D02*
X64121900Y-124710699D01*
X64121900Y-124710699D02*
X65273700Y-124710699D01*
X64121900Y-129409301D02*
X64121900Y-129561900D01*
X64121900Y-129561900D02*
X59118100Y-129561900D01*
X65273700Y-124710699D02*
X65273700Y-129409301D01*
X65273700Y-129409301D02*
X64121900Y-129409301D01*
D10*
%TO.C,R85*%
X26500000Y-132295000D02*
X26500000Y-135255000D01*
X25040000Y-132295000D02*
X26500000Y-132295000D01*
X26500000Y-135255000D02*
X25040000Y-135255000D01*
X25040000Y-135255000D02*
X25040000Y-132295000D01*
%TO.C,C41*%
X71870000Y-76510000D02*
X71870000Y-74690000D01*
X72790000Y-76510000D02*
X71870000Y-76510000D01*
X71870000Y-74690000D02*
X72790000Y-74690000D01*
X72790000Y-74690000D02*
X72790000Y-76510000D01*
%TO.C,R63*%
X74713750Y-103170000D02*
X74713750Y-106130000D01*
X73253750Y-103170000D02*
X74713750Y-103170000D01*
X74713750Y-106130000D02*
X73253750Y-106130000D01*
X73253750Y-106130000D02*
X73253750Y-103170000D01*
D12*
%TO.C,Module1*%
X23605000Y-59950000D02*
X23605000Y-56170000D01*
X46405000Y-59950000D02*
X23605000Y-59950000D01*
X23605000Y-56170000D02*
X46405000Y-56170000D01*
X46405000Y-56170000D02*
X46405000Y-59950000D01*
X23605000Y-26030000D02*
X23605000Y-22250000D01*
X46405000Y-26030000D02*
X23605000Y-26030000D01*
X23605000Y-22250000D02*
X46405000Y-22250000D01*
X46405000Y-22250000D02*
X46405000Y-26030000D01*
D10*
%TO.C,J8*%
X121555000Y2530000D02*
X121555000Y-18150000D01*
X112955000Y2530000D02*
X121555000Y2530000D01*
X121555000Y-18150000D02*
X112955000Y-18150000D01*
X112955000Y-18150000D02*
X112955000Y2530000D01*
%TO.C,C91*%
X71840000Y-96390000D02*
X71840000Y-98210000D01*
X70920000Y-96390000D02*
X71840000Y-96390000D01*
X71840000Y-98210000D02*
X70920000Y-98210000D01*
X70920000Y-98210000D02*
X70920000Y-96390000D01*
%TO.C,H3*%
X115490000Y-49225000D02*
G75*
G03*
X115490000Y-49225000I-1800000J0D01*
G01*
%TO.C,C26*%
X60958750Y-52697500D02*
X60958750Y-54517500D01*
X60038750Y-52697500D02*
X60958750Y-52697500D01*
X60958750Y-54517500D02*
X60038750Y-54517500D01*
X60038750Y-54517500D02*
X60038750Y-52697500D01*
%TO.C,R75*%
X96470000Y-121600000D02*
X93510000Y-121600000D01*
X96470000Y-120140000D02*
X96470000Y-121600000D01*
X93510000Y-121600000D02*
X93510000Y-120140000D01*
X93510000Y-120140000D02*
X96470000Y-120140000D01*
%TO.C,R55*%
X126190000Y-92969000D02*
X126190000Y-96269000D01*
X124730000Y-92969000D02*
X126190000Y-92969000D01*
X126190000Y-96269000D02*
X124730000Y-96269000D01*
X124730000Y-96269000D02*
X124730000Y-92969000D01*
%TO.C,C66*%
X42050000Y-83590000D02*
X43870000Y-83590000D01*
X42050000Y-84510000D02*
X42050000Y-83590000D01*
X43870000Y-83590000D02*
X43870000Y-84510000D01*
X43870000Y-84510000D02*
X42050000Y-84510000D01*
%TO.C,C81*%
X87590000Y-90240000D02*
X89410000Y-90240000D01*
X87590000Y-91160000D02*
X87590000Y-90240000D01*
X89410000Y-90240000D02*
X89410000Y-91160000D01*
X89410000Y-91160000D02*
X87590000Y-91160000D01*
%TO.C,C96*%
X84340000Y-96390000D02*
X84340000Y-98210000D01*
X83420000Y-96390000D02*
X84340000Y-96390000D01*
X84340000Y-98210000D02*
X83420000Y-98210000D01*
X83420000Y-98210000D02*
X83420000Y-96390000D01*
%TO.C,C84*%
X96780000Y-94880000D02*
X96780000Y-93060000D01*
X97700000Y-94880000D02*
X96780000Y-94880000D01*
X96780000Y-93060000D02*
X97700000Y-93060000D01*
X97700000Y-93060000D02*
X97700000Y-94880000D01*
%TO.C,ZZ7*%
X23501000Y-98655000D02*
X46501000Y-98655000D01*
X23501000Y-103155000D02*
X23501000Y-98655000D01*
X46501000Y-98655000D02*
X46501000Y-103155000D01*
X46501000Y-103155000D02*
X23501000Y-103155000D01*
%TO.C,R15*%
X59860000Y-46330000D02*
X59860000Y-43370000D01*
X61320000Y-46330000D02*
X59860000Y-46330000D01*
X59860000Y-43370000D02*
X61320000Y-43370000D01*
X61320000Y-43370000D02*
X61320000Y-46330000D01*
%TO.C,U8*%
X67380000Y-34490000D02*
X61980000Y-34490000D01*
X61980000Y-34490000D02*
X61980000Y-41890000D01*
X67380000Y-41890000D02*
X67380000Y-34490000D01*
X61980000Y-41890000D02*
X67380000Y-41890000D01*
%TO.C,C75*%
X61640000Y-88160000D02*
X59820000Y-88160000D01*
X61640000Y-87240000D02*
X61640000Y-88160000D01*
X59820000Y-88160000D02*
X59820000Y-87240000D01*
X59820000Y-87240000D02*
X61640000Y-87240000D01*
%TO.C,R44*%
X101830000Y-62090000D02*
X98870000Y-62090000D01*
X101830000Y-60630000D02*
X101830000Y-62090000D01*
X98870000Y-62090000D02*
X98870000Y-60630000D01*
X98870000Y-60630000D02*
X101830000Y-60630000D01*
%TO.C,REF\u002A\u002A6*%
X115370000Y-113620000D02*
G75*
G03*
X115370000Y-113620000I-1000000J0D01*
G01*
D12*
%TO.C,Module0*%
X119605000Y-108050000D02*
X119605000Y-111830000D01*
X96805000Y-108050000D02*
X119605000Y-108050000D01*
X119605000Y-111830000D02*
X96805000Y-111830000D01*
X96805000Y-111830000D02*
X96805000Y-108050000D01*
X119605000Y-141970000D02*
X119605000Y-145750000D01*
X96805000Y-141970000D02*
X119605000Y-141970000D01*
X119605000Y-145750000D02*
X96805000Y-145750000D01*
X96805000Y-145750000D02*
X96805000Y-141970000D01*
D10*
%TO.C,C16*%
X84590000Y-41940000D02*
X84590000Y-37340000D01*
X86890000Y-41940000D02*
X84590000Y-41940000D01*
X84590000Y-37340000D02*
X86890000Y-37340000D01*
X86890000Y-37340000D02*
X86890000Y-41940000D01*
%TO.C,U10*%
X94390000Y-46900000D02*
X91590000Y-46900000D01*
X94390000Y-46900000D02*
X94390000Y-50100000D01*
X91590000Y-46900000D02*
X91590000Y-50100000D01*
X91590000Y-50100000D02*
X94390000Y-50100000D01*
%TO.C,C61*%
X103610000Y-83435715D02*
X100650000Y-83435715D01*
X103610000Y-81975715D02*
X103610000Y-83435715D01*
X100650000Y-83435715D02*
X100650000Y-81975715D01*
X100650000Y-81975715D02*
X103610000Y-81975715D01*
%TO.C,C51*%
X61605000Y-80585000D02*
X59785000Y-80585000D01*
X61605000Y-79665000D02*
X61605000Y-80585000D01*
X59785000Y-80585000D02*
X59785000Y-79665000D01*
X59785000Y-79665000D02*
X61605000Y-79665000D01*
%TD*%
M02*
