%TF.GenerationSoftware,KiCad,Pcbnew,7.0.2-6a45011f42~172~ubuntu22.04.1*%
%TF.CreationDate,2023-04-24T13:24:36-07:00*%
%TF.ProjectId,Hepta-Pi_1.1,48657074-612d-4506-995f-312e312e6b69,2.1*%
%TF.SameCoordinates,PX37cf1c0PY1ad88f0*%
%TF.FileFunction,Paste,Top*%
%TF.FilePolarity,Positive*%
%FSLAX46Y46*%
G04 Gerber Fmt 4.6, Leading zero omitted, Abs format (unit mm)*
G04 Created by KiCad (PCBNEW 7.0.2-6a45011f42~172~ubuntu22.04.1) date 2023-04-24 13:24:36*
%MOMM*%
%LPD*%
G01*
G04 APERTURE LIST*
G04 Aperture macros list*
%AMRoundRect*
0 Rectangle with rounded corners*
0 $1 Rounding radius*
0 $2 $3 $4 $5 $6 $7 $8 $9 X,Y pos of 4 corners*
0 Add a 4 corners polygon primitive as box body*
4,1,4,$2,$3,$4,$5,$6,$7,$8,$9,$2,$3,0*
0 Add four circle primitives for the rounded corners*
1,1,$1+$1,$2,$3*
1,1,$1+$1,$4,$5*
1,1,$1+$1,$6,$7*
1,1,$1+$1,$8,$9*
0 Add four rect primitives between the rounded corners*
20,1,$1+$1,$2,$3,$4,$5,0*
20,1,$1+$1,$4,$5,$6,$7,0*
20,1,$1+$1,$6,$7,$8,$9,0*
20,1,$1+$1,$8,$9,$2,$3,0*%
G04 Aperture macros list end*
%ADD10RoundRect,0.225000X-0.225000X-0.250000X0.225000X-0.250000X0.225000X0.250000X-0.225000X0.250000X0*%
%ADD11RoundRect,0.140000X-0.170000X0.140000X-0.170000X-0.140000X0.170000X-0.140000X0.170000X0.140000X0*%
%ADD12RoundRect,0.225000X0.225000X0.250000X-0.225000X0.250000X-0.225000X-0.250000X0.225000X-0.250000X0*%
%ADD13RoundRect,0.237500X-0.237500X0.250000X-0.237500X-0.250000X0.237500X-0.250000X0.237500X0.250000X0*%
%ADD14RoundRect,0.140000X0.170000X-0.140000X0.170000X0.140000X-0.170000X0.140000X-0.170000X-0.140000X0*%
%ADD15RoundRect,0.200000X-0.200000X-0.275000X0.200000X-0.275000X0.200000X0.275000X-0.200000X0.275000X0*%
%ADD16RoundRect,0.140000X-0.140000X-0.170000X0.140000X-0.170000X0.140000X0.170000X-0.140000X0.170000X0*%
%ADD17RoundRect,0.200000X0.275000X-0.200000X0.275000X0.200000X-0.275000X0.200000X-0.275000X-0.200000X0*%
%ADD18RoundRect,0.250000X-0.325000X-0.450000X0.325000X-0.450000X0.325000X0.450000X-0.325000X0.450000X0*%
%ADD19RoundRect,0.140000X0.140000X0.170000X-0.140000X0.170000X-0.140000X-0.170000X0.140000X-0.170000X0*%
%ADD20R,0.650000X0.400000*%
%ADD21RoundRect,0.150000X0.150000X-0.512500X0.150000X0.512500X-0.150000X0.512500X-0.150000X-0.512500X0*%
%ADD22R,1.524000X0.609600*%
%ADD23R,1.803400X0.812800*%
%ADD24R,0.200000X0.700000*%
%ADD25RoundRect,0.250000X-0.250000X-0.475000X0.250000X-0.475000X0.250000X0.475000X-0.250000X0.475000X0*%
%ADD26RoundRect,0.200000X0.200000X0.275000X-0.200000X0.275000X-0.200000X-0.275000X0.200000X-0.275000X0*%
%ADD27RoundRect,0.225000X-0.250000X0.225000X-0.250000X-0.225000X0.250000X-0.225000X0.250000X0.225000X0*%
%ADD28RoundRect,0.200000X-0.275000X0.200000X-0.275000X-0.200000X0.275000X-0.200000X0.275000X0.200000X0*%
%ADD29R,0.300000X2.600000*%
%ADD30R,1.500000X3.600000*%
%ADD31RoundRect,0.250000X0.450000X-0.325000X0.450000X0.325000X-0.450000X0.325000X-0.450000X-0.325000X0*%
%ADD32R,2.300000X4.500000*%
%ADD33RoundRect,0.237500X0.237500X-0.250000X0.237500X0.250000X-0.237500X0.250000X-0.237500X-0.250000X0*%
%ADD34R,2.350000X5.100000*%
%ADD35RoundRect,0.250000X0.650000X-0.325000X0.650000X0.325000X-0.650000X0.325000X-0.650000X-0.325000X0*%
%ADD36RoundRect,0.225000X0.250000X-0.225000X0.250000X0.225000X-0.250000X0.225000X-0.250000X-0.225000X0*%
%ADD37R,0.300000X0.550000*%
%ADD38R,0.400000X0.550000*%
%ADD39R,0.575000X0.300000*%
%ADD40R,0.575000X0.250000*%
%ADD41R,0.350000X0.630000*%
%ADD42RoundRect,0.250000X-0.435000X0.295000X-0.435000X-0.295000X0.435000X-0.295000X0.435000X0.295000X0*%
%ADD43RoundRect,0.150000X-0.150000X0.737500X-0.150000X-0.737500X0.150000X-0.737500X0.150000X0.737500X0*%
%ADD44RoundRect,0.250000X0.475000X-0.250000X0.475000X0.250000X-0.475000X0.250000X-0.475000X-0.250000X0*%
%ADD45R,0.400000X0.650000*%
%ADD46RoundRect,0.100000X0.712500X0.100000X-0.712500X0.100000X-0.712500X-0.100000X0.712500X-0.100000X0*%
%ADD47RoundRect,0.237500X0.250000X0.237500X-0.250000X0.237500X-0.250000X-0.237500X0.250000X-0.237500X0*%
%ADD48RoundRect,0.250000X-0.412500X-0.925000X0.412500X-0.925000X0.412500X0.925000X-0.412500X0.925000X0*%
%ADD49R,1.000000X0.600000*%
%ADD50R,0.420000X0.700000*%
%ADD51R,1.549400X0.990600*%
%ADD52RoundRect,0.150000X0.150000X-0.825000X0.150000X0.825000X-0.150000X0.825000X-0.150000X-0.825000X0*%
%ADD53RoundRect,0.247500X0.247500X-0.247500X0.247500X0.247500X-0.247500X0.247500X-0.247500X-0.247500X0*%
%ADD54RoundRect,0.062500X0.062500X-0.350000X0.062500X0.350000X-0.062500X0.350000X-0.062500X-0.350000X0*%
%ADD55RoundRect,0.062500X0.350000X-0.062500X0.350000X0.062500X-0.350000X0.062500X-0.350000X-0.062500X0*%
%ADD56RoundRect,0.250000X-0.475000X0.250000X-0.475000X-0.250000X0.475000X-0.250000X0.475000X0.250000X0*%
%ADD57RoundRect,0.150000X-0.587500X-0.150000X0.587500X-0.150000X0.587500X0.150000X-0.587500X0.150000X0*%
%ADD58R,1.400000X1.200000*%
%ADD59R,1.400000X0.300000*%
%ADD60R,0.550000X0.300000*%
%ADD61R,0.550000X0.400000*%
%ADD62RoundRect,0.075000X-0.075000X0.675000X-0.075000X-0.675000X0.075000X-0.675000X0.075000X0.675000X0*%
%ADD63RoundRect,0.075000X-0.675000X0.075000X-0.675000X-0.075000X0.675000X-0.075000X0.675000X0.075000X0*%
%ADD64RoundRect,0.252951X-0.747049X-0.747049X0.747049X-0.747049X0.747049X0.747049X-0.747049X0.747049X0*%
%ADD65R,1.000000X1.800000*%
%ADD66RoundRect,0.250000X-0.625000X0.312500X-0.625000X-0.312500X0.625000X-0.312500X0.625000X0.312500X0*%
%ADD67R,0.800000X0.900000*%
%ADD68R,1.600000X0.850000*%
%ADD69RoundRect,0.150000X-0.150000X0.512500X-0.150000X-0.512500X0.150000X-0.512500X0.150000X0.512500X0*%
G04 APERTURE END LIST*
D10*
%TO.C,C37*%
X26630000Y-74600000D03*
X28180000Y-74600000D03*
%TD*%
D11*
%TO.C,C121*%
X49290000Y-127070000D03*
X49290000Y-128030000D03*
%TD*%
D12*
%TO.C,C58*%
X51335000Y-83202858D03*
X49785000Y-83202858D03*
%TD*%
D13*
%TO.C,R23*%
X119500000Y-48977500D03*
X119500000Y-50802500D03*
%TD*%
D14*
%TO.C,C101*%
X75920000Y-101980000D03*
X75920000Y-101020000D03*
%TD*%
D15*
%TO.C,R74*%
X18430000Y-118350000D03*
X20080000Y-118350000D03*
%TD*%
D16*
%TO.C,C106*%
X126630000Y-104500000D03*
X127590000Y-104500000D03*
%TD*%
D17*
%TO.C,R17*%
X76680000Y-45690000D03*
X76680000Y-44040000D03*
%TD*%
D18*
%TO.C,D8*%
X9225000Y-148060000D03*
X11275000Y-148060000D03*
%TD*%
D11*
%TO.C,C85*%
X63490000Y-95560000D03*
X63490000Y-96520000D03*
%TD*%
D19*
%TO.C,C108*%
X20305000Y-116510000D03*
X19345000Y-116510000D03*
%TD*%
D20*
%TO.C,U15*%
X28390000Y-86610000D03*
X28390000Y-87260000D03*
X28390000Y-87910000D03*
X30290000Y-87910000D03*
X30290000Y-86610000D03*
%TD*%
D21*
%TO.C,U21*%
X75745000Y-106357500D03*
X76695000Y-106357500D03*
X77645000Y-106357500D03*
X77645000Y-104082500D03*
X75745000Y-104082500D03*
%TD*%
D13*
%TO.C,R59*%
X99880000Y-103427500D03*
X99880000Y-105252500D03*
%TD*%
D22*
%TO.C,J23*%
X143612500Y-139150000D03*
X140920100Y-138650001D03*
X143612500Y-138149999D03*
X140920100Y-137650000D03*
X143612500Y-137150001D03*
X140920100Y-136650000D03*
X143612500Y-136150001D03*
X140920100Y-135649999D03*
X143612500Y-135150000D03*
X140920100Y-134650001D03*
X143612500Y-134150000D03*
X140920100Y-133650000D03*
X143612500Y-133149999D03*
X140920100Y-132650000D03*
X143612500Y-132150001D03*
X140920100Y-131649999D03*
X143612500Y-131150000D03*
X140920100Y-130649999D03*
X143612500Y-130150000D03*
X140920100Y-129650001D03*
X143612500Y-129149999D03*
X140920100Y-128650000D03*
D23*
X140920100Y-127651600D03*
X140920100Y-140148400D03*
X143612500Y-127651600D03*
X143612500Y-140148400D03*
%TD*%
D24*
%TO.C,ZZ1*%
X25206000Y-25665000D03*
X25206000Y-22585000D03*
X25606000Y-25665000D03*
X25606000Y-22585000D03*
X26006000Y-25665000D03*
X26006000Y-22585000D03*
X26406000Y-25665000D03*
X26406000Y-22585000D03*
X26806000Y-25665000D03*
X26806000Y-22585000D03*
X27206000Y-25665000D03*
X27206000Y-22585000D03*
X27606000Y-25665000D03*
X27606000Y-22585000D03*
X28006000Y-25665000D03*
X28006000Y-22585000D03*
X28406000Y-25665000D03*
X28406000Y-22585000D03*
X28806000Y-25665000D03*
X28806000Y-22585000D03*
X29206000Y-25665000D03*
X29206000Y-22585000D03*
X29606000Y-25665000D03*
X29606000Y-22585000D03*
X30006000Y-25665000D03*
X30006000Y-22585000D03*
X30406000Y-25665000D03*
X30406000Y-22585000D03*
X30806000Y-25665000D03*
X30806000Y-22585000D03*
X31206000Y-25665000D03*
X31206000Y-22585000D03*
X31606000Y-25665000D03*
X31606000Y-22585000D03*
X32006000Y-25665000D03*
X32006000Y-22585000D03*
X32406000Y-25665000D03*
X32406000Y-22585000D03*
X32806000Y-25665000D03*
X32806000Y-22585000D03*
X33206000Y-25665000D03*
X33206000Y-22585000D03*
X33606000Y-25665000D03*
X33606000Y-22585000D03*
X34006000Y-25665000D03*
X34006000Y-22585000D03*
X34406000Y-25665000D03*
X34406000Y-22585000D03*
X34806000Y-25665000D03*
X34806000Y-22585000D03*
X35206000Y-25665000D03*
X35206000Y-22585000D03*
X35606000Y-25665000D03*
X35606000Y-22585000D03*
X36006000Y-25665000D03*
X36006000Y-22585000D03*
X36406000Y-25665000D03*
X36406000Y-22585000D03*
X36806000Y-25665000D03*
X36806000Y-22585000D03*
X37206000Y-25665000D03*
X37206000Y-22585000D03*
X37606000Y-25665000D03*
X37606000Y-22585000D03*
X38006000Y-25665000D03*
X38006000Y-22585000D03*
X38406000Y-25665000D03*
X38406000Y-22585000D03*
X38806000Y-25665000D03*
X38806000Y-22585000D03*
X39206000Y-25665000D03*
X39206000Y-22585000D03*
X39606000Y-25665000D03*
X39606000Y-22585000D03*
X40006000Y-25665000D03*
X40006000Y-22585000D03*
X40406000Y-25665000D03*
X40406000Y-22585000D03*
X40806000Y-25665000D03*
X40806000Y-22585000D03*
X41206000Y-25665000D03*
X41206000Y-22585000D03*
X41606000Y-25665000D03*
X41606000Y-22585000D03*
X42006000Y-25665000D03*
X42006000Y-22585000D03*
X42406000Y-25665000D03*
X42406000Y-22585000D03*
X42806000Y-25665000D03*
X42806000Y-22585000D03*
X43206000Y-25665000D03*
X43206000Y-22585000D03*
X43606000Y-25665000D03*
X43606000Y-22585000D03*
X44006000Y-25665000D03*
X44006000Y-22585000D03*
X44406000Y-25665000D03*
X44406000Y-22585000D03*
X44806000Y-25665000D03*
X44806000Y-22585000D03*
%TD*%
D25*
%TO.C,C13*%
X85340000Y-35520000D03*
X87240000Y-35520000D03*
%TD*%
D13*
%TO.C,R54*%
X123100000Y-93706500D03*
X123100000Y-95531500D03*
%TD*%
D17*
%TO.C,R86*%
X27770000Y-134600000D03*
X27770000Y-132950000D03*
%TD*%
D11*
%TO.C,C90*%
X70330000Y-96820000D03*
X70330000Y-97780000D03*
%TD*%
D26*
%TO.C,R46*%
X62075000Y-65270000D03*
X60425000Y-65270000D03*
%TD*%
D25*
%TO.C,C23*%
X69530000Y-53020000D03*
X71430000Y-53020000D03*
%TD*%
D26*
%TO.C,R47*%
X79425000Y-64470000D03*
X77775000Y-64470000D03*
%TD*%
D14*
%TO.C,C114*%
X16909591Y-122980000D03*
X16909591Y-122020000D03*
%TD*%
D16*
%TO.C,C76*%
X88020000Y-88200000D03*
X88980000Y-88200000D03*
%TD*%
D27*
%TO.C,C100*%
X106948262Y-98725000D03*
X106948262Y-100275000D03*
%TD*%
D20*
%TO.C,U26*%
X44310000Y-127410000D03*
X44310000Y-128060000D03*
X44310000Y-128710000D03*
X46210000Y-128710000D03*
X46210000Y-127410000D03*
%TD*%
D10*
%TO.C,C49*%
X26605000Y-78985000D03*
X28155000Y-78985000D03*
%TD*%
D28*
%TO.C,R96*%
X42867500Y-145655000D03*
X42867500Y-147305000D03*
%TD*%
D20*
%TO.C,U20*%
X93710000Y-93800000D03*
X93710000Y-94450000D03*
X93710000Y-95100000D03*
X95610000Y-95100000D03*
X95610000Y-93800000D03*
%TD*%
D27*
%TO.C,C103*%
X84120000Y-100175000D03*
X84120000Y-101725000D03*
%TD*%
D24*
%TO.C,ZZ3*%
X25206000Y-59615000D03*
X25206000Y-56535000D03*
X25606000Y-59615000D03*
X25606000Y-56535000D03*
X26006000Y-59615000D03*
X26006000Y-56535000D03*
X26406000Y-59615000D03*
X26406000Y-56535000D03*
X26806000Y-59615000D03*
X26806000Y-56535000D03*
X27206000Y-59615000D03*
X27206000Y-56535000D03*
X27606000Y-59615000D03*
X27606000Y-56535000D03*
X28006000Y-59615000D03*
X28006000Y-56535000D03*
X28406000Y-59615000D03*
X28406000Y-56535000D03*
X28806000Y-59615000D03*
X28806000Y-56535000D03*
X29206000Y-59615000D03*
X29206000Y-56535000D03*
X29606000Y-59615000D03*
X29606000Y-56535000D03*
X30006000Y-59615000D03*
X30006000Y-56535000D03*
X30406000Y-59615000D03*
X30406000Y-56535000D03*
X30806000Y-59615000D03*
X30806000Y-56535000D03*
X31206000Y-59615000D03*
X31206000Y-56535000D03*
X31606000Y-59615000D03*
X31606000Y-56535000D03*
X32006000Y-59615000D03*
X32006000Y-56535000D03*
X32406000Y-59615000D03*
X32406000Y-56535000D03*
X32806000Y-59615000D03*
X32806000Y-56535000D03*
X33206000Y-59615000D03*
X33206000Y-56535000D03*
X33606000Y-59615000D03*
X33606000Y-56535000D03*
X34006000Y-59615000D03*
X34006000Y-56535000D03*
X34406000Y-59615000D03*
X34406000Y-56535000D03*
X34806000Y-59615000D03*
X34806000Y-56535000D03*
X35206000Y-59615000D03*
X35206000Y-56535000D03*
X35606000Y-59615000D03*
X35606000Y-56535000D03*
X36006000Y-59615000D03*
X36006000Y-56535000D03*
X36406000Y-59615000D03*
X36406000Y-56535000D03*
X36806000Y-59615000D03*
X36806000Y-56535000D03*
X37206000Y-59615000D03*
X37206000Y-56535000D03*
X37606000Y-59615000D03*
X37606000Y-56535000D03*
X38006000Y-59615000D03*
X38006000Y-56535000D03*
X38406000Y-59615000D03*
X38406000Y-56535000D03*
X38806000Y-59615000D03*
X38806000Y-56535000D03*
X39206000Y-59615000D03*
X39206000Y-56535000D03*
X39606000Y-59615000D03*
X39606000Y-56535000D03*
X40006000Y-59615000D03*
X40006000Y-56535000D03*
X40406000Y-59615000D03*
X40406000Y-56535000D03*
X40806000Y-59615000D03*
X40806000Y-56535000D03*
X41206000Y-59615000D03*
X41206000Y-56535000D03*
X41606000Y-59615000D03*
X41606000Y-56535000D03*
X42006000Y-59615000D03*
X42006000Y-56535000D03*
X42406000Y-59615000D03*
X42406000Y-56535000D03*
X42806000Y-59615000D03*
X42806000Y-56535000D03*
X43206000Y-59615000D03*
X43206000Y-56535000D03*
X43606000Y-59615000D03*
X43606000Y-56535000D03*
X44006000Y-59615000D03*
X44006000Y-56535000D03*
X44406000Y-59615000D03*
X44406000Y-56535000D03*
X44806000Y-59615000D03*
X44806000Y-56535000D03*
%TD*%
D11*
%TO.C,C92*%
X72430000Y-96820000D03*
X72430000Y-97780000D03*
%TD*%
D16*
%TO.C,C120*%
X39610000Y-128125000D03*
X40570000Y-128125000D03*
%TD*%
D11*
%TO.C,C7*%
X18530000Y-28747500D03*
X18530000Y-29707500D03*
%TD*%
D29*
%TO.C,J4*%
X129530000Y-8219750D03*
X130030000Y-8219750D03*
X130530000Y-8219750D03*
X131030000Y-8219750D03*
X131530000Y-8219750D03*
X132030000Y-8219750D03*
X132530000Y-8219750D03*
X133030000Y-8219750D03*
X133530000Y-8219750D03*
X134030000Y-8219750D03*
X134530000Y-8219750D03*
X135030000Y-8219750D03*
X135530000Y-8219750D03*
X136030000Y-8219750D03*
X136530000Y-8219750D03*
X137030000Y-8219750D03*
X137530000Y-8219750D03*
X138030000Y-8219750D03*
X138530000Y-8219750D03*
%TD*%
D20*
%TO.C,U18*%
X41330000Y-86560000D03*
X41330000Y-87210000D03*
X41330000Y-87860000D03*
X43230000Y-87860000D03*
X43230000Y-86560000D03*
%TD*%
D30*
%TO.C,L3*%
X83795000Y-62570000D03*
X86845000Y-62570000D03*
%TD*%
D26*
%TO.C,R36*%
X101175000Y-57150000D03*
X99525000Y-57150000D03*
%TD*%
D31*
%TO.C,D2*%
X48750000Y-4565000D03*
X48750000Y-2515000D03*
%TD*%
D11*
%TO.C,C27*%
X77800000Y-54711250D03*
X77800000Y-55671250D03*
%TD*%
D16*
%TO.C,C52*%
X88030000Y-80150000D03*
X88990000Y-80150000D03*
%TD*%
D32*
%TO.C,BT1*%
X73990000Y-119545000D03*
X73990000Y-135945000D03*
%TD*%
D24*
%TO.C,ZZ10*%
X118005000Y-142345000D03*
X118005000Y-145425000D03*
X117605000Y-142345000D03*
X117605000Y-145425000D03*
X117205000Y-142345000D03*
X117205000Y-145425000D03*
X116805000Y-142345000D03*
X116805000Y-145425000D03*
X116405000Y-142345000D03*
X116405000Y-145425000D03*
X116005000Y-142345000D03*
X116005000Y-145425000D03*
X115605000Y-142345000D03*
X115605000Y-145425000D03*
X115205000Y-142345000D03*
X115205000Y-145425000D03*
X114805000Y-142345000D03*
X114805000Y-145425000D03*
X114405000Y-142345000D03*
X114405000Y-145425000D03*
X114005000Y-142345000D03*
X114005000Y-145425000D03*
X113605000Y-142345000D03*
X113605000Y-145425000D03*
X113205000Y-142345000D03*
X113205000Y-145425000D03*
X112805000Y-142345000D03*
X112805000Y-145425000D03*
X112405000Y-142345000D03*
X112405000Y-145425000D03*
X112005000Y-142345000D03*
X112005000Y-145425000D03*
X111605000Y-142345000D03*
X111605000Y-145425000D03*
X111205000Y-142345000D03*
X111205000Y-145425000D03*
X110805000Y-142345000D03*
X110805000Y-145425000D03*
X110405000Y-142345000D03*
X110405000Y-145425000D03*
X110005000Y-142345000D03*
X110005000Y-145425000D03*
X109605000Y-142345000D03*
X109605000Y-145425000D03*
X109205000Y-142345000D03*
X109205000Y-145425000D03*
X108805000Y-142345000D03*
X108805000Y-145425000D03*
X108405000Y-142345000D03*
X108405000Y-145425000D03*
X108005000Y-142345000D03*
X108005000Y-145425000D03*
X107605000Y-142345000D03*
X107605000Y-145425000D03*
X107205000Y-142345000D03*
X107205000Y-145425000D03*
X106805000Y-142345000D03*
X106805000Y-145425000D03*
X106405000Y-142345000D03*
X106405000Y-145425000D03*
X106005000Y-142345000D03*
X106005000Y-145425000D03*
X105605000Y-142345000D03*
X105605000Y-145425000D03*
X105205000Y-142345000D03*
X105205000Y-145425000D03*
X104805000Y-142345000D03*
X104805000Y-145425000D03*
X104405000Y-142345000D03*
X104405000Y-145425000D03*
X104005000Y-142345000D03*
X104005000Y-145425000D03*
X103605000Y-142345000D03*
X103605000Y-145425000D03*
X103205000Y-142345000D03*
X103205000Y-145425000D03*
X102805000Y-142345000D03*
X102805000Y-145425000D03*
X102405000Y-142345000D03*
X102405000Y-145425000D03*
X102005000Y-142345000D03*
X102005000Y-145425000D03*
X101605000Y-142345000D03*
X101605000Y-145425000D03*
X101205000Y-142345000D03*
X101205000Y-145425000D03*
X100805000Y-142345000D03*
X100805000Y-145425000D03*
X100405000Y-142345000D03*
X100405000Y-145425000D03*
X100005000Y-142345000D03*
X100005000Y-145425000D03*
X99605000Y-142345000D03*
X99605000Y-145425000D03*
X99205000Y-142345000D03*
X99205000Y-145425000D03*
X98805000Y-142345000D03*
X98805000Y-145425000D03*
X98405000Y-142345000D03*
X98405000Y-145425000D03*
%TD*%
D14*
%TO.C,C24*%
X77800000Y-53442500D03*
X77800000Y-52482500D03*
%TD*%
D33*
%TO.C,R89*%
X103570000Y-136582500D03*
X103570000Y-134757500D03*
%TD*%
D13*
%TO.C,R52*%
X37450000Y-93797500D03*
X37450000Y-95622500D03*
%TD*%
D12*
%TO.C,C73*%
X102905000Y-86383568D03*
X101355000Y-86383568D03*
%TD*%
D17*
%TO.C,R40*%
X60510000Y-63095000D03*
X60510000Y-61445000D03*
%TD*%
D19*
%TO.C,C34*%
X124960000Y-61660000D03*
X124000000Y-61660000D03*
%TD*%
D14*
%TO.C,C44*%
X75720000Y-76080000D03*
X75720000Y-75120000D03*
%TD*%
D15*
%TO.C,R93*%
X122185000Y-145120000D03*
X123835000Y-145120000D03*
%TD*%
D34*
%TO.C,L1*%
X66815000Y-46620000D03*
X70965000Y-46620000D03*
%TD*%
D35*
%TO.C,C14*%
X69390000Y-41065000D03*
X69390000Y-38115000D03*
%TD*%
D26*
%TO.C,R33*%
X30442500Y-53650000D03*
X28792500Y-53650000D03*
%TD*%
D11*
%TO.C,C127*%
X16620000Y-133695000D03*
X16620000Y-134655000D03*
%TD*%
D16*
%TO.C,C126*%
X39610000Y-130610000D03*
X40570000Y-130610000D03*
%TD*%
D13*
%TO.C,R26*%
X20310000Y-51117500D03*
X20310000Y-52942500D03*
%TD*%
D10*
%TO.C,C118*%
X6295000Y-127920000D03*
X7845000Y-127920000D03*
%TD*%
D36*
%TO.C,C129*%
X64350000Y-134575000D03*
X64350000Y-133025000D03*
%TD*%
D26*
%TO.C,R83*%
X129130000Y-130025000D03*
X127480000Y-130025000D03*
%TD*%
D37*
%TO.C,U1*%
X17082500Y-15610000D03*
X17582500Y-15610000D03*
D38*
X18082500Y-15610000D03*
D37*
X18582500Y-15610000D03*
X19082500Y-15610000D03*
X19082500Y-14840000D03*
X18582500Y-14840000D03*
D38*
X18082500Y-14840000D03*
D37*
X17582500Y-14840000D03*
X17082500Y-14840000D03*
%TD*%
D39*
%TO.C,U24*%
X26181232Y-125600000D03*
D40*
X26181232Y-126100000D03*
X26181232Y-126600000D03*
D39*
X26181232Y-127100000D03*
D41*
X26818732Y-127210000D03*
D39*
X27456232Y-127100000D03*
D40*
X27456232Y-126600000D03*
X27456232Y-126100000D03*
D39*
X27456232Y-125600000D03*
D41*
X26818732Y-125490000D03*
%TD*%
D18*
%TO.C,D10*%
X126730000Y-148075000D03*
X128780000Y-148075000D03*
%TD*%
D17*
%TO.C,R90*%
X34080000Y-143155000D03*
X34080000Y-141505000D03*
%TD*%
D10*
%TO.C,C125*%
X21995000Y-130200000D03*
X23545000Y-130200000D03*
%TD*%
D17*
%TO.C,R37*%
X60490000Y-58825000D03*
X60490000Y-57175000D03*
%TD*%
D12*
%TO.C,C62*%
X106279999Y-83006432D03*
X104729999Y-83006432D03*
%TD*%
D26*
%TO.C,R34*%
X101175000Y-53400000D03*
X99525000Y-53400000D03*
%TD*%
D13*
%TO.C,R29*%
X39710000Y-51117500D03*
X39710000Y-52942500D03*
%TD*%
D24*
%TO.C,ZZ2*%
X110205000Y-25660000D03*
X110205000Y-22580000D03*
X110605000Y-25660000D03*
X110605000Y-22580000D03*
X111005000Y-25660000D03*
X111005000Y-22580000D03*
X111405000Y-25660000D03*
X111405000Y-22580000D03*
X111805000Y-25660000D03*
X111805000Y-22580000D03*
X112205000Y-25660000D03*
X112205000Y-22580000D03*
X112605000Y-25660000D03*
X112605000Y-22580000D03*
X113005000Y-25660000D03*
X113005000Y-22580000D03*
X113405000Y-25660000D03*
X113405000Y-22580000D03*
X113805000Y-25660000D03*
X113805000Y-22580000D03*
X114205000Y-25660000D03*
X114205000Y-22580000D03*
X114605000Y-25660000D03*
X114605000Y-22580000D03*
X115005000Y-25660000D03*
X115005000Y-22580000D03*
X115405000Y-25660000D03*
X115405000Y-22580000D03*
X115805000Y-25660000D03*
X115805000Y-22580000D03*
X116205000Y-25660000D03*
X116205000Y-22580000D03*
X116605000Y-25660000D03*
X116605000Y-22580000D03*
X117005000Y-25660000D03*
X117005000Y-22580000D03*
X117405000Y-25660000D03*
X117405000Y-22580000D03*
X117805000Y-25660000D03*
X117805000Y-22580000D03*
X118205000Y-25660000D03*
X118205000Y-22580000D03*
X118605000Y-25660000D03*
X118605000Y-22580000D03*
X119005000Y-25660000D03*
X119005000Y-22580000D03*
X119405000Y-25660000D03*
X119405000Y-22580000D03*
X119805000Y-25660000D03*
X119805000Y-22580000D03*
X120205000Y-25660000D03*
X120205000Y-22580000D03*
X120605000Y-25660000D03*
X120605000Y-22580000D03*
X121005000Y-25660000D03*
X121005000Y-22580000D03*
X121405000Y-25660000D03*
X121405000Y-22580000D03*
X121805000Y-25660000D03*
X121805000Y-22580000D03*
X122205000Y-25660000D03*
X122205000Y-22580000D03*
X122605000Y-25660000D03*
X122605000Y-22580000D03*
X123005000Y-25660000D03*
X123005000Y-22580000D03*
X123405000Y-25660000D03*
X123405000Y-22580000D03*
X123805000Y-25660000D03*
X123805000Y-22580000D03*
X124205000Y-25660000D03*
X124205000Y-22580000D03*
X124605000Y-25660000D03*
X124605000Y-22580000D03*
X125005000Y-25660000D03*
X125005000Y-22580000D03*
X125405000Y-25660000D03*
X125405000Y-22580000D03*
X125805000Y-25660000D03*
X125805000Y-22580000D03*
X126205000Y-25660000D03*
X126205000Y-22580000D03*
X126605000Y-25660000D03*
X126605000Y-22580000D03*
X127005000Y-25660000D03*
X127005000Y-22580000D03*
X127405000Y-25660000D03*
X127405000Y-22580000D03*
X127805000Y-25660000D03*
X127805000Y-22580000D03*
X128205000Y-25660000D03*
X128205000Y-22580000D03*
X128605000Y-25660000D03*
X128605000Y-22580000D03*
X129005000Y-25660000D03*
X129005000Y-22580000D03*
X129405000Y-25660000D03*
X129405000Y-22580000D03*
X129805000Y-25660000D03*
X129805000Y-22580000D03*
%TD*%
D28*
%TO.C,R43*%
X79670000Y-60945000D03*
X79670000Y-62595000D03*
%TD*%
D24*
%TO.C,ZZ9*%
X118005000Y-108375000D03*
X118005000Y-111455000D03*
X117605000Y-108375000D03*
X117605000Y-111455000D03*
X117205000Y-108375000D03*
X117205000Y-111455000D03*
X116805000Y-108375000D03*
X116805000Y-111455000D03*
X116405000Y-108375000D03*
X116405000Y-111455000D03*
X116005000Y-108375000D03*
X116005000Y-111455000D03*
X115605000Y-108375000D03*
X115605000Y-111455000D03*
X115205000Y-108375000D03*
X115205000Y-111455000D03*
X114805000Y-108375000D03*
X114805000Y-111455000D03*
X114405000Y-108375000D03*
X114405000Y-111455000D03*
X114005000Y-108375000D03*
X114005000Y-111455000D03*
X113605000Y-108375000D03*
X113605000Y-111455000D03*
X113205000Y-108375000D03*
X113205000Y-111455000D03*
X112805000Y-108375000D03*
X112805000Y-111455000D03*
X112405000Y-108375000D03*
X112405000Y-111455000D03*
X112005000Y-108375000D03*
X112005000Y-111455000D03*
X111605000Y-108375000D03*
X111605000Y-111455000D03*
X111205000Y-108375000D03*
X111205000Y-111455000D03*
X110805000Y-108375000D03*
X110805000Y-111455000D03*
X110405000Y-108375000D03*
X110405000Y-111455000D03*
X110005000Y-108375000D03*
X110005000Y-111455000D03*
X109605000Y-108375000D03*
X109605000Y-111455000D03*
X109205000Y-108375000D03*
X109205000Y-111455000D03*
X108805000Y-108375000D03*
X108805000Y-111455000D03*
X108405000Y-108375000D03*
X108405000Y-111455000D03*
X108005000Y-108375000D03*
X108005000Y-111455000D03*
X107605000Y-108375000D03*
X107605000Y-111455000D03*
X107205000Y-108375000D03*
X107205000Y-111455000D03*
X106805000Y-108375000D03*
X106805000Y-111455000D03*
X106405000Y-108375000D03*
X106405000Y-111455000D03*
X106005000Y-108375000D03*
X106005000Y-111455000D03*
X105605000Y-108375000D03*
X105605000Y-111455000D03*
X105205000Y-108375000D03*
X105205000Y-111455000D03*
X104805000Y-108375000D03*
X104805000Y-111455000D03*
X104405000Y-108375000D03*
X104405000Y-111455000D03*
X104005000Y-108375000D03*
X104005000Y-111455000D03*
X103605000Y-108375000D03*
X103605000Y-111455000D03*
X103205000Y-108375000D03*
X103205000Y-111455000D03*
X102805000Y-108375000D03*
X102805000Y-111455000D03*
X102405000Y-108375000D03*
X102405000Y-111455000D03*
X102005000Y-108375000D03*
X102005000Y-111455000D03*
X101605000Y-108375000D03*
X101605000Y-111455000D03*
X101205000Y-108375000D03*
X101205000Y-111455000D03*
X100805000Y-108375000D03*
X100805000Y-111455000D03*
X100405000Y-108375000D03*
X100405000Y-111455000D03*
X100005000Y-108375000D03*
X100005000Y-111455000D03*
X99605000Y-108375000D03*
X99605000Y-111455000D03*
X99205000Y-108375000D03*
X99205000Y-111455000D03*
X98805000Y-108375000D03*
X98805000Y-111455000D03*
X98405000Y-108375000D03*
X98405000Y-111455000D03*
%TD*%
D28*
%TO.C,R22*%
X98060000Y-46905000D03*
X98060000Y-48555000D03*
%TD*%
D12*
%TO.C,C69*%
X102905000Y-84850000D03*
X101355000Y-84850000D03*
%TD*%
D42*
%TO.C,U9*%
X81790000Y-37560000D03*
X80090000Y-37560000D03*
X81790000Y-38920000D03*
X80090000Y-38920000D03*
D43*
X82845000Y-35677500D03*
X81575000Y-35677500D03*
X80305000Y-35677500D03*
X79035000Y-35677500D03*
X79035000Y-40802500D03*
X80305000Y-40802500D03*
X81575000Y-40802500D03*
X82845000Y-40802500D03*
%TD*%
D14*
%TO.C,C130*%
X64330000Y-137830000D03*
X64330000Y-136870000D03*
%TD*%
D19*
%TO.C,C68*%
X61200000Y-85220000D03*
X60240000Y-85220000D03*
%TD*%
D34*
%TO.C,L2*%
X82755000Y-46640000D03*
X86905000Y-46640000D03*
%TD*%
D17*
%TO.C,R42*%
X77810000Y-62595000D03*
X77810000Y-60945000D03*
%TD*%
D44*
%TO.C,C4*%
X75240000Y-21820000D03*
X75240000Y-19920000D03*
%TD*%
D45*
%TO.C,U22*%
X23990000Y-116700000D03*
X23340000Y-116700000D03*
X22690000Y-116700000D03*
X22690000Y-118600000D03*
X23990000Y-118600000D03*
%TD*%
D12*
%TO.C,C82*%
X51345000Y-91860000D03*
X49795000Y-91860000D03*
%TD*%
D28*
%TO.C,R137*%
X73960000Y-100105000D03*
X73960000Y-101755000D03*
%TD*%
D27*
%TO.C,C88*%
X103306375Y-95519631D03*
X103306375Y-97069631D03*
%TD*%
D46*
%TO.C,U6*%
X101542500Y-32100000D03*
X101542500Y-31450000D03*
X101542500Y-30800000D03*
X101542500Y-30150000D03*
X97317500Y-30150000D03*
X97317500Y-30800000D03*
X97317500Y-31450000D03*
X97317500Y-32100000D03*
%TD*%
D28*
%TO.C,R18*%
X78481666Y-44040000D03*
X78481666Y-45690000D03*
%TD*%
D12*
%TO.C,C74*%
X106279999Y-86700000D03*
X104729999Y-86700000D03*
%TD*%
D10*
%TO.C,C48*%
X29935000Y-76790000D03*
X31485000Y-76790000D03*
%TD*%
D16*
%TO.C,C22*%
X60390000Y-51560000D03*
X61350000Y-51560000D03*
%TD*%
D28*
%TO.C,R62*%
X72242500Y-103825000D03*
X72242500Y-105475000D03*
%TD*%
%TO.C,R6*%
X60510000Y-19674600D03*
X60510000Y-21324600D03*
%TD*%
D47*
%TO.C,R7*%
X100482500Y-24725000D03*
X98657500Y-24725000D03*
%TD*%
D19*
%TO.C,C59*%
X61200000Y-82690000D03*
X60240000Y-82690000D03*
%TD*%
D25*
%TO.C,C25*%
X86120000Y-53050000D03*
X88020000Y-53050000D03*
%TD*%
D28*
%TO.C,R61*%
X70501250Y-103825000D03*
X70501250Y-105475000D03*
%TD*%
D18*
%TO.C,D9*%
X117255000Y-148075000D03*
X119305000Y-148075000D03*
%TD*%
D48*
%TO.C,C128*%
X37280000Y-135140000D03*
X40355000Y-135140000D03*
%TD*%
D17*
%TO.C,R76*%
X12770000Y-122755000D03*
X12770000Y-121105000D03*
%TD*%
D20*
%TO.C,U17*%
X37170000Y-86590000D03*
X37170000Y-87240000D03*
X37170000Y-87890000D03*
X39070000Y-87890000D03*
X39070000Y-86590000D03*
%TD*%
D13*
%TO.C,R50*%
X18030000Y-93777500D03*
X18030000Y-95602500D03*
%TD*%
D28*
%TO.C,R65*%
X81147500Y-103825000D03*
X81147500Y-105475000D03*
%TD*%
D26*
%TO.C,R82*%
X125480000Y-130025000D03*
X123830000Y-130025000D03*
%TD*%
D27*
%TO.C,C97*%
X101280000Y-98750000D03*
X101280000Y-100300000D03*
%TD*%
D49*
%TO.C,Q1*%
X78665000Y-20480000D03*
X79795000Y-20480000D03*
X78665000Y-19770000D03*
X79795000Y-19770000D03*
D50*
X78255000Y-19000000D03*
X78905000Y-19000000D03*
X79555000Y-19000000D03*
X80205000Y-19000000D03*
X78255000Y-22000000D03*
X78905000Y-22000000D03*
X79555000Y-22000000D03*
X80205000Y-22000000D03*
%TD*%
D16*
%TO.C,C65*%
X38320000Y-84050000D03*
X39280000Y-84050000D03*
%TD*%
D26*
%TO.C,R31*%
X101175000Y-51740000D03*
X99525000Y-51740000D03*
%TD*%
D24*
%TO.C,ZZ4*%
X110205000Y-59610000D03*
X110205000Y-56530000D03*
X110605000Y-59610000D03*
X110605000Y-56530000D03*
X111005000Y-59610000D03*
X111005000Y-56530000D03*
X111405000Y-59610000D03*
X111405000Y-56530000D03*
X111805000Y-59610000D03*
X111805000Y-56530000D03*
X112205000Y-59610000D03*
X112205000Y-56530000D03*
X112605000Y-59610000D03*
X112605000Y-56530000D03*
X113005000Y-59610000D03*
X113005000Y-56530000D03*
X113405000Y-59610000D03*
X113405000Y-56530000D03*
X113805000Y-59610000D03*
X113805000Y-56530000D03*
X114205000Y-59610000D03*
X114205000Y-56530000D03*
X114605000Y-59610000D03*
X114605000Y-56530000D03*
X115005000Y-59610000D03*
X115005000Y-56530000D03*
X115405000Y-59610000D03*
X115405000Y-56530000D03*
X115805000Y-59610000D03*
X115805000Y-56530000D03*
X116205000Y-59610000D03*
X116205000Y-56530000D03*
X116605000Y-59610000D03*
X116605000Y-56530000D03*
X117005000Y-59610000D03*
X117005000Y-56530000D03*
X117405000Y-59610000D03*
X117405000Y-56530000D03*
X117805000Y-59610000D03*
X117805000Y-56530000D03*
X118205000Y-59610000D03*
X118205000Y-56530000D03*
X118605000Y-59610000D03*
X118605000Y-56530000D03*
X119005000Y-59610000D03*
X119005000Y-56530000D03*
X119405000Y-59610000D03*
X119405000Y-56530000D03*
X119805000Y-59610000D03*
X119805000Y-56530000D03*
X120205000Y-59610000D03*
X120205000Y-56530000D03*
X120605000Y-59610000D03*
X120605000Y-56530000D03*
X121005000Y-59610000D03*
X121005000Y-56530000D03*
X121405000Y-59610000D03*
X121405000Y-56530000D03*
X121805000Y-59610000D03*
X121805000Y-56530000D03*
X122205000Y-59610000D03*
X122205000Y-56530000D03*
X122605000Y-59610000D03*
X122605000Y-56530000D03*
X123005000Y-59610000D03*
X123005000Y-56530000D03*
X123405000Y-59610000D03*
X123405000Y-56530000D03*
X123805000Y-59610000D03*
X123805000Y-56530000D03*
X124205000Y-59610000D03*
X124205000Y-56530000D03*
X124605000Y-59610000D03*
X124605000Y-56530000D03*
X125005000Y-59610000D03*
X125005000Y-56530000D03*
X125405000Y-59610000D03*
X125405000Y-56530000D03*
X125805000Y-59610000D03*
X125805000Y-56530000D03*
X126205000Y-59610000D03*
X126205000Y-56530000D03*
X126605000Y-59610000D03*
X126605000Y-56530000D03*
X127005000Y-59610000D03*
X127005000Y-56530000D03*
X127405000Y-59610000D03*
X127405000Y-56530000D03*
X127805000Y-59610000D03*
X127805000Y-56530000D03*
X128205000Y-59610000D03*
X128205000Y-56530000D03*
X128605000Y-59610000D03*
X128605000Y-56530000D03*
X129005000Y-59610000D03*
X129005000Y-56530000D03*
X129405000Y-59610000D03*
X129405000Y-56530000D03*
X129805000Y-59610000D03*
X129805000Y-56530000D03*
%TD*%
D36*
%TO.C,C19*%
X80283332Y-45640000D03*
X80283332Y-44090000D03*
%TD*%
D10*
%TO.C,C50*%
X29935000Y-78420000D03*
X31485000Y-78420000D03*
%TD*%
D19*
%TO.C,C115*%
X27033732Y-123870000D03*
X26073732Y-123870000D03*
%TD*%
D27*
%TO.C,C99*%
X105355000Y-98725000D03*
X105355000Y-100275000D03*
%TD*%
%TO.C,C10*%
X60590000Y-35195000D03*
X60590000Y-36745000D03*
%TD*%
D36*
%TO.C,C116*%
X98820000Y-125865000D03*
X98820000Y-124315000D03*
%TD*%
D16*
%TO.C,C20*%
X96700000Y-45420000D03*
X97660000Y-45420000D03*
%TD*%
D31*
%TO.C,D4*%
X123750000Y-4565000D03*
X123750000Y-2515000D03*
%TD*%
D24*
%TO.C,ZZ6*%
X110200000Y-68505000D03*
X110200000Y-65425000D03*
X110600000Y-68505000D03*
X110600000Y-65425000D03*
X111000000Y-68505000D03*
X111000000Y-65425000D03*
X111400000Y-68505000D03*
X111400000Y-65425000D03*
X111800000Y-68505000D03*
X111800000Y-65425000D03*
X112200000Y-68505000D03*
X112200000Y-65425000D03*
X112600000Y-68505000D03*
X112600000Y-65425000D03*
X113000000Y-68505000D03*
X113000000Y-65425000D03*
X113400000Y-68505000D03*
X113400000Y-65425000D03*
X113800000Y-68505000D03*
X113800000Y-65425000D03*
X114200000Y-68505000D03*
X114200000Y-65425000D03*
X114600000Y-68505000D03*
X114600000Y-65425000D03*
X115000000Y-68505000D03*
X115000000Y-65425000D03*
X115400000Y-68505000D03*
X115400000Y-65425000D03*
X115800000Y-68505000D03*
X115800000Y-65425000D03*
X116200000Y-68505000D03*
X116200000Y-65425000D03*
X116600000Y-68505000D03*
X116600000Y-65425000D03*
X117000000Y-68505000D03*
X117000000Y-65425000D03*
X117400000Y-68505000D03*
X117400000Y-65425000D03*
X117800000Y-68505000D03*
X117800000Y-65425000D03*
X118200000Y-68505000D03*
X118200000Y-65425000D03*
X118600000Y-68505000D03*
X118600000Y-65425000D03*
X119000000Y-68505000D03*
X119000000Y-65425000D03*
X119400000Y-68505000D03*
X119400000Y-65425000D03*
X119800000Y-68505000D03*
X119800000Y-65425000D03*
X120200000Y-68505000D03*
X120200000Y-65425000D03*
X120600000Y-68505000D03*
X120600000Y-65425000D03*
X121000000Y-68505000D03*
X121000000Y-65425000D03*
X121400000Y-68505000D03*
X121400000Y-65425000D03*
X121800000Y-68505000D03*
X121800000Y-65425000D03*
X122200000Y-68505000D03*
X122200000Y-65425000D03*
X122600000Y-68505000D03*
X122600000Y-65425000D03*
X123000000Y-68505000D03*
X123000000Y-65425000D03*
X123400000Y-68505000D03*
X123400000Y-65425000D03*
X123800000Y-68505000D03*
X123800000Y-65425000D03*
X124200000Y-68505000D03*
X124200000Y-65425000D03*
X124600000Y-68505000D03*
X124600000Y-65425000D03*
X125000000Y-68505000D03*
X125000000Y-65425000D03*
X125400000Y-68505000D03*
X125400000Y-65425000D03*
X125800000Y-68505000D03*
X125800000Y-65425000D03*
X126200000Y-68505000D03*
X126200000Y-65425000D03*
X126600000Y-68505000D03*
X126600000Y-65425000D03*
X127000000Y-68505000D03*
X127000000Y-65425000D03*
X127400000Y-68505000D03*
X127400000Y-65425000D03*
X127800000Y-68505000D03*
X127800000Y-65425000D03*
X128200000Y-68505000D03*
X128200000Y-65425000D03*
X128600000Y-68505000D03*
X128600000Y-65425000D03*
X129000000Y-68505000D03*
X129000000Y-65425000D03*
X129400000Y-68505000D03*
X129400000Y-65425000D03*
X129800000Y-68505000D03*
X129800000Y-65425000D03*
%TD*%
D19*
%TO.C,C31*%
X38910000Y-61670000D03*
X37950000Y-61670000D03*
%TD*%
D17*
%TO.C,R3*%
X92480000Y-8775000D03*
X92480000Y-7125000D03*
%TD*%
D26*
%TO.C,R32*%
X115955000Y-53125000D03*
X114305000Y-53125000D03*
%TD*%
%TO.C,R71*%
X94995000Y-110420000D03*
X93345000Y-110420000D03*
%TD*%
D28*
%TO.C,R60*%
X68760000Y-103825000D03*
X68760000Y-105475000D03*
%TD*%
D17*
%TO.C,R91*%
X42860000Y-143165000D03*
X42860000Y-141515000D03*
%TD*%
D10*
%TO.C,C36*%
X29935000Y-74180000D03*
X31485000Y-74180000D03*
%TD*%
D28*
%TO.C,R84*%
X100570000Y-130595000D03*
X100570000Y-132245000D03*
%TD*%
%TO.C,R16*%
X62423333Y-44025000D03*
X62423333Y-45675000D03*
%TD*%
D36*
%TO.C,C18*%
X64271666Y-45625000D03*
X64271666Y-44075000D03*
%TD*%
D14*
%TO.C,C40*%
X69880000Y-76080000D03*
X69880000Y-75120000D03*
%TD*%
D16*
%TO.C,C5*%
X20080000Y-21900000D03*
X21040000Y-21900000D03*
%TD*%
D29*
%TO.C,J24*%
X78680000Y-141563250D03*
X78180000Y-141563250D03*
X77680000Y-141563250D03*
X77180000Y-141563250D03*
X76680000Y-141563250D03*
X76180000Y-141563250D03*
X75680000Y-141563250D03*
X75180000Y-141563250D03*
X74680000Y-141563250D03*
X74180000Y-141563250D03*
X73680000Y-141563250D03*
X73180000Y-141563250D03*
X72680000Y-141563250D03*
X72180000Y-141563250D03*
X71680000Y-141563250D03*
X71180000Y-141563250D03*
X70680000Y-141563250D03*
X70180000Y-141563250D03*
X69680000Y-141563250D03*
%TD*%
D35*
%TO.C,C17*%
X88170000Y-41115000D03*
X88170000Y-38165000D03*
%TD*%
D16*
%TO.C,C104*%
X46980000Y-101800000D03*
X47940000Y-101800000D03*
%TD*%
D35*
%TO.C,C28*%
X69930000Y-58605000D03*
X69930000Y-55655000D03*
%TD*%
D16*
%TO.C,C107*%
X8080000Y-115440000D03*
X9040000Y-115440000D03*
%TD*%
D37*
%TO.C,U2*%
X47220000Y-15610000D03*
X47720000Y-15610000D03*
D38*
X48220000Y-15610000D03*
D37*
X48720000Y-15610000D03*
X49220000Y-15610000D03*
X49220000Y-14840000D03*
X48720000Y-14840000D03*
D38*
X48220000Y-14840000D03*
D37*
X47720000Y-14840000D03*
X47220000Y-14840000D03*
%TD*%
D20*
%TO.C,U14*%
X129350000Y-82210000D03*
X129350000Y-82860000D03*
X129350000Y-83510000D03*
X131250000Y-83510000D03*
X131250000Y-82210000D03*
%TD*%
D15*
%TO.C,R8*%
X98760000Y-27525000D03*
X100410000Y-27525000D03*
%TD*%
D14*
%TO.C,C39*%
X67430000Y-76080000D03*
X67430000Y-75120000D03*
%TD*%
D10*
%TO.C,C8*%
X60555000Y-33300000D03*
X62105000Y-33300000D03*
%TD*%
%TO.C,C9*%
X76655000Y-33180000D03*
X78205000Y-33180000D03*
%TD*%
D15*
%TO.C,R68*%
X126840000Y-106147500D03*
X128490000Y-106147500D03*
%TD*%
D26*
%TO.C,R57*%
X115592500Y-95975000D03*
X113942500Y-95975000D03*
%TD*%
D12*
%TO.C,C79*%
X51345000Y-90032858D03*
X49795000Y-90032858D03*
%TD*%
D17*
%TO.C,R1*%
X18810000Y-8775000D03*
X18810000Y-7125000D03*
%TD*%
D11*
%TO.C,C80*%
X61110000Y-90230000D03*
X61110000Y-91190000D03*
%TD*%
D24*
%TO.C,Module4*%
X110200000Y-102440000D03*
X110200000Y-99360000D03*
X110600000Y-102440000D03*
X110600000Y-99360000D03*
X111000000Y-102440000D03*
X111000000Y-99360000D03*
X111400000Y-102440000D03*
X111400000Y-99360000D03*
X111800000Y-102440000D03*
X111800000Y-99360000D03*
X112200000Y-102440000D03*
X112200000Y-99360000D03*
X112600000Y-102440000D03*
X112600000Y-99360000D03*
X113000000Y-102440000D03*
X113000000Y-99360000D03*
X113400000Y-102440000D03*
X113400000Y-99360000D03*
X113800000Y-102440000D03*
X113800000Y-99360000D03*
X114200000Y-102440000D03*
X114200000Y-99360000D03*
X114600000Y-102440000D03*
X114600000Y-99360000D03*
X115000000Y-102440000D03*
X115000000Y-99360000D03*
X115400000Y-102440000D03*
X115400000Y-99360000D03*
X115800000Y-102440000D03*
X115800000Y-99360000D03*
X116200000Y-102440000D03*
X116200000Y-99360000D03*
X116600000Y-102440000D03*
X116600000Y-99360000D03*
X117000000Y-102440000D03*
X117000000Y-99360000D03*
X117400000Y-102440000D03*
X117400000Y-99360000D03*
X117800000Y-102440000D03*
X117800000Y-99360000D03*
X118200000Y-102440000D03*
X118200000Y-99360000D03*
X118600000Y-102440000D03*
X118600000Y-99360000D03*
X119000000Y-102440000D03*
X119000000Y-99360000D03*
X119400000Y-102440000D03*
X119400000Y-99360000D03*
X119800000Y-102440000D03*
X119800000Y-99360000D03*
X120200000Y-102440000D03*
X120200000Y-99360000D03*
X120600000Y-102440000D03*
X120600000Y-99360000D03*
X121000000Y-102440000D03*
X121000000Y-99360000D03*
X121400000Y-102440000D03*
X121400000Y-99360000D03*
X121800000Y-102440000D03*
X121800000Y-99360000D03*
X122200000Y-102440000D03*
X122200000Y-99360000D03*
X122600000Y-102440000D03*
X122600000Y-99360000D03*
X123000000Y-102440000D03*
X123000000Y-99360000D03*
X123400000Y-102440000D03*
X123400000Y-99360000D03*
X123800000Y-102440000D03*
X123800000Y-99360000D03*
X124200000Y-102440000D03*
X124200000Y-99360000D03*
X124600000Y-102440000D03*
X124600000Y-99360000D03*
X125000000Y-102440000D03*
X125000000Y-99360000D03*
X125400000Y-102440000D03*
X125400000Y-99360000D03*
X125800000Y-102440000D03*
X125800000Y-99360000D03*
X126200000Y-102440000D03*
X126200000Y-99360000D03*
X126600000Y-102440000D03*
X126600000Y-99360000D03*
X127000000Y-102440000D03*
X127000000Y-99360000D03*
X127400000Y-102440000D03*
X127400000Y-99360000D03*
X127800000Y-102440000D03*
X127800000Y-99360000D03*
X128200000Y-102440000D03*
X128200000Y-99360000D03*
X128600000Y-102440000D03*
X128600000Y-99360000D03*
X129000000Y-102440000D03*
X129000000Y-99360000D03*
X129400000Y-102440000D03*
X129400000Y-99360000D03*
X129800000Y-102440000D03*
X129800000Y-99360000D03*
X110200000Y-68520000D03*
X110200000Y-65440000D03*
X110600000Y-68520000D03*
X110600000Y-65440000D03*
X111000000Y-68520000D03*
X111000000Y-65440000D03*
X111400000Y-68520000D03*
X111400000Y-65440000D03*
X111800000Y-68520000D03*
X111800000Y-65440000D03*
X112200000Y-68520000D03*
X112200000Y-65440000D03*
X112600000Y-68520000D03*
X112600000Y-65440000D03*
X113000000Y-68520000D03*
X113000000Y-65440000D03*
X113400000Y-68520000D03*
X113400000Y-65440000D03*
X113800000Y-68520000D03*
X113800000Y-65440000D03*
X114200000Y-68520000D03*
X114200000Y-65440000D03*
X114600000Y-68520000D03*
X114600000Y-65440000D03*
X115000000Y-68520000D03*
X115000000Y-65440000D03*
X115400000Y-68520000D03*
X115400000Y-65440000D03*
X115800000Y-68520000D03*
X115800000Y-65440000D03*
X116200000Y-68520000D03*
X116200000Y-65440000D03*
X116600000Y-68520000D03*
X116600000Y-65440000D03*
X117000000Y-68520000D03*
X117000000Y-65440000D03*
X117400000Y-68520000D03*
X117400000Y-65440000D03*
X117800000Y-68520000D03*
X117800000Y-65440000D03*
X118200000Y-68520000D03*
X118200000Y-65440000D03*
X118600000Y-68520000D03*
X118600000Y-65440000D03*
X119000000Y-68520000D03*
X119000000Y-65440000D03*
X119400000Y-68520000D03*
X119400000Y-65440000D03*
X119800000Y-68520000D03*
X119800000Y-65440000D03*
X120200000Y-68520000D03*
X120200000Y-65440000D03*
X120600000Y-68520000D03*
X120600000Y-65440000D03*
X121000000Y-68520000D03*
X121000000Y-65440000D03*
X121400000Y-68520000D03*
X121400000Y-65440000D03*
X121800000Y-68520000D03*
X121800000Y-65440000D03*
X122200000Y-68520000D03*
X122200000Y-65440000D03*
X122600000Y-68520000D03*
X122600000Y-65440000D03*
X123000000Y-68520000D03*
X123000000Y-65440000D03*
X123400000Y-68520000D03*
X123400000Y-65440000D03*
X123800000Y-68520000D03*
X123800000Y-65440000D03*
X124200000Y-68520000D03*
X124200000Y-65440000D03*
X124600000Y-68520000D03*
X124600000Y-65440000D03*
X125000000Y-68520000D03*
X125000000Y-65440000D03*
X125400000Y-68520000D03*
X125400000Y-65440000D03*
X125800000Y-68520000D03*
X125800000Y-65440000D03*
X126200000Y-68520000D03*
X126200000Y-65440000D03*
X126600000Y-68520000D03*
X126600000Y-65440000D03*
X127000000Y-68520000D03*
X127000000Y-65440000D03*
X127400000Y-68520000D03*
X127400000Y-65440000D03*
X127800000Y-68520000D03*
X127800000Y-65440000D03*
X128200000Y-68520000D03*
X128200000Y-65440000D03*
X128600000Y-68520000D03*
X128600000Y-65440000D03*
X129000000Y-68520000D03*
X129000000Y-65440000D03*
X129400000Y-68520000D03*
X129400000Y-65440000D03*
X129800000Y-68520000D03*
X129800000Y-65440000D03*
%TD*%
D13*
%TO.C,R58*%
X98200000Y-103417500D03*
X98200000Y-105242500D03*
%TD*%
D15*
%TO.C,R12*%
X92655000Y-36500000D03*
X94305000Y-36500000D03*
%TD*%
D17*
%TO.C,R78*%
X19850713Y-122755000D03*
X19850713Y-121105000D03*
%TD*%
D22*
%TO.C,J21*%
X143612500Y-121555150D03*
X140920100Y-121055151D03*
X143612500Y-120555149D03*
X140920100Y-120055150D03*
X143612500Y-119555151D03*
X140920100Y-119055150D03*
X143612500Y-118555151D03*
X140920100Y-118055149D03*
X143612500Y-117555150D03*
X140920100Y-117055151D03*
X143612500Y-116555150D03*
X140920100Y-116055150D03*
X143612500Y-115555149D03*
X140920100Y-115055150D03*
X143612500Y-114555151D03*
X140920100Y-114055149D03*
X143612500Y-113555150D03*
X140920100Y-113055149D03*
X143612500Y-112555150D03*
X140920100Y-112055151D03*
X143612500Y-111555149D03*
X140920100Y-111055150D03*
D23*
X140920100Y-110056750D03*
X140920100Y-122553550D03*
X143612500Y-110056750D03*
X143612500Y-122553550D03*
%TD*%
D28*
%TO.C,R66*%
X82888750Y-103825000D03*
X82888750Y-105475000D03*
%TD*%
D35*
%TO.C,C15*%
X71890000Y-41065000D03*
X71890000Y-38115000D03*
%TD*%
D51*
%TO.C,SW1*%
X81394999Y-66540001D03*
X86645001Y-66540001D03*
X81394999Y-69739999D03*
X86645001Y-69739999D03*
%TD*%
D26*
%TO.C,R73*%
X13695000Y-118350000D03*
X12045000Y-118350000D03*
%TD*%
D52*
%TO.C,U29*%
X94265000Y-136122500D03*
X95535000Y-136122500D03*
X96805000Y-136122500D03*
X98075000Y-136122500D03*
X98075000Y-131172500D03*
X96805000Y-131172500D03*
X95535000Y-131172500D03*
X94265000Y-131172500D03*
%TD*%
D26*
%TO.C,R39*%
X101175000Y-59720000D03*
X99525000Y-59720000D03*
%TD*%
D12*
%TO.C,C67*%
X51335000Y-85100006D03*
X49785000Y-85100006D03*
%TD*%
D35*
%TO.C,C30*%
X86520000Y-58645000D03*
X86520000Y-55695000D03*
%TD*%
D14*
%TO.C,C43*%
X74590000Y-76080000D03*
X74590000Y-75120000D03*
%TD*%
D16*
%TO.C,C119*%
X21740000Y-127720000D03*
X22700000Y-127720000D03*
%TD*%
D14*
%TO.C,C134*%
X125430000Y-142810000D03*
X125430000Y-141850000D03*
%TD*%
%TO.C,C46*%
X79770000Y-76080000D03*
X79770000Y-75120000D03*
%TD*%
D42*
%TO.C,U11*%
X65970000Y-55060000D03*
X64270000Y-55060000D03*
X65970000Y-56420000D03*
X64270000Y-56420000D03*
D43*
X67025000Y-53177500D03*
X65755000Y-53177500D03*
X64485000Y-53177500D03*
X63215000Y-53177500D03*
X63215000Y-58302500D03*
X64485000Y-58302500D03*
X65755000Y-58302500D03*
X67025000Y-58302500D03*
%TD*%
D17*
%TO.C,R80*%
X56310000Y-128945000D03*
X56310000Y-127295000D03*
%TD*%
D14*
%TO.C,C122*%
X53970000Y-128030000D03*
X53970000Y-127070000D03*
%TD*%
D16*
%TO.C,C60*%
X88020000Y-83180000D03*
X88980000Y-83180000D03*
%TD*%
D14*
%TO.C,C45*%
X78580000Y-76080000D03*
X78580000Y-75120000D03*
%TD*%
D10*
%TO.C,C35*%
X29935000Y-72540000D03*
X31485000Y-72540000D03*
%TD*%
D44*
%TO.C,C3*%
X63400000Y-21669600D03*
X63400000Y-19769600D03*
%TD*%
D13*
%TO.C,R24*%
X121920000Y-48977500D03*
X121920000Y-50802500D03*
%TD*%
D17*
%TO.C,R38*%
X77800000Y-58815000D03*
X77800000Y-57165000D03*
%TD*%
D47*
%TO.C,R72*%
X95082500Y-112220000D03*
X93257500Y-112220000D03*
%TD*%
D48*
%TO.C,C2*%
X21092500Y-18532500D03*
X24167500Y-18532500D03*
%TD*%
D28*
%TO.C,R41*%
X62300000Y-61455000D03*
X62300000Y-63105000D03*
%TD*%
D24*
%TO.C,ZZ8*%
X110200000Y-102455000D03*
X110200000Y-99375000D03*
X110600000Y-102455000D03*
X110600000Y-99375000D03*
X111000000Y-102455000D03*
X111000000Y-99375000D03*
X111400000Y-102455000D03*
X111400000Y-99375000D03*
X111800000Y-102455000D03*
X111800000Y-99375000D03*
X112200000Y-102455000D03*
X112200000Y-99375000D03*
X112600000Y-102455000D03*
X112600000Y-99375000D03*
X113000000Y-102455000D03*
X113000000Y-99375000D03*
X113400000Y-102455000D03*
X113400000Y-99375000D03*
X113800000Y-102455000D03*
X113800000Y-99375000D03*
X114200000Y-102455000D03*
X114200000Y-99375000D03*
X114600000Y-102455000D03*
X114600000Y-99375000D03*
X115000000Y-102455000D03*
X115000000Y-99375000D03*
X115400000Y-102455000D03*
X115400000Y-99375000D03*
X115800000Y-102455000D03*
X115800000Y-99375000D03*
X116200000Y-102455000D03*
X116200000Y-99375000D03*
X116600000Y-102455000D03*
X116600000Y-99375000D03*
X117000000Y-102455000D03*
X117000000Y-99375000D03*
X117400000Y-102455000D03*
X117400000Y-99375000D03*
X117800000Y-102455000D03*
X117800000Y-99375000D03*
X118200000Y-102455000D03*
X118200000Y-99375000D03*
X118600000Y-102455000D03*
X118600000Y-99375000D03*
X119000000Y-102455000D03*
X119000000Y-99375000D03*
X119400000Y-102455000D03*
X119400000Y-99375000D03*
X119800000Y-102455000D03*
X119800000Y-99375000D03*
X120200000Y-102455000D03*
X120200000Y-99375000D03*
X120600000Y-102455000D03*
X120600000Y-99375000D03*
X121000000Y-102455000D03*
X121000000Y-99375000D03*
X121400000Y-102455000D03*
X121400000Y-99375000D03*
X121800000Y-102455000D03*
X121800000Y-99375000D03*
X122200000Y-102455000D03*
X122200000Y-99375000D03*
X122600000Y-102455000D03*
X122600000Y-99375000D03*
X123000000Y-102455000D03*
X123000000Y-99375000D03*
X123400000Y-102455000D03*
X123400000Y-99375000D03*
X123800000Y-102455000D03*
X123800000Y-99375000D03*
X124200000Y-102455000D03*
X124200000Y-99375000D03*
X124600000Y-102455000D03*
X124600000Y-99375000D03*
X125000000Y-102455000D03*
X125000000Y-99375000D03*
X125400000Y-102455000D03*
X125400000Y-99375000D03*
X125800000Y-102455000D03*
X125800000Y-99375000D03*
X126200000Y-102455000D03*
X126200000Y-99375000D03*
X126600000Y-102455000D03*
X126600000Y-99375000D03*
X127000000Y-102455000D03*
X127000000Y-99375000D03*
X127400000Y-102455000D03*
X127400000Y-99375000D03*
X127800000Y-102455000D03*
X127800000Y-99375000D03*
X128200000Y-102455000D03*
X128200000Y-99375000D03*
X128600000Y-102455000D03*
X128600000Y-99375000D03*
X129000000Y-102455000D03*
X129000000Y-99375000D03*
X129400000Y-102455000D03*
X129400000Y-99375000D03*
X129800000Y-102455000D03*
X129800000Y-99375000D03*
%TD*%
D26*
%TO.C,R35*%
X101175000Y-55500000D03*
X99525000Y-55500000D03*
%TD*%
D16*
%TO.C,C53*%
X126640000Y-79810000D03*
X127600000Y-79810000D03*
%TD*%
D24*
%TO.C,Module3*%
X110205000Y-59600000D03*
X110205000Y-56520000D03*
X110605000Y-59600000D03*
X110605000Y-56520000D03*
X111005000Y-59600000D03*
X111005000Y-56520000D03*
X111405000Y-59600000D03*
X111405000Y-56520000D03*
X111805000Y-59600000D03*
X111805000Y-56520000D03*
X112205000Y-59600000D03*
X112205000Y-56520000D03*
X112605000Y-59600000D03*
X112605000Y-56520000D03*
X113005000Y-59600000D03*
X113005000Y-56520000D03*
X113405000Y-59600000D03*
X113405000Y-56520000D03*
X113805000Y-59600000D03*
X113805000Y-56520000D03*
X114205000Y-59600000D03*
X114205000Y-56520000D03*
X114605000Y-59600000D03*
X114605000Y-56520000D03*
X115005000Y-59600000D03*
X115005000Y-56520000D03*
X115405000Y-59600000D03*
X115405000Y-56520000D03*
X115805000Y-59600000D03*
X115805000Y-56520000D03*
X116205000Y-59600000D03*
X116205000Y-56520000D03*
X116605000Y-59600000D03*
X116605000Y-56520000D03*
X117005000Y-59600000D03*
X117005000Y-56520000D03*
X117405000Y-59600000D03*
X117405000Y-56520000D03*
X117805000Y-59600000D03*
X117805000Y-56520000D03*
X118205000Y-59600000D03*
X118205000Y-56520000D03*
X118605000Y-59600000D03*
X118605000Y-56520000D03*
X119005000Y-59600000D03*
X119005000Y-56520000D03*
X119405000Y-59600000D03*
X119405000Y-56520000D03*
X119805000Y-59600000D03*
X119805000Y-56520000D03*
X120205000Y-59600000D03*
X120205000Y-56520000D03*
X120605000Y-59600000D03*
X120605000Y-56520000D03*
X121005000Y-59600000D03*
X121005000Y-56520000D03*
X121405000Y-59600000D03*
X121405000Y-56520000D03*
X121805000Y-59600000D03*
X121805000Y-56520000D03*
X122205000Y-59600000D03*
X122205000Y-56520000D03*
X122605000Y-59600000D03*
X122605000Y-56520000D03*
X123005000Y-59600000D03*
X123005000Y-56520000D03*
X123405000Y-59600000D03*
X123405000Y-56520000D03*
X123805000Y-59600000D03*
X123805000Y-56520000D03*
X124205000Y-59600000D03*
X124205000Y-56520000D03*
X124605000Y-59600000D03*
X124605000Y-56520000D03*
X125005000Y-59600000D03*
X125005000Y-56520000D03*
X125405000Y-59600000D03*
X125405000Y-56520000D03*
X125805000Y-59600000D03*
X125805000Y-56520000D03*
X126205000Y-59600000D03*
X126205000Y-56520000D03*
X126605000Y-59600000D03*
X126605000Y-56520000D03*
X127005000Y-59600000D03*
X127005000Y-56520000D03*
X127405000Y-59600000D03*
X127405000Y-56520000D03*
X127805000Y-59600000D03*
X127805000Y-56520000D03*
X128205000Y-59600000D03*
X128205000Y-56520000D03*
X128605000Y-59600000D03*
X128605000Y-56520000D03*
X129005000Y-59600000D03*
X129005000Y-56520000D03*
X129405000Y-59600000D03*
X129405000Y-56520000D03*
X129805000Y-59600000D03*
X129805000Y-56520000D03*
X110205000Y-25680000D03*
X110205000Y-22600000D03*
X110605000Y-25680000D03*
X110605000Y-22600000D03*
X111005000Y-25680000D03*
X111005000Y-22600000D03*
X111405000Y-25680000D03*
X111405000Y-22600000D03*
X111805000Y-25680000D03*
X111805000Y-22600000D03*
X112205000Y-25680000D03*
X112205000Y-22600000D03*
X112605000Y-25680000D03*
X112605000Y-22600000D03*
X113005000Y-25680000D03*
X113005000Y-22600000D03*
X113405000Y-25680000D03*
X113405000Y-22600000D03*
X113805000Y-25680000D03*
X113805000Y-22600000D03*
X114205000Y-25680000D03*
X114205000Y-22600000D03*
X114605000Y-25680000D03*
X114605000Y-22600000D03*
X115005000Y-25680000D03*
X115005000Y-22600000D03*
X115405000Y-25680000D03*
X115405000Y-22600000D03*
X115805000Y-25680000D03*
X115805000Y-22600000D03*
X116205000Y-25680000D03*
X116205000Y-22600000D03*
X116605000Y-25680000D03*
X116605000Y-22600000D03*
X117005000Y-25680000D03*
X117005000Y-22600000D03*
X117405000Y-25680000D03*
X117405000Y-22600000D03*
X117805000Y-25680000D03*
X117805000Y-22600000D03*
X118205000Y-25680000D03*
X118205000Y-22600000D03*
X118605000Y-25680000D03*
X118605000Y-22600000D03*
X119005000Y-25680000D03*
X119005000Y-22600000D03*
X119405000Y-25680000D03*
X119405000Y-22600000D03*
X119805000Y-25680000D03*
X119805000Y-22600000D03*
X120205000Y-25680000D03*
X120205000Y-22600000D03*
X120605000Y-25680000D03*
X120605000Y-22600000D03*
X121005000Y-25680000D03*
X121005000Y-22600000D03*
X121405000Y-25680000D03*
X121405000Y-22600000D03*
X121805000Y-25680000D03*
X121805000Y-22600000D03*
X122205000Y-25680000D03*
X122205000Y-22600000D03*
X122605000Y-25680000D03*
X122605000Y-22600000D03*
X123005000Y-25680000D03*
X123005000Y-22600000D03*
X123405000Y-25680000D03*
X123405000Y-22600000D03*
X123805000Y-25680000D03*
X123805000Y-22600000D03*
X124205000Y-25680000D03*
X124205000Y-22600000D03*
X124605000Y-25680000D03*
X124605000Y-22600000D03*
X125005000Y-25680000D03*
X125005000Y-22600000D03*
X125405000Y-25680000D03*
X125405000Y-22600000D03*
X125805000Y-25680000D03*
X125805000Y-22600000D03*
X126205000Y-25680000D03*
X126205000Y-22600000D03*
X126605000Y-25680000D03*
X126605000Y-22600000D03*
X127005000Y-25680000D03*
X127005000Y-22600000D03*
X127405000Y-25680000D03*
X127405000Y-22600000D03*
X127805000Y-25680000D03*
X127805000Y-22600000D03*
X128205000Y-25680000D03*
X128205000Y-22600000D03*
X128605000Y-25680000D03*
X128605000Y-22600000D03*
X129005000Y-25680000D03*
X129005000Y-22600000D03*
X129405000Y-25680000D03*
X129405000Y-22600000D03*
X129805000Y-25680000D03*
X129805000Y-22600000D03*
%TD*%
D31*
%TO.C,D3*%
X92475000Y-4565000D03*
X92475000Y-2515000D03*
%TD*%
D14*
%TO.C,C113*%
X14105561Y-122980000D03*
X14105561Y-122020000D03*
%TD*%
%TO.C,C42*%
X73460000Y-76080000D03*
X73460000Y-75120000D03*
%TD*%
D53*
%TO.C,U25*%
X15400000Y-129430000D03*
X16630000Y-129430000D03*
X17860000Y-129430000D03*
X15400000Y-128200000D03*
X16630000Y-128200000D03*
X17860000Y-128200000D03*
X15400000Y-126970000D03*
X16630000Y-126970000D03*
X17860000Y-126970000D03*
D54*
X14630000Y-131137500D03*
X15130000Y-131137500D03*
X15630000Y-131137500D03*
X16130000Y-131137500D03*
X16630000Y-131137500D03*
X17130000Y-131137500D03*
X17630000Y-131137500D03*
X18130000Y-131137500D03*
X18630000Y-131137500D03*
D55*
X19567500Y-130200000D03*
X19567500Y-129700000D03*
X19567500Y-129200000D03*
X19567500Y-128700000D03*
X19567500Y-128200000D03*
X19567500Y-127700000D03*
X19567500Y-127200000D03*
X19567500Y-126700000D03*
X19567500Y-126200000D03*
D54*
X18630000Y-125262500D03*
X18130000Y-125262500D03*
X17630000Y-125262500D03*
X17130000Y-125262500D03*
X16630000Y-125262500D03*
X16130000Y-125262500D03*
X15630000Y-125262500D03*
X15130000Y-125262500D03*
X14630000Y-125262500D03*
D55*
X13692500Y-126200000D03*
X13692500Y-126700000D03*
X13692500Y-127200000D03*
X13692500Y-127700000D03*
X13692500Y-128200000D03*
X13692500Y-128700000D03*
X13692500Y-129200000D03*
X13692500Y-129700000D03*
X13692500Y-130200000D03*
%TD*%
D27*
%TO.C,C89*%
X104899637Y-95519631D03*
X104899637Y-97069631D03*
%TD*%
D17*
%TO.C,R81*%
X32230000Y-130805000D03*
X32230000Y-129155000D03*
%TD*%
%TO.C,R4*%
X123755000Y-8775000D03*
X123755000Y-7125000D03*
%TD*%
D45*
%TO.C,U31*%
X123740000Y-140690000D03*
X123090000Y-140690000D03*
X122440000Y-140690000D03*
X122440000Y-142590000D03*
X123740000Y-142590000D03*
%TD*%
D27*
%TO.C,C86*%
X99255000Y-95500000D03*
X99255000Y-97050000D03*
%TD*%
D36*
%TO.C,C111*%
X18245152Y-122705000D03*
X18245152Y-121155000D03*
%TD*%
D37*
%TO.C,U30*%
X32480000Y-135035000D03*
X32980000Y-135035000D03*
D38*
X33480000Y-135035000D03*
D37*
X33980000Y-135035000D03*
X34480000Y-135035000D03*
X34480000Y-134265000D03*
X33980000Y-134265000D03*
D38*
X33480000Y-134265000D03*
D37*
X32980000Y-134265000D03*
X32480000Y-134265000D03*
%TD*%
D36*
%TO.C,C32*%
X64160000Y-63055000D03*
X64160000Y-61505000D03*
%TD*%
D21*
%TO.C,U5*%
X18820000Y-26412500D03*
X19770000Y-26412500D03*
X20720000Y-26412500D03*
X20720000Y-24137500D03*
X19770000Y-24137500D03*
X18820000Y-24137500D03*
%TD*%
D15*
%TO.C,R30*%
X92085000Y-51730000D03*
X93735000Y-51730000D03*
%TD*%
D11*
%TO.C,C93*%
X78290000Y-96810000D03*
X78290000Y-97770000D03*
%TD*%
D26*
%TO.C,R11*%
X94305000Y-34730000D03*
X92655000Y-34730000D03*
%TD*%
D10*
%TO.C,C117*%
X30705000Y-127050000D03*
X32255000Y-127050000D03*
%TD*%
D27*
%TO.C,C98*%
X102873262Y-98750000D03*
X102873262Y-100300000D03*
%TD*%
D10*
%TO.C,C55*%
X26605000Y-80615000D03*
X28155000Y-80615000D03*
%TD*%
D13*
%TO.C,R25*%
X17640000Y-51117500D03*
X17640000Y-52942500D03*
%TD*%
D17*
%TO.C,R92*%
X64305000Y-142950000D03*
X64305000Y-141300000D03*
%TD*%
D12*
%TO.C,C56*%
X102905000Y-81172142D03*
X101355000Y-81172142D03*
%TD*%
D16*
%TO.C,C64*%
X33730000Y-84050000D03*
X34690000Y-84050000D03*
%TD*%
D14*
%TO.C,C47*%
X81880000Y-76080000D03*
X81880000Y-75120000D03*
%TD*%
D28*
%TO.C,R64*%
X79406250Y-103825000D03*
X79406250Y-105475000D03*
%TD*%
D12*
%TO.C,C83*%
X51345000Y-93402858D03*
X49795000Y-93402858D03*
%TD*%
D20*
%TO.C,U13*%
X125480000Y-82210000D03*
X125480000Y-82860000D03*
X125480000Y-83510000D03*
X127380000Y-83510000D03*
X127380000Y-82210000D03*
%TD*%
D56*
%TO.C,C1*%
X79200000Y-14600000D03*
X79200000Y-16500000D03*
%TD*%
D28*
%TO.C,R21*%
X96290000Y-46905000D03*
X96290000Y-48555000D03*
%TD*%
D12*
%TO.C,C57*%
X51335000Y-81660006D03*
X49785000Y-81660006D03*
%TD*%
D17*
%TO.C,R14*%
X76680000Y-41235000D03*
X76680000Y-39585000D03*
%TD*%
D42*
%TO.C,U12*%
X82610000Y-55090000D03*
X80910000Y-55090000D03*
X82610000Y-56450000D03*
X80910000Y-56450000D03*
D43*
X83665000Y-53207500D03*
X82395000Y-53207500D03*
X81125000Y-53207500D03*
X79855000Y-53207500D03*
X79855000Y-58332500D03*
X81125000Y-58332500D03*
X82395000Y-58332500D03*
X83665000Y-58332500D03*
%TD*%
D57*
%TO.C,D7*%
X91032500Y-139560000D03*
X91032500Y-141460000D03*
X92907500Y-140510000D03*
%TD*%
D28*
%TO.C,R27*%
X33890000Y-51035000D03*
X33890000Y-52685000D03*
%TD*%
D26*
%TO.C,R20*%
X79565000Y-47910000D03*
X77915000Y-47910000D03*
%TD*%
D36*
%TO.C,C133*%
X14370000Y-140995000D03*
X14370000Y-139445000D03*
%TD*%
D13*
%TO.C,R51*%
X20660000Y-93797500D03*
X20660000Y-95622500D03*
%TD*%
D25*
%TO.C,C11*%
X68990000Y-35510000D03*
X70890000Y-35510000D03*
%TD*%
D12*
%TO.C,C72*%
X51335000Y-86642858D03*
X49785000Y-86642858D03*
%TD*%
D27*
%TO.C,C87*%
X100848268Y-95500000D03*
X100848268Y-97050000D03*
%TD*%
%TO.C,C132*%
X42867500Y-137600000D03*
X42867500Y-139150000D03*
%TD*%
D16*
%TO.C,C71*%
X88020000Y-85700000D03*
X88980000Y-85700000D03*
%TD*%
D10*
%TO.C,C38*%
X26640000Y-76265000D03*
X28190000Y-76265000D03*
%TD*%
D58*
%TO.C,Y1*%
X82150000Y-100100000D03*
X79950000Y-100100000D03*
X79950000Y-101800000D03*
X82150000Y-101800000D03*
%TD*%
D35*
%TO.C,C29*%
X72370000Y-58605000D03*
X72370000Y-55655000D03*
%TD*%
D16*
%TO.C,C109*%
X97840000Y-121140000D03*
X98800000Y-121140000D03*
%TD*%
D13*
%TO.C,R88*%
X100570000Y-134757500D03*
X100570000Y-136582500D03*
%TD*%
D31*
%TO.C,D1*%
X18750000Y-4565000D03*
X18750000Y-2515000D03*
%TD*%
D13*
%TO.C,R53*%
X40040000Y-93797500D03*
X40040000Y-95622500D03*
%TD*%
D29*
%TO.C,J2*%
X55005000Y-8219750D03*
X55505000Y-8219750D03*
X56005000Y-8219750D03*
X56505000Y-8219750D03*
X57005000Y-8219750D03*
X57505000Y-8219750D03*
X58005000Y-8219750D03*
X58505000Y-8219750D03*
X59005000Y-8219750D03*
X59505000Y-8219750D03*
X60005000Y-8219750D03*
X60505000Y-8219750D03*
X61005000Y-8219750D03*
X61505000Y-8219750D03*
X62005000Y-8219750D03*
X62505000Y-8219750D03*
X63005000Y-8219750D03*
X63505000Y-8219750D03*
X64005000Y-8219750D03*
%TD*%
D59*
%TO.C,U7*%
X103715000Y-31750000D03*
X103715000Y-31250000D03*
X103715000Y-30750000D03*
X103715000Y-30250000D03*
X103715000Y-29750000D03*
X99315000Y-29750000D03*
X99315000Y-30250000D03*
X99315000Y-30750000D03*
X99315000Y-31250000D03*
X99315000Y-31750000D03*
%TD*%
D36*
%TO.C,C102*%
X77900000Y-101715000D03*
X77900000Y-100165000D03*
%TD*%
D37*
%TO.C,U4*%
X122295000Y-15610000D03*
X122795000Y-15610000D03*
D38*
X123295000Y-15610000D03*
D37*
X123795000Y-15610000D03*
X124295000Y-15610000D03*
X124295000Y-14840000D03*
X123795000Y-14840000D03*
D38*
X123295000Y-14840000D03*
D37*
X122795000Y-14840000D03*
X122295000Y-14840000D03*
%TD*%
D16*
%TO.C,C54*%
X130510000Y-79810000D03*
X131470000Y-79810000D03*
%TD*%
D12*
%TO.C,C70*%
X106279999Y-84540000D03*
X104729999Y-84540000D03*
%TD*%
D16*
%TO.C,C123*%
X93900000Y-128258750D03*
X94860000Y-128258750D03*
%TD*%
D14*
%TO.C,C124*%
X11425000Y-130230000D03*
X11425000Y-129270000D03*
%TD*%
D13*
%TO.C,R28*%
X36830000Y-51117500D03*
X36830000Y-52942500D03*
%TD*%
D26*
%TO.C,R56*%
X30430000Y-95775000D03*
X28780000Y-95775000D03*
%TD*%
D60*
%TO.C,U28*%
X21097000Y-134822000D03*
X21097000Y-134322000D03*
D61*
X21097000Y-133822000D03*
D60*
X21097000Y-133322000D03*
X21097000Y-132822000D03*
X20327000Y-132822000D03*
X20327000Y-133322000D03*
D61*
X20327000Y-133822000D03*
D60*
X20327000Y-134322000D03*
X20327000Y-134822000D03*
%TD*%
D28*
%TO.C,R67*%
X84630000Y-103825000D03*
X84630000Y-105475000D03*
%TD*%
D24*
%TO.C,ZZ5*%
X25201000Y-68495000D03*
X25201000Y-65415000D03*
X25601000Y-68495000D03*
X25601000Y-65415000D03*
X26001000Y-68495000D03*
X26001000Y-65415000D03*
X26401000Y-68495000D03*
X26401000Y-65415000D03*
X26801000Y-68495000D03*
X26801000Y-65415000D03*
X27201000Y-68495000D03*
X27201000Y-65415000D03*
X27601000Y-68495000D03*
X27601000Y-65415000D03*
X28001000Y-68495000D03*
X28001000Y-65415000D03*
X28401000Y-68495000D03*
X28401000Y-65415000D03*
X28801000Y-68495000D03*
X28801000Y-65415000D03*
X29201000Y-68495000D03*
X29201000Y-65415000D03*
X29601000Y-68495000D03*
X29601000Y-65415000D03*
X30001000Y-68495000D03*
X30001000Y-65415000D03*
X30401000Y-68495000D03*
X30401000Y-65415000D03*
X30801000Y-68495000D03*
X30801000Y-65415000D03*
X31201000Y-68495000D03*
X31201000Y-65415000D03*
X31601000Y-68495000D03*
X31601000Y-65415000D03*
X32001000Y-68495000D03*
X32001000Y-65415000D03*
X32401000Y-68495000D03*
X32401000Y-65415000D03*
X32801000Y-68495000D03*
X32801000Y-65415000D03*
X33201000Y-68495000D03*
X33201000Y-65415000D03*
X33601000Y-68495000D03*
X33601000Y-65415000D03*
X34001000Y-68495000D03*
X34001000Y-65415000D03*
X34401000Y-68495000D03*
X34401000Y-65415000D03*
X34801000Y-68495000D03*
X34801000Y-65415000D03*
X35201000Y-68495000D03*
X35201000Y-65415000D03*
X35601000Y-68495000D03*
X35601000Y-65415000D03*
X36001000Y-68495000D03*
X36001000Y-65415000D03*
X36401000Y-68495000D03*
X36401000Y-65415000D03*
X36801000Y-68495000D03*
X36801000Y-65415000D03*
X37201000Y-68495000D03*
X37201000Y-65415000D03*
X37601000Y-68495000D03*
X37601000Y-65415000D03*
X38001000Y-68495000D03*
X38001000Y-65415000D03*
X38401000Y-68495000D03*
X38401000Y-65415000D03*
X38801000Y-68495000D03*
X38801000Y-65415000D03*
X39201000Y-68495000D03*
X39201000Y-65415000D03*
X39601000Y-68495000D03*
X39601000Y-65415000D03*
X40001000Y-68495000D03*
X40001000Y-65415000D03*
X40401000Y-68495000D03*
X40401000Y-65415000D03*
X40801000Y-68495000D03*
X40801000Y-65415000D03*
X41201000Y-68495000D03*
X41201000Y-65415000D03*
X41601000Y-68495000D03*
X41601000Y-65415000D03*
X42001000Y-68495000D03*
X42001000Y-65415000D03*
X42401000Y-68495000D03*
X42401000Y-65415000D03*
X42801000Y-68495000D03*
X42801000Y-65415000D03*
X43201000Y-68495000D03*
X43201000Y-65415000D03*
X43601000Y-68495000D03*
X43601000Y-65415000D03*
X44001000Y-68495000D03*
X44001000Y-65415000D03*
X44401000Y-68495000D03*
X44401000Y-65415000D03*
X44801000Y-68495000D03*
X44801000Y-65415000D03*
%TD*%
%TO.C,Module2*%
X25200000Y-102440000D03*
X25200000Y-99360000D03*
X25600000Y-102440000D03*
X25600000Y-99360000D03*
X26000000Y-102440000D03*
X26000000Y-99360000D03*
X26400000Y-102440000D03*
X26400000Y-99360000D03*
X26800000Y-102440000D03*
X26800000Y-99360000D03*
X27200000Y-102440000D03*
X27200000Y-99360000D03*
X27600000Y-102440000D03*
X27600000Y-99360000D03*
X28000000Y-102440000D03*
X28000000Y-99360000D03*
X28400000Y-102440000D03*
X28400000Y-99360000D03*
X28800000Y-102440000D03*
X28800000Y-99360000D03*
X29200000Y-102440000D03*
X29200000Y-99360000D03*
X29600000Y-102440000D03*
X29600000Y-99360000D03*
X30000000Y-102440000D03*
X30000000Y-99360000D03*
X30400000Y-102440000D03*
X30400000Y-99360000D03*
X30800000Y-102440000D03*
X30800000Y-99360000D03*
X31200000Y-102440000D03*
X31200000Y-99360000D03*
X31600000Y-102440000D03*
X31600000Y-99360000D03*
X32000000Y-102440000D03*
X32000000Y-99360000D03*
X32400000Y-102440000D03*
X32400000Y-99360000D03*
X32800000Y-102440000D03*
X32800000Y-99360000D03*
X33200000Y-102440000D03*
X33200000Y-99360000D03*
X33600000Y-102440000D03*
X33600000Y-99360000D03*
X34000000Y-102440000D03*
X34000000Y-99360000D03*
X34400000Y-102440000D03*
X34400000Y-99360000D03*
X34800000Y-102440000D03*
X34800000Y-99360000D03*
X35200000Y-102440000D03*
X35200000Y-99360000D03*
X35600000Y-102440000D03*
X35600000Y-99360000D03*
X36000000Y-102440000D03*
X36000000Y-99360000D03*
X36400000Y-102440000D03*
X36400000Y-99360000D03*
X36800000Y-102440000D03*
X36800000Y-99360000D03*
X37200000Y-102440000D03*
X37200000Y-99360000D03*
X37600000Y-102440000D03*
X37600000Y-99360000D03*
X38000000Y-102440000D03*
X38000000Y-99360000D03*
X38400000Y-102440000D03*
X38400000Y-99360000D03*
X38800000Y-102440000D03*
X38800000Y-99360000D03*
X39200000Y-102440000D03*
X39200000Y-99360000D03*
X39600000Y-102440000D03*
X39600000Y-99360000D03*
X40000000Y-102440000D03*
X40000000Y-99360000D03*
X40400000Y-102440000D03*
X40400000Y-99360000D03*
X40800000Y-102440000D03*
X40800000Y-99360000D03*
X41200000Y-102440000D03*
X41200000Y-99360000D03*
X41600000Y-102440000D03*
X41600000Y-99360000D03*
X42000000Y-102440000D03*
X42000000Y-99360000D03*
X42400000Y-102440000D03*
X42400000Y-99360000D03*
X42800000Y-102440000D03*
X42800000Y-99360000D03*
X43200000Y-102440000D03*
X43200000Y-99360000D03*
X43600000Y-102440000D03*
X43600000Y-99360000D03*
X44000000Y-102440000D03*
X44000000Y-99360000D03*
X44400000Y-102440000D03*
X44400000Y-99360000D03*
X44800000Y-102440000D03*
X44800000Y-99360000D03*
X25200000Y-68520000D03*
X25200000Y-65440000D03*
X25600000Y-68520000D03*
X25600000Y-65440000D03*
X26000000Y-68520000D03*
X26000000Y-65440000D03*
X26400000Y-68520000D03*
X26400000Y-65440000D03*
X26800000Y-68520000D03*
X26800000Y-65440000D03*
X27200000Y-68520000D03*
X27200000Y-65440000D03*
X27600000Y-68520000D03*
X27600000Y-65440000D03*
X28000000Y-68520000D03*
X28000000Y-65440000D03*
X28400000Y-68520000D03*
X28400000Y-65440000D03*
X28800000Y-68520000D03*
X28800000Y-65440000D03*
X29200000Y-68520000D03*
X29200000Y-65440000D03*
X29600000Y-68520000D03*
X29600000Y-65440000D03*
X30000000Y-68520000D03*
X30000000Y-65440000D03*
X30400000Y-68520000D03*
X30400000Y-65440000D03*
X30800000Y-68520000D03*
X30800000Y-65440000D03*
X31200000Y-68520000D03*
X31200000Y-65440000D03*
X31600000Y-68520000D03*
X31600000Y-65440000D03*
X32000000Y-68520000D03*
X32000000Y-65440000D03*
X32400000Y-68520000D03*
X32400000Y-65440000D03*
X32800000Y-68520000D03*
X32800000Y-65440000D03*
X33200000Y-68520000D03*
X33200000Y-65440000D03*
X33600000Y-68520000D03*
X33600000Y-65440000D03*
X34000000Y-68520000D03*
X34000000Y-65440000D03*
X34400000Y-68520000D03*
X34400000Y-65440000D03*
X34800000Y-68520000D03*
X34800000Y-65440000D03*
X35200000Y-68520000D03*
X35200000Y-65440000D03*
X35600000Y-68520000D03*
X35600000Y-65440000D03*
X36000000Y-68520000D03*
X36000000Y-65440000D03*
X36400000Y-68520000D03*
X36400000Y-65440000D03*
X36800000Y-68520000D03*
X36800000Y-65440000D03*
X37200000Y-68520000D03*
X37200000Y-65440000D03*
X37600000Y-68520000D03*
X37600000Y-65440000D03*
X38000000Y-68520000D03*
X38000000Y-65440000D03*
X38400000Y-68520000D03*
X38400000Y-65440000D03*
X38800000Y-68520000D03*
X38800000Y-65440000D03*
X39200000Y-68520000D03*
X39200000Y-65440000D03*
X39600000Y-68520000D03*
X39600000Y-65440000D03*
X40000000Y-68520000D03*
X40000000Y-65440000D03*
X40400000Y-68520000D03*
X40400000Y-65440000D03*
X40800000Y-68520000D03*
X40800000Y-65440000D03*
X41200000Y-68520000D03*
X41200000Y-65440000D03*
X41600000Y-68520000D03*
X41600000Y-65440000D03*
X42000000Y-68520000D03*
X42000000Y-65440000D03*
X42400000Y-68520000D03*
X42400000Y-65440000D03*
X42800000Y-68520000D03*
X42800000Y-65440000D03*
X43200000Y-68520000D03*
X43200000Y-65440000D03*
X43600000Y-68520000D03*
X43600000Y-65440000D03*
X44000000Y-68520000D03*
X44000000Y-65440000D03*
X44400000Y-68520000D03*
X44400000Y-65440000D03*
X44800000Y-68520000D03*
X44800000Y-65440000D03*
%TD*%
D17*
%TO.C,R87*%
X11695000Y-135570000D03*
X11695000Y-133920000D03*
%TD*%
D12*
%TO.C,C110*%
X7845000Y-122020000D03*
X6295000Y-122020000D03*
%TD*%
D29*
%TO.C,J3*%
X98230000Y-8219750D03*
X98730000Y-8219750D03*
X99230000Y-8219750D03*
X99730000Y-8219750D03*
X100230000Y-8219750D03*
X100730000Y-8219750D03*
X101230000Y-8219750D03*
X101730000Y-8219750D03*
X102230000Y-8219750D03*
X102730000Y-8219750D03*
X103230000Y-8219750D03*
X103730000Y-8219750D03*
X104230000Y-8219750D03*
X104730000Y-8219750D03*
X105230000Y-8219750D03*
X105730000Y-8219750D03*
X106230000Y-8219750D03*
X106730000Y-8219750D03*
X107230000Y-8219750D03*
%TD*%
D28*
%TO.C,R9*%
X20720000Y-28975000D03*
X20720000Y-30625000D03*
%TD*%
D36*
%TO.C,C33*%
X81520000Y-62545000D03*
X81520000Y-60995000D03*
%TD*%
D15*
%TO.C,R10*%
X98745000Y-34275000D03*
X100395000Y-34275000D03*
%TD*%
D11*
%TO.C,C94*%
X79535000Y-96810000D03*
X79535000Y-97770000D03*
%TD*%
D26*
%TO.C,R48*%
X101175000Y-65130000D03*
X99525000Y-65130000D03*
%TD*%
D62*
%TO.C,U19*%
X83900000Y-78755000D03*
X83400000Y-78755000D03*
X82900000Y-78755000D03*
X82400000Y-78755000D03*
X81900000Y-78755000D03*
X81400000Y-78755000D03*
X80900000Y-78755000D03*
X80400000Y-78755000D03*
X79900000Y-78755000D03*
X79400000Y-78755000D03*
X78900000Y-78755000D03*
X78400000Y-78755000D03*
X77900000Y-78755000D03*
X77400000Y-78755000D03*
X76900000Y-78755000D03*
X76400000Y-78755000D03*
X75900000Y-78755000D03*
X75400000Y-78755000D03*
X74900000Y-78755000D03*
X74400000Y-78755000D03*
X73900000Y-78755000D03*
X73400000Y-78755000D03*
X72900000Y-78755000D03*
X72400000Y-78755000D03*
X71900000Y-78755000D03*
X71400000Y-78755000D03*
X70900000Y-78755000D03*
X70400000Y-78755000D03*
X69900000Y-78755000D03*
X69400000Y-78755000D03*
X68900000Y-78755000D03*
X68400000Y-78755000D03*
X67900000Y-78755000D03*
X67400000Y-78755000D03*
X66900000Y-78755000D03*
X66400000Y-78755000D03*
X65900000Y-78755000D03*
X65400000Y-78755000D03*
D63*
X63975000Y-80180000D03*
X63975000Y-80680000D03*
X63975000Y-81180000D03*
X63975000Y-81680000D03*
X63975000Y-82180000D03*
X63975000Y-82680000D03*
X63975000Y-83180000D03*
X63975000Y-83680000D03*
X63975000Y-84180000D03*
X63975000Y-84680000D03*
X63975000Y-85180000D03*
X63975000Y-85680000D03*
X63975000Y-86180000D03*
X63975000Y-86680000D03*
X63975000Y-87180000D03*
X63975000Y-87680000D03*
X63975000Y-88180000D03*
X63975000Y-88680000D03*
X63975000Y-89180000D03*
X63975000Y-89680000D03*
X63975000Y-90180000D03*
X63975000Y-90680000D03*
X63975000Y-91180000D03*
X63975000Y-91680000D03*
X63975000Y-92180000D03*
X63975000Y-92680000D03*
D62*
X65400000Y-94105000D03*
X65900000Y-94105000D03*
X66400000Y-94105000D03*
X66900000Y-94105000D03*
X67400000Y-94105000D03*
X67900000Y-94105000D03*
X68400000Y-94105000D03*
X68900000Y-94105000D03*
X69400000Y-94105000D03*
X69900000Y-94105000D03*
X70400000Y-94105000D03*
X70900000Y-94105000D03*
X71400000Y-94105000D03*
X71900000Y-94105000D03*
X72400000Y-94105000D03*
X72900000Y-94105000D03*
X73400000Y-94105000D03*
X73900000Y-94105000D03*
X74400000Y-94105000D03*
X74900000Y-94105000D03*
X75400000Y-94105000D03*
X75900000Y-94105000D03*
X76400000Y-94105000D03*
X76900000Y-94105000D03*
X77400000Y-94105000D03*
X77900000Y-94105000D03*
X78400000Y-94105000D03*
X78900000Y-94105000D03*
X79400000Y-94105000D03*
X79900000Y-94105000D03*
X80400000Y-94105000D03*
X80900000Y-94105000D03*
X81400000Y-94105000D03*
X81900000Y-94105000D03*
X82400000Y-94105000D03*
X82900000Y-94105000D03*
X83400000Y-94105000D03*
X83900000Y-94105000D03*
D63*
X85325000Y-92680000D03*
X85325000Y-92180000D03*
X85325000Y-91680000D03*
X85325000Y-91180000D03*
X85325000Y-90680000D03*
X85325000Y-90180000D03*
X85325000Y-89680000D03*
X85325000Y-89180000D03*
X85325000Y-88680000D03*
X85325000Y-88180000D03*
X85325000Y-87680000D03*
X85325000Y-87180000D03*
X85325000Y-86680000D03*
X85325000Y-86180000D03*
X85325000Y-85680000D03*
X85325000Y-85180000D03*
X85325000Y-84680000D03*
X85325000Y-84180000D03*
X85325000Y-83680000D03*
X85325000Y-83180000D03*
X85325000Y-82680000D03*
X85325000Y-82180000D03*
X85325000Y-81680000D03*
X85325000Y-81180000D03*
X85325000Y-80680000D03*
X85325000Y-80180000D03*
D64*
X76860000Y-84220000D03*
X74620000Y-84220000D03*
X72380000Y-84220000D03*
X76860000Y-86460000D03*
X74620000Y-86460000D03*
X72380000Y-86460000D03*
X76860000Y-88700000D03*
X74620000Y-88700000D03*
X72380000Y-88700000D03*
%TD*%
D16*
%TO.C,C63*%
X29540000Y-84050000D03*
X30500000Y-84050000D03*
%TD*%
D26*
%TO.C,R19*%
X62155000Y-48030000D03*
X60505000Y-48030000D03*
%TD*%
D14*
%TO.C,C105*%
X101260000Y-105560000D03*
X101260000Y-104600000D03*
%TD*%
D12*
%TO.C,C77*%
X106279999Y-88233568D03*
X104729999Y-88233568D03*
%TD*%
D11*
%TO.C,C21*%
X96010000Y-50630000D03*
X96010000Y-51590000D03*
%TD*%
D16*
%TO.C,C6*%
X101905000Y-27795000D03*
X102865000Y-27795000D03*
%TD*%
D17*
%TO.C,R77*%
X15574030Y-122755000D03*
X15574030Y-121105000D03*
%TD*%
D20*
%TO.C,U16*%
X32590000Y-86610000D03*
X32590000Y-87260000D03*
X32590000Y-87910000D03*
X34490000Y-87910000D03*
X34490000Y-86610000D03*
%TD*%
D65*
%TO.C,Y3*%
X97700000Y-139960000D03*
X95200000Y-139960000D03*
%TD*%
D17*
%TO.C,R13*%
X60590000Y-41235000D03*
X60590000Y-39585000D03*
%TD*%
D18*
%TO.C,D11*%
X135215000Y-148060000D03*
X137265000Y-148060000D03*
%TD*%
D66*
%TO.C,R5*%
X75310000Y-14792500D03*
X75310000Y-17717500D03*
%TD*%
D17*
%TO.C,R94*%
X64280000Y-146475000D03*
X64280000Y-144825000D03*
%TD*%
D67*
%TO.C,D5*%
X66234600Y-19719600D03*
X67184600Y-21719600D03*
X68134600Y-19719600D03*
%TD*%
D17*
%TO.C,R2*%
X48755000Y-8775000D03*
X48755000Y-7125000D03*
%TD*%
%TO.C,R79*%
X51630000Y-128965000D03*
X51630000Y-127315000D03*
%TD*%
D14*
%TO.C,C112*%
X11470000Y-122980000D03*
X11470000Y-122020000D03*
%TD*%
D15*
%TO.C,R69*%
X126835000Y-108100000D03*
X128485000Y-108100000D03*
%TD*%
D68*
%TO.C,D6*%
X5920000Y-117485000D03*
X5920000Y-119235000D03*
X9420000Y-119235000D03*
X9420000Y-117485000D03*
%TD*%
D15*
%TO.C,R70*%
X93345000Y-108720000D03*
X94995000Y-108720000D03*
%TD*%
D27*
%TO.C,C131*%
X11695000Y-137505000D03*
X11695000Y-139055000D03*
%TD*%
D58*
%TO.C,Y2*%
X8170000Y-123970000D03*
X5970000Y-123970000D03*
X5970000Y-125670000D03*
X8170000Y-125670000D03*
%TD*%
D29*
%TO.C,J1*%
X24530000Y-8219750D03*
X25030000Y-8219750D03*
X25530000Y-8219750D03*
X26030000Y-8219750D03*
X26530000Y-8219750D03*
X27030000Y-8219750D03*
X27530000Y-8219750D03*
X28030000Y-8219750D03*
X28530000Y-8219750D03*
X29030000Y-8219750D03*
X29530000Y-8219750D03*
X30030000Y-8219750D03*
X30530000Y-8219750D03*
X31030000Y-8219750D03*
X31530000Y-8219750D03*
X32030000Y-8219750D03*
X32530000Y-8219750D03*
X33030000Y-8219750D03*
X33530000Y-8219750D03*
%TD*%
D34*
%TO.C,L4*%
X66735000Y-64050000D03*
X70885000Y-64050000D03*
%TD*%
D37*
%TO.C,U3*%
X91057500Y-15610000D03*
X91557500Y-15610000D03*
D38*
X92057500Y-15610000D03*
D37*
X92557500Y-15610000D03*
X93057500Y-15610000D03*
X93057500Y-14840000D03*
X92557500Y-14840000D03*
D38*
X92057500Y-14840000D03*
D37*
X91557500Y-14840000D03*
X91057500Y-14840000D03*
%TD*%
D28*
%TO.C,R49*%
X77120000Y-74195000D03*
X77120000Y-75845000D03*
%TD*%
D26*
%TO.C,R45*%
X101175000Y-63460000D03*
X99525000Y-63460000D03*
%TD*%
D69*
%TO.C,U27*%
X36907500Y-128327500D03*
X35957500Y-128327500D03*
X35007500Y-128327500D03*
X35007500Y-130602500D03*
X35957500Y-130602500D03*
X36907500Y-130602500D03*
%TD*%
D27*
%TO.C,C12*%
X76680000Y-35245000D03*
X76680000Y-36795000D03*
%TD*%
D12*
%TO.C,C78*%
X51345000Y-88490006D03*
X49795000Y-88490006D03*
%TD*%
D28*
%TO.C,R95*%
X34040000Y-145595000D03*
X34040000Y-147245000D03*
%TD*%
D11*
%TO.C,C95*%
X80780000Y-96800000D03*
X80780000Y-97760000D03*
%TD*%
D69*
%TO.C,U23*%
X95720000Y-123382500D03*
X94770000Y-123382500D03*
X93820000Y-123382500D03*
X93820000Y-125657500D03*
X94770000Y-125657500D03*
X95720000Y-125657500D03*
%TD*%
D51*
%TO.C,SW2*%
X58994999Y-125460001D03*
X64245001Y-125460001D03*
X58994999Y-128659999D03*
X64245001Y-128659999D03*
%TD*%
D28*
%TO.C,R85*%
X25770000Y-132950000D03*
X25770000Y-134600000D03*
%TD*%
D14*
%TO.C,C41*%
X72330000Y-76080000D03*
X72330000Y-75120000D03*
%TD*%
D28*
%TO.C,R63*%
X73983750Y-103825000D03*
X73983750Y-105475000D03*
%TD*%
D24*
%TO.C,Module1*%
X25205000Y-59600000D03*
X25205000Y-56520000D03*
X25605000Y-59600000D03*
X25605000Y-56520000D03*
X26005000Y-59600000D03*
X26005000Y-56520000D03*
X26405000Y-59600000D03*
X26405000Y-56520000D03*
X26805000Y-59600000D03*
X26805000Y-56520000D03*
X27205000Y-59600000D03*
X27205000Y-56520000D03*
X27605000Y-59600000D03*
X27605000Y-56520000D03*
X28005000Y-59600000D03*
X28005000Y-56520000D03*
X28405000Y-59600000D03*
X28405000Y-56520000D03*
X28805000Y-59600000D03*
X28805000Y-56520000D03*
X29205000Y-59600000D03*
X29205000Y-56520000D03*
X29605000Y-59600000D03*
X29605000Y-56520000D03*
X30005000Y-59600000D03*
X30005000Y-56520000D03*
X30405000Y-59600000D03*
X30405000Y-56520000D03*
X30805000Y-59600000D03*
X30805000Y-56520000D03*
X31205000Y-59600000D03*
X31205000Y-56520000D03*
X31605000Y-59600000D03*
X31605000Y-56520000D03*
X32005000Y-59600000D03*
X32005000Y-56520000D03*
X32405000Y-59600000D03*
X32405000Y-56520000D03*
X32805000Y-59600000D03*
X32805000Y-56520000D03*
X33205000Y-59600000D03*
X33205000Y-56520000D03*
X33605000Y-59600000D03*
X33605000Y-56520000D03*
X34005000Y-59600000D03*
X34005000Y-56520000D03*
X34405000Y-59600000D03*
X34405000Y-56520000D03*
X34805000Y-59600000D03*
X34805000Y-56520000D03*
X35205000Y-59600000D03*
X35205000Y-56520000D03*
X35605000Y-59600000D03*
X35605000Y-56520000D03*
X36005000Y-59600000D03*
X36005000Y-56520000D03*
X36405000Y-59600000D03*
X36405000Y-56520000D03*
X36805000Y-59600000D03*
X36805000Y-56520000D03*
X37205000Y-59600000D03*
X37205000Y-56520000D03*
X37605000Y-59600000D03*
X37605000Y-56520000D03*
X38005000Y-59600000D03*
X38005000Y-56520000D03*
X38405000Y-59600000D03*
X38405000Y-56520000D03*
X38805000Y-59600000D03*
X38805000Y-56520000D03*
X39205000Y-59600000D03*
X39205000Y-56520000D03*
X39605000Y-59600000D03*
X39605000Y-56520000D03*
X40005000Y-59600000D03*
X40005000Y-56520000D03*
X40405000Y-59600000D03*
X40405000Y-56520000D03*
X40805000Y-59600000D03*
X40805000Y-56520000D03*
X41205000Y-59600000D03*
X41205000Y-56520000D03*
X41605000Y-59600000D03*
X41605000Y-56520000D03*
X42005000Y-59600000D03*
X42005000Y-56520000D03*
X42405000Y-59600000D03*
X42405000Y-56520000D03*
X42805000Y-59600000D03*
X42805000Y-56520000D03*
X43205000Y-59600000D03*
X43205000Y-56520000D03*
X43605000Y-59600000D03*
X43605000Y-56520000D03*
X44005000Y-59600000D03*
X44005000Y-56520000D03*
X44405000Y-59600000D03*
X44405000Y-56520000D03*
X44805000Y-59600000D03*
X44805000Y-56520000D03*
X25205000Y-25680000D03*
X25205000Y-22600000D03*
X25605000Y-25680000D03*
X25605000Y-22600000D03*
X26005000Y-25680000D03*
X26005000Y-22600000D03*
X26405000Y-25680000D03*
X26405000Y-22600000D03*
X26805000Y-25680000D03*
X26805000Y-22600000D03*
X27205000Y-25680000D03*
X27205000Y-22600000D03*
X27605000Y-25680000D03*
X27605000Y-22600000D03*
X28005000Y-25680000D03*
X28005000Y-22600000D03*
X28405000Y-25680000D03*
X28405000Y-22600000D03*
X28805000Y-25680000D03*
X28805000Y-22600000D03*
X29205000Y-25680000D03*
X29205000Y-22600000D03*
X29605000Y-25680000D03*
X29605000Y-22600000D03*
X30005000Y-25680000D03*
X30005000Y-22600000D03*
X30405000Y-25680000D03*
X30405000Y-22600000D03*
X30805000Y-25680000D03*
X30805000Y-22600000D03*
X31205000Y-25680000D03*
X31205000Y-22600000D03*
X31605000Y-25680000D03*
X31605000Y-22600000D03*
X32005000Y-25680000D03*
X32005000Y-22600000D03*
X32405000Y-25680000D03*
X32405000Y-22600000D03*
X32805000Y-25680000D03*
X32805000Y-22600000D03*
X33205000Y-25680000D03*
X33205000Y-22600000D03*
X33605000Y-25680000D03*
X33605000Y-22600000D03*
X34005000Y-25680000D03*
X34005000Y-22600000D03*
X34405000Y-25680000D03*
X34405000Y-22600000D03*
X34805000Y-25680000D03*
X34805000Y-22600000D03*
X35205000Y-25680000D03*
X35205000Y-22600000D03*
X35605000Y-25680000D03*
X35605000Y-22600000D03*
X36005000Y-25680000D03*
X36005000Y-22600000D03*
X36405000Y-25680000D03*
X36405000Y-22600000D03*
X36805000Y-25680000D03*
X36805000Y-22600000D03*
X37205000Y-25680000D03*
X37205000Y-22600000D03*
X37605000Y-25680000D03*
X37605000Y-22600000D03*
X38005000Y-25680000D03*
X38005000Y-22600000D03*
X38405000Y-25680000D03*
X38405000Y-22600000D03*
X38805000Y-25680000D03*
X38805000Y-22600000D03*
X39205000Y-25680000D03*
X39205000Y-22600000D03*
X39605000Y-25680000D03*
X39605000Y-22600000D03*
X40005000Y-25680000D03*
X40005000Y-22600000D03*
X40405000Y-25680000D03*
X40405000Y-22600000D03*
X40805000Y-25680000D03*
X40805000Y-22600000D03*
X41205000Y-25680000D03*
X41205000Y-22600000D03*
X41605000Y-25680000D03*
X41605000Y-22600000D03*
X42005000Y-25680000D03*
X42005000Y-22600000D03*
X42405000Y-25680000D03*
X42405000Y-22600000D03*
X42805000Y-25680000D03*
X42805000Y-22600000D03*
X43205000Y-25680000D03*
X43205000Y-22600000D03*
X43605000Y-25680000D03*
X43605000Y-22600000D03*
X44005000Y-25680000D03*
X44005000Y-22600000D03*
X44405000Y-25680000D03*
X44405000Y-22600000D03*
X44805000Y-25680000D03*
X44805000Y-22600000D03*
%TD*%
D11*
%TO.C,C91*%
X71380000Y-96820000D03*
X71380000Y-97780000D03*
%TD*%
%TO.C,C26*%
X60498750Y-53127500D03*
X60498750Y-54087500D03*
%TD*%
D26*
%TO.C,R75*%
X95815000Y-120870000D03*
X94165000Y-120870000D03*
%TD*%
D13*
%TO.C,R55*%
X125460000Y-93706500D03*
X125460000Y-95531500D03*
%TD*%
D16*
%TO.C,C66*%
X42480000Y-84050000D03*
X43440000Y-84050000D03*
%TD*%
%TO.C,C81*%
X88020000Y-90700000D03*
X88980000Y-90700000D03*
%TD*%
D11*
%TO.C,C96*%
X83880000Y-96820000D03*
X83880000Y-97780000D03*
%TD*%
D14*
%TO.C,C84*%
X97240000Y-94450000D03*
X97240000Y-93490000D03*
%TD*%
D24*
%TO.C,ZZ7*%
X25201000Y-102445000D03*
X25201000Y-99365000D03*
X25601000Y-102445000D03*
X25601000Y-99365000D03*
X26001000Y-102445000D03*
X26001000Y-99365000D03*
X26401000Y-102445000D03*
X26401000Y-99365000D03*
X26801000Y-102445000D03*
X26801000Y-99365000D03*
X27201000Y-102445000D03*
X27201000Y-99365000D03*
X27601000Y-102445000D03*
X27601000Y-99365000D03*
X28001000Y-102445000D03*
X28001000Y-99365000D03*
X28401000Y-102445000D03*
X28401000Y-99365000D03*
X28801000Y-102445000D03*
X28801000Y-99365000D03*
X29201000Y-102445000D03*
X29201000Y-99365000D03*
X29601000Y-102445000D03*
X29601000Y-99365000D03*
X30001000Y-102445000D03*
X30001000Y-99365000D03*
X30401000Y-102445000D03*
X30401000Y-99365000D03*
X30801000Y-102445000D03*
X30801000Y-99365000D03*
X31201000Y-102445000D03*
X31201000Y-99365000D03*
X31601000Y-102445000D03*
X31601000Y-99365000D03*
X32001000Y-102445000D03*
X32001000Y-99365000D03*
X32401000Y-102445000D03*
X32401000Y-99365000D03*
X32801000Y-102445000D03*
X32801000Y-99365000D03*
X33201000Y-102445000D03*
X33201000Y-99365000D03*
X33601000Y-102445000D03*
X33601000Y-99365000D03*
X34001000Y-102445000D03*
X34001000Y-99365000D03*
X34401000Y-102445000D03*
X34401000Y-99365000D03*
X34801000Y-102445000D03*
X34801000Y-99365000D03*
X35201000Y-102445000D03*
X35201000Y-99365000D03*
X35601000Y-102445000D03*
X35601000Y-99365000D03*
X36001000Y-102445000D03*
X36001000Y-99365000D03*
X36401000Y-102445000D03*
X36401000Y-99365000D03*
X36801000Y-102445000D03*
X36801000Y-99365000D03*
X37201000Y-102445000D03*
X37201000Y-99365000D03*
X37601000Y-102445000D03*
X37601000Y-99365000D03*
X38001000Y-102445000D03*
X38001000Y-99365000D03*
X38401000Y-102445000D03*
X38401000Y-99365000D03*
X38801000Y-102445000D03*
X38801000Y-99365000D03*
X39201000Y-102445000D03*
X39201000Y-99365000D03*
X39601000Y-102445000D03*
X39601000Y-99365000D03*
X40001000Y-102445000D03*
X40001000Y-99365000D03*
X40401000Y-102445000D03*
X40401000Y-99365000D03*
X40801000Y-102445000D03*
X40801000Y-99365000D03*
X41201000Y-102445000D03*
X41201000Y-99365000D03*
X41601000Y-102445000D03*
X41601000Y-99365000D03*
X42001000Y-102445000D03*
X42001000Y-99365000D03*
X42401000Y-102445000D03*
X42401000Y-99365000D03*
X42801000Y-102445000D03*
X42801000Y-99365000D03*
X43201000Y-102445000D03*
X43201000Y-99365000D03*
X43601000Y-102445000D03*
X43601000Y-99365000D03*
X44001000Y-102445000D03*
X44001000Y-99365000D03*
X44401000Y-102445000D03*
X44401000Y-99365000D03*
X44801000Y-102445000D03*
X44801000Y-99365000D03*
%TD*%
D17*
%TO.C,R15*%
X60590000Y-45675000D03*
X60590000Y-44025000D03*
%TD*%
D42*
%TO.C,U8*%
X65530000Y-37510000D03*
X63830000Y-37510000D03*
X65530000Y-38870000D03*
X63830000Y-38870000D03*
D43*
X66585000Y-35627500D03*
X65315000Y-35627500D03*
X64045000Y-35627500D03*
X62775000Y-35627500D03*
X62775000Y-40752500D03*
X64045000Y-40752500D03*
X65315000Y-40752500D03*
X66585000Y-40752500D03*
%TD*%
D19*
%TO.C,C75*%
X61210000Y-87700000D03*
X60250000Y-87700000D03*
%TD*%
D26*
%TO.C,R44*%
X101175000Y-61360000D03*
X99525000Y-61360000D03*
%TD*%
D24*
%TO.C,Module0*%
X118005000Y-108400000D03*
X118005000Y-111480000D03*
X117605000Y-108400000D03*
X117605000Y-111480000D03*
X117205000Y-108400000D03*
X117205000Y-111480000D03*
X116805000Y-108400000D03*
X116805000Y-111480000D03*
X116405000Y-108400000D03*
X116405000Y-111480000D03*
X116005000Y-108400000D03*
X116005000Y-111480000D03*
X115605000Y-108400000D03*
X115605000Y-111480000D03*
X115205000Y-108400000D03*
X115205000Y-111480000D03*
X114805000Y-108400000D03*
X114805000Y-111480000D03*
X114405000Y-108400000D03*
X114405000Y-111480000D03*
X114005000Y-108400000D03*
X114005000Y-111480000D03*
X113605000Y-108400000D03*
X113605000Y-111480000D03*
X113205000Y-108400000D03*
X113205000Y-111480000D03*
X112805000Y-108400000D03*
X112805000Y-111480000D03*
X112405000Y-108400000D03*
X112405000Y-111480000D03*
X112005000Y-108400000D03*
X112005000Y-111480000D03*
X111605000Y-108400000D03*
X111605000Y-111480000D03*
X111205000Y-108400000D03*
X111205000Y-111480000D03*
X110805000Y-108400000D03*
X110805000Y-111480000D03*
X110405000Y-108400000D03*
X110405000Y-111480000D03*
X110005000Y-108400000D03*
X110005000Y-111480000D03*
X109605000Y-108400000D03*
X109605000Y-111480000D03*
X109205000Y-108400000D03*
X109205000Y-111480000D03*
X108805000Y-108400000D03*
X108805000Y-111480000D03*
X108405000Y-108400000D03*
X108405000Y-111480000D03*
X108005000Y-108400000D03*
X108005000Y-111480000D03*
X107605000Y-108400000D03*
X107605000Y-111480000D03*
X107205000Y-108400000D03*
X107205000Y-111480000D03*
X106805000Y-108400000D03*
X106805000Y-111480000D03*
X106405000Y-108400000D03*
X106405000Y-111480000D03*
X106005000Y-108400000D03*
X106005000Y-111480000D03*
X105605000Y-108400000D03*
X105605000Y-111480000D03*
X105205000Y-108400000D03*
X105205000Y-111480000D03*
X104805000Y-108400000D03*
X104805000Y-111480000D03*
X104405000Y-108400000D03*
X104405000Y-111480000D03*
X104005000Y-108400000D03*
X104005000Y-111480000D03*
X103605000Y-108400000D03*
X103605000Y-111480000D03*
X103205000Y-108400000D03*
X103205000Y-111480000D03*
X102805000Y-108400000D03*
X102805000Y-111480000D03*
X102405000Y-108400000D03*
X102405000Y-111480000D03*
X102005000Y-108400000D03*
X102005000Y-111480000D03*
X101605000Y-108400000D03*
X101605000Y-111480000D03*
X101205000Y-108400000D03*
X101205000Y-111480000D03*
X100805000Y-108400000D03*
X100805000Y-111480000D03*
X100405000Y-108400000D03*
X100405000Y-111480000D03*
X100005000Y-108400000D03*
X100005000Y-111480000D03*
X99605000Y-108400000D03*
X99605000Y-111480000D03*
X99205000Y-108400000D03*
X99205000Y-111480000D03*
X98805000Y-108400000D03*
X98805000Y-111480000D03*
X98405000Y-108400000D03*
X98405000Y-111480000D03*
X118005000Y-142320000D03*
X118005000Y-145400000D03*
X117605000Y-142320000D03*
X117605000Y-145400000D03*
X117205000Y-142320000D03*
X117205000Y-145400000D03*
X116805000Y-142320000D03*
X116805000Y-145400000D03*
X116405000Y-142320000D03*
X116405000Y-145400000D03*
X116005000Y-142320000D03*
X116005000Y-145400000D03*
X115605000Y-142320000D03*
X115605000Y-145400000D03*
X115205000Y-142320000D03*
X115205000Y-145400000D03*
X114805000Y-142320000D03*
X114805000Y-145400000D03*
X114405000Y-142320000D03*
X114405000Y-145400000D03*
X114005000Y-142320000D03*
X114005000Y-145400000D03*
X113605000Y-142320000D03*
X113605000Y-145400000D03*
X113205000Y-142320000D03*
X113205000Y-145400000D03*
X112805000Y-142320000D03*
X112805000Y-145400000D03*
X112405000Y-142320000D03*
X112405000Y-145400000D03*
X112005000Y-142320000D03*
X112005000Y-145400000D03*
X111605000Y-142320000D03*
X111605000Y-145400000D03*
X111205000Y-142320000D03*
X111205000Y-145400000D03*
X110805000Y-142320000D03*
X110805000Y-145400000D03*
X110405000Y-142320000D03*
X110405000Y-145400000D03*
X110005000Y-142320000D03*
X110005000Y-145400000D03*
X109605000Y-142320000D03*
X109605000Y-145400000D03*
X109205000Y-142320000D03*
X109205000Y-145400000D03*
X108805000Y-142320000D03*
X108805000Y-145400000D03*
X108405000Y-142320000D03*
X108405000Y-145400000D03*
X108005000Y-142320000D03*
X108005000Y-145400000D03*
X107605000Y-142320000D03*
X107605000Y-145400000D03*
X107205000Y-142320000D03*
X107205000Y-145400000D03*
X106805000Y-142320000D03*
X106805000Y-145400000D03*
X106405000Y-142320000D03*
X106405000Y-145400000D03*
X106005000Y-142320000D03*
X106005000Y-145400000D03*
X105605000Y-142320000D03*
X105605000Y-145400000D03*
X105205000Y-142320000D03*
X105205000Y-145400000D03*
X104805000Y-142320000D03*
X104805000Y-145400000D03*
X104405000Y-142320000D03*
X104405000Y-145400000D03*
X104005000Y-142320000D03*
X104005000Y-145400000D03*
X103605000Y-142320000D03*
X103605000Y-145400000D03*
X103205000Y-142320000D03*
X103205000Y-145400000D03*
X102805000Y-142320000D03*
X102805000Y-145400000D03*
X102405000Y-142320000D03*
X102405000Y-145400000D03*
X102005000Y-142320000D03*
X102005000Y-145400000D03*
X101605000Y-142320000D03*
X101605000Y-145400000D03*
X101205000Y-142320000D03*
X101205000Y-145400000D03*
X100805000Y-142320000D03*
X100805000Y-145400000D03*
X100405000Y-142320000D03*
X100405000Y-145400000D03*
X100005000Y-142320000D03*
X100005000Y-145400000D03*
X99605000Y-142320000D03*
X99605000Y-145400000D03*
X99205000Y-142320000D03*
X99205000Y-145400000D03*
X98805000Y-142320000D03*
X98805000Y-145400000D03*
X98405000Y-142320000D03*
X98405000Y-145400000D03*
%TD*%
D35*
%TO.C,C16*%
X85740000Y-41115000D03*
X85740000Y-38165000D03*
%TD*%
D45*
%TO.C,U10*%
X93640000Y-47550000D03*
X92990000Y-47550000D03*
X92340000Y-47550000D03*
X92340000Y-49450000D03*
X93640000Y-49450000D03*
%TD*%
D12*
%TO.C,C61*%
X102905000Y-82705715D03*
X101355000Y-82705715D03*
%TD*%
D19*
%TO.C,C51*%
X61175000Y-80125000D03*
X60215000Y-80125000D03*
%TD*%
M02*
